<svg width="283" height="42" viewBox="0 0 283 42" fill="none" xmlns="http://www.w3.org/2000/svg">
<path d="M121.293 3.57633C125.438 3.7663 129.297 4.77864 132.378 7.91185C133.128 8.67411 133.185 9.23919 132.428 10.0039C131.673 10.7661 130.979 11.6005 130.319 12.4494C129.679 13.2741 129.143 13.3487 128.264 12.6682C125.807 10.7685 123.058 9.62874 119.878 9.94856C118.451 10.0928 117.171 10.5786 116.271 11.7761C115.311 13.0481 115.33 14.7842 116.552 15.7821C117.541 16.5901 118.741 17.2249 119.949 17.6457C122.148 18.4128 124.457 18.8649 126.653 19.644C128.054 20.1393 129.417 20.8607 130.655 21.6951C135.334 24.8451 135.925 33.2973 129.579 37.301C123.489 41.1412 113.707 40.2274 108.521 35.2379C107.049 33.8216 107.046 33.6604 108.469 32.1816C109.131 31.4915 109.831 30.8326 110.453 30.1064C111.065 29.3923 111.563 29.3129 112.33 29.9694C115.132 32.3668 118.389 33.5739 122.081 33.319C123.087 33.2493 124.133 33.0016 125.05 32.588C127.296 31.5732 127.763 28.5843 125.829 27.0405C124.719 26.1532 123.287 25.6098 121.924 25.1289C119.616 24.3113 117.212 23.7631 114.913 22.9238C111.344 21.6205 108.623 19.4323 108.38 15.2459C108.106 10.6555 110.131 7.32512 114.124 5.18021C116.349 3.98512 118.772 3.65809 121.295 3.57633H121.293Z" fill="#028484"/>
<path d="M269.198 39.7032C262.421 39.7273 256.844 35.2258 255.755 28.7863C254.492 21.3296 259.207 14.6784 266.664 13.3944C273.287 12.2546 279.212 15.1786 281.818 20.8703C285.301 28.4761 280.748 37.5944 272.61 39.2608C271.49 39.4892 270.335 39.559 269.198 39.7008V39.7032ZM275.9 26.2374C275.891 26.045 275.886 25.5641 275.836 25.088C275.49 21.7432 273.31 19.5069 270.028 19.1197C266.699 18.7254 264.103 20.286 263.057 23.4072C262.757 24.3017 262.626 25.2731 262.54 26.2182C262.247 29.4908 264.007 32.5615 266.816 33.3286C272.327 34.8363 275.907 31.4674 275.9 26.2374Z" fill="#028484"/>
<path d="M172.737 28.5362C173.011 31.114 175.243 33.3911 177.79 33.8288C180.468 34.288 182.905 33.6051 185.13 32.1503C186.021 31.5684 186.693 31.5853 187.431 32.3259C188.051 32.9439 188.735 33.4945 189.378 34.0909C189.997 34.6632 190.004 35.1922 189.34 35.7909C187.084 37.8228 184.456 39.0612 181.476 39.4195C176.513 40.0158 172.006 38.8977 168.675 34.9421C165.242 30.8615 164.995 26.0811 166.86 21.2815C168.654 16.6694 172.256 14.0797 177.109 13.3968C181.845 12.7307 185.928 14.0412 188.918 17.9583C191.076 20.7885 191.553 24.1382 191.429 27.6104C191.393 28.6324 190.643 28.541 189.966 28.541C184.611 28.541 179.255 28.541 173.9 28.5386C173.516 28.5386 173.133 28.5386 172.737 28.5386V28.5362ZM184.546 24.0588C184.47 20.7669 181.533 18.5378 177.888 18.8552C175.072 19.0981 172.62 21.6903 172.961 24.0588H184.549H184.546Z" fill="#028484"/>
<path d="M155.234 35.8751C154.672 36.4907 154.255 37.0077 153.776 37.4621C149.507 41.5163 139.751 40.7252 138.038 32.5279C137.836 31.5588 137.807 30.5393 137.802 29.5437C137.783 24.7754 137.824 20.0071 137.788 15.2363C137.781 14.1687 138.093 13.6877 139.208 13.743C140.514 13.8056 141.826 13.7334 143.137 13.743C144.647 13.7575 144.776 13.8777 144.795 15.3782C144.857 19.8652 144.864 24.3546 144.971 28.8392C145.054 32.2778 146.522 33.6749 149.819 33.6412C152.952 33.6099 155.236 31.5131 155.27 28.5074C155.32 24.2199 155.284 19.9325 155.289 15.6427C155.289 13.8777 155.47 13.7046 157.188 13.719C158.419 13.7286 159.649 13.7334 160.88 13.7286C161.736 13.7262 162.167 14.034 162.164 15.0031C162.145 22.5776 162.157 30.1521 162.188 37.7242C162.193 38.7125 161.831 39.0877 160.849 39.0444C159.541 38.9867 158.224 38.9674 156.921 39.0564C155.849 39.1309 155.372 38.7366 155.367 37.6641C155.365 37.1231 155.286 36.5821 155.229 35.8703L155.234 35.8751Z" fill="#028484"/>
<path d="M209.128 19.4251C208.215 19.4251 207.431 19.4011 206.648 19.4323C205.904 19.4612 205.54 19.1726 205.554 18.3887C205.575 17.148 205.578 15.9048 205.554 14.664C205.54 13.9089 205.93 13.6877 206.595 13.7022C207.384 13.719 208.175 13.707 209.132 13.707C209.132 11.8674 209.18 10.0784 209.113 8.29417C209.073 7.21691 209.397 6.75522 210.526 6.82255C211.87 6.90431 213.225 6.89229 214.571 6.82496C215.629 6.77205 216.079 7.09427 216.022 8.24608C215.936 9.99664 216.001 11.7568 216.001 13.707C217.766 13.707 219.453 13.7046 221.139 13.707C222.852 13.7094 222.888 13.7454 222.895 15.4239C222.9 16.3039 222.845 17.1888 222.909 18.0665C222.983 19.1053 222.604 19.5069 221.551 19.454C220.127 19.3794 218.695 19.4275 217.268 19.4323C216.88 19.4323 216.494 19.4708 215.993 19.4973C215.993 21.9355 215.993 24.2873 215.993 26.6414C215.993 28.0433 215.967 29.4452 216.001 30.847C216.041 32.5639 216.768 33.3406 218.469 33.4152C219.536 33.4609 220.613 33.4152 221.678 33.3238C222.54 33.2517 222.938 33.5114 222.898 34.4347C222.852 35.5144 222.852 36.5989 222.9 37.6785C222.94 38.5779 222.473 39.0492 221.702 39.2007C218.557 39.8259 215.467 39.7249 212.556 38.2076C209.978 36.8658 209.206 34.4708 209.151 31.7872C209.078 28.1443 209.13 24.4989 209.13 20.8535C209.13 20.4254 209.13 19.995 209.13 19.4251H209.128Z" fill="#028484"/>
<path d="M240.1 19.4299C239.364 19.4299 238.814 19.4323 238.264 19.4299C237.23 19.4235 236.71 18.8793 236.703 17.7972C236.701 16.8354 236.768 15.8711 236.703 14.9165C236.637 13.9258 237.084 13.642 237.971 13.6973C238.635 13.7382 239.302 13.7046 240.103 13.7046C240.103 11.7953 240.143 9.96539 240.086 8.13788C240.055 7.13996 240.42 6.78408 241.399 6.82737C242.785 6.88989 244.177 6.8971 245.563 6.82977C246.621 6.77927 247.071 7.09428 247.016 8.24368C246.931 9.99665 246.995 11.7592 246.995 13.6997C248.732 13.6997 250.418 13.7046 252.105 13.6997C253.706 13.6949 253.813 13.7863 253.823 15.3661C253.83 16.328 253.801 17.2874 253.813 18.2493C253.823 19.0909 253.489 19.4684 252.601 19.4444C250.788 19.3939 248.972 19.4299 247.002 19.4299C247.002 20.4375 247.002 21.3055 247.002 22.1712C247.002 24.8548 246.983 27.5359 247.005 30.2194C247.028 32.8862 247.598 33.4392 250.254 33.4152C251.085 33.408 251.922 33.3815 252.748 33.2901C253.48 33.2084 253.799 33.5114 253.789 34.2063C253.773 35.4471 253.811 36.6975 253.658 37.9214C253.606 38.3494 253.127 38.9674 252.732 39.0708C249.437 39.9293 246.192 39.7922 243.219 37.9743C241.032 36.6374 240.172 34.4468 240.124 31.9628C240.058 28.2813 240.1 24.5975 240.098 20.9136C240.098 20.4784 240.098 20.0431 240.098 19.4348L240.1 19.4299Z" fill="#028484"/>
<path d="M202.478 21.4041C202.478 26.6895 202.478 31.9772 202.478 37.2626C202.478 39.0348 202.471 39.0348 200.673 39.0348C199.324 39.0348 197.973 39.0107 196.625 39.0396C195.729 39.0588 195.324 38.6981 195.327 37.7651C195.343 26.8338 195.346 15.9 195.341 4.9686C195.341 4.07649 195.672 3.64607 196.611 3.67011C198.078 3.70859 199.551 3.73263 201.013 3.64607C202.188 3.57874 202.519 4.06687 202.512 5.18502C202.476 10.5906 202.495 15.9962 202.495 21.4041H202.481H202.478Z" fill="#028484"/>
<path d="M226.781 26.247C226.781 22.5632 226.809 18.8793 226.764 15.1954C226.75 14.1037 227.138 13.6661 228.215 13.707C229.601 13.7599 230.99 13.7502 232.379 13.7334C233.368 13.719 233.821 14.135 233.816 15.1666C233.785 22.6137 233.768 30.0607 233.771 37.5078C233.771 38.5971 233.435 39.1357 232.243 39.0492C230.981 38.9578 229.706 39.0324 228.436 39.0348C226.914 39.0348 226.788 38.9265 226.783 37.4165C226.774 33.6917 226.781 29.9694 226.783 26.2446L226.781 26.247Z" fill="#028484"/>
<path d="M234.092 6.78889C234.109 8.9819 232.584 10.4776 230.314 10.5016C228.055 10.5233 226.352 8.92419 226.352 6.78167C226.352 4.68004 228.027 3.03529 230.178 3.02807C232.417 3.01846 234.078 4.61271 234.092 6.79129V6.78889Z" fill="#028484"/>
<path d="M43.8465 34.9704C43.4967 38.2697 41.766 40.3763 38.855 41.1256C35.5415 41.9787 32.0377 40.5552 30.5552 37.7446C30.1064 36.8929 29.8698 35.9867 29.9148 35.0067C29.9444 34.3481 30.1553 33.7984 30.6362 33.3382C33.9702 30.1504 35.8334 26.164 36.7476 21.6927C37.8611 16.2466 36.6704 11.2023 33.933 6.47954C33.2232 5.25445 32.3617 4.11492 31.5375 2.95983C30.55 1.57788 31.0142 0.389086 32.6922 0.120733C33.1551 0.0468386 33.6282 0.00535408 34.0975 0.00535408C46.8694 0.000168509 59.6425 -0.00631345 72.4144 0.0131324C73.5883 0.0144288 74.7674 0.127215 75.9323 0.282782C77.5023 0.492798 78.8434 1.24859 80.0584 2.2533C81.6721 3.58599 82.9193 5.20778 83.9364 7.03958C85.9551 10.6747 87.9931 14.2994 90.0735 17.8995C91.205 19.857 91.7708 21.9325 91.7541 24.1921C91.7399 26.0071 91.7631 27.8233 91.7733 29.6383C91.7772 30.21 91.9264 30.7039 92.2877 31.1901C92.973 32.1105 92.7068 33.1347 92.3314 34.0888C92.0305 34.8511 91.268 34.9392 90.5917 34.9483C88.3853 34.9781 86.1776 34.9613 83.9711 34.9263C83.0518 34.912 83.0518 34.8705 82.9296 33.9345C82.4642 30.3967 80.0044 27.5239 76.6922 26.8848C73.7297 26.3143 71.1967 27.205 69.2474 29.5929C68.1571 30.9295 67.4679 32.4307 67.4267 34.1886C67.4126 34.7668 67.1889 34.9872 66.5665 34.9846C60.009 34.9613 53.4514 34.9704 46.8938 34.9704C45.8755 34.9704 44.8558 34.9704 43.8478 34.9704H43.8465ZM54.7565 19.3099H54.7861C54.7861 22.9606 54.7758 26.6099 54.7912 30.2606C54.7963 31.6594 55.0844 31.9329 56.4499 31.9368C58.3349 31.942 60.2186 31.9251 62.1035 31.9316C63.9088 31.9381 64.3871 32.1274 64.3897 29.6085C64.3974 22.5457 64.3961 15.483 64.3923 8.42024C64.3923 8.10003 64.3511 7.77334 64.283 7.46091C64.1531 6.86716 63.7661 6.48861 63.1643 6.48343C60.7882 6.46268 58.4107 6.45361 56.0333 6.48861C55.2515 6.50028 54.9082 6.90475 54.8041 7.7137C54.7681 7.99113 54.7565 8.27374 54.7565 8.55247C54.7539 12.1383 54.7539 15.7228 54.7539 19.3086L54.7565 19.3099ZM87.174 16.839C87.1368 16.6731 87.1355 16.6057 87.1072 16.5525C85.3984 13.3919 83.7075 10.2209 81.9447 7.09143C81.7518 6.74919 81.1372 6.46917 80.7142 6.46398C77.1152 6.41861 73.5163 6.43676 69.9173 6.45231C69.0713 6.4562 68.6225 6.86975 68.6148 7.72407C68.5891 10.4465 68.5917 13.1702 68.6148 15.8939C68.6213 16.6834 68.9517 16.992 69.7296 16.9933C75.2367 17.0024 80.7438 17.0011 86.2508 16.9933C86.5414 16.9933 86.832 16.8986 87.174 16.839ZM45.302 6.44454V6.43416C43.7166 6.43416 42.1312 6.4212 40.5458 6.43935C39.5892 6.44972 39.2279 6.79326 39.2896 7.73056C39.3912 9.27845 39.5583 10.8225 39.7088 12.3678C39.8168 13.4839 39.9492 14.5962 40.0559 15.7124C40.1588 16.7897 40.4983 17.1125 41.5565 17.1113C43.12 17.1087 44.6848 17.1087 46.2483 17.1061C47.4699 17.1035 48.6914 17.1138 49.9116 17.0879C51.0161 17.0646 51.3568 16.8066 51.3735 15.8136C51.4173 13.156 51.4237 10.4984 51.3967 7.84075C51.3864 6.84512 50.9119 6.44972 49.9296 6.44583C48.3866 6.44065 46.845 6.44454 45.302 6.44454ZM88.69 28.0009C89.2455 27.9711 89.8022 27.9361 90.3577 27.9115C90.71 27.8959 90.9067 27.7728 90.8926 27.3644C90.8656 26.5658 90.8656 25.7647 90.881 24.9661C90.8887 24.5331 90.7139 24.3062 90.2883 24.3088C89.2403 24.3166 88.1885 24.2985 87.1458 24.3814C86.9079 24.4009 86.5324 24.7729 86.508 25.0115C86.4296 25.7789 86.4733 26.5607 86.4951 27.3359C86.508 27.7793 86.7845 27.9919 87.2113 27.9997C87.7038 28.0074 88.1963 28.0009 88.69 27.9997V28.0009ZM37.2555 37.4854C38.5014 37.4854 39.4593 36.526 39.4555 35.2854C39.4516 34.0253 38.4178 33.0128 37.1423 33.0206C35.9581 33.0284 35.0207 34.0058 35.0233 35.2309C35.0259 36.4884 36.0134 37.4867 37.2555 37.4854Z" fill="#018383"/>
<path d="M75.3087 28.1332C78.7726 28.1487 81.6837 31.124 81.6901 34.654C81.6966 38.2723 78.7264 41.337 75.2174 41.3305C71.6506 41.324 68.7807 38.3812 68.782 34.7305C68.782 31.1253 71.7586 28.1176 75.3074 28.1332H75.3087ZM77.4084 34.7033C77.4238 33.4588 76.4248 32.4035 75.22 32.3892C74.0216 32.375 72.9891 33.4238 72.984 34.6618C72.9788 35.9128 73.9715 36.9526 75.184 36.9642C76.4042 36.9772 77.393 35.9725 77.4084 34.7033Z" fill="#018383"/>
<path d="M12.9577 30.9956C5.60552 30.914 -0.0738503 25.1178 0.000726047 17.775C0.0740166 10.663 6.01312 4.97444 13.2779 5.06C20.2739 5.14168 25.97 11.0338 25.8774 18.0926C25.7836 25.2124 19.9139 31.0734 12.9577 30.9956ZM24.4026 18.2884C24.5466 11.1673 18.3324 6.51067 13.1236 6.55734C6.71003 6.61568 1.51154 11.7014 1.49611 18.0862C1.48068 24.4229 6.60202 29.6383 12.86 29.6604C19.325 29.6837 24.3859 24.6965 24.4013 18.2871L24.4026 18.2884Z" fill="#E67C02"/>
<path d="M34.5154 17.7958C34.3881 22.8802 32.6986 27.472 29.3362 31.4157C29.0945 31.6983 28.7692 31.9744 28.4285 32.0898C27.8884 32.2739 27.3561 32.1209 27.0025 31.6244C26.6541 31.1343 26.6553 30.6119 27.0064 30.1219C27.3188 29.685 27.6621 29.2701 27.9926 28.8462C32.8902 22.582 33.2785 13.1586 27.7033 6.58455C27.495 6.33824 27.2931 6.08674 27.0874 5.83783C26.5756 5.21816 26.5731 4.50384 27.0822 3.98269C27.5824 3.46932 28.4555 3.42395 28.9634 4.054C30.0524 5.40354 31.1544 6.76475 32.0544 8.24264C33.8082 11.1219 34.4383 14.3422 34.5154 17.7945V17.7958Z" fill="#018383"/>
<path d="M29.7773 17.8178C29.7387 21.6136 28.4979 24.9869 26.2362 27.9945C25.7129 28.6906 24.9337 28.8501 24.3268 28.4223C23.707 27.9854 23.5977 27.1531 24.157 26.422C25.3323 24.8857 26.2786 23.2341 26.7106 21.3323C27.6866 17.0322 26.8521 13.1352 24.1005 9.66997C23.8369 9.3381 23.5887 8.89473 23.5656 8.49026C23.536 7.95744 23.8754 7.51407 24.4245 7.32739C24.9774 7.13942 25.4428 7.33776 25.8196 7.73316C27.1697 9.15142 28.1623 10.7991 28.8605 12.6309C29.497 14.2994 29.7876 16.0301 29.776 17.8178H29.7773Z" fill="#018383"/>
<path d="M24.4026 18.2884C24.3872 24.6978 19.3263 29.6837 12.8613 29.6616C6.60202 29.6396 1.48197 24.4229 1.4974 18.0874C1.51282 11.7027 6.71131 6.61567 13.1249 6.55863C18.3324 6.51196 24.5466 11.1686 24.4039 18.2897L24.4026 18.2884ZM13.0953 8.63545C7.97011 8.53952 3.5341 12.793 3.47881 17.8541C3.42095 23.1304 7.66152 27.5122 12.8973 27.5874C17.9788 27.66 22.2412 23.4921 22.3376 18.3558C22.4379 12.968 18.4134 8.73398 13.0966 8.63545H13.0953Z" fill="#FEBC20"/>
<path d="M13.0953 8.63544C18.4121 8.73526 22.4366 12.968 22.3363 18.3558C22.2399 23.4921 17.9788 27.6613 12.896 27.5874C7.66023 27.5122 3.41966 23.1304 3.47752 17.8541C3.53281 12.7917 7.9701 8.53951 13.094 8.63544H13.0953ZM12.8716 17.3459C12.9423 17.2331 12.9693 17.1722 13.0117 17.1281C13.9169 16.1753 13.9272 15.0591 13.4695 13.9403C13.04 12.8941 12.1014 12.5868 11.0534 12.5687C10.2833 12.5557 9.51306 12.5531 8.74287 12.5583C7.87495 12.5635 7.81066 12.6439 7.78881 13.5319C7.72194 16.2479 7.65637 18.9651 7.57022 21.681C7.55093 22.2735 7.81709 22.5133 8.36484 22.5172C9.34848 22.5237 10.3334 22.56 11.3158 22.525C12.9474 22.4667 14.0339 21.4192 14.1291 19.9128C14.1998 18.8043 13.8269 17.9267 12.8716 17.3472V17.3459ZM17.2587 22.6663C18.4224 22.6546 19.2337 22.21 19.6297 21.4295C20.2881 20.1357 19.7673 18.8212 18.3426 18.221C17.9093 18.0382 17.4092 17.9695 17.035 17.7089C16.7971 17.5443 16.5901 17.0957 16.639 16.8248C16.6762 16.6186 17.1507 16.3412 17.4092 16.3619C17.782 16.3918 18.1935 16.5953 18.4854 16.8455C18.9405 17.237 19.2016 17.0024 19.5037 16.686C19.8547 16.3192 19.7596 15.9977 19.4356 15.68C18.8788 15.1356 18.1793 14.9515 17.44 14.9113C16.1851 14.8439 15.2709 15.5802 15.06 16.7885C14.8491 17.9993 15.4303 18.8769 16.6904 19.262C17.0787 19.3812 17.5172 19.437 17.8309 19.6651C18.0765 19.8441 18.3041 20.2576 18.2771 20.5415C18.2552 20.78 17.8888 21.099 17.6162 21.1793C16.9643 21.3699 16.4011 21.0977 15.9575 20.5895C15.5126 20.08 15.2632 20.548 14.9649 20.7878C14.6164 21.0678 14.619 21.3414 14.9443 21.646C15.6335 22.2903 16.4435 22.6261 17.2574 22.6637L17.2587 22.6663Z" fill="#E67C02"/>
<path d="M12.8716 17.3459C13.8269 17.9254 14.1998 18.8044 14.1291 19.9115C14.0339 21.4179 12.9474 22.4654 11.3158 22.5237C10.3334 22.5587 9.34848 22.5237 8.36484 22.5159C7.81709 22.512 7.55222 22.2722 7.57022 21.6798C7.65637 18.9638 7.72194 16.2479 7.7888 13.5306C7.81066 12.6426 7.87367 12.5622 8.74287 12.557C9.51306 12.5519 10.2833 12.5545 11.0534 12.5674C12.1014 12.5856 13.0413 12.8941 13.4695 13.939C13.9285 15.0578 13.9169 16.174 13.0117 17.1268C12.9693 17.1722 12.9423 17.2331 12.8716 17.3446V17.3459ZM9.10032 19.7572C9.10032 19.8856 9.12604 20.1059 9.09518 20.3173C9.00646 20.9279 9.27519 21.1353 9.85251 21.0821C10.363 21.0342 10.8786 21.0432 11.389 20.9953C12.1065 20.9279 12.5051 20.4936 12.5553 19.7741C12.6221 18.8095 12.0217 18.1523 10.9904 18.1497C8.84059 18.1432 9.20447 17.8269 9.09903 19.7585L9.10032 19.7572ZM9.23919 15.4428C9.22761 16.887 9.07332 16.664 10.4466 16.6796C10.5751 16.6809 10.7037 16.6822 10.831 16.6731C11.6848 16.6135 12.2647 16.0236 12.2531 15.2276C12.2428 14.5263 11.7401 14.127 10.8194 14.0881C10.7551 14.0855 10.6909 14.0829 10.6266 14.0842C9.15047 14.1127 9.29319 13.7549 9.23919 15.4415V15.4428Z" fill="#FEBC20"/>
<path d="M17.26 22.6663C16.4474 22.6287 15.636 22.2929 14.9469 21.6486C14.6215 21.344 14.619 21.0692 14.9674 20.7904C15.2657 20.5506 15.5152 20.0826 15.9601 20.5921C16.405 21.1016 16.9681 21.3725 17.6187 21.1819C17.8913 21.1029 18.2578 20.7826 18.2796 20.5441C18.3054 20.2589 18.0791 19.8467 17.8335 19.6678C17.521 19.4396 17.0813 19.3838 16.693 19.2646C15.4329 18.8782 14.8517 18.0006 15.0626 16.7911C15.2734 15.5828 16.1877 14.8465 17.4426 14.9139C18.1806 14.9541 18.8814 15.1382 19.4382 15.6826C19.7622 15.999 19.8573 16.3218 19.5063 16.6886C19.2028 17.005 18.9431 17.2383 18.4879 16.8481C18.1961 16.5966 17.7846 16.3931 17.4117 16.3645C17.1533 16.3438 16.6788 16.6199 16.6415 16.8274C16.5927 17.0983 16.7997 17.5469 17.0376 17.7115C17.4117 17.9721 17.9119 18.0408 18.3452 18.2236C19.7699 18.8238 20.2906 20.1383 19.6323 21.4321C19.235 22.2113 18.4249 22.6572 17.2613 22.6689L17.26 22.6663Z" fill="#FEBC20"/>
<path d="M9.10032 19.7572C9.20576 17.8256 8.84188 18.1419 10.9917 18.1484C12.0217 18.151 12.6234 18.8082 12.5566 19.7727C12.5064 20.4935 12.1078 20.9265 11.3903 20.994C10.8799 21.0419 10.3643 21.0328 9.8538 21.0808C9.27648 21.1353 9.00775 20.9278 9.09647 20.3159C9.12733 20.1046 9.10161 19.8855 9.10161 19.7559L9.10032 19.7572Z" fill="#E67C02"/>
<path d="M9.23919 15.4428C9.29319 13.7562 9.15047 14.114 10.6266 14.0855C10.6909 14.0855 10.7551 14.0855 10.8194 14.0894C11.7401 14.1283 12.2441 14.5276 12.2531 15.2289C12.2647 16.0249 11.6848 16.6148 10.831 16.6744C10.7037 16.6835 10.5739 16.6822 10.4466 16.6809C9.07332 16.6653 9.22762 16.8883 9.23919 15.4441V15.4428Z" fill="#E67C02"/>
<path d="M91.1304 24.314H84.1627C84.1074 24.3231 83.8721 24.3711 83.7075 24.5681C83.5609 24.7444 83.5622 24.9298 83.5648 24.9843V27.498C83.6098 27.5745 83.6972 27.6963 83.8502 27.8078C84.0084 27.9232 84.1678 27.9763 84.2617 28.001H91.1304V24.314Z" fill="#FE5200"/>
<path d="M88.9266 28.0023C88.4328 28.0023 87.9404 28.0087 87.4479 28.0023C87.021 27.9945 86.7446 27.7832 86.7317 27.3385C86.7099 26.5633 86.6661 25.7815 86.7446 25.0141C86.769 24.7742 87.1445 24.4022 87.3823 24.384C88.4251 24.3011 89.4769 24.3192 90.5248 24.3114C90.9504 24.3075 91.1266 24.5357 91.1176 24.9687C91.1022 25.7686 91.1021 26.5685 91.1291 27.367C91.1433 27.7754 90.9466 27.8986 90.5943 27.9141C90.0375 27.9387 89.482 27.9724 88.9253 28.0036L88.9266 28.0023Z" fill="#FDBA21"/>
</svg>
