<svg width="1921" height="450" viewBox="0 0 1921 450" fill="none" xmlns="http://www.w3.org/2000/svg">
<path d="M235.798 0C136.201 0 55.4702 372.206 55.4702 447.966H416.125C416.154 372.206 335.395 0 235.798 0Z" fill="#024741"/>
<path d="M201.654 447.792C163.892 266.032 211.347 118.782 211.347 118.782C183.54 131.302 176.103 168.485 176.103 168.485C187.909 14.6408 240.919 1.36531 243.524 0.813375C240.977 0.31954 238.402 0 235.798 0C136.201 0 55.4702 372.206 55.4702 447.966H201.654V447.763V447.792Z" fill="#298F6D"/>
<path d="M684.301 151.055C566.475 151.055 470.958 397.769 470.958 447.966H897.644C897.644 397.74 802.128 151.055 684.301 151.055Z" fill="#66C7A6"/>
<path d="M662.802 446.136C629.15 227.512 677.067 180.889 677.067 180.889C653.398 178.1 630.191 210.693 630.191 210.693C648.074 157.94 684.301 151.055 684.301 151.055C566.475 151.055 470.958 397.769 470.958 447.966H662.773V446.107L662.802 446.136Z" fill="#298F6D"/>
<path d="M1554.02 130.518C1448.58 130.518 1363.1 395.649 1363.1 449.622H1744.97C1744.97 395.649 1659.49 130.518 1554.02 130.518Z" fill="#66C7A6"/>
<path d="M1554.02 130.518C1448.58 130.518 1363.1 395.649 1363.1 449.622H1528.15L1531.63 446.136C1474.88 261.907 1522.02 189.197 1522.02 189.197C1503.56 196.14 1489.99 228.616 1489.99 228.616C1508.02 150.3 1554.02 130.518 1554.02 130.518Z" fill="#298F6D"/>
<path d="M947.819 130.518C842.377 130.518 756.901 395.649 756.901 449.622H1138.77C1138.77 395.649 1053.29 130.518 947.819 130.518Z" fill="#66C7A6"/>
<path d="M756.873 449.622H919.549V447.996C876.261 263.679 909.624 197.854 909.624 197.854L890.353 212.001C905.689 143.822 947.819 130.547 947.819 130.547C842.378 130.547 756.901 395.678 756.901 449.651L756.873 449.622Z" fill="#298F6D"/>
<path d="M482.533 168.484C389.62 168.484 314.329 402.068 314.329 449.622H650.765C650.765 402.068 575.445 168.484 482.533 168.484Z" fill="#66C7A6"/>
<path d="M482.533 168.484C389.62 168.484 314.329 402.068 314.329 449.622H445.64V446.136C407.358 243.605 465.461 206.539 465.461 206.539C440.171 209.298 426.484 236.053 426.484 236.053C442.196 177.025 482.533 168.513 482.533 168.513V168.484Z" fill="#298F6D"/>
<path d="M1254.28 26.144C1136.45 26.144 1040.93 376.651 1040.93 447.966H1467.62C1467.62 376.622 1372.1 26.144 1254.28 26.144Z" fill="#66C7A6"/>
<path d="M1040.93 447.966H1226.82V446.107C1162.23 247.469 1209.08 133.596 1209.08 133.596C1190.3 138.651 1180.2 160.438 1180.2 160.438C1197.53 50.2255 1254.28 26.1147 1254.28 26.1147C1136.45 26.1147 1040.93 376.621 1040.93 447.937V447.966Z" fill="#298F6D"/>
<path d="M280.33 192.683C218.784 192.683 168.869 405.642 168.869 449.622H391.79C391.79 405.642 341.876 192.683 280.33 192.683Z" fill="#1DA18A"/>
<path d="M269.335 194.949C212.968 217.81 168.899 408.285 168.899 449.622H249.137C234.409 345.046 259.931 264.202 259.931 264.202C242.28 272.277 237.563 296.33 237.563 296.33C242.424 231.754 258.339 205.523 269.335 194.949Z" fill="#187968"/>
<path d="M1101.87 192.683C1001.21 192.683 919.578 405.642 919.578 449.622H1284.17C1284.17 405.642 1202.54 192.683 1101.87 192.683Z" fill="#1DA18A"/>
<path d="M1078.67 196.401C988.937 224.898 919.578 409.069 919.578 449.622H1044.26C1022.24 346.585 1060.58 267.019 1060.58 267.019C1034.02 275.008 1026.9 298.712 1026.9 298.712C1034.83 229.691 1062.23 205.058 1078.67 196.401Z" fill="#187968"/>
<path d="M1349.82 256.387C1249.42 256.387 1168.02 416.535 1168.02 449.622H1531.6C1531.6 416.535 1450.2 256.387 1349.79 256.387H1349.82Z" fill="#1DA18A"/>
<path d="M1344.62 256.532C1246.61 261.907 1168.02 417.116 1168.02 449.593H1307.78C1269.32 370.405 1320.11 306.816 1320.11 306.816C1289.46 312.365 1281.22 328.894 1281.22 328.894C1291 277.593 1326.36 261.471 1344.62 256.503V256.532Z" fill="#187968"/>
<path d="M566.736 225.711C483.575 225.711 416.154 411.277 416.154 449.622H717.317C717.317 411.306 649.897 225.711 566.736 225.711Z" fill="#1DA18A"/>
<path d="M416.154 449.622H518.037C501.023 360.964 532.447 292.961 532.447 292.961C510.166 299.961 504.177 320.731 504.177 320.731C513.639 234.746 556.116 227.339 558.229 227.019C557.505 226.932 556.753 226.845 556.001 226.787C477.845 241.602 416.154 412.962 416.154 449.622Z" fill="#187968"/>
<path d="M1670.72 192.683C1570.89 192.683 1489.96 405.642 1489.96 449.622H1851.45C1851.45 405.642 1770.52 192.683 1670.69 192.683H1670.72Z" fill="#1DA18A"/>
<path d="M1655.24 194.396C1562.67 214.498 1489.99 407.937 1489.99 449.593H1623.93C1589.12 344.697 1634.49 260.28 1634.49 260.28C1607.32 267.6 1600.03 289.387 1600.03 289.387C1608.54 223.097 1638.8 201.397 1655.24 194.396Z" fill="#187968"/>
<path d="M821.168 243.141C721.6 243.141 640.869 414.269 640.869 449.622H1001.5C1001.5 414.269 920.765 243.141 821.168 243.141Z" fill="#1DA18A"/>
<path d="M783.06 251.333C701.779 285.785 640.869 418.917 640.869 449.622H755.05C735.779 367.732 772.643 305.19 772.643 305.19C746.08 311.726 738.962 331.13 738.962 331.13C745.761 282.793 766.798 261.064 783.031 251.362L783.06 251.333Z" fill="#187968"/>
<path d="M140.165 316.171C62.7616 316.171 0 400.007 0 449.623H280.329C280.329 400.007 217.568 316.171 140.165 316.171Z" fill="#009083"/>
<path d="M1780.71 316.171C1703.3 316.171 1640.54 400.036 1640.54 449.623H1920.87C1920.87 400.007 1858.11 316.171 1780.71 316.171Z" fill="#009083"/>
<path d="M1254.28 293.571C1190.45 293.571 1138.71 409.564 1138.71 449.623H1369.85C1369.85 409.564 1318.11 293.571 1254.28 293.571Z" fill="#009083"/>
<path d="M653.658 337.812C600.098 337.812 556.666 408.053 556.666 449.622H750.651C750.651 408.082 707.218 337.812 653.658 337.812Z" fill="#009083"/>
<path d="M420.523 256.388C343.12 256.388 280.358 400.007 280.358 449.622H560.688C560.688 400.007 497.926 256.388 420.523 256.388Z" fill="#009083"/>
<path d="M1500.38 256.388C1422.97 256.388 1360.21 400.007 1360.21 449.622H1640.54C1640.54 400.007 1577.78 256.388 1500.38 256.388Z" fill="#009083"/>
<path d="M947.819 293.571C837.14 293.571 747.439 409.564 747.439 449.623H1148.2C1148.2 409.564 1058.47 293.571 947.819 293.571Z" fill="#009083"/>
<path d="M107.93 321.022C46.0657 339.556 0 407.124 0 449.623H96.6454C77.3163 392.919 112.473 349.374 112.473 349.374C87.6174 353.819 80.9622 367.065 80.9622 367.065C85.4183 343.913 96.4717 329.737 107.93 321.051V321.022Z" fill="#00786D"/>
<path d="M398.561 260.193C331.575 283.229 280.329 404.8 280.329 449.623H382.241C362.709 368.43 397.722 305.946 397.722 305.946C373.126 312.278 366.558 331.16 366.558 331.16C371.679 292.961 385.511 271.842 398.59 260.222L398.561 260.193Z" fill="#00786D"/>
<path d="M641.911 360.442C623.595 364.422 618.675 376.216 618.675 376.216C621.193 360.355 626.604 349.2 632.767 341.386C589.248 356.143 556.637 413.631 556.637 449.623H630.163C616.042 399.193 641.882 360.471 641.882 360.471L641.911 360.442Z" fill="#00786D"/>
<path d="M893.507 335.953C864.195 340.979 856.325 355.968 856.325 355.968C861.359 330.986 873.426 315.212 886.244 305.277C805.687 335.721 747.41 417.32 747.41 449.622H874.901C851.897 385.366 893.478 335.953 893.478 335.953H893.507Z" fill="#00786D"/>
<path d="M1229.8 335.954C1211.22 340.979 1206.24 355.968 1206.24 355.968C1210.32 323.898 1221.78 307.021 1232.14 298.161C1178.9 320.035 1138.71 414.299 1138.71 449.623H1218.02C1203.44 385.366 1229.8 335.954 1229.8 335.954Z" fill="#00786D"/>
<path d="M1439.76 449.623C1425.06 375.46 1451.47 318.408 1451.47 318.408C1432.9 324.218 1427.92 341.444 1427.92 341.444C1433.04 295.081 1449.8 276.258 1461.37 268.676C1460.97 268.792 1460.53 268.937 1460.13 269.053C1402.34 305.249 1360.21 408.954 1360.21 449.565H1439.76V449.623Z" fill="#00786D"/>
<path d="M1744.91 322.126C1684.84 342.112 1640.54 407.937 1640.54 449.623H1727.29C1709.7 395.62 1741.79 354.138 1741.79 354.138C1719.1 358.379 1713 371.016 1713 371.016C1718.03 343.797 1732.18 329.563 1744.91 322.126Z" fill="#00786D"/>
<path d="M2061.06 316.17C1983.66 316.17 1920.9 400.006 1920.9 449.622H2201.23C2201.23 400.006 2138.47 316.17 2061.06 316.17Z" fill="#009083"/>
<path d="M2028.83 321.022C1966.97 339.555 1920.9 407.124 1920.9 449.622H2017.54C1998.22 392.919 2033.37 349.374 2033.37 349.374C2008.52 353.818 2001.86 367.065 2001.86 367.065C2006.32 343.913 2017.37 329.737 2028.83 321.051V321.022Z" fill="#00786D"/>
</svg>
