<svg width="1920" height="272" viewBox="0 0 1920 272" fill="none" xmlns="http://www.w3.org/2000/svg">
<path d="M1919.98 97.2463V200.271C1914.71 198.903 1914.06 193.074 1909.97 190.019C1902.78 184.64 1895.7 184.19 1888.03 186.402C1875.41 190.019 1864.64 196.972 1857.5 208.049C1853.8 213.784 1850.65 212.866 1846.09 210.223C1840.24 206.812 1835.97 201.283 1828.8 199.465C1813.24 195.492 1799.62 194.761 1787.45 208.836C1780.03 217.439 1767.14 220.775 1761.86 232.376C1760.94 234.382 1758.46 232.845 1756.74 232.376C1751.62 231.045 1746.36 230.015 1741.43 228.215C1732.56 224.973 1724.72 226.585 1717.99 232.77C1714.28 236.181 1711.73 235.131 1708.33 232.47C1688.53 216.97 1674.9 218.432 1658.19 237.793C1655.3 241.147 1652.58 241.616 1648.4 239.892C1636.81 235.112 1625.22 231.252 1612.3 236.481C1606.67 238.767 1604.14 231.889 1600.78 228.684C1587.51 215.977 1565.4 214.627 1554.03 228.571C1546.89 237.343 1543.25 236.012 1534.85 231.214C1516.23 220.587 1494.23 224.917 1477.9 241.466C1472.44 246.995 1466.76 247.876 1460.1 246.564C1449.78 244.54 1439.75 243.734 1430.32 249.769C1427.71 251.455 1424.62 251.418 1422.55 249.094C1416.4 242.178 1406.95 239.817 1400.8 233.107C1397.03 228.984 1393.13 231.983 1389.46 232.264C1379.31 233.013 1369.5 234.625 1365.83 246.564C1365.02 249.188 1362.49 250.443 1358.96 249.919C1353.45 249.094 1347.81 249.019 1342.22 249.019C1331.15 249.019 1321.16 249.75 1312.08 239.423C1302.99 229.096 1286.52 229.546 1274.93 237.099C1270.86 239.76 1270 238.111 1267.9 235.169C1264.56 230.427 1263.58 224.355 1258.13 220.719C1246.52 212.978 1234.31 212.884 1223.9 221.787C1222.53 222.949 1222.16 224.973 1219.78 224.092C1208.86 220.025 1201.94 226.379 1197.54 234.494C1193.58 241.747 1188.55 242.178 1182.05 240.81C1178.71 240.117 1175.48 238.673 1172.13 238.205C1162.32 236.855 1152.42 238.336 1146.98 246.845C1140.41 257.153 1131.98 258.221 1121.87 255.672C1117.09 254.454 1112.77 254.792 1108.12 255.991C1104.56 256.909 1100.13 257.828 1097.23 255.241C1085.58 244.896 1073.62 251.418 1062.05 254.567C1057.19 255.879 1054.39 255.766 1050.44 252.505C1033.5 238.561 1017.54 236.912 1004.23 253.779C1001.27 257.528 996.165 258.315 992.283 257.715C982.325 256.178 973.249 258.353 964.229 261.895C961.922 262.794 960.047 264.163 957.665 261.426C948.345 250.65 935.443 242.647 922.428 242.441C906.376 242.159 892.442 229.902 876.014 235.9C864.706 240.042 854.786 247.182 843.177 250.837C839.089 252.13 836.183 252.992 831.963 250.687C820.224 244.221 804.64 246.358 794.663 255.41C790.275 259.365 786.768 259.252 782.567 255.26C777.973 250.912 775.479 243.715 767.752 243.434C755.544 242.984 743.148 242.778 732.29 249.188C726.233 252.749 722.501 252.28 717.832 247.164C709.299 237.83 699.922 229.509 685.651 232.001C665.285 220.288 642.35 226.978 620.878 223.024C608.707 220.756 602.838 224.073 598.374 235.9C595.88 242.478 593.33 245.346 585.528 245.72C574.877 246.245 563.55 247.482 555.336 256.104C552.617 258.952 549.86 258.165 546.766 257.172C532.251 252.524 519.049 252.974 509.766 267.311C507.891 270.216 505.978 268.305 504.121 267.555C495.382 263.956 486.306 262.101 476.854 262.045C474.679 262.045 472.428 262.195 470.891 260.152C464.327 251.399 455.213 249.694 444.786 248.494C434.603 247.314 424.814 242.665 414.913 239.329C404.692 235.9 396.61 239.592 389.558 246.658C384.776 251.437 379.938 252.28 372.831 251.53C354.228 249.581 336 250.893 323.998 268.942C320.584 274.077 301.306 272.334 299.562 266.768C293.074 246.133 259.862 233.763 238.915 252.711C226.106 264.275 216.036 262.682 205.215 249.113C192.463 233.126 175.417 228.965 159.139 240.154C149.481 246.807 140.648 250.481 129.19 247.182C119.551 244.408 109.537 246.076 99.6916 245.402C95.6596 245.139 93.1467 243.546 92.2841 239.704C87.427 218.413 65.7109 215.265 47.9142 220.456C46.1139 220.981 43.901 221.393 42.8134 222.668C31.8615 235.412 19.4657 228.084 7.38873 225.517C4.96958 225.011 2.45666 224.917 0 224.636V84.1269C7.46374 84.1269 14.9462 84.5018 22.3725 83.9957C30.6613 83.4335 34.2244 86.2073 34.0557 95.016C33.7556 111.115 36.4373 127.196 35.4246 143.333C35.0496 149.274 37.1124 151.786 43.3197 151.598C55.753 151.223 68.2051 151.748 80.6196 151.167C86.3206 150.886 92.3966 151.13 97.5724 147.737C97.6287 124.722 97.6662 101.707 97.7037 78.7105V74.5873L97.76 71.2137C97.7037 61.5616 97.7037 51.8907 97.5537 42.2386C97.4974 38.1341 99.1102 36.1099 103.405 35.454C121.858 32.6052 121.839 32.5115 121.876 14.2193C121.895 13.2822 121.914 12.3451 121.895 11.408C121.614 3.51761 125.74 0.14405 133.316 0.012856C140.498 -0.118338 147.55 0.781294 154.676 1.49349C172.154 3.25524 172.191 2.93662 172.416 20.9664C172.435 23.1592 172.585 25.352 172.379 27.5074C171.91 32.8113 173.448 36.035 179.542 35.3228C187.4 34.4232 189.688 38.2278 189.707 45.7808C189.744 63.1171 190.813 80.4347 191.075 97.7898C191.151 103.113 193.026 104.762 198.239 104.631C210.71 104.331 223.2 104.218 235.67 104.668C242.553 104.931 244.109 102.044 243.941 95.8219C243.622 83.6771 243.941 71.5136 243.997 59.3687C244.016 53.39 246.285 50.1102 252.961 50.4101C260.743 50.7662 268.563 50.1852 276.346 50.4663C299.037 51.2722 297.612 45.2185 299.712 72.282C300.087 77.2299 301.944 78.7667 306.557 78.6543C314.34 78.4669 322.16 78.5793 329.942 78.5793C331.518 81.0345 331.855 83.7521 331.93 86.6196C332.455 106.242 333.093 125.865 333.618 145.488C334.105 164.099 329.736 162.3 351.19 162.9C358.222 163.106 360.191 161.025 360.247 154.016C360.36 133.774 359.141 113.496 361.41 93.2543C362.048 87.5005 363.998 85.8699 369.436 85.9449C388.171 86.2073 406.924 86.1698 425.658 86.1698C432.147 86.1698 435.504 88.7374 435.204 95.7095C434.903 103.188 435.485 110.703 435.147 118.181C434.828 125.022 437.435 127.608 444.393 127.477C461.889 127.14 479.386 127.571 496.882 127.271C503.69 127.159 506.315 129.445 506.278 136.455C506.184 154.541 506.709 172.627 506.99 190.731C506.822 191.95 506.578 193.149 506.503 194.386C505.921 203.532 510.16 206.325 519.255 206.287C528.407 206.231 531.163 202.932 530.694 194.311C530.301 187.02 529.644 179.524 532.645 172.439C533.807 172.42 534.989 172.42 536.152 172.402C540.258 175.7 544.965 173.639 549.41 173.864C555.336 174.632 554.998 170.602 554.998 166.704C554.998 153.285 555.505 139.847 554.961 126.446C554.623 117.994 557.961 115.632 565.913 115.801C583.728 116.194 601.581 116.513 619.34 115.595C628.979 115.107 631.361 119.681 631.53 127.477C631.736 137.148 631.736 146.838 631.717 156.509C631.717 160.463 632.599 163.106 637.4 163.031C650.527 162.881 663.654 162.975 676.781 162.975C679.875 162.956 682.857 162.187 682.332 158.401C680.569 145.882 688.446 145.263 697.335 146.05C703.767 146.613 705.511 143.558 705.098 137.71C704.742 132.744 705.323 127.721 705.08 122.735C704.705 115.032 708.399 112.146 715.806 112.165C749.862 112.259 783.918 112.315 817.973 112.034C825.174 111.978 827.031 115.145 827.125 121.63C827.331 139.078 828.588 156.546 828.25 173.976C828.1 182.579 831.832 184.846 839.108 185.09C847.772 185.39 856.38 183.647 865.1 184.64C869.301 185.109 869.807 181.435 869.844 178.118C869.919 171.877 870.107 165.617 869.994 159.376C869.882 153.885 872.32 151.392 877.833 151.411C896.268 151.467 914.721 151.523 933.155 151.317C939.4 151.242 941.35 154.222 941.238 159.938C941.088 168.691 941.538 177.443 941.144 186.158C940.844 192.531 942.738 195.248 949.545 194.798C955.471 194.405 960.459 195.023 960.178 186.252C959.634 169.103 960.328 151.917 960.047 134.749C959.934 127.927 962.26 125.191 969.255 125.378C982.982 125.734 996.747 125.772 1010.49 125.397C1017.77 125.209 1020.38 127.796 1020.38 135.161C1020.38 151.617 1021.11 168.072 1021.67 184.528C1021.78 187.714 1020.6 191.444 1025.57 192.774C1041.12 196.972 1047.83 192.1 1047.94 176.15C1047.96 173.957 1048.07 171.765 1047.96 169.59C1047.74 165.13 1049.35 163.143 1054.22 162.375C1069.77 159.938 1085.41 160.913 1100.98 160.969C1124.01 161.044 1123.57 155.14 1122.56 183.534C1122.49 186.008 1121.1 189.176 1124.29 189.944C1131.6 191.725 1139.53 192.287 1146.49 190.15C1152.32 188.351 1149.19 181.379 1149.3 176.806C1149.68 161.25 1149.45 161.232 1165.3 161.1C1166.24 161.082 1167.17 161.082 1168.11 161.063C1183.21 160.932 1181.46 161.381 1181.07 147.812C1180.85 140.372 1183.25 137.991 1190.67 138.216C1207.21 138.685 1223.79 138.61 1240.35 138.254C1246.59 138.104 1250.05 140.353 1250.1 146.444C1250.16 152.442 1253.16 153.66 1258.41 153.435C1269.32 152.966 1280.27 153.21 1291.17 152.554C1297.96 152.142 1301.17 154.466 1301.09 161.344C1301 169.778 1301.2 178.212 1301.05 186.627C1300.98 191.575 1301.65 195.023 1307.99 195.023C1314.71 195.005 1314.56 190.881 1314.54 186.29C1314.5 177.856 1314.52 169.44 1314.59 161.007C1314.76 140.034 1312.01 142.564 1333.82 142.058C1339.98 141.909 1347.2 144.401 1352.08 140.672C1356.64 137.186 1353.02 130.026 1354.41 124.666C1354.86 122.848 1355.48 120.917 1355.25 119.137C1354.07 110.197 1359.26 108.623 1366.54 108.66C1391.54 108.773 1416.54 108.698 1441.53 108.735C1455.32 108.754 1456.16 109.391 1456.61 123.541C1456.99 135.086 1456.89 146.65 1456.84 158.195C1456.82 163.349 1457.75 165.673 1464.22 165.711C1472.31 165.767 1480.26 166.311 1488.38 165.055C1500.14 163.237 1503.47 166.629 1503.72 178.38C1503.81 182.635 1501.69 188.314 1505.46 190.844C1512.08 195.267 1519.73 193.093 1527.01 191.125C1532.56 189.607 1531.6 185.146 1531.64 181.229C1531.77 161.869 1531.87 142.508 1531.85 123.167C1531.85 119.137 1532.07 115.051 1537.12 114.92C1551.45 114.526 1565.77 114.358 1580.08 114.564C1585.59 114.639 1588.39 118.106 1588.16 123.897C1587.96 128.883 1588.26 133.887 1588.13 138.872C1587.99 143.614 1590.21 146.332 1594.82 145.563C1608.49 143.277 1622.26 144.439 1635.97 143.82C1642 143.539 1645.14 141.253 1644.61 134.637C1644.14 128.733 1644.67 122.773 1644.48 116.85C1644.31 111.64 1646.19 109.147 1651.7 108.079C1664.15 105.68 1676.62 107.142 1689.06 106.861C1694.87 106.73 1698.15 105.418 1697.04 98.9519C1700.34 88.0065 1698.53 76.7613 1698.58 65.6848C1698.62 58.3192 1701.26 55.789 1708.45 55.9202C1723.65 56.2201 1738.9 55.939 1754.13 55.939C1770.52 55.939 1778.97 64.1167 1779.48 80.4722C1779.48 86.6758 1779.48 92.8794 1779.48 99.083C1779.48 100.376 1779.48 101.651 1779.46 102.925C1779.46 111.64 1779.48 120.355 1779.48 129.07C1779.52 132.837 1779.54 136.605 1779.58 140.372C1779.48 142.958 1779.45 145.563 1782.99 145.844C1784.85 145.994 1786.74 146.069 1788.6 145.957C1802.42 145.02 1816.43 148.206 1830.1 144.12H1830.12C1830.68 143.183 1831.15 142.246 1831.54 141.29C1833.27 137.111 1833.6 132.65 1833.64 128.096C1833.7 114.695 1834.34 101.257 1833.68 87.8941C1833.21 78.5231 1836.94 75.7868 1845.66 76.4052C1853.73 76.9862 1861.9 77.0425 1869.99 76.5926C1879.32 76.0679 1883.56 79.8538 1882.31 89.1873C1881.39 96.1218 1884.84 97.6961 1890.99 97.4712C1900.65 97.0964 1910.34 97.2838 1920 97.2463H1919.98Z" fill="#1DA18A"/>
</svg>
