<?xml version="1.0" encoding="UTF-8"?><svg id="Layer_2" xmlns="http://www.w3.org/2000/svg" viewBox="0 0 805.36 96.01"><defs><style>.cls-1{fill:#0ab8cb;}.cls-2{fill:#243e7c;}.cls-3{fill:#f9fbfd;}</style></defs><g id="Layer_1-2"><g><path class="cls-3" d="M463.54,63.85c7.06,10.04,14.01,19.93,21.61,30.74-8.7,0-16.41,.02-24.13-.02-2.05-.01-2.6-1.88-3.47-3.22-5.27-8.08-10.49-16.2-15.76-24.28-.6-.92-1.05-2.43-2.45-2.07-1.52,.39-.91,1.95-.92,3.01-.05,7.65-.13,15.31,.03,22.96,.06,2.82-.83,3.83-3.68,3.72-4.82-.19-9.68-.29-14.49,.03-3.62,.24-3.97-1.44-3.95-4.39,.1-16.97,.05-33.94,.05-50.92,0-10.48,.09-20.97-.05-31.45-.04-2.79,.77-3.73,3.64-3.7,11.83,.15,23.66-.07,35.48,.11,15.03,.23,26.14,9.4,28.81,23.47,2.97,15.61-4.05,29.06-18.2,34.88-.76,.31-1.5,.65-2.54,1.11Zm-25.13-29.31c0,2.33,.15,4.67-.04,6.98-.24,2.89,.54,4.29,3.79,4.06,3.81-.27,7.66-.03,11.49-.09,3.74-.05,6.23-2.02,7.72-5.35,3.96-8.83-1.02-16.58-10.65-16.61q-12.31-.04-12.31,11Z"/><path class="cls-1" d="M766.2,3.18c15.81,0,27.55,5.6,37.05,16.28,2.64,2.97,3.19,5.05-.74,7.36-3.86,2.27-7.51,4.95-11.08,7.67-2.42,1.85-3.71,1.3-5.67-.91-9.14-10.32-24.32-11.13-33.9-2.08-10.11,9.55-10.6,25.11-1.1,34.92,9.45,9.75,24.69,9.86,34.29-.16,2.87-2.99,4.91-3.06,7.89-.62,2.7,2.21,5.67,4.08,8.54,6.07,4.96,3.45,5.03,4.04,.91,8.75-16.11,18.44-44.94,20.89-63.94,4.94-14.88-12.5-20.17-28.85-15.39-47.57,4.64-18.14,16.91-29.34,35.16-33.76,3.04-.74,6.26-.73,7.98-.91Z"/><path class="cls-3" d="M148.13,3.11c15.06,.08,27.39,5.9,37.04,17.49,1.87,2.24,2.18,3.88-.7,5.47-1.88,1.04-3.55,2.46-5.33,3.7-2.87,2-5.5,4.91-8.67,5.74-3.88,1.02-4.86-3.98-7.62-5.83-10.84-7.27-24.7-5.47-32.66,4.69-8.16,10.43-6.81,24.87,3.15,33.72,9.18,8.14,24.03,7.72,32.5-1.55,3.18-3.49,5.22-3.26,8.41-.66,2.96,2.41,6.08,4.71,9.42,6.55,3.87,2.14,3.09,4.04,.75,6.85-16.88,20.36-47.9,22.35-67.2,4.21-19.67-18.5-19.59-50.05,.15-68,8.72-7.94,18.85-12.32,30.77-12.37Z"/><path class="cls-3" d="M199.37,49.57c0-13.48,.11-26.95-.07-40.43-.05-3.52,.61-4.96,4.59-4.91,16.66,.23,33.32,.19,49.97,.03,3.48-.03,4.76,.96,4.48,4.48-.28,3.47-.28,7,0,10.47,.3,3.64-1.24,4.46-4.59,4.39-9.32-.19-18.66,.04-27.98-.12-3.12-.05-4.35,.68-4.39,4.11-.16,13.08-.29,13.08,12.76,13.08,5.33,0,10.67,.14,15.99-.06,2.89-.11,3.83,.94,3.68,3.73-.18,3.65-.23,7.33,.01,10.97,.21,3.19-.75,4.35-4.12,4.25-7.99-.23-15.99,.05-23.98-.14-3.16-.07-4.31,.73-4.33,4.12-.09,11.92-.23,11.92,11.88,11.92,7.16,0,14.33,.18,21.49-.08,3.54-.13,5.23,.55,4.8,4.55-.37,3.45-.25,6.99-.03,10.47,.2,3.08-.56,4.34-4.03,4.3-17.32-.18-34.65-.16-51.97-.02-3.26,.03-4.26-.92-4.22-4.21,.17-13.64,.07-27.28,.07-40.93Z"/><path class="cls-1" d="M653.31,49.9c0-13.47,.11-26.95-.07-40.42-.05-3.89,1.19-5.23,5.15-5.18,16.32,.18,32.64,.15,48.97,.02,3.58-.03,4.95,1.02,5.01,4.8,.23,14.39,.35,14.39-13.87,14.39-6.16,0-12.33,.13-18.49-.04-3.37-.09-4.79,.98-4.7,4.55,.37,15.25-2.08,12.22,12.11,12.54,5.33,.12,10.66,.12,15.99,0,2.96-.06,4.03,1.1,4.2,4.09,.84,14.85,.91,14.85-13.89,14.85-4.83,0-9.66,.08-14.49-.02-2.71-.05-3.74,.98-3.91,3.78-.75,12.21-.84,12.21,11.45,12.21,7.49,0,14.99,.09,22.48-.03,2.97-.05,4.27,1.03,4.15,4.06-.14,3.82-.09,7.65-.02,11.48,.04,2.55-1.14,3.57-3.63,3.57-17.65-.03-35.31-.05-52.96,0-3.5,0-3.49-2.26-3.49-4.71,.01-13.31,0-26.62,0-39.92Z"/><path class="cls-3" d="M341.26,49.26c0-13.48,.1-26.96-.07-40.44-.04-3.38,.79-4.61,4.4-4.57,16.83,.18,33.66,.14,50.48,.02,2.92-.02,4.31,.6,4.1,3.84-.25,3.81-.21,7.66,0,11.48,.16,3.02-.86,4.07-3.96,4.01-9.49-.17-19,.08-28.49-.14-3.51-.08-4.5,1.02-4.51,4.5-.02,12.7-.15,12.7,12.6,12.7,5.33,0,10.67,.1,15.99-.04,2.67-.07,4.01,.57,3.85,3.57-.21,3.98-.19,7.99,0,11.98,.13,2.69-.93,3.41-3.47,3.37-8.33-.12-16.66,.08-24.99-.11-3.09-.07-3.92,.96-3.97,3.97-.22,12.08-.32,12.07,11.69,12.07,7.5,0,15,.11,22.49-.06,2.9-.07,4.28,.52,4.05,3.8-.28,3.97-.19,7.99-.02,11.98,.11,2.54-.65,3.51-3.33,3.5-17.83-.09-35.66-.12-53.48,.01-3.22,.02-3.39-1.55-3.38-4,.07-13.81,.03-27.62,.03-41.44Z"/><path class="cls-3" d="M532.9,27.04c-6.53,20.9-13.15,41.62-19.38,62.46-1.26,4.21-3.26,5.4-7.35,5.1-4.64-.33-9.33-.27-13.97-.02-3.54,.19-3.82-.96-2.69-3.96,5.51-14.6,10.85-29.27,16.27-43.91,4.73-12.77,9.57-25.5,14.15-38.32,1.11-3.11,2.53-4.77,6.04-4.26,1.96,.28,3.99,.05,5.98,.05q13.6,0,18.24,12.48c9.08,24.62,18.05,49.27,27.25,73.85,1.35,3.6,.37,4.2-2.98,4.07-4.99-.2-10-.27-14.97,.03-3.32,.2-4.55-1.13-5.49-4.15-6.25-20.14-12.68-40.23-19.11-60.31-.33-1.02-.15-2.42-1.99-3.09Z"/><path class="cls-1" d="M595.47,59.04c0-9.81-.23-19.63,.09-29.44,.16-4.92-1.65-6.51-6.36-6.15-3.97,.31-8-.1-11.98,.1-3.59,.18-4.96-1.07-5.04-4.83-.28-14.35-.4-14.35,13.92-14.36,16.49,0,32.98,.12,49.46-.08,4.38-.05,5.76,1.38,5.75,5.73-.01,13.5,.14,13.45-13.41,13.51-11.89,.05-10.32-1.18-10.37,10.39-.07,18.3-.17,36.6,.09,54.89,.07,4.74-1.58,6.17-6.04,5.82-3.81-.3-7.66-.21-11.48-.03-3.43,.17-4.73-1.14-4.68-4.62,.15-10.31,.05-20.62,.05-30.94Z"/><path class="cls-3" d="M274.52,49.55c0-13.63,.12-27.27-.08-40.9-.05-3.54,1-4.61,4.47-4.39,4.48,.29,9,.29,13.48,0,3.57-.23,4.46,1.08,4.43,4.51-.14,20.45,.07,40.9-.18,61.35-.05,4.42,1.08,5.68,5.5,5.47,7.81-.38,15.65,.04,23.47-.18,3.18-.09,4.05,.98,3.87,3.98-.23,3.81-.27,7.66,0,11.46,.23,3.22-1.07,3.87-4.01,3.85-15.65-.12-31.3-.16-46.94,.02-3.41,.04-4.1-1.14-4.07-4.27,.15-13.63,.06-27.27,.06-40.9Z"/><path class="cls-1" d="M81.71,40.41c1.71,5.31-.59,10.06-2.12,14.9-.55,1.73-1.35,3.38-2.03,5.07-1.06,.9-2.35,1.66-2.16,3.53,1.97-.65,2.17-2.04,2.12-3.57,6.07-5.4,6.05-12.9,6.49-20.01,.34-5.48,2.07-10.17,5.34-15.4,2.69,11.67,.64,22.4-.87,33.13-3.97,7.54-8.98,14.3-15.17,20.18-8.92,4.17-17.77,8.62-28.09,7.74-2.46-.21-4.92-.39-7.38-.58-7.07-1.92-13.28-5.73-19.75-8.96-7.04-7.87-12.53-16.61-15.4-26.88-3.1-11.1-4.07-22.16,.11-33.21C9.44-1.26,27.21-5.34,41.07,7.52c.6,.55,1.34,.96,2.01,1.42-1.85,5.31-3.55,10.69-6.22,15.68-4.52-1.59-8.9-3.71-13.98-2.82-8.95,1.56-15.37,6.44-18.53,14.85-3.56,9.47,.95,17.27,6.23,24.71-.3,1.81,.4,3.13,1.98,4.01,.4,1.09,.33,2.68,2.3,2.15-.23-1.32-1-2.02-2.32-2.13,.15-1.74-.58-3.04-2-4,1.89-3.5,3.36-.15,4.41,.59,2.09,1.47,3.12,4.2,5.6,5.38,.33,.33,.67,.67,1,1,.33,.33,.67,.67,1,1,.46,.78,1.16,1.06,2.03,.96,0,1.37,.98,2.04,1.96,2.67,6.35,4.08,13.39,5.99,20.86,5.78,8.59-.24,16.11-3.43,22.45-9.21-5.16,2.55-10.14,5.47-15.84,6.88-10.81,2.67-20.32-.77-29.47-6.06-.51-.66-1.15-1.06-2.02-.98-.33-.33-.67-.67-1-1l-1-1c.07-1.45,1.26-2.17,2.04-3.16,1.1,.5,2.2,1.01,3.3,1.51,2.8,3.99,7.01,5.33,11.47,6.24-2.39-2.47-6.44-2.48-8.16-5.85,2.61-.71,5.26-.75,7.93-.44-1.77,2.31,.72,2.05,1.58,2.29,10.33,2.9,19.41,.34,27.13-6.86,2.27-2.12,5.35-4.08,4.84-8.02,1.97-1.94,3.93-3.88,5.9-5.83,.18,4.63-2.78,8.22-3.93,12.43,3.64-4.28,6.07-9.03,5.87-14.86,.73-1.73,1.62-3.34,3.22-4.44Zm-63.14,31.94l1.01,1.01c.88,1.11,1.52,2.66,3.57,2.08-.83-1.63-2.02-2.2-3.61-2.04l-1-1.01-1-1-1-1-.3-.24c.11,.07,.22,.13,.33,.2,.33,.33,.67,.67,1,1,.33,.33,.67,.67,1,1Zm56.96-2.01c.33-.33,.66-.66,.99-.99l1.01-1c1.86-.13,2.56-1.43,3.01-2.98,2.82-2.75,4.89-5.87,4.98-9.97-1.52,3.4-4.53,6.07-4.93,10.01-1.74,.24-2.55,1.44-3.02,2.97l-1.01,1.01c-.33,.33-.66,.66-.99,.99l-1.01,1.01c-.86,.49-1.79,.89-2.56,1.49-12.88,9.86-26.89,11.36-41.92,5.79-1.51-.56-2.91-1.84-5.21-1.49,15.88,10.44,35.95,6.76,48.26-3.31,.78-.64,1.41-1.41,1.41-2.52l1.01-1.01Zm-35.7,2.1c11.23,3.59,27.86-2.64,30.95-11.65-8.35,9.5-18.38,12.32-30.95,11.65Z"/><path class="cls-3" d="M76.56,47.27c-1.97,1.94-3.93,3.88-5.9,5.83-.96,.85-1.92,1.71-2.88,2.56-.54-.06-1.09-.13-1.63-.19-2.99-9.43-5.98-18.87-8.98-28.3l-.97,.06c-3.84,12.08-7.68,24.16-11.52,36.23-.74,1.43-2.5,1.3-3.53,2.28-1.35-.02-2.69-.04-4.04-.06-2.67-.3-5.32-.27-7.93,.44-1.04-.6-2.16-.59-3.3-.39-1.1-.5-2.2-1.01-3.3-1.51,.15-.62,.21-1.28,.45-1.87,5.05-12.42,9.84-24.94,13.83-37.74,2.67-4.99,4.37-10.37,6.22-15.68,.73-3.66,2.82-4.98,6.66-4.71,5.27,.37,10.59,.13,15.89,.08,1.96-.02,3.37,.24,4.15,2.51,3.88,11.23,7.94,22.4,11.94,33.59-1.6,1.1-2.49,2.71-3.22,4.44-.65,.81-1.29,1.61-1.94,2.42Z"/><path class="cls-3" d="M73.3,78.24c6.19-5.87,11.2-12.64,15.17-20.18,4.02,10.84,7.94,21.73,12.14,32.5,1.35,3.47,.44,4.49-2.99,4.08-.33-.04-.66,0-.99,0-5.78-.1-12.68,1.71-17.04-.82-4.43-2.58-4.09-10.28-6.28-15.58Z"/><path class="cls-3" d="M18.08,76.44c6.47,3.23,12.68,7.05,19.75,8.96q-2.59,9.24-11.95,9.24c-4.63,0-9.25,0-14.35,0,2.31-6.42,4.42-12.31,6.54-18.2Z"/><path class="cls-1" d="M89.91,19.46c-2.88-.15-4.73-1.63-4.73-4.55,0-3.04,1.72-5.05,4.87-5.02,3.15,.04,4.82,2.13,4.76,5.14-.06,2.92-1.99,4.33-4.9,4.43Z"/><path class="cls-2" d="M74.52,71.35c0,1.1-.63,1.88-1.41,2.52-12.3,10.07-32.37,13.75-48.26,3.31,2.3-.36,3.7,.92,5.21,1.49,15.03,5.58,29.04,4.07,41.92-5.79,.78-.6,1.71-1,2.56-1.49l-.04-.04Z"/><path class="cls-2" d="M24.56,70.38c9.15,5.29,18.66,8.74,29.47,6.06,5.7-1.41,10.68-4.33,15.84-6.88-6.34,5.79-13.86,8.97-22.45,9.21-7.47,.21-14.51-1.7-20.86-5.78-.99-.63-1.97-1.3-1.96-2.67l-.04,.05Z"/><path class="cls-2" d="M37.11,65.69c1.35,.02,2.69,.04,4.04,.05,.52,.93,1.32,1.42,2.36,1.6,6.88,1.18,20.12-2.24,24.27-11.69,.96-.85,1.92-1.71,2.88-2.56,.51,3.93-2.57,5.9-4.84,8.02-7.72,7.2-16.79,9.76-27.13,6.86-.85-.24-3.35,.02-1.58-2.29Z"/><path class="cls-2" d="M39.83,72.44c12.57,.67,22.6-2.15,30.95-11.65-3.09,9.01-19.72,15.24-30.95,11.65Z"/><path class="cls-2" d="M76.56,47.27c.65-.81,1.29-1.61,1.94-2.42,.2,5.83-2.23,10.58-5.87,14.86,1.15-4.21,4.12-7.8,3.93-12.43Z"/><path class="cls-2" d="M25.88,65.74c1.14-.2,2.26-.21,3.3,.39,1.72,3.37,5.77,3.38,8.16,5.85-4.45-.91-8.66-2.25-11.47-6.24Z"/><path class="cls-2" d="M80.58,65.41c.4-3.95,3.41-6.62,4.93-10.01-.09,4.1-2.16,7.22-4.98,9.97l.04,.04Z"/><path class="cls-2" d="M77.51,60.35c.05,1.53-.14,2.92-2.12,3.57-.19-1.87,1.1-2.64,2.16-3.53l-.04-.04Z"/><path class="cls-2" d="M19.53,73.4c1.59-.16,2.78,.41,3.61,2.04-2.05,.58-2.69-.97-3.57-2.08l-.04,.04Z"/><path class="cls-2" d="M77.56,68.38c.47-1.53,1.27-2.73,3.02-2.97l-.04-.04c-.45,1.56-1.15,2.85-3.01,2.98l.04,.04Z"/><path class="cls-2" d="M12.55,65.39c1.32,.11,2.09,.81,2.32,2.13-1.97,.54-1.89-1.06-2.3-2.15l-.02,.02Z"/><path class="cls-2" d="M10.55,61.39c1.41,.96,2.15,2.26,2,4l.02-.02c-1.58-.89-2.28-2.21-1.98-4.01l-.04,.03Z"/><path class="cls-2" d="M22.54,69.39c.87-.08,1.51,.32,2.02,.98l.04-.05c-.87,.1-1.57-.18-2.03-.96l-.03,.03Z"/><path class="cls-2" d="M21.57,68.36c-.33-.33-.67-.67-1-1l-.03,.03c.33,.33,.67,.67,1,1l.03-.03Z"/><path class="cls-2" d="M22.57,69.37c-.33-.33-.67-.67-1-1l-.03,.03c.33,.33,.67,.67,1,1l.03-.03Z"/><path class="cls-2" d="M16.57,70.36l-.33-.2,.3,.24,.04-.04Z"/><path class="cls-2" d="M76.51,69.35c-.33,.33-.66,.66-.98,.99l.04,.04c.33-.33,.66-.66,.99-.99l-.04-.04Z"/><path class="cls-2" d="M16.53,70.39l1,1,.04-.04c-.33-.33-.67-.67-1-1l-.04,.04Z"/><path class="cls-2" d="M77.53,68.34c-.34,.33-.68,.67-1.02,1l.04,.04c.34-.34,.67-.67,1.01-1.01l-.04-.04Z"/><path class="cls-2" d="M17.53,71.39c.33,.33,.67,.67,1,1l.03-.04c-.33-.33-.67-.67-1-1l-.04,.04Z"/><path class="cls-2" d="M19.57,73.36c-.34-.34-.67-.67-1.01-1.01l-.03,.04c.33,.34,.67,.68,1,1.01l.04-.04Z"/><path class="cls-2" d="M74.55,71.39c.34-.34,.67-.67,1.01-1.01l-.04-.04c-.34,.34-.67,.67-1.01,1.01l.04,.04Z"/><path class="cls-1" d="M44.68,63.47c8.05-.27,15.36-2.53,21.46-8,.55,.07,1.09,.13,1.63,.19-4.15,9.45-17.39,12.87-24.27,11.69-1.04-.18-1.84-.67-2.36-1.6,1.03-.98,2.78-.85,3.53-2.28Z"/></g></g></svg>