<?xml version="1.0" encoding="UTF-8"?><svg id="Layer_2" xmlns="http://www.w3.org/2000/svg" viewBox="0 0 710.29 224.93"><defs><style>.cls-1{fill:#fff;}.cls-2{fill:#4142f5;}</style></defs><g id="Layer_1-2"><polygon class="cls-1" points="522.05 212.93 567.47 171.12 544.76 140.44 528.5 146.63 489.53 176.68 495.58 203.15 522.05 212.93"/><g><path class="cls-2" d="M470.83,170.55c8.51-.55,15.59-1.2,22.68-1.37,3.42-.08,5.58-1.32,8.12-3.65,7.39-6.82,15.39-12.97,23.05-19.51,2.07-1.77,4.24-3.7,5.57-6,3.27-5.67,6.08-11.61,9.44-18.13,1.49,2.08,2.53,3.32,3.34,4.7,3.04,5.17,5.92,10.16,13.22,10.34,2.25,.06,4.76,2.3,6.6,4.1,3.56,3.47,7.29,6.99,9.9,11.14,2.45,3.9,3.55,8.64,5.42,13.47,.67-.98,1.68-2.26,2.48-3.66,7.23-12.57,16.54-23.21,28.83-31.1,24.51-15.73,50.36-13.65,71.67,6.12,16.61,15.41,25.88,34.69,28.11,57.11,.78,7.83-.03,15.8,.14,23.7,.09,4.24-1.8,5.28-5.76,5.27-32.93-.11-65.87-.05-98.8-.04-29.11,0-58.22-.18-87.33,.1-9.37,.09-16.9-2.52-22.48-10.22-2.33-3.21-6.55-5.87-7.24-9.31-2.45-12.34-9.23-22.33-16.97-33.05Zm86.53-3.62c.03-10.16-9.86-20.17-20.05-20.3-6.52-.08-11.41,4.74-11.36,11.21,.08,9.75,10.04,19.9,19.82,20.21,7.19,.23,11.56-3.97,11.58-11.12Zm-50.45,5.29c-7.58-.02-11.59,4.12-11.32,11.7,.29,8.07,8.57,17.57,16.51,18.93,8.74,1.5,14.93-2.86,14.98-10.56,.06-10.02-10-20.04-20.17-20.07Z"/><path class="cls-2" d="M273.75,216.28c-2.56,1.4-4.92,2.57-7.17,3.94-6.27,3.82-13.17,4.58-20.19,3.69-9.02-1.15-13.98-7.2-16.35-15.39-3.09-10.67-3.33-21.61-.9-32.39,4.15-18.42,19.89-27.03,37.97-21.19,1.7,.55,3.39,1.14,5.63,1.9,0-3.29,0-6.13,0-8.98,0-7.62,.12-15.25-.06-22.87-.08-3.32,.84-4.81,4.47-4.71,12.8,.34,10.88-1.66,10.92,10.68,.09,28.33,.09,56.67-.07,85-.01,2.46,2.06,6.38-2.94,7.06-7.28,1-8.74,.27-10.49-5.32-.09-.3-.32-.56-.83-1.42Zm-1.02-29.15c0-4.81,.14-9.63-.09-14.43-.07-1.45-.77-3.36-1.85-4.19-9.41-7.28-22.33-3.21-25.66,8.17-2.5,8.56-2.32,17.32-.16,25.93,1.89,7.55,6.43,10.32,14.07,9.18,9.35-1.4,13.69-6.38,13.69-15.7,0-2.99,0-5.97,0-8.96Z"/><path class="cls-2" d="M196.62,36.11c0-9.91-.09-19.15,.06-28.38,.04-2.52,.39-7.05,1.25-7.21,4.14-.78,8.52-.52,12.79-.23,.53,.04,1.27,2.47,1.28,3.8,.07,31,0,62,.13,93,.02,3.86-1.5,4.92-5.03,4.72-4.21-.23-9.39,1.45-8.63-6.7-3.43,1.78-5.74,3.44-8.32,4.23-5.31,1.64-10.71,3.71-16.16,4-9.68,.5-16.13-4.29-19.33-13.37-4.3-12.22-4.33-24.8-1-37.14,5.31-19.69,23.03-23.12,37.86-18.5,1.53,.48,3.03,1.05,5.11,1.77Zm0,30.88h-.02c0-4.81,.16-9.63-.09-14.42-.08-1.65-.71-3.79-1.87-4.77-8.31-6.93-22-3.13-25.48,7.05-2.74,8.02-2.59,16.25-1.12,24.52,1.49,8.43,5.97,12.6,13.12,11.92,9.42-.89,15.46-6.5,15.47-14.36,0-3.32,0-6.63,0-9.95Z"/><path class="cls-2" d="M414.99,153.2c2.82,0,5.69-.31,8.47,.05,10.43,1.36,17.44,7.01,20.18,17.24,2.97,11.06,3.09,22.29,.45,33.4-3.28,13.78-11.89,20.46-27.01,21-4.93,.18-9.96-.35-14.82-1.23-9.54-1.73-15.05-8.07-17.4-17.1-2.66-10.21-3.02-20.63-.78-30.96,3.62-16.67,12.04-22.7,30.92-22.41Zm-16.67,35.68c.5,4.46,.7,9.28,1.65,13.94,1.35,6.63,5.97,10,12.85,10.1,9.66,.14,13.68-2.23,15.61-9.64,2.32-8.94,2.34-18.03,.47-27-1.81-8.7-6.36-12.03-15.11-11.93-8.18,.1-12.43,3.67-14.12,12.36-.75,3.87-.9,7.85-1.36,12.17Z"/><path class="cls-2" d="M104.8,103.88c-3.15-.17-6.35-.06-9.44-.57-10.26-1.71-16.63-7.89-19.15-17.82-2.51-9.9-2.86-19.97-.89-30,3.14-16.02,11.92-23.38,28.34-23.71,4.61-.09,9.31,.3,13.84,1.17,9.18,1.76,15.08,7.55,17.48,16.44,3.02,11.2,3.29,22.6,.45,33.86-3.45,13.71-11.5,19.93-25.65,20.45-1.66,.06-3.32,0-4.99,0v.16Zm-15.09-35.92c.55,4.7,.75,9.52,1.74,14.18,1.4,6.64,6.26,10.11,13.39,10.28,8.38,.2,13.01-2.49,14.9-9.51,2.67-9.91,2.62-19.99-.05-29.88-1.93-7.17-6.63-9.6-16.04-9.22-6.4,.26-11.03,3.87-12.29,10.25-.89,4.51-1.11,9.16-1.65,13.9Z"/><path class="cls-2" d="M504.14,46.24c-.45-.82-.67-1.09-.75-1.39-2.38-9.11-1.64-10.59,7.7-11.09,9.39-.5,18.9-.93,28.21,.07,9.9,1.06,15.08,7.85,15.17,17.85,.15,15.42-.03,30.85,.1,46.27,.03,3.41-1.01,4.69-4.55,4.65-7.02-.06-7.02,.12-10.41-6.21-3.57,1.57-7.03,3.84-10.79,4.58-6.06,1.19-12.49,2.56-18.47,1.72-10.55-1.49-15.87-8.05-15.75-18.51,.1-8.89,2.13-16.56,13.84-19.9,7.06-2.01,14.7-1.93,22.04-3,3.04-.45,7.99,2.12,8.41-3.32,.52-6.75-1.36-11.33-7.01-12.67-4.11-.98-8.52-.79-12.81-.87-2.47-.05-4.96,.35-7.43,.66-2.45,.31-4.89,.76-7.51,1.17Zm26.22,24.53l-.14-.71c-5.17,1.01-10.45,1.69-15.49,3.15-3.82,1.11-6.21,4.52-5.84,8.37,.29,3,1.54,7.12,3.76,8.49,8.28,5.12,15.94,.81,23.31-3.18,5.52-2.99,2.66-8.28,2.92-12.58,.07-1.11-2.11-2.81-3.59-3.43-1.42-.59-3.27-.13-4.94-.13Z"/><path class="cls-2" d="M286.25,89.8c2.87,11.88,3.09,11.14-8.67,12.61-7.66,.96-15.55,.95-23.27,.42-16.64-1.16-21.67-10.87-23.2-23.77-.9-7.62-.63-15.63,.65-23.21,2.71-16.14,11.98-23.62,28.59-24.05,4.6-.12,9.31,.34,13.83,1.24,9.33,1.84,14.13,8.36,15.58,17.23,.9,5.51,.69,11.2,1.16,16.79,.31,3.69-1.13,4.97-4.83,4.92-11.14-.17-22.28-.07-33.42-.05-6.93,.02-6.89,.22-5.86,7.1,1.82,12.14,10.38,13.14,21.99,12.82,5.73-.15,11.44-1.31,17.45-2.04Zm-24.89-27.33c3.98,0,7.99,.29,11.92-.17,1.27-.15,3.2-2.15,3.31-3.44,.91-10.11-4.36-15.16-15.29-15.07-9.3,.07-16,6.98-14.98,15.84,.12,1.07,2.28,2.59,3.62,2.72,3.78,.37,7.61,.13,11.43,.12Z"/><path class="cls-2" d="M197.49,215.64c-3.24,1.78-5.12,2.76-6.96,3.82-6.85,3.96-14.26,5.25-22.07,4.54-9.15-.84-15.3-7.72-15.48-18.22-.27-15.58-.03-31.16-.12-46.75-.02-3,1.07-4.16,4.07-4.13,13.71,.14,11.07-1.27,11.34,10.84,.27,12.24,.24,24.5,.85,36.73,.37,7.44,5.39,10.75,12.68,9.16,1.93-.42,3.78-1.24,5.62-2,5.15-2.15,7.96-5.21,7.64-11.62-.65-12.73-.07-25.52-.26-38.28-.06-3.74,1.26-4.92,4.91-4.85,13.64,.28,11.15-1.42,11.25,10.84,.15,17.24-.09,34.48,.13,51.72,.06,4.3-1.08,5.84-5.57,5.71-4.63-.13-8.91,.23-8.02-7.51Z"/><path class="cls-2" d="M106.12,130.64c0,7.05,.16,13.32-.06,19.59-.12,3.45,1.14,4.78,4.56,4.72,6.81-.12,13.64,.14,20.44-.06,4.95-.14,3.97,3.2,4.11,6.08,.15,3.09,.03,5.5-4.3,5.36-7.95-.27-15.92-.08-24.33-.08-.16,1.74-.4,3.16-.4,4.57-.03,9.78-.06,19.56,0,29.34,.04,7.56,2.45,10.9,9.85,11.73,5,.56,10.21,.05,15.22-.67,2.94-.42,4.11,.37,4.37,2.98,.27,2.74,2.39,6.5-1.78,7.63-10.88,2.96-21.98,3.83-32.83-.04-8.19-2.92-10.71-9.97-10.92-17.87-.25-9.77-.02-19.56-.08-29.34-.06-9.52,1.02-8.2-8.1-8.34-1.33-.02-2.68,.15-3.98-.04-1.86-.28-5.09-.49-5.27-1.28-.64-2.8-.41-5.85-.05-8.75,.07-.54,2.21-1.11,3.43-1.18,3.32-.18,6.65-.13,9.97-.09,2.94,.03,4.14-1.29,4.05-4.25-.14-4.8,.05-9.61-.06-14.42-.06-2.61,.7-3.93,3.6-4.09,3.94-.22,7.85-.92,12.55-1.51Z"/><path class="cls-2" d="M604.67,9.86c0,6.36,.18,12.27-.06,18.15-.18,4.23,1.18,5.98,5.67,5.75,6.63-.33,13.3,.12,19.94-.15,4.44-.18,4.28,2.46,4.19,5.45-.08,2.94,.73,6.17-4.17,6.01-6.64-.22-13.3,.09-19.94-.09-3.98-.11-5.8,1.27-5.67,5.44,.35,10.58,.07,21.2,.84,31.75,.46,6.4,4.26,9.2,10.81,9.21,5.77,0,11.53-.5,17.69-.8,.39,2.12,1.28,4.68,1.16,7.18-.06,1.26-1.76,3.18-3.06,3.52-9.4,2.45-18.95,3.22-28.53,.96-9.14-2.16-14.15-8.37-14.25-17.82-.12-10.94-.03-21.88-.05-32.82-.01-6.48-.08-6.53-6.78-6.57-1.83-.01-3.68-.2-5.48,.03-4.75,.62-5.82-1.54-5.86-5.96-.04-4.52,1.54-5.58,5.8-5.51,12.33,.19,12.33,.02,12.33-12.21q0-9.63,9.7-10.73c1.6-.18,3.19-.44,5.73-.79Z"/><path class="cls-2" d="M704.8,35.27c.17,.48,.29,.65,.27,.79-1.32,9.06-1.3,8.84-10.84,7.97-5.45-.5-10.97-.27-16.45-.09-1.75,.06-3.63,.73-5.16,1.61-5.05,2.91-5.14,8.96,.15,11.34,5.26,2.36,10.97,3.72,16.48,5.51,2.99,.97,6.05,1.79,8.97,2.93,8.77,3.41,12.11,8.27,12.08,17.31-.03,8.49-4.36,14.92-12.46,17.92-9.73,3.6-19.86,3.46-30,2.6-3.13-.27-6.21-1.13-9.33-1.37-3.82-.29-4.95-1.91-3.76-5.56,.55-1.69,.48-3.58,.78-6.07,4.26,.58,8.43,1.52,12.62,1.62,6.76,.16,13.56,.08,20.28-.54,3.59-.33,6.43-2.5,6.74-6.78,.31-4.33-2.25-6.43-5.8-7.59-7.4-2.43-14.95-4.41-22.27-7.03-9.78-3.5-13.03-8.26-12.89-17.66,.12-8.46,4.72-14.67,13.72-17.4,11.54-3.5,23.28-2.68,34.96-.43,.75,.14,1.42,.7,1.91,.95Z"/><path class="cls-2" d="M1,221.94c-.38-1.01-.51-1.17-.49-1.32,1.62-12.25-.57-9.5,11.47-8.39,6.76,.62,13.6,.5,20.4,.44,1.73-.02,3.91-.64,5.05-1.8,1.7-1.73,3.58-4.14,3.65-6.32,.07-1.95-1.74-4.88-3.54-5.8-3.93-2.03-8.36-3.1-12.62-4.48-4.1-1.33-8.31-2.39-12.34-3.89C3.94,187.16,.25,182.07,.15,173.69c-.1-8.23,4.51-14.81,12.74-17.73,11.66-4.13,23.54-3.36,35.36-.88,1.17,.25,2.58,2.59,2.67,4.03,.14,2.2-.78,4.46-1.23,6.59-7.33-.49-14.39-1.11-21.46-1.35-2.6-.09-5.59,.08-7.74,1.29-2.16,1.22-4.69,3.79-4.87,5.94-.16,2.07,1.99,5.31,4,6.36,3.9,2.04,8.42,2.91,12.69,4.25,3.48,1.09,7.01,2.06,10.46,3.25,10.29,3.57,13.64,8.28,13.49,18.76-.12,8.74-4.77,15.14-13.99,17.71-13.73,3.82-27.56,2.61-41.27,0Z"/><path class="cls-2" d="M336.92,223.02c-8.65,0-17.31-.18-25.95,.07-4.36,.13-4.37-2.32-4.27-5.39,.1-2.97-.67-6.15,4.24-5.92,5.98,.27,11.98-.05,17.96,.09,3.2,.07,4.54-1.24,4.53-4.38-.05-12.44-.05-24.88-.01-37.32,.01-2.99-1.32-4.04-4.28-3.96-5.82,.15-11.65-.13-17.47,.1-4.12,.16-4.17-2.3-3.97-5.15,.19-2.74-1.19-6.31,3.89-6.25,11.15,.12,22.29,.11,33.44,0,3.69-.04,3.87,2.08,3.86,4.84-.05,15.26,.17,30.53-.13,45.78-.1,5.13,1.63,6.96,6.59,6.36,2.13-.26,4.35,.19,6.48-.09,4.89-.65,6.35,1.36,6.15,6.12-.16,3.77-.99,5.33-5.1,5.19-8.64-.29-17.3-.09-25.95-.09Z"/><path class="cls-2" d="M54.85,90.14c.31,2.68,.93,5.13,.75,7.53-.1,1.33-1.34,3.47-2.4,3.7-11.26,2.43-22.56,3.24-33.96,.45-8.78-2.14-14.27-7.61-16.75-15.98-2.95-9.99-3.31-20.22-.92-30.39,3.27-13.93,11.84-21.55,26.61-22.56,7.87-.54,15.87,.43,23.79,1.04,1.46,.11,3.97,1.73,3.99,2.69,.07,2.86-.78,5.76-1.56,8.57-.08,.29-2.07,.09-3.17,.06-6.42-.18-12.91-1.05-19.25-.42-9.43,.92-14.26,5.41-15.26,14.72-.73,6.8-.26,13.9,.83,20.68,1.1,6.77,6.48,10.88,13.48,11.09,6.22,.18,12.47-.45,18.71-.75,1.62-.08,3.24-.26,5.09-.42Z"/><path class="cls-2" d="M475.4,91.42c1.1,9.97,1.13,10.32-9.6,11.15-7.55,.58-15.23,.58-22.76-.13-10.97-1.03-17.8-7.43-20.54-18.07-2.43-9.44-2.73-19-.63-28.52,3.09-14,12.16-22.05,26.91-22.97,7.73-.48,15.56,.48,23.34,.92,4.66,.26,5.01,3.33,4.35,7.03-.62,3.47-1.38,5.34-6.06,4.42-5.74-1.13-11.91-1.08-17.77-.45-9.62,1.03-14.22,5.12-15.39,14.61-.83,6.78-.35,13.91,.72,20.69,1.07,6.83,6.42,10.96,13.38,11.24,7.87,.33,15.77,.08,24.06,.08Z"/><path class="cls-2" d="M356.21,85.45c13.64,0,27.28,.11,40.91-.07,3.74-.05,4.95,1.23,4.88,4.88-.28,13.63,1.4,11.16-10.87,11.23-25.28,.13-50.56-.08-75.84,.15-4.67,.04-6.05-1.37-5.91-5.91,.37-12.18-1.21-10.14,10.4-10.24,12.14-.11,24.28-.02,36.42-.02Z"/><path class="cls-2" d="M341.04,140.44c-8.07,0-10.43-2.04-10.38-9,.06-6.66,3-9.2,10.59-9.13,7.23,.06,9.6,2.38,9.6,9.38,0,7.12-1.83,8.75-9.81,8.76Z"/><path class="cls-2" d="M550.65,169.06c-1.01,.51-2.68,2.08-4.33,2.06-5.4-.05-13.8-8.59-13.61-13.98,.05-1.36,2.44-3.68,3.85-3.75,5.51-.3,14.09,8.62,14.09,15.67Z"/><path class="cls-2" d="M505.43,178.94c5.42,.1,13.83,8.19,14.09,13.69,.16,3.38-1.51,5.19-4.92,4.12-6.21-1.95-10.62-6.07-12.82-12.2-1.34-3.73,.09-5.67,3.65-5.61Z"/></g></g></svg>