<?xml version="1.0" encoding="UTF-8"?><svg id="Layer_2" xmlns="http://www.w3.org/2000/svg" viewBox="0 0 759.12 392.47"><defs><style>.cls-1{fill:#ef7601;}.cls-2{fill:#f07b00;}.cls-3{fill:#ea570c;}.cls-4{fill:#f28900;}.cls-5{fill:#f18500;}.cls-6{fill:#f39200;}.cls-7{fill:#ef7700;}.cls-8{fill:#ee7202;}.cls-9{fill:#030405;}.cls-10{fill:#040506;}.cls-11{fill:#060708;}.cls-12{fill:#ee7302;}.cls-13{fill:#f08000;}.cls-14{fill:#e7460f;}.cls-15{fill:#e9530d;}.cls-16{fill:#eb6309;}.cls-17{fill:#ec6707;}.cls-18{fill:#040405;}.cls-19{fill:#050607;}.cls-20{fill:#ef7701;}.cls-21{fill:#f28e00;}.cls-22{fill:#fcefe4;}.cls-23{fill:#ed6d05;}.cls-24{fill:#ea5c0b;}.cls-25{fill:#ea570d;}.cls-26{fill:#f28a00;}.cls-27{fill:#e84d0e;}.cls-28{fill:#ec6807;}.cls-29{fill:#f07c00;}.cls-30{fill:#ed6d04;}</style></defs><g id="Layer_1-2"><path class="cls-9" d="M759.12,305.95c-6.55-.03-13.1-.06-19.66-.11-.81,0-1.17,.25-1.13,1.1,.05,1.04,0,2.08,0,3.11,0,9.18,0,18.37,0,27.55,0,1.94-.02,1.97-1.94,1.97-9.75,0-19.51,0-29.26,0-1.94,0-1.8,.05-1.8-1.84,0-9.74,0-19.49,0-29.23,0-.56-.02-1.12,0-1.68,.03-.73-.33-1-1.02-.98-.64,.02-1.28,0-1.92,0-18.23,0-36.45-.02-54.68,.04-1.66,0-2.8-.46-3.91-1.7-6.46-7.19-13-14.31-19.53-21.44-1.55-1.69-1.21-1.48-.02-2.85,27.88-32.29,55.77-64.57,83.63-96.88,.87-1.01,1.76-1.37,3.07-1.37,8.31,.05,16.63,.03,24.94,.03,2.74,0,2.44-.16,2.44,2.45,0,30.19,0,60.38,0,90.57q0,2.99,3.03,2.99c5.92,0,11.83-.01,17.75-.02v28.29Z"/><path class="cls-9" d="M747.61,392.24c-3.02-.8-5.98-1.73-8.25-4.03,.04-.2,.03-.39,.11-.5,.74-.93,1.29-2.28,2.38-2.58,1.05-.29,1.84,1.03,2.79,1.55,2.26,1.25,4.64,1.7,7.16,1.26,1.66-.29,2.78-1.37,2.96-2.72,.2-1.42-.5-2.52-2.28-3.23-1.25-.5-2.57-.86-3.88-1.2-1.39-.36-2.77-.74-4.1-1.29-2.78-1.16-4.32-3.18-4.35-6.25-.03-3.19,1.34-5.55,4.23-6.91,3.14-1.48,6.37-1.18,9.59-.26,.31,.09,.61,.19,.9,.34,4.62,2.37,4.21,1.83,1.1,5.62-1.89-1.17-3.8-2.29-6.11-2.51-.98-.09-1.94-.03-2.84,.26-1.21,.39-2.08,1.2-2.24,2.54-.17,1.37,.54,2.28,1.69,2.9,1.06,.57,2.23,.87,3.38,1.19,1.31,.37,2.63,.68,3.92,1.1,2.43,.8,4.44,2.12,5.35,4.67v4.79c-.68,3.74-3.35,5.05-6.72,5.5-.37,0-.74,0-1.11,0-.87,0-1.74,0-2.62,0-.37,0-.76,.06-1.07-.24Z"/><path class="cls-22" d="M0,167.87l.88-.97c1.24,1.91,1.16,3.83,.06,5.77-.76-.42-.19-1.5-.95-1.92v-2.88Z"/><path class="cls-9" d="M379.81,248.77c.9-.7,1.22-1.55,1.67-2.28,12.79-20.53,25.58-41.06,38.31-61.62,.92-1.49,1.82-2.19,3.73-2.17,10.87,.12,21.75,.06,32.62,.06,2.37,0,2.25-.32,2.25,2.11,0,50.89,0,101.77,0,152.66,0,2.26,.2,2.04-2.07,2.04-9.99,0-19.99,0-29.98,0-2.55,0-2.23,.3-2.23-2.34,0-32.19,0-64.39,0-96.58v-2.68c-1.06,.52-1.31,1.32-1.72,1.95-13.73,20.79-27.44,41.58-41.15,62.38-.13,.2-.25,.41-.38,.61-1.18,1.71-1.56,1.74-2.69,.03-3.75-5.66-7.48-11.33-11.21-16.99-10.06-15.26-20.12-30.53-30.18-45.79-.3-.46-.64-.9-1.1-1.53-.46,.94-.28,1.8-.28,2.61-.01,31.71-.01,63.43-.01,95.14,0,.56-.07,1.13,.01,1.68,.21,1.36-.49,1.57-1.65,1.56-10.23-.03-20.47-.01-30.7-.02-1.62,0-1.62-.04-1.65-1.76,0-.4,0-.8,0-1.2,0-50.33,0-100.65,0-150.98q0-2.86,2.95-2.86c10.71,0,21.43,.03,32.14-.03,1.6,0,2.53,.42,3.42,1.86,12.85,20.77,25.77,41.5,38.68,62.23,.38,.61,.76,1.21,1.23,1.95Z"/><path class="cls-9" d="M600,292.49c7.55,7.31,15,14.51,22.46,21.73-13.86,15.32-30.49,24.99-51.13,27.32-13.52,1.53-26.86,1.04-39.77-3.49-27.29-9.56-44.63-28.58-51.56-56.5-5.36-21.62-2.67-42.6,8.59-62,11.98-20.64,30.07-33.16,53.44-37.75,16.78-3.3,33.41-2.23,49.65,3.31,10.93,3.73,20.23,10.1,28.54,18.02,.85,.8,1.05,1.34,.18,2.32-6.7,7.63-13.33,15.31-19.99,22.96-1.05,1.2-1.09,1.19-2.4,.05-4.76-4.17-9.8-7.95-15.47-10.83-10.79-5.49-22.13-7.29-33.94-4.41-14.32,3.49-24.43,12.39-30.23,25.75-7.03,16.17-6.58,32.49,1.88,48.01,8.72,15.99,22.61,23.75,40.94,23.4,11.54-.22,21.66-4.23,30.74-11.17,2.92-2.23,5.68-4.65,8.06-6.71Z"/><path class="cls-17" d="M222.75,148.66c4.33,.35,8.46,1.57,12.57,2.86,8.84,2.78,17.53,5.96,25.64,10.53,3.28,1.85,6.33,4,9.26,6.38,3.24,2.63,4.5,6.01,4.75,10.03,.5,8.09-1.33,15.69-4.57,23.02-2.9,6.54-6.84,12.44-11.2,18.08-12.37,16.05-25.71,31.21-40.99,44.58-7.47,6.54-15.37,12.5-24.19,17.15-4.32,2.28-8.83,4.06-13.56,5.32-3.11,.82-6.11,.74-9.2-.13-7.37-2.09-13.5-6.14-18.68-11.64-8.56-9.08-15.67-19.15-20.37-30.79-.3-.73-.74-1.42-.75-2.25-.23-.3-.14-.73-.41-1.02l-.16-.46c.9-.9,1.95-.44,2.94-.28,20.66,3.24,39.98-.63,57.59-11.75,18.52-11.7,29.57-28.54,32.36-50.41,1.09-8.56-.13-17.02-2.69-25.26-.17-.53-.36-1.06-.5-1.6-.57-2.24-.25-2.59,2.16-2.33Z"/><path class="cls-17" d="M.95,172.67l-.06-5.77c11.38-11.41,12.3-31.51,3.52-44.8-3.07-4.64-3.83-9.52-3.33-14.81,.25-2.65,1.09-5.11,2.4-7.46,6.32-11.4,15.87-18.05,28.83-19.79,5.44-.73,10.83-.62,16.18,.64,2,.59,2.23,1.23,.65,2.54-2.59,2.14-5.07,4.37-7.46,6.73-11.66,11.49-18.17,25.5-20.35,41.57-1.87,13.84,.73,26.98,6.64,39.55,.57,1.22,1.8,2.38,.83,3.96-5.36,1.95-10.62,4.24-16.33,5.07-1.77,.26-3.51,.13-5.2-.33-2.51-.68-4.36-2.23-5.39-4.67-.34-.8-.61-1.63-.92-2.45Z"/><path class="cls-14" d="M374.78,0h1.44c2.94,.28,5.86,.64,8.71,1.44,2.86,.8,4.19,2.57,4.28,5.55,.06,1.96-.47,3.79-1.22,5.56-1.76,4.14-4.17,7.92-7.2,11.22-8.19,8.94-16.48,17.78-24.73,26.66-.16,.17-.37,.29-.56,.43-1.18,.65-1.55-.47-2.03-1.04-4-4.85-8.06-9.63-12.25-14.32-4.89-5.48-10.27-10.41-15.72-15.3-1.83-1.65-3.84-3.1-5.56-4.87-.62-.63-1.59-1.36-.37-2.35,4.78-2.4,9.83-4.13,14.86-5.9,9.44-3.31,19.09-5.75,29.06-6.86,.87-.1,1.75-.15,2.63-.23h1.92c2.25,0,4.5,0,6.75,0Z"/><path class="cls-6" d="M125.76,194.24c.06-4.43,1.23-8.66,2.49-12.86,1.72-5.75,4.2-11.18,7.21-16.38,.53-.92,1.18-1.62,2.19-2.08,10.55-4.79,21.41-8.64,32.7-11.25,4.97,5.17,8.2,11.22,8.66,18.44,.41,6.61-1.63,12.61-5.64,17.87-5.71,7.48-13.53,11.11-22.73,12.19-7.84,.92-15.03-.92-21.74-4.9-.99-.59-2.04-.85-3.14-1.05Z"/><path class="cls-16" d="M318.19,127.75c.06,.14,.02,.26-.1,.34-.25,.27-.15,.69-.43,.94h0c-1.4,.12-1.67-1.06-2.04-1.94-5.5-13.22-13.07-25.18-22.17-36.19-10.84-13.11-23.76-23.77-38.45-32.32-1.72-1-3.47-1.97-5.24-2.9-.67-.35-1.8-.61-1.17-1.87l.04-.02c.21-.32,.7-.21,.87-.58l-.05,.04c.24-.07,.38-.28,.56-.42h.02c.11-.17,.25-.28,.42-.35,.08-.15,.21-.22,.37-.2,.25-.08,.44-.25,.61-.44h0c.13-.15,.28-.26,.45-.35,.07-.14,.18-.2,.34-.18,.27-.06,.46-.24,.63-.44,3.86-2.9,7.98-5.41,12.02-8.03,7.4,4.15,14.31,9.02,20.83,14.42,9.87,8.18,18.78,17.29,26.58,27.48,3.25,4.25,6.35,8.61,9.09,13.21,.78,1.31,1.67,2.52,2.55,3.76-.98,3.41-1.95,6.83-2.96,10.23-1.02,3.41-1.65,6.91-2.41,10.38-.33,1.27-.3,2.54-.02,3.81v.51c-.22,.33-.19,.74-.36,1.09Z"/><path class="cls-23" d="M26.8,187.38c4.75-4.41,10.05-8.04,15.88-10.89,1.5,.32,1.71,.68,.99,2.35-1.14,2.63-2.31,5.26-3.32,7.95-3.92,10.44-6.26,21.2-7.13,32.34-1.54,19.79,2.14,38.54,10.39,56.5,.9,1.96,1.8,3.9,2.87,5.78,.49,.86,1.21,1.76,.55,2.88-4.44,1.95-8.94,2.33-13.54,.61,.3-1.7-.53-3.09-1.21-4.53-6.26-13.35-9.93-27.41-11.29-42.05-1.54-16.63,.57-32.9,5.37-48.86,.2-.68,.59-1.32,.45-2.08Z"/><path class="cls-30" d="M309.7,137.29c-1.7,1.39-3.59,2.1-5.85,1.88-1.63-.16-3.29-.12-4.93-.16-1.37-.05-2.04-.83-2.55-2.06-5-12.2-11.79-23.31-20.44-33.28-9.17-10.58-19.78-19.4-31.94-26.38-4.37-2.51-8.93-4.6-13.52-6.65-.87-.39-2.19-.54-1.65-2.09l-.03,.04c.26-.07,.41-.28,.56-.47,2.98-2.64,6.13-5.06,9.47-7.24,8.16,3.55,15.77,8.09,22.99,13.25,15.48,11.08,27.98,24.88,37.59,41.32,4.08,6.98,7.4,14.31,10.3,21.84Z"/><path class="cls-7" d="M60.95,275.31c-2.05,1.86-4.28,3.46-6.73,4.75-2.58-3.11-4.05-6.85-5.61-10.48-5.21-12.14-8.05-24.8-8.56-38.07-.8-20.76,4.16-39.97,14.43-57.92,.51-.89,1.15-1.74,1.12-2.85,4.13-1.79,8.41-3.06,12.84-3.87,.36-.14,.77-.14,1.12-.34l.85-.13c.62-.23,1.31-.45,1.68,.28,.33,.64-.11,1.24-.49,1.75-1.81,2.44-3.51,4.95-5.18,7.49-8.88,13.51-13.68,28.35-14.98,44.46-1.45,17.87,2.43,34.57,10.17,50.55,.49,1.01,1.5,1.98,.73,3.3l-.05,.04c-.19,.33-.7,.22-.83,.62l.05-.05c-.27,.06-.41,.27-.57,.47Z"/><path class="cls-24" d="M323.94,101.73c-.84,0-1.23-.55-1.62-1.2-1.03-1.7-2.15-3.34-3.2-5.03-2.81-4.52-6.07-8.71-9.3-12.94-4.95-6.47-10.69-12.19-16.51-17.84-3.53-3.42-7.31-6.57-11.22-9.58-3.09-2.37-6.18-4.72-9.43-6.86-1.79-1.18-3.6-2.33-5.46-3.41-.92-.53-1.7-1.16-2.3-2.03,4.28-3,8.65-5.88,13.27-8.35,5.24,2.79,9.9,6.42,14.51,10.09,13.76,10.96,25.69,23.65,35.7,38.13,.55,.79,1.32,1.38,1.8,2.23-2.41,5.47-3.98,11.24-6.23,16.77Z"/><path class="cls-28" d="M309.7,137.29c-.76-.28-.98-.91-1.26-1.61-1.86-4.57-3.67-9.16-5.99-13.52-4.41-8.29-9.44-16.17-15.36-23.51-4.22-5.23-8.86-10.04-13.78-14.55-6.5-5.97-13.62-11.18-21.26-15.65-3.71-2.17-7.46-4.28-11.34-6.14-.72-.34-1.47-.66-1.87-1.43l.02,.02c.29-.03,.43-.26,.58-.47,2.89-2.43,5.95-4.62,9.16-6.61,0,.82,.67,1.02,1.23,1.3,5.82,2.84,11.24,6.34,16.53,10.03,4.43,3.09,8.66,6.44,12.68,10.09,2.72,2.46,5.38,4.98,7.95,7.59,6.49,6.6,12.11,13.89,17.19,21.62,2.98,4.53,5.71,9.2,8.17,14.02,1.34,2.62,2.38,5.39,3.62,8.06,.42,.91,.64,2.01,1.7,2.51-1.44,3.42-3.91,5.88-7.09,7.71-.22,.09-.39,.24-.57,.39-.05,.13-.15,.19-.29,.16Z"/><path class="cls-29" d="M62.35,274.24c-.09-1.08-.74-1.93-1.2-2.84-3.52-6.99-6.3-14.27-8.05-21.9-1.13-4.94-1.97-9.92-2.34-15.01-.21-2.94-.46-5.87-.36-8.8,.21-6.02,.89-12,2.08-17.92,1.55-7.68,4.21-15,7.5-22.07,2.62-5.63,6.17-10.75,9.75-15.83,.5-.71,1.07-1.38,1.58-2.09,.75-1.02,.74-1.03-.91-1.4,3.41-1.07,6.9-1.68,10.46-1.93,.52-.24,1.12-.07,1.64-.33,.58-.15,1.17-.25,1.77-.14,.65-.34,1.42-.01,2.07-.34l.5-.03c.61,1.27-.41,1.91-1.08,2.61-1.93,2.02-3.81,4.1-5.6,6.22-11.19,13.32-17.67,28.68-19.57,45.97-1.81,16.46,1.24,32.05,8.32,46.94,.4,.85,1,1.67,.65,2.71-2.19,2.31-4.62,4.34-7.23,6.16Z"/><path class="cls-23" d="M28.79,175.05c.09-.84-.29-1.55-.66-2.26-2.88-5.45-4.83-11.24-6.26-17.23-1.67-6.96-2.27-14.04-1.62-21.09,.99-10.72,4.1-20.93,9.53-30.28,2.84-4.88,6.13-9.5,10.23-13.46,2.87-2.76,5.54-5.73,8.87-7.98,1.18-.8,1.08-1.11-.41-2.05,4.64,.41,8.92,1.94,12.94,4.23,.66,1.66-.82,2.06-1.7,2.67-7.29,5.09-13.56,11.16-18.35,18.69-5.81,9.14-9.12,19.08-10.1,29.88-1.07,11.68,1.11,22.7,5.95,33.29,.39,.85,.96,1.72,.2,2.68-2.82,1.14-5.68,2.18-8.64,2.91Z"/><path class="cls-5" d="M82.57,254.74c-1.98,2.65-4.23,5.04-6.7,7.24-1.28-.98-1.71-2.49-2.3-3.85-4.11-9.42-5.95-19.24-6.16-29.55-.34-16.3,4.13-31.07,12.95-44.6,5.15-7.9,11.78-14.47,19.36-20.07,.32-.23,.71-.38,.79-.52-1.82,.37-3.75,.82-5.64-.38,.51-.28,1.08-.28,1.64-.29,7.51-.2,15.02-.35,22.51,.46,.53,1.63-.74,2.16-1.78,2.57-3.07,1.22-5.86,2.96-8.6,4.74-15.32,9.95-25.04,23.86-29.36,41.6-3.37,13.81-2.1,27.24,3.11,40.38,.29,.74,.68,1.47,.2,2.28Z"/><path class="cls-30" d="M222.75,148.66c-2.15,.24-2.19,.25-1.53,2.21,1.6,4.76,2.81,9.64,3.23,14.61,.24,2.87,.38,5.79,.23,8.74-.21,4.24-.9,8.37-1.87,12.45-1.97,8.3-5.49,15.95-10.52,22.84-3.23,4.42-6.77,8.57-10.99,12.18-5.37,4.59-11.08,8.54-17.44,11.58-6.99,3.35-14.31,5.62-21.94,7.12-6.88,1.35-13.77,1.44-20.68,1.26-2.83-.07-5.65-.75-8.46-1.21-.64-.11-1.26-.15-1.9-.14-.93-1.77-1.52-3.66-1.86-5.62-.36-2.07,1.13-1.58,2.09-1.36,6.2,1.42,12.49,1.61,18.81,1.51,8.82-.14,17.26-2.07,25.41-5.33,9.31-3.72,17.7-8.95,24.62-16.22,9.64-10.13,15.57-22.2,17.12-36.15,.97-8.76-.36-17.36-3.53-25.63-.26-.67-.54-1.33-.71-2.03-.4-1.65,.19-2.31,1.88-1.8,2.73-.05,5.42,.24,8.05,.98Z"/><path class="cls-8" d="M55.61,170.73c.67,.08,1.12,.33,.7,1.08-.54,.98-1.1,1.94-1.67,2.89-3.11,5.14-5.51,10.6-7.57,16.22-1.95,5.31-3.56,10.72-4.57,16.28-.54,2.96-.89,5.96-1.34,8.93-.52,3.41,.18,6.87-.82,10.2-.02,.07-.02,.16-.01,.24,.57,3.62,.31,7.29,.73,10.93,.32,2.76,.71,5.5,1.14,8.24,.96,6.16,2.71,12.08,4.77,17.94,1.81,5.14,4.28,9.96,6.72,14.8,.25,.5,.55,.98,.54,1.57h0c-.13,.14-.28,.25-.45,.33-2.09,1.57-4.2,3.12-6.74,3.91-.09-.91-.59-1.65-1.02-2.41-3.74-6.61-6.47-13.64-8.76-20.85-1.66-5.23-2.84-10.56-3.69-15.97-.48-3.06-.66-6.14-1.03-9.2-.43-3.59-.3-7.15-.37-10.72-.07-3.73,.5-7.42,.88-11.13,.54-5.3,1.55-10.49,2.89-15.64,1.75-6.71,4.06-13.22,7.02-19.49,.2-.43,.46-.85,.59-1.3,.21-.72-.21-1.02-.87-1.09,2.88-1.81,5.92-3.25,9.15-4.3,.25-.29,.68-.18,.95-.42,.1-.12,.22-.15,.36-.1,.2-.1,.39-.2,.59-.31l.51-.13c.24-.29,.66-.18,.93-.4,.13-.12,.27-.16,.44-.11Z"/><path class="cls-13" d="M94.86,163.01h6.29c-1.05,1.93-2.75,2.64-4.01,3.74-3.41,2.99-6.96,5.78-9.81,9.39-1.32,1.67-2.88,3.21-4.16,4.92-4.95,6.63-8.65,13.94-11.37,21.72-1.68,4.8-2.56,9.81-3.26,14.86-.78,5.66-.64,11.34-.3,16.95,.45,7.38,2.21,14.57,5.1,21.46,.83,1.98,2.03,3.81,2.51,5.93-1.91,2.22-3.97,4.28-6.29,6.09-3.37-6.7-6.16-13.62-7.85-20.94-.85-3.7-1.37-7.46-1.84-11.24-.41-3.35-.26-6.67-.4-10-.18-4.15,.42-8.24,1.06-12.31,.75-4.7,1.82-9.35,3.43-13.84,3.16-8.81,7.35-17.1,13.04-24.56,1.24-1.63,2.52-3.27,4.05-4.69,1.93-1.78,3.32-4.07,5.32-5.79,.32-.27,.42-.67,.45-1.08,2.65-.5,5.32-.68,8.01-.61Z"/><path class="cls-4" d="M82.57,254.74c-.82-2.41-1.9-4.71-2.64-7.15-1.31-4.34-2.15-8.75-2.75-13.25-.42-3.11-.32-6.19-.39-9.29-.08-3.35,.51-6.65,1.14-9.91,1.41-7.21,3.74-14.14,7.34-20.59,2.72-4.87,5.8-9.49,9.73-13.5,3.85-3.94,7.78-7.77,12.55-10.62,3.07-1.83,5.96-3.99,9.4-5.16,.98-.33,1.92-.86,2.06-2.1,2.55,.07,5.07,.43,7.6,.76,.94,.13,1.22,.57,1.17,1.41-.1,1.66,.06,3.36-.65,4.94-.32,1.35-1.39,1.8-2.54,2.25-21.55,8.43-33.99,24.22-37.57,46.94-1.28,8.12-.67,16.24,1.69,24.18,.34,1.15,.73,2.31,.14,3.5-1.85,2.73-3.93,5.27-6.26,7.6Z"/><path class="cls-7" d="M296.03,138.96c-6.55,.11-13.09-.24-19.64-.39-1.81-2.64-2.95-5.64-4.61-8.37-10.17-16.7-23.83-29.61-41.38-38.36-5.44-2.71-10.97-5.16-16.8-6.93-1.11-.34-2.75-.62-1.58-2.51l-.05,.06c.3-.04,.47-.23,.56-.5l-.05,.05c.27-.08,.42-.28,.55-.5,2.41-2.35,5.01-4.49,7.71-6.5,5.6,2.9,11.58,4.96,17.14,7.96,8.06,4.34,15.39,9.64,22.21,15.72,11.92,10.62,20.97,23.31,27.57,37.78,.5,1.1,1.16,1.61,2.36,1.57,1.36-.05,2.72-.07,4.07,.02,.73,.05,1.68-.21,1.95,.89Z"/><path class="cls-27" d="M319.57,12.99c-.4,.68-.13,1.17,.41,1.65,1.72,1.52,3.37,3.14,5.14,4.6,3.97,3.3,7.76,6.8,11.4,10.46,4.31,4.34,8.31,8.95,12.26,13.6,1.95,2.3,3.74,4.72,5.74,6.97,.28,.32,.54,.56,.96,.59-3.3,3.85-6.61,7.71-9.91,11.56-.24,.13-.46,.27-.5,.58l.06-.05c-1.18,1.05-1.82,.13-2.49-.68-2.53-3.08-4.89-6.3-7.48-9.33-5.92-6.92-12.33-13.33-19.07-19.45-3.96-3.6-8.16-6.89-12.35-10.2-.79-.62-1.82-1.23-.96-2.52,.09-.13,.21-.17,.36-.13,.23-.06,.39-.23,.59-.35,5.14-2.73,10.37-5.29,15.84-7.32Z"/><path class="cls-12" d="M296.03,138.96c-1.94-.68-3.94-.24-5.91-.31-2.16-.09-2.08-.07-3-2.02-3.49-7.35-7.35-14.48-12.33-20.95-2.57-3.34-5.33-6.51-8.14-9.65-7.24-8.07-15.68-14.61-24.91-20.17-5.68-3.42-11.67-6.21-17.86-8.6-1.21-.47-2.71-.62-3.13-2.23,.04-.15,.14-.22,.29-.2,.3-.05,.51-.23,.63-.5l-.05,.04c.24-.09,.39-.29,.55-.47,2.07-1.97,4.28-3.76,6.66-5.33,.07,.87,.74,1.16,1.42,1.44,2.88,1.18,5.74,2.4,8.5,3.81,7.68,3.93,14.86,8.6,21.62,13.98,5.27,4.19,9.99,8.94,14.59,13.79,3.05,3.22,5.7,6.82,8.3,10.44,4.35,6.03,8.04,12.44,11.22,19.14,.89,1.87,1.78,3.75,2.48,5.69,.38,1.08,.97,1.76,1.97,2.17-.97,.09-1.93,.15-2.89-.05Z"/><path class="cls-29" d="M212.01,82.41c-.5,1.37,.54,1.73,1.44,1.93,2.03,.45,3.93,1.24,5.87,1.97,9.97,3.76,19.3,8.68,27.73,15.21,3.38,2.62,6.75,5.33,9.75,8.37,3.66,3.73,7.1,7.71,10.17,11.96,3.31,4.58,6.34,9.34,8.76,14.47,.34,.72,.76,1.41,.67,2.26-3.05,.16-6.09,.08-9.14-.03-.64-.36-1.41,.04-2.04-.35-4.76-8.27-10.52-15.75-17.47-22.33-11.11-10.52-23.96-17.91-38.72-21.96-1.69-.47-3.44-.76-5.09-1.32-.81-.28-2.03-.44-1.43-1.87h0c.14-.17,.3-.31,.48-.44,2.86-2.79,5.81-5.47,9.03-7.85Z"/><path class="cls-17" d="M26.8,187.38c.74,.65,.53,1.38,.28,2.19-1.23,3.86-2.3,7.77-3.05,11.75-.81,4.28-1.66,8.54-2.01,12.9-.4,4.91-1.07,9.8-.85,14.72,.17,3.87,.48,7.75,.82,11.62,.63,7.07,2.1,13.95,3.96,20.76,1.36,4.98,2.99,9.9,5.11,14.63,1.08,2.39,2.1,4.81,3.15,7.22,.37,.85,.5,1.57-.73,1.73l-.21,.02-.17-.11c-.28-.26-.71-.16-1-.41-1.6-.33-2.81-1.38-4.1-2.25-2.8-1.9-5.55-3.87-7.83-6.4-1.14-4.39-2.77-8.64-3.94-13.02-2.47-9.27-3.76-18.69-4.54-28.24-.82-10.03,.44-19.85,1.75-29.71,.11-.79,.3-1.57,.02-2.36,3.32-5.24,7.33-9.88,12.06-13.9,.07-.17,.19-.28,.36-.34,.03-.15,.11-.22,.26-.21,.34-.04,.59-.18,.67-.54l-.02-.02Z"/><path class="cls-6" d="M214.49,139.11c-3.96,.46-7.91,.99-11.88,1.36-20.73,1.98-40.65,6.96-59.6,15.68-2.18,1-2.17,1.01-4.07-1.1,2.09-2.37,4.17-4.78,6.3-7.14,3.69-4.08,7.26-8.27,11.22-12.09,1.6-.28,2.97-1.14,4.41-1.82,17.25-8.1,34.19-7.24,50.77,1.89,1.19,.66,3.25,.97,2.85,3.21Z"/><path class="cls-15" d="M302.79,20.78c-.02,.66,.07,1.25,.69,1.68,3.54,2.44,6.75,5.29,10.1,7.97,1.8,1.44,3.54,2.96,5.19,4.57,4.05,3.97,8.17,7.88,12.01,12.05,3.66,3.96,7.22,8.04,10.36,12.45,.74,1.04,1.77,1.84,2.34,3.01,.35,.72,1.01,.66,1.66,.46-1.8,2.64-3.75,5.18-5.82,7.62-.26,.15-.46,.35-.49,.67,.03,.15-.03,.24-.17,.29-.1,.17-.23,.33-.37,.47h0c-.18,.16-.37,.31-.44,.56l.05-.05c-.4,.15-.29,.66-.6,.88l-.02,.03c-.13,.19-.33,.33-.41,.55l.03-.02c-1.49,.67-2-.59-2.62-1.41-3.63-4.76-7.31-9.48-11.31-13.93-5.83-6.47-11.97-12.61-18.6-18.27-4.14-3.52-8.54-6.7-12.85-10-.84-.64-2.02-1.13-1.8-2.55v.03c.25-.03,.4-.24,.59-.38h.03c.23-.32,.68-.22,.92-.52h0c.27-.27,.73-.17,.95-.52l-.03,.02c.16-.12,.33-.24,.51-.34,.1-.13,.23-.18,.39-.15,.22-.08,.38-.24,.57-.36,2.94-1.79,5.98-3.39,9.13-4.79Z"/><path class="cls-5" d="M181.89,109.92c3.52-3.67,7.18-7.19,11.04-10.5,10.13,1.62,20.03,4.07,29.19,8.82,12.39,6.41,22.76,15.22,30.75,26.71,.67,.97,1.84,1.93,.88,3.37-3.99,.14-7.98,0-11.97,.08-1.07,.02-1.77-.38-2.44-1.18-12.53-15.01-28.71-23.23-47.98-25.63-2.44-.3-4.94-.22-7.38-.62-.78-.13-1.86,.22-2.08-1.05Z"/><path class="cls-13" d="M253.84,138.11c-.13-1.35-1.05-2.32-1.78-3.33-3.04-4.19-6.45-8.06-10.15-11.72-4.74-4.68-10.16-8.42-15.77-11.92-7.18-4.47-15.1-7.12-23.23-9.19-2.76-.7-5.59-1.13-8.4-1.64-.66-.12-1.25-.26-1.58-.9l.07-.06c.16-.34,.71-.21,.78-.66l-.06,.06c.32-.03,.49-.22,.55-.52l-.05,.06c.32-.06,.47-.28,.55-.57,2.41-2.52,5-4.85,7.73-7.03,.16,1.13,1.07,1.24,1.93,1.43,5.59,1.27,11.05,2.92,16.33,5.2,6.46,2.79,12.48,6.31,18.22,10.36,5.43,3.84,10.14,8.47,14.65,13.29,4.46,4.77,8.09,10.19,11.47,15.77,.26,.44,.26,.91,.27,1.39-3.84,.39-7.68,.43-11.51-.03Z"/><path class="cls-1" d="M68.13,88.81c2.61,1.46,5.01,3.2,7.21,5.22,.65,1.76-.83,2.21-1.84,2.82-5.6,3.37-10.54,7.52-14.51,12.69-12.82,16.69-15.75,34.96-8.5,54.78,.37,1.02,1.05,2.02,.46,3.19l.03-.04c-.21,.07-.4,.17-.57,.3l-.75,.17c-.28,0-.47,.19-.69,.32-1.88,.76-3.78,1.48-5.76,1.94-4.14-9.04-6.7-18.48-6.36-28.48,.55-16.01,6.13-29.99,17.36-41.64,4.19-4.36,9.06-7.79,13.93-11.26Z"/><path class="cls-2" d="M50.95,167.51c-1.29-3.84-2.76-7.61-3.7-11.57-1.31-5.57-1.63-11.23-1.07-16.83,.77-7.79,2.99-15.29,6.93-22.13,3.55-6.18,8.01-11.64,13.64-16.11,2.25-1.79,4.6-3.4,7.07-4.85,.79-.46,1.48-.96,1.53-1.97,2.63,1.8,5.05,3.84,7.24,6.14,.18,1.67-1.22,2.13-2.25,2.74-6,3.57-11.14,8.12-15.08,13.83-9.65,13.99-12.11,29.09-6.54,45.32,.28,.82,.75,1.61,.38,2.53v-.03c-.17,.1-.36,.2-.53,.32l-.45,.13c-.28,.26-.71,.16-.99,.42-1.99,.9-4.03,1.62-6.16,2.08Z"/><path class="cls-8" d="M214.7,147.69c-1.79,.4-1.81,.4-1.21,1.87,2.15,5.25,3.76,10.71,4.25,16.32,.79,8.96-.2,17.8-3.64,26.24-1.87,4.59-4.02,9.04-6.82,13.13-3.71,5.4-8.04,10.18-13.28,14.23-4,3.1-8.19,5.8-12.66,8.05-5.26,2.65-10.78,4.71-16.57,6.03-5.45,1.25-10.92,1.95-16.52,1.95-5.99,0-11.93-.21-17.75-1.74-.93-.25-1.37-.02-1.48,.91-.76-1.7-1.27-3.46-1.42-5.32-.42-1.7,.75-1.44,1.67-1.27,1.73,.31,3.44,.72,5.17,1.03,19.93,3.55,38.15-.62,54.35-12.68,12.87-9.58,20.7-22.43,22.94-38.44,1.34-9.57-.4-18.73-4.08-27.58-.41-.99-1.22-1.97-.36-3.12,2.48-.05,4.97-.26,7.41,.4Z"/><path class="cls-6" d="M105.64,124.54c3.19,3.36,5.94,7.08,8.78,10.72,4.86,6.23,9.5,12.61,13.94,19.15,.43,.63,.98,1.22,1.22,2.25-3.9-.5-7.62-.82-11.29-1.49-7.32-1.34-14.61-.87-21.92,0-2.05,.25-4.08,.79-6.16,.75-1.28-2.75-.8-5.68-.46-8.45,1.07-8.7,5.39-15.56,12.61-20.55,1.11-.77,2.11-1.7,3.28-2.38Z"/><path class="cls-8" d="M68.13,88.81c-.06,1.14-.95,1.57-1.77,2.07-5.34,3.29-9.94,7.48-14.09,12.12-4.22,4.72-7.44,10.14-9.96,15.94-2.16,4.98-3.66,10.21-4.27,15.58-.51,4.54-.88,9.1-.27,13.77,.68,5.24,1.62,10.34,3.45,15.28,.58,1.57,1.23,3.1,1.91,4.63,.3,.68,.62,1.31,.07,1.99-1.87,.8-3.78,1.5-5.77,1.94,.09-.85-.32-1.54-.67-2.26-2.92-5.8-4.66-11.96-5.59-18.37-.51-3.53-1.08-7.08-.91-10.65,.44-8.85,1.99-17.45,5.64-25.64,2.25-5.06,4.95-9.82,8.38-14.1,2.57-3.21,5.23-6.37,8.56-8.94,2.51-1.95,4.97-3.96,7.58-5.76,.57-.39,1-.78,1.01-1.49,2.42,.98,4.64,2.29,6.7,3.89Z"/><path class="cls-13" d="M125.66,218.34c-.61-1.86-.5-3.78-.47-5.7-.26-.63-.19-1.29-.14-1.95,.94-.78,1.83-.18,2.67,.17,5.76,2.37,11.81,3.71,17.97,3.74,13.58,.06,25.74-3.91,35.85-13.44,6.5-6.13,10.81-13.43,12.49-22.14,1.87-9.7,.15-18.89-4.79-27.46-.57-.99-1.56-1.95-.66-3.26,2.06-.41,4.13-.7,6.24-.59,4.2,6.52,6.46,13.7,6.86,21.41,.71,13.52-3.97,25.18-13.19,34.85-8.64,9.06-19.43,14.52-31.87,16.25-9.43,1.31-18.82,.98-27.97-2.04-1.05-.35-2.02-.4-2.99,.16Z"/><path class="cls-5" d="M188.58,148.29c-.08,.85,.29,1.56,.71,2.24,2.88,4.65,4.75,9.64,5.6,15.09,1.35,8.66-.13,16.8-4.05,24.53-3.27,6.45-8.23,11.46-14,15.73-5.75,4.25-12.25,6.76-19.16,8.28-1.84,.41-3.72,.86-5.66,.7-1.44-.12-2.79,.55-4.25,.5-7.78-.25-15.33-1.56-22.46-4.82-.65-1.77-.17-3.6-.29-5.4-.07-1.02,.58-1.21,1.41-1.02,.94,.21,1.76,.75,2.63,1.13,18.33,8.06,42.26,3.06,53.81-14.87,7.53-11.68,7.54-23.88,.97-36.09-.53-.98-1.17-1.9-1.75-2.85-.48-.78-.9-1.59,.25-2.21,2.05-.55,4.13-.84,6.25-.94Z"/><path class="cls-13" d="M59.09,164.59c-1.88-4.08-2.78-8.39-3.49-12.82-1.11-6.93-.14-13.63,1.73-20.25,1.88-6.67,5.12-12.59,9.61-17.93,3.22-3.83,6.9-7.03,10.94-9.87,.98-.69,2-1.31,3.03-1.9,.71-.41,1.33-.88,1.67-1.65,2.1,1.58,4,3.37,5.71,5.37,.17,.16,.31,.34,.5,.48h-.01c.14,.17,.31,.34,.49,.48h0c.6,1.51-.76,1.72-1.56,2.17-9.29,5.18-15.91,12.71-19.75,22.61-3.49,8.98-3.97,18.16-1.44,27.48,.26,.97,.84,1.94,.29,3.01l.02-.04c-.26-.04-.38,.21-.58,.29l-.49,.11c-.26,.28-.66,.18-.95,.39-1.87,.77-3.73,1.59-5.71,2.08Z"/><path class="cls-26" d="M253.84,138.11c3.84,0,7.68,.02,11.51,.03,.64,.08,1.36-.19,1.9,.41-12.95,.02-25.9,.04-38.85,.06-5.11-4.89-10.75-9-17.22-11.95-10.23-4.67-20.88-6.85-32.13-5.69-1.67,.17-3.34,.33-5,.47-.97,.08-2.31,.61-2.74-1.01h0c.17-.15,.32-.33,.47-.5h0c.18-.14,.34-.3,.49-.48h-.01c.18-.13,.35-.3,.49-.48h-.01c.18-.13,.35-.3,.49-.48h-.01c.18-.13,.35-.3,.49-.48h-.01c.18-.13,.35-.3,.49-.48h-.01c.19-.13,.33-.31,.49-.48,2.24-2.54,4.66-4.91,7.23-7.11,1.86,.75,3.9,.76,5.8,.81,4.73,.11,9.28,1.04,13.84,2.08,10.09,2.32,19.13,6.89,27.27,13.17,4.14,3.2,8.03,6.77,11.15,11.05,.66,.9,1.38,1.15,2.41,1.13,3.83-.05,7.66-.04,11.48-.05Z"/><path class="cls-5" d="M66.8,161.77c-1.97-5.7-2.93-11.59-2.45-17.6,.56-6.96,2.59-13.52,6.1-19.64,2.5-4.36,5.85-7.95,9.49-11.3,2.22-2.04,4.75-3.73,7.47-5.1,.74-.37,1.76-.5,1.85-1.64,1.92,1.64,3.66,3.44,5.24,5.4,.33,.16,.21,.71,.65,.77l-.06-.05c.04,.31,.22,.48,.52,.55v-.03c.13,1.31-.89,1.77-1.76,2.29-11.41,6.88-17.97,16.81-19.43,30.15-.43,3.91,.31,7.6,.91,11.35,.12,.76,.63,1.51,.02,2.28l-.18,.1-.2-.03c-.32,.2-.73,.15-1.05,.36-2.35,.79-4.69,1.61-7.12,2.13Z"/><path class="cls-26" d="M182.33,149.23c-.24,.5-.54,.94-.08,1.53,3.77,4.74,5.87,10.26,6.63,16.14,.75,5.86,.29,11.75-2.02,17.36-2.41,5.85-5.97,10.9-10.77,14.97-5.55,4.7-11.98,7.81-19.1,9.38-4.46,.98-9,1.34-13.52,.92-5.39-.5-10.7-1.55-15.57-4.13-.56-.3-1.15-.56-1.73-.82-.13-.06-.3-.04-.64-.07-.54,1.99-.23,4.02-.22,6.04-.04,.7-.08,1.39-.12,2.09-.65-4.06-.43-8.12,.08-12.17,.22-1.9,1.26-2.14,2.81-1.41,1.81,.85,3.53,1.89,5.44,2.49,12.94,4.07,25.26,3.1,36.42-5.1,8.09-5.95,12.73-14.06,13.1-24.18,.24-6.54-1.88-12.55-5.58-17.98-.49-.72-1.08-1.38-1.43-2.2-.47-1.08-.02-1.65,1.03-1.89,1.73-.5,3.47-.91,5.28-.97Z"/><path class="cls-6" d="M123.32,182.74c-.94,3.39-2.39,6.59-3.82,9.78-5.7,12.83-11.25,25.75-18.77,37.68-1.53,2.42-2.92,4.94-4.77,7.15-2.24-2.23-1.89-5.25-1.95-7.89-.3-13.33,3.76-25.21,12.51-35.41,3.72-4.35,8.1-7.87,13.06-10.68,1.13-.64,2.3-1.58,3.74-.64Z"/><path class="cls-16" d="M13.47,202.4c1.22,.19,.97,1.1,.84,1.86-.93,5.71-1.74,11.41-1.93,17.22-.08,2.44-.53,4.91-.35,7.36,.26,3.55,.49,7.11,.8,10.66,.34,3.8,.95,7.54,1.51,11.29,.74,4.96,1.98,9.79,3.39,14.58,.81,2.74,1.52,5.52,2.7,8.14,.32,.72,.45,1.55-.26,2.21h-.01c-.16-.16-.32-.31-.47-.48h-.01c-.17-.16-.32-.31-.47-.48h-.01c-.17-.16-.32-.31-.47-.48h-.01c-.17-.16-.32-.31-.46-.48h-.01c-.17-.16-.31-.31-.45-.48l-.03-.03c-.17-.12-.31-.27-.42-.46l-.05-.06c-.19-.09-.32-.23-.4-.42l-.08-.09c-.17-.04-.27-.15-.3-.33-.17-.05-.25-.16-.25-.34-.06-.3-.23-.51-.51-.63l.04,.05c-.09-.24-.27-.4-.47-.55l.02,.02c-.12-.19-.31-.33-.43-.52-4.62-5.36-7.6-11.6-9.54-18.32-3.01-10.4-3.26-20.95-.96-31.51,.87-4,2.9-7.58,4.95-11.1,.01-.17,.1-.3,.26-.38l.02-.04c.16-.2,.35-.39,.39-.66-.04-.15,0-.25,.14-.32,.13-.17,.25-.35,.36-.53l-.03,.04c.37-.21,.27-.68,.54-.94h0c.21-.19,.39-.39,.42-.69-.04-.14,0-.24,.14-.29,.13-.17,.25-.34,.37-.52l-.03,.04c.35-.2,.24-.68,.55-.9l.02-.03c.13-.19,.34-.33,.41-.57l-.04,.05c.38-.18,.27-.67,.58-.89l.02-.03Z"/><path class="cls-21" d="M177.05,150.2c-1.21,.72-.81,1.61-.13,2.36,1.7,1.86,2.71,4.12,3.8,6.33,1.49,3.02,2.25,6.18,2.67,9.56,.8,6.43-.58,12.33-3.6,17.85-3.08,5.62-7.61,9.95-13.18,13.16-4.18,2.41-8.68,3.98-13.43,4.69-1.96,.29-3.98,.06-5.97,.17-6.71,.38-12.93-1.22-18.8-4.41-.21-.11-.42-.23-.64-.33q-1.47-.68-2.5,.89c-.14-2.1,.18-4.17,.49-6.23,.71-1.23,1.56-.74,2.39-.16,2.7,1.9,5.68,3.16,8.82,4.15,2.29,.72,4.64,.98,6.98,1.38,3.48,.59,6.8,.04,10.13-.59,4.91-.93,9.4-2.93,13.4-5.97,5.27-4.01,8.58-9.24,10.2-15.66,1.78-7.08,.26-13.53-3.37-19.62-.89-1.49-1.77-3.04-3.15-4.19-.59-.5-.88-1.12-.8-1.9l.87-.13c.45-.35,1.07-.04,1.51-.4,1.39-.54,2.84-.81,4.32-.95Z"/><path class="cls-21" d="M88.83,247.14c-.1-.55-.15-1.11-.32-1.63-1.32-4.01-2.24-8.15-2.49-12.32-.27-4.42-.32-8.88,.25-13.34,.67-5.34,2.19-10.38,4.08-15.37,1.91-5.04,4.73-9.55,8.01-13.77,6.13-7.89,13.92-13.69,23.02-17.76,1.09-.49,2.24-.85,3.39-1.16,.98-.26,1.72-.77,2.36-1.51-.35,2.84-1.15,5.55-2.28,8.17-7.33,2.54-13.48,6.88-18.69,12.53-9.06,9.83-14.11,21.37-14.34,34.84-.06,3.35-.12,6.7,.46,10.03,.28,1.6,.65,3.12,1.69,4.41-1.5,2.45-3.2,4.75-5.13,6.88Z"/><path class="cls-3" d="M330.17,84.96c-.9-.04-1.43-.62-1.88-1.32-3.45-5.36-7.5-10.26-11.56-15.15-4.9-5.9-10.41-11.26-16.03-16.45-6.07-5.61-12.73-10.54-19.54-15.24-1.04-.72-2.34-1.08-3-2.29h.03c.28,0,.42-.22,.6-.39h0c.26-.28,.73-.19,.93-.56,1.5-1.11,3.07-2.1,4.8-2.82,8.87,6.23,17.43,12.87,25.24,20.39,8.86,8.52,16.66,17.97,23.7,28.05-.31,.9-.8,1.69-1.44,2.4-.18,.2-.37,.39-.4,.67,.04,.14,0,.24-.14,.31-.13,.17-.26,.35-.36,.54l.04-.05c-.39,.21-.3,.68-.53,.98l.02-.03c-.35,.23-.27,.69-.51,.98h0Z"/><path class="cls-20" d="M207.29,147.29c.02,1.84,1.21,3.26,1.8,4.89,1.87,5.18,3.09,10.45,3.53,15.97,.83,10.3-1.7,19.82-6.28,28.89-1.86,3.69-4.21,7.09-6.95,10.23-1.47,1.68-2.91,3.38-4.54,4.9-5.56,5.19-11.68,9.49-18.71,12.58-6.69,2.94-13.64,4.89-20.82,5.76-4.12,.5-8.29,.88-12.58,.36-4.74-.57-9.42-1.32-14.06-2.33-.82-.18-.99,.19-1.08,.82-.48-.59-.48-1.28-.45-1.98-.27-2.4,.14-2.85,2.59-2.2,6.72,1.78,13.56,2.38,20.45,1.95,24.92-1.54,43.92-12.56,54.49-35.68,5.64-12.33,5.5-25.27,.74-38.07-.72-1.95-2.21-3.76-1.48-6.08,1.12-.16,2.24-.16,3.36,0Z"/><path class="cls-9" d="M444.33,365.99c.1,.91-.39,1.69-.67,2.5-2.57,7.46-5.16,14.91-7.74,22.36-.11,.3-.15,.62-.22,.92-1.28,.65-2.63,.28-3.96,.31-.09,0-.17,0-.26,.01-2.06-6-4.12-12-6.19-18-.16,0-.32-.01-.49-.02-1.97,5.9-3.93,11.79-5.9,17.69-.13,.07-.27,.13-.41,.18-1.24,.45-2.55,.06-3.81,.15-3.02-8.7-6.05-17.4-9.05-26.04,.3-.18,.36-.26,.43-.26q4.4-.39,5.74,3.77c1.58,4.92,3.19,9.84,4.82,14.87,.64-.56,.74-1.23,.94-1.86,1.7-5.15,3.42-10.29,5.12-15.43,.2-.59,.21-1.4,.99-1.47,1.1-.1,2.25-.32,3.29,.15,.53,.24,.53,.95,.7,1.48,1.57,4.76,3.13,9.53,4.73,14.29,.32,.95,.44,2,1.27,2.91,1.74-5.4,3.44-10.7,5.18-16,1.1-3.37,.33-2.71,3.88-2.78,.53-.02,1.12-.18,1.61,.27Z"/><path class="cls-26" d="M75.34,159.21c-1.25-3.31-1.53-6.82-1.81-10.27-.22-2.72,.51-5.5,1.03-8.23,1.73-9,6.63-16.1,13.38-22.03,1.6-1.41,3.32-2.73,5.32-3.61,.96-.42,1.84-.96,2.36-1.94,1.77,1.57,3.35,3.3,4.73,5.22,.08,.28,.24,.48,.51,.6l-.02-.04c.61,1.54-.68,1.96-1.57,2.49-6.11,3.58-10.56,8.63-13.48,15.04-2.49,5.46-3.62,11.15-2.75,17.17,.17,1.21,.69,2.48,0,3.72-2.51,.82-5.08,1.43-7.68,1.89Z"/><path class="cls-29" d="M125.66,218.34c.03-1.2,.35-1.78,1.75-1.25,4.18,1.58,8.56,2.39,12.97,2.94,2.44,.3,4.95,.02,7.42,.11,6.77,.24,13.3-.99,19.62-3.31,6.17-2.27,11.73-5.56,16.81-9.78,5.44-4.52,9.48-10.01,12.55-16.29,1.96-4.02,3.09-8.29,3.86-12.7,.6-3.42,.62-6.86,.32-10.23-.45-5.06-1.63-10.01-3.88-14.65-.86-1.77-2.2-3.36-2.27-5.46,1.4-.47,2.85-.42,4.3-.37,.22,1.09,.41,2.17,.91,3.2,3.37,7.01,5.29,14.36,5.04,22.21-.38,11.45-4.26,21.58-11.71,30.23-6.61,7.68-14.5,13.69-24.21,17.08-11.73,4.11-23.63,5.46-35.82,2.38-2.32-.59-4.71-.92-6.91-1.95-.51-.3-.34-.94-.68-1.32l-.08-.84Z"/><path class="cls-25" d="M333.47,79.18c-.73,0-1.09-.46-1.47-1.03-2.91-4.35-6.25-8.38-9.48-12.5-1.52-1.93-3.32-3.63-4.93-5.49-2.5-2.89-5.07-5.72-7.87-8.31-3.49-3.23-7.11-6.32-10.72-9.42-4.29-3.68-8.93-6.85-13.46-10.2-.55-.41-.98-.79-1.01-1.5h-.01c.16-.12,.32-.23,.49-.33,.09-.14,.22-.19,.38-.16,.23-.07,.4-.23,.59-.37,.06-.13,.16-.17,.29-.13,.29-.03,.49-.22,.69-.41h.01c.24-.3,.71-.2,.93-.53l-.03,.02c.16-.13,.32-.24,.5-.34,.09-.14,.22-.19,.38-.16,.23-.07,.39-.23,.58-.37,.09-.14,.23-.2,.39-.18,1.47,2.18,3.83,3.29,5.82,4.84,3.88,3.02,7.72,6.07,11.47,9.25,5.23,4.45,9.88,9.48,14.68,14.35,3,3.04,5.6,6.47,8.29,9.8,1.79,2.21,3.44,4.54,5.16,6.82,.45,.59,.97,1.06,1.76,1.1-.99,1.84-2.16,3.57-3.44,5.23Z"/><path class="cls-7" d="M203.94,147.29c.56,2.33,1.55,4.51,2.42,6.73,1.76,4.48,2.72,9.12,2.85,13.93,.06,2.08-.02,4.15,.02,6.23,.08,4.18-.72,8.22-1.94,12.18-2.14,6.93-5.47,13.18-10.12,18.8-6.92,8.37-15.47,14.35-25.53,18.32-4.54,1.79-9.25,2.92-14.03,3.75-3.52,.61-7.13,.56-10.72,.61-5.93,.08-11.74-.65-17.48-2.07-2.02-.5-2.03-.49-2.27,1.6-.54-.83-.54-1.77-.52-2.71-.23-.65-.19-1.31-.13-1.98,.97-1.08,2.1-.46,3.11-.19,6.52,1.78,13.15,2.56,19.91,2.27,15.5-.68,29.1-5.9,40.44-16.71,7.81-7.43,13.01-16.27,15.22-26.84,2.18-10.45,.72-20.46-3.62-30.12-.53-1.19-1.53-2.36-.48-3.77,.96-.19,1.92-.19,2.88-.03Z"/><path class="cls-10" d="M729.51,382.87c0-2.85,0-5.7,0-8.55,0-2.39,.03-4.79-.01-7.18-.02-.98,.24-1.55,1.33-1.44,.08,0,.16,0,.24,0q3.1-.14,3.1,2.96c0,7.1,0,14.2,0,21.31,0,2.08,.08,1.83-1.97,1.95-1.44,.09-2.32-.45-3.17-1.58-3.65-4.84-7.4-9.61-11.11-14.4-.52-.67-1.08-1.31-1.98-2.41,0,1.21,0,1.89,0,2.56,0,4.63,0,9.26,0,13.88,0,1.87,.15,1.93-1.74,1.91-3.49-.04-2.89,.29-2.91-2.93-.03-7.1-.01-14.2,0-21.31,0-1.92,.03-1.82,2-1.97,1.68-.13,2.76,.42,3.79,1.8,3.91,5.23,7.96,10.35,11.96,15.51l.48-.12Z"/><path class="cls-21" d="M214.49,139.11c-.53-1.63-2.12-2.1-3.36-2.82-6.05-3.54-12.65-5.65-19.54-6.67-2.96-.43-5.99-.9-9.03-.58-7.31,.76-14.49,2-21.12,5.4-.92,.47-1.86,.93-2.79,1.39-.73,.36-1.47,.71-2.19,0l.04-.05c.11-.18,.25-.33,.42-.44l.03-.04c.12-.18,.27-.33,.44-.47l.02-.02c.14-.17,.3-.33,.46-.48h0c.15-.17,.32-.33,.46-.5h0c.18-.14,.35-.3,.48-.49h-.01c.19-.13,.37-.29,.48-.5l-.03,.03c.21-.13,.38-.3,.5-.51l-.03,.03c.22-.13,.39-.29,.5-.53l-.04,.04c.24-.11,.41-.28,.51-.53l-.04,.04c.25-.1,.43-.28,.52-.53l-.05,.05c.26-.1,.44-.27,.51-.55l-.05,.05c.28-.08,.46-.25,.53-.53l-.05,.05c.28-.08,.46-.25,.52-.54l-.05,.06c.3-.07,.48-.24,.52-.55l-.05,.06c.31-.04,.49-.22,.53-.54l-.05,.07c.35-.08,.52-.31,.55-.65,.5-.87,1.22-1.51,2.01-2.1,6.35-1.18,12.62-2.89,19.16-2.64,13.4,.5,25.53,4.54,36.12,12.89,1.12,.88,2.29,1.72,3.35,2.68-3.38,.5-6.79,.42-10.19,.43Z"/><path class="cls-9" d="M353.07,376.04c-1.34-6.71-7.09-11.25-14.54-10.73-6.57,.45-11.69,5.26-12.58,11.98-.83,6.34,3.17,12.55,9.31,14.45,.54,.17,1.07,.33,1.6,.5,.47,.03,.93,.05,1.4,.08,.82,0,1.64,0,2.47,.02,.47-.03,.94-.06,1.41-.08,.37-.13,.74-.28,1.13-.39,7.13-2.06,11.25-8.6,9.8-15.83Zm-13.43,11.99c-5.02-.01-8.93-4.12-8.88-9.34,.06-5.2,3.86-9.14,8.82-9.13,5.06,.01,8.85,4.03,8.83,9.35-.02,5.23-3.76,9.12-8.77,9.12Z"/><path class="cls-9" d="M705.17,374.48c-2.5-7.62-10.28-10.9-17.82-8.43-5.47,1.79-8.95,6.98-8.92,12.87,.03,5.85,3.43,10.72,8.85,12.66,.6,.21,1.2,.41,1.8,.62,.31,.03,.62,.07,.93,.1,.31,0,.63,.02,.95,.03,.82,0,1.64,0,2.45,0,.47-.03,.94-.06,1.4-.09,.3-.12,.59-.26,.89-.34,7.79-2.26,11.94-9.83,9.47-17.41Zm-13.08,13.55c-5.02-.03-8.81-4.06-8.78-9.34,.02-5.19,3.76-9.1,8.72-9.13,5-.02,8.92,4.01,8.95,9.23,.03,5.25-3.84,9.27-8.89,9.24Z"/><path class="cls-9" d="M586.77,374.74c-2.05-7.06-9.59-11.05-16.95-8.97-5.94,1.67-9.82,6.73-9.88,12.85-.05,6.39,3.65,11.43,9.71,13.2,.46,.13,.91,.29,1.37,.44,.47,.02,.94,.05,1.41,.08,.82-.01,1.64-.01,2.46-.02,.47-.03,.94-.06,1.4-.09,.38-.13,.75-.28,1.13-.39,7.52-2.23,11.55-9.59,9.35-17.1Zm-13.08,13.3c-5.01,0-8.9-4.04-8.9-9.26s3.85-9.27,8.9-9.22c4.97,.05,8.86,4.19,8.79,9.38-.06,5.17-3.86,9.09-8.79,9.1Z"/><path class="cls-9" d="M490.69,382.04c.58-.22,.89-.32,1.17-.45,3.86-1.81,5.44-4.81,4.83-9.16-.48-3.48-3.28-6.03-7.24-6.54-.94-.12-1.91-.17-2.86-.18-3.12-.02-6.23,0-9.35,0-1.94,0-1.79-.03-1.79,1.85v21.3c0,3.34,0,3.31,3.47,3.06,.83-.06,1.11-.35,1.08-1.15-.04-1.35-.01-2.71-.01-4.07,0-3.99,0-3.95,4.1-3.94,1.16,0,1.92,.32,2.57,1.3,1.5,2.26,3.11,4.45,4.69,6.65,.32,.44,.5,1.09,1.15,1.12,1.61,.08,3.22,.16,5.1-.06-2.41-3.39-4.57-6.43-6.91-9.72Zm-9.65-3.33c-.87,.04-1.06-.47-1.05-1.21,.01-1.11,0-2.22,0-3.34,0-1.03,.03-2.06,0-3.1-.03-.8,.32-1.16,1.12-1.14,2.31,.04,4.62-.07,6.91,.14,2.72,.26,4.03,1.72,4.06,4.1,.04,2.31-1.29,3.83-3.89,4.34-2.37,.46-4.77,.12-7.15,.21Z"/><path class="cls-2" d="M201.06,147.31c-.11,.99,.23,1.86,.67,2.74,2.52,5.02,3.92,10.34,4.67,15.91,1.15,8.5-.26,16.57-3.41,24.45-2.58,6.46-6.53,11.94-11.36,16.9-4.9,5.04-10.51,8.99-16.82,12.01-5.26,2.52-10.8,4.1-16.54,5.21-5.55,1.07-11.11,1.03-16.65,.78-4.58-.21-9.1-1.28-13.53-2.56-.45-.13-.94-.16-1.4-.23-.15,.23-.31,.23-.46,0-.11-.12-.13-.26-.05-.4-.29-.67-.34-1.34,.04-1.99,2.32,.53,4.66,1,6.96,1.6,5.75,1.5,11.62,2.17,17.5,1.68,6.82-.56,13.48-2.04,19.9-4.58,5.4-2.13,10.37-5,14.73-8.73,8.71-7.44,15.24-16.34,17.9-27.75,1.17-5.02,1.64-10.1,1.09-15.16-.66-6.11-2.45-11.98-5.36-17.46-.44-.83-1.14-1.69,.18-2.4,.64-.12,1.29-.17,1.94-.03Z"/><path class="cls-10" d="M502.4,378.66c0-3.83,.05-7.67-.03-11.5-.02-1.19,.4-1.49,1.52-1.48,5.51,.04,11.03,.04,16.55,0,1,0,1.54,.28,1.4,1.35,0,.08,0,.16,0,.24q.1,2.63-2.52,2.63c-3.52,0-7.03-.01-10.55,0-1.67,.01-1.68,.04-1.71,1.74-.02,1.12,.09,2.25-.03,3.35-.14,1.36,.5,1.57,1.66,1.55,3.2-.06,6.39-.03,9.59-.02,1.83,0,1.84,.03,1.87,1.82,0,.4-.04,.8,0,1.2,.11,.96-.34,1.22-1.24,1.21-3.28-.04-6.55-.01-9.83-.01-2.16,0-2.07-.21-2.02,2.09,.03,1.5-.63,3.42,.27,4.4,1.02,1.12,3.01,.34,4.57,.38,2.88,.08,5.76,.06,8.63,0,1.14-.02,1.65,.33,1.5,1.51-.05,.39-.06,.81,0,1.2,.22,1.35-.47,1.58-1.64,1.57-5.51-.04-11.03-.05-16.55,0-1.16,.01-1.5-.36-1.48-1.51,.06-3.91,.02-7.83,.02-11.74Z"/><path class="cls-10" d="M470.15,389.92c-3.3-7.59-6.62-15.17-9.96-22.74-.24-.57-.29-1.46-.94-1.56-1.16-.2-2.38-.2-3.56-.1-1,.08-1,1.12-1.3,1.8-3.31,7.5-6.6,15.01-9.87,22.52-.24,.57-.68,1.09-.53,2.05,1.15,0,2.19-.07,3.21,.01,.98,.08,1.44-.38,1.76-1.21,.49-1.26,1.12-2.47,1.56-3.74,.37-1.06,.93-1.47,2.09-1.42,2.63,.09,5.27,.02,7.9,.02q2.89,0,4.03,2.75,1.62,3.86,5.89,3.5c.07-.01,.14-.06,.22-.1,.22-.69-.26-1.22-.5-1.78Zm-17.24-8.59c1.42-3.33,2.75-6.49,4.31-10.15,1.54,3.53,2.92,6.67,4.45,10.15h-8.76Z"/><path class="cls-10" d="M628.6,392.23l-.94,.07c-1.13,0-2.26,0-3.39,0l-.94-.07c-.37-.14-.74-.3-1.12-.41-4.06-1.1-6.3-3.85-7.08-7.88-.17-.86-.33-1.74-.34-2.61-.03-4.71,.02-9.42-.05-14.13-.02-1.16,.36-1.5,1.5-1.52,3.21-.08,3.21-.13,3.21,3.14,0,3.67,0,7.35,0,11.02,0,.72,0,1.44,.06,2.15,.49,4.89,5.28,7.55,9.72,5.38,1.95-.95,3.02-2.6,3.22-4.72,.15-1.51,.12-3.03,.13-4.55,.02-3.59,.06-7.19-.02-10.78-.03-1.28,.39-1.67,1.64-1.64,3.76,.1,2.99-.31,3.03,3.05,.05,4.07,0,8.15,.02,12.22,0,1.78-.3,3.49-.95,5.14-1.13,2.85-3.17,4.73-6.1,5.66-.53,.17-1.06,.33-1.6,.49Z"/><path class="cls-18" d="M544.62,392.28l-.94-.07c-2.93-.83-5.8-1.77-8.02-4.01-.03-.65,.49-.98,.82-1.39,1.6-1.95,1.62-1.96,3.83-.53,2.23,1.45,4.64,2.07,7.29,1.75,.64-.08,1.25-.22,1.82-.54,2.18-1.23,2.23-3.95,.06-5.19-1.4-.8-2.99-1.09-4.52-1.53-1.38-.4-2.78-.75-4.1-1.28-2.77-1.11-4.35-3.12-4.39-6.22-.05-3.21,1.35-5.56,4.21-6.93,3.21-1.53,6.52-1.24,9.81-.21,.23,.07,.46,.14,.67,.25,4.55,2.33,4.34,1.8,1.13,5.62-1.88-1.14-3.8-2.28-6.09-2.5-.98-.09-1.94-.04-2.84,.26-1.21,.39-2.07,1.18-2.2,2.55-.14,1.37,.49,2.3,1.67,2.9,1.15,.58,2.38,.92,3.62,1.23,1.7,.43,3.41,.86,5.01,1.59,2.8,1.28,4.38,3.37,4.26,6.57-.11,3.19-1.59,5.45-4.52,6.72-.87,.38-1.81,.6-2.72,.9l-3.84,.04Z"/><path class="cls-9" d="M314.31,392.26c-1.44-.01-2.88-.03-4.32-.04-3.05-.73-5.99-1.7-8.3-3.98-.13-.56,.3-.86,.58-1.22q1.74-2.17,4.17-.65c2.25,1.41,4.68,1.98,7.32,1.63,.82-.11,1.55-.37,2.18-.89,1.63-1.33,1.54-3.49-.23-4.64-1.43-.94-3.1-1.25-4.72-1.66-1.39-.35-2.78-.72-4.11-1.26-2.89-1.17-4.51-3.31-4.48-6.43,.02-3.14,1.45-5.52,4.39-6.83,3.16-1.42,6.38-1.15,9.59-.16,1.3,.4,2.48,1.08,3.62,1.84,.67,.45,.8,.89,.29,1.55-.63,.82-1.21,1.67-1.86,2.57-2.01-1.13-3.89-2.34-6.19-2.56-.98-.09-1.93-.04-2.85,.23-1.39,.39-2.24,1.47-2.32,2.73-.09,1.4,.66,2.29,1.84,2.8,1.09,.47,2.25,.82,3.39,1.14,1.76,.5,3.56,.9,5.23,1.69,2.6,1.23,4.11,3.14,4.12,6.16,.01,3.1-1.22,5.42-3.97,6.83-1.05,.54-2.25,.78-3.39,1.16Z"/><path class="cls-21" d="M93.96,240.26c-1.14,.13-1.59-.62-1.77-1.54-.46-2.33-.99-4.66-1.02-7.05-.02-2.32,.04-4.63-.01-6.95-.09-3.94,.76-7.73,1.78-11.49,1.79-6.61,4.72-12.69,8.86-18.14,4.48-5.9,9.85-10.81,16.41-14.36,.49-.27,.99-.52,1.45-.84,1.56-1.09,3.27-1.61,5.18-1.45l-.13,.46c-.25,.3-.18,.73-.39,1.04,.06,.16,.02,.29-.1,.4-.24,.29-.15,.71-.39,1,.05,.17,.01,.32-.11,.44-.2,.28-.12,.68-.39,.93h0c-2.06-.04-3.58,1.25-5.21,2.19-3.19,1.83-6.13,4.12-8.63,6.73-4.92,5.14-8.98,10.92-11.49,17.7-1.3,3.52-2.3,7.13-2.84,10.8-.57,3.9-1.07,7.84-.27,11.85,.35,1.77,.6,3.58,1.07,5.34-.47,1.11-1.18,2.05-2,2.92Z"/><path class="cls-21" d="M224.69,138.68c-.97-.02-1.68-.31-2.47-1.07-2.82-2.7-6.14-4.76-9.58-6.62-5.36-2.9-11.06-4.85-17.01-6.07-4.92-1.01-9.93-1.57-14.93-1.08-3.93,.39-7.86,1-11.69,2.05-1.01,.28-2,.58-2.95-.14,1.6-1.93,3.34-3.72,5.25-5.33,.97,.87,2.15,.55,3.19,.38,4.33-.68,8.69-1.15,13.05-.84,11.8,.84,22.75,4.34,32.6,10.97,2.5,1.68,4.91,3.52,7,5.72,.54,.57,1.26,1.03,1.26,1.95-1.24,.17-2.48,.24-3.72,.08Z"/><path class="cls-10" d="M358.85,378.81c0-3.91,.03-7.83-.02-11.74-.01-1,.24-1.4,1.33-1.39,5.6,.05,11.19,.05,16.79,0,1.08,0,1.45,.39,1.32,1.4-.01,.08,0,.16,0,.24-.03,3.04,.26,2.57-2.51,2.59-3.44,.02-6.88,0-10.32,0-2.03,0-2.04,.03-2.05,2.14,0,1.2,.05,2.4-.02,3.59-.06,1.05,.37,1.39,1.39,1.38,3.36-.04,6.72-.03,10.07,0,.59,0,1.31-.28,1.72,.45,.2,.35,.11,3.32-.1,3.52-.4,.38-.91,.23-1.37,.23-3.2,.01-6.4,0-9.6,0-2.08,0-2.09,.02-2.1,2.05-.01,2.4-.03,4.79,.01,7.19,.02,.95-.18,1.4-1.29,1.43-3.27,.1-3.27,.16-3.27-3.03,0-3.36,0-6.71,0-10.07Z"/><path class="cls-21" d="M83.01,157.31c-1.77-7.29-.95-14.3,2.15-21.11,1.57-3.44,3.65-6.54,6.11-9.36,2.21-2.53,5.01-4.4,7.9-6.1,.76-.45,1.61-.76,1.65-1.84,1.32,1.11,2.4,2.43,3.34,3.86-.38,1.4-1.68,1.85-2.72,2.53-8.81,5.8-13.3,14.07-14.09,24.45-.17,2.22,.33,4.44,.06,6.66-1.42,.52-2.89,.83-4.4,.9Z"/><path class="cls-10" d="M649.95,380.93c0-3.19-.03-6.38,.02-9.57,.02-1.06-.38-1.39-1.39-1.36-1.91,.05-3.83-.02-5.75,.02-.94,.02-1.31-.37-1.23-1.28,.02-.24,0-.48,0-.72,.03-2.4-.36-2.34,2.29-2.34,5.59,0,11.17,0,16.76,0,2.3,0,2.3,.01,2.27,2.38,0,.24-.02,.48,0,.72,.06,.93-.39,1.25-1.29,1.23-1.59-.05-3.19,0-4.79-.01-2.5-.01-2.24,0-2.24,2.17,0,5.82,0,11.64,0,17.46,0,2.54,.29,2.2-2.34,2.24-.16,0-.32,0-.48,0-1.79-.04-1.81-.04-1.82-1.86-.02-3.03,0-6.06,0-9.09Z"/><path class="cls-10" d="M389.72,380.81c0-3.11-.05-6.22,.02-9.33,.03-1.14-.3-1.55-1.47-1.49-1.75,.09-3.51-.03-5.27,.04-1.11,.04-1.58-.27-1.54-1.47,.1-3.41-.31-2.84,2.73-2.86,5.59-.03,11.17-.02,16.76,0,1.77,0,1.77,.03,1.79,1.85,0,.32-.03,.64,0,.96,.12,1.12-.3,1.58-1.48,1.53-1.75-.08-3.51,.05-5.27-.04-1.28-.07-1.6,.42-1.59,1.65,.06,5.9,.03,11.8,.03,17.7,0,.56,0,1.12,0,1.67,0,.33-.08,.75-.4,.76-1.27,.06-2.55,.12-3.81-.01-.76-.08-.49-.88-.5-1.39-.02-3.19-.01-6.38-.01-9.57Z"/><path class="cls-19" d="M592.85,378.57c0-3.75,.04-7.5-.02-11.25-.02-1.25,.34-1.69,1.63-1.65,3.67,.12,2.97-.31,2.99,2.83,.04,5.43,0,10.86,.02,16.28,.01,3.12-.5,2.84,2.74,2.86,3.12,.01,6.23-.02,9.35,.01,1.67,.01,1.67,.05,1.7,1.75,0,.32-.03,.64,0,.96,.14,1.1-.23,1.63-1.44,1.54-1.19-.08-2.4-.02-3.59-.02-3.91,0-7.83-.04-11.74,.03-1.24,.02-1.69-.3-1.66-1.6,.08-3.91,.03-7.82,.03-11.73Z"/><path class="cls-21" d="M87.41,156.41c-.35-.25-.51-.59-.55-1.01-.52-6.1,.11-12.04,2.83-17.6,2.4-4.93,5.59-9.23,10.32-12.24,1.41-.9,2.77-1.86,4.15-2.8h-.02c.1,.21,.3,.35,.46,.52h0c.16,.15,.3,.32,.42,.49l.04,.05c.17,.08,.28,.21,.35,.38,.15,.05,.23,.15,.23,.32-.04,.9-.6,1.39-1.34,1.81-2.13,1.23-4.2,2.69-5.84,4.45-3.87,4.16-6.74,8.93-7.81,14.67-.65,3.49-.3,6.96-.44,10.44-.87,.5-1.84,.5-2.8,.5Z"/><path class="cls-11" d="M672.67,378.79c0,3.82-.05,7.65,.03,11.47,.02,1.23-.31,1.69-1.59,1.65-3.85-.1-3.09,.31-3.11-2.95-.04-7.17-.02-14.33,0-21.5,0-1.71,.03-1.71,1.67-1.76,.4-.01,.8,0,1.2,0,1.78,.04,1.81,.04,1.81,1.86,.01,3.74,0,7.49,0,11.23Z"/><path class="cls-28" d="M318.55,126.15c-.64-1.27-.67-2.54,.02-3.81,0,1.27-.01,2.54-.02,3.81Z"/><path class="cls-13" d="M126.21,220.13c-.01,.66-.03,1.33-.04,1.99-.52-.93-.48-1.94-.43-2.95,.38,.21,.45,.57,.47,.95Z"/><path class="cls-13" d="M86.36,163.65c-.61,.61-1.36,.33-2.07,.34,.64-.43,1.35-.4,2.07-.34Z"/><path class="cls-29" d="M126.22,222.53h.46c-.02,.71-.04,1.42-.06,2.13-.48-.65-.45-1.39-.4-2.13Z"/><path class="cls-6" d="M172.73,151.15c-.4,.53-.97,.41-1.51,.4,.43-.4,.96-.46,1.51-.4Z"/><path class="cls-13" d="M82.52,164.13c-.46,.52-1.06,.36-1.64,.33,.49-.39,1.06-.4,1.64-.33Z"/><path class="cls-25" d="M337.31,73.39c.03-.4,.15-.76,.6-.88-.06,.39-.24,.69-.6,.88Z"/><path class="cls-24" d="M330.65,84.02c-.02-.43,.05-.81,.53-.98-.03,.4-.14,.77-.53,.98Z"/><path class="cls-24" d="M330.16,84.97c-.01-.42,.07-.79,.51-.98-.02,.4-.13,.76-.51,.98Z"/><path class="cls-5" d="M193.78,98.69c-.05,.47-.39,.6-.78,.66,.14-.36,.41-.57,.78-.66Z"/><path class="cls-26" d="M95.15,112.66c-.47-.05-.6-.38-.65-.77,.36,.14,.57,.4,.65,.77Z"/><path class="cls-28" d="M318.19,127.75c-.04-.42-.03-.82,.36-1.09,.08,.43,.02,.81-.36,1.09Z"/><path class="cls-28" d="M317.66,129.03c0-.38,.08-.72,.43-.94,.04,.4-.1,.71-.43,.94Z"/><path class="cls-26" d="M73.91,159.64c.27-.36,.65-.39,1.05-.36-.28,.32-.64,.42-1.05,.36Z"/><path class="cls-5" d="M64.8,162.51c.23-.33,.58-.39,.95-.39-.25,.3-.56,.44-.95,.39Z"/><path class="cls-13" d="M57.11,165.43c.23-.37,.6-.43,.99-.42-.25,.34-.58,.47-.99,.42Z"/><path class="cls-29" d="M69.56,166.52c-.29,.39-.7,.39-1.12,.34,.3-.34,.69-.4,1.12-.34Z"/><path class="cls-7" d="M55.17,170.84c-.22,.33-.57,.39-.93,.4,.24-.29,.54-.45,.93-.4Z"/><path class="cls-7" d="M52.77,171.77c-.22,.35-.57,.41-.95,.42,.24-.3,.55-.47,.95-.42Z"/><path class="cls-21" d="M124.31,179.95c-.02-.41,.02-.79,.39-1.04,.04,.41-.06,.77-.39,1.04Z"/><path class="cls-21" d="M123.82,181.36c-.01-.39,.03-.76,.39-1,.05,.4-.06,.74-.39,1Z"/><path class="cls-21" d="M123.32,182.73c0-.36,.06-.71,.39-.93,.05,.39-.09,.69-.39,.93Z"/><path class="cls-17" d="M13.45,202.43c-.03,.4-.14,.75-.58,.89,.05-.39,.22-.7,.58-.89Z"/><path class="cls-17" d="M12.5,203.87c-.03,.39-.14,.74-.55,.9,.03-.39,.21-.7,.55-.9Z"/><path class="cls-17" d="M11.04,206.23c-.01,.41-.11,.77-.54,.94,.03-.4,.17-.73,.54-.94Z"/><path class="cls-30" d="M131.04,240.75c.38,.24,.43,.62,.41,1.02-.35-.26-.45-.61-.41-1.02Z"/><path class="cls-29" d="M61.47,274.89c.1-.44,.44-.57,.83-.62-.17,.35-.45,.55-.83,.62Z"/><path class="cls-23" d="M32.1,284.39c.39-.01,.76,.04,1,.41-.41,.05-.75-.07-1-.41Z"/><path class="cls-3" d="M292.21,26.4c-.18,.42-.54,.51-.95,.52,.21-.36,.55-.5,.95-.52Z"/><path class="cls-3" d="M291.27,26.92c-.19,.38-.53,.48-.92,.5,.22-.33,.52-.51,.92-.5Z"/><path class="cls-3" d="M287.9,28.81c-.18,.41-.53,.5-.93,.52,.21-.34,.53-.5,.93-.52Z"/><path class="cls-24" d="M279.73,33.56c-.16,.44-.52,.55-.93,.56,.2-.37,.54-.51,.93-.56Z"/><path class="cls-28" d="M249.49,53.22c-.13,.43-.48,.54-.87,.58,.19-.34,.48-.53,.87-.58Z"/><path class="cls-6" d="M158.82,133.33l-.48,.5c.05-.27,.22-.43,.48-.5Z"/><path class="cls-6" d="M164.05,127.85c-.04,.34-.21,.57-.55,.65,.07-.32,.27-.52,.55-.65Z"/><path class="cls-21" d="M105.41,124.22l-.35-.38c.21,.04,.35,.15,.35,.38Z"/><path class="cls-30" d="M309.99,137.13l.57-.39c-.11,.25-.29,.39-.57,.39Z"/><path class="cls-5" d="M66.23,162.02c.13-.22,.33-.32,.58-.29-.11,.27-.32,.33-.58,.29Z"/><path class="cls-6" d="M156.93,135.33l-.42,.44c.03-.25,.18-.4,.42-.44Z"/><path class="cls-21" d="M105.03,123.79l-.42-.49c.26,.06,.41,.22,.42,.49Z"/><path class="cls-21" d="M104.6,123.29c-.15-.18-.3-.35-.46-.53,.27,.08,.42,.25,.46,.53Z"/><path class="cls-21" d="M171.78,119.92l-.47,.5c.04-.27,.2-.44,.47-.5Z"/><path class="cls-23" d="M26.82,187.41c-.1,.34-.33,.5-.67,.54,.13-.29,.35-.48,.67-.54Z"/><path class="cls-21" d="M172.26,119.44l-.49,.49c.05-.27,.22-.43,.49-.49Z"/><path class="cls-23" d="M25.89,188.16l-.36,.34c.03-.21,.14-.34,.36-.34Z"/><path class="cls-6" d="M159.29,132.83l-.48,.52c.05-.27,.21-.45,.48-.52Z"/><path class="cls-21" d="M172.74,118.96l-.49,.49c.06-.27,.22-.43,.49-.49Z"/><path class="cls-17" d="M12.92,203.28l-.41,.57c0-.29,.13-.48,.41-.57Z"/><path class="cls-6" d="M159.77,132.35c-.17,.17-.34,.34-.5,.51,.06-.28,.23-.45,.5-.51Z"/><path class="cls-17" d="M11.97,204.74l-.37,.52c-.02-.27,.11-.44,.37-.52Z"/><path class="cls-17" d="M11.46,205.54c-.02,.3-.15,.53-.42,.69,.01-.31,.14-.54,.42-.69Z"/><path class="cls-6" d="M160.24,131.85c-.07,.27-.24,.44-.5,.53,.06-.28,.22-.46,.5-.53Z"/><path class="cls-17" d="M10.53,207.12l-.36,.53c-.02-.27,.1-.44,.36-.53Z"/><path class="cls-17" d="M10.02,207.97l-.39,.66c0-.3,.12-.52,.39-.66Z"/><path class="cls-17" d="M9.61,208.68c-.05,.15-.14,.28-.26,.38l.26-.38Z"/><path class="cls-21" d="M173.22,118.48l-.49,.49c.06-.27,.22-.43,.49-.49Z"/><path class="cls-21" d="M100.84,118.95c-.29-.1-.45-.3-.51-.6,.28,.11,.45,.31,.51,.6Z"/><path class="cls-21" d="M173.7,118l-.49,.49c.06-.27,.22-.43,.49-.49Z"/><path class="cls-6" d="M160.71,131.36c-.07,.28-.24,.45-.51,.53,.06-.29,.23-.46,.51-.53Z"/><path class="cls-17" d="M14.91,269.98c.14,.17,.29,.34,.43,.52-.26-.08-.41-.24-.43-.52Z"/><path class="cls-17" d="M15.33,270.48c.26,.1,.41,.28,.47,.55-.28-.08-.43-.27-.47-.55Z"/><path class="cls-17" d="M15.76,270.98c.3,.1,.46,.32,.51,.63-.28-.12-.45-.33-.51-.63Z"/><path class="cls-17" d="M16.52,271.94c.13,.08,.23,.19,.3,.33-.19-.02-.3-.12-.3-.33Z"/><path class="cls-17" d="M16.9,272.36l.4,.42c-.24-.04-.37-.18-.4-.42Z"/><path class="cls-21" d="M174.18,117.52l-.49,.49c.06-.27,.22-.43,.49-.49Z"/><path class="cls-17" d="M17.79,273.33l.45,.47c-.27-.04-.42-.19-.45-.47Z"/><path class="cls-17" d="M18.26,273.82l.46,.47c-.27-.04-.42-.2-.46-.47Z"/><path class="cls-17" d="M18.74,274.3l.47,.47c-.27-.04-.42-.2-.47-.47Z"/><path class="cls-6" d="M161.19,130.87c-.06,.28-.24,.46-.52,.53,.06-.28,.23-.46,.52-.53Z"/><path class="cls-17" d="M19.22,274.78l.47,.47c-.27-.04-.42-.2-.47-.47Z"/><path class="cls-29" d="M60.95,275.31c.1-.26,.29-.42,.57-.47-.08,.29-.28,.43-.57,.47Z"/><path class="cls-17" d="M19.7,275.26l.47,.47c-.27-.04-.42-.2-.47-.47Z"/><path class="cls-7" d="M53.77,280.39l.45-.33c-.08,.21-.21,.35-.45,.33Z"/><path class="cls-6" d="M161.65,130.38c-.05,.29-.22,.47-.51,.55,.06-.29,.22-.48,.51-.55Z"/><path class="cls-21" d="M174.66,117.04l-.49,.49c.06-.27,.22-.43,.49-.49Z"/><path class="cls-26" d="M95.61,113.16c-.31-.05-.48-.24-.52-.55,.29,.07,.46,.26,.52,.55Z"/><path class="cls-5" d="M89.27,106.5l-.49-.49c.27,.06,.43,.22,.49,.49Z"/><path class="cls-5" d="M88.79,106.02l-.5-.48c.27,.04,.44,.21,.5,.48Z"/><path class="cls-5" d="M194.27,98.23c-.05,.31-.23,.49-.55,.52,.07-.29,.25-.46,.55-.52Z"/><path class="cls-5" d="M194.77,97.73c-.06,.31-.24,.5-.55,.57,.07-.3,.27-.47,.55-.57Z"/><path class="cls-13" d="M202.99,90.26l-.48,.43c.06-.26,.21-.41,.48-.43Z"/><path class="cls-24" d="M331.14,83.09l.36-.54c.01,.27-.1,.45-.36,.54Z"/><path class="cls-29" d="M212.53,81.97c-.07,.3-.26,.46-.56,.5,.08-.29,.28-.44,.56-.5Z"/><path class="cls-24" d="M331.63,82.25c.02-.29,.15-.52,.4-.67,0,.3-.13,.53-.4,.67Z"/><path class="cls-29" d="M213.03,81.51c-.09,.27-.27,.44-.55,.5,.07-.29,.27-.44,.55-.5Z"/><path class="cls-7" d="M221.66,74.31c-.11,.3-.32,.46-.63,.5,.12-.28,.33-.45,.63-.5Z"/><path class="cls-7" d="M222.16,73.88c-.18,.16-.36,.31-.55,.47,.08-.28,.26-.43,.55-.47Z"/><path class="cls-25" d="M336.88,73.97l.41-.55c0,.28-.14,.47-.41,.55Z"/><path class="cls-25" d="M337.86,72.56c.04-.27,.19-.46,.44-.57-.02,.29-.15,.48-.44,.57Z"/><path class="cls-25" d="M338.3,72l.37-.47c.01,.26-.14,.4-.37,.47Z"/><path class="cls-25" d="M338.83,71.24c.03-.32,.19-.55,.49-.67-.05,.3-.2,.54-.49,.67Z"/><path class="cls-12" d="M229.36,68.12c-.1,.26-.29,.42-.56,.47,.08-.29,.28-.43,.56-.47Z"/><path class="cls-28" d="M250.01,52.84c-.19,.14-.37,.28-.56,.42,.09-.27,.28-.41,.56-.42Z"/><path class="cls-15" d="M345.08,63.01c.04-.3,.21-.49,.5-.58-.06,.28-.2,.49-.5,.58Z"/><path class="cls-30" d="M239.43,60.43c-.1,.27-.29,.43-.58,.47,.08-.29,.29-.43,.58-.47Z"/><path class="cls-28" d="M250.46,52.49l-.42,.33c.07-.21,.18-.35,.42-.33Z"/><path class="cls-28" d="M251.44,51.86l-.61,.44c.11-.27,.32-.42,.61-.44Z"/><path class="cls-28" d="M251.9,51.51l-.45,.35c.07-.22,.2-.36,.45-.35Z"/><path class="cls-28" d="M252.88,50.88c-.13,.26-.34,.41-.63,.44,.12-.27,.34-.42,.63-.44Z"/><path class="cls-24" d="M278.79,34.12c-.12,.25-.32,.39-.6,.4,.1-.29,.31-.39,.6-.4Z"/><path class="cls-3" d="M285.01,30.41c-.16,.11-.33,.23-.49,.34,.09-.23,.23-.37,.49-.34Z"/><path class="cls-3" d="M285.98,29.87l-.59,.37c.11-.25,.3-.39,.59-.37Z"/><path class="cls-3" d="M286.95,29.34c-.16,.26-.39,.39-.69,.41,.14-.28,.38-.41,.69-.41Z"/><path class="cls-3" d="M288.37,28.48c-.17,.11-.33,.23-.5,.34,.09-.23,.23-.38,.5-.34Z"/><path class="cls-3" d="M289.34,27.96l-.58,.37c.12-.25,.3-.38,.58-.37Z"/><path class="cls-3" d="M290.32,27.44c-.13,.23-.33,.37-.6,.38,.1-.28,.31-.39,.6-.38Z"/><path class="cls-13" d="M58.56,164.89c.18-.11,.36-.21,.55-.32-.09,.26-.28,.35-.55,.32Z"/><path class="cls-3" d="M292.69,26.08c-.17,.11-.34,.23-.51,.34,.09-.24,.24-.38,.51-.34Z"/><path class="cls-3" d="M293.65,25.57l-.57,.36c.11-.24,.3-.38,.57-.36Z"/><path class="cls-15" d="M303.73,20.31c-.2,.12-.39,.23-.59,.35,.12-.25,.31-.37,.59-.35Z"/><path class="cls-6" d="M157.4,134.82l-.44,.47c.03-.27,.18-.42,.44-.47Z"/><path class="cls-6" d="M157.87,134.33l-.46,.48c.03-.27,.19-.42,.46-.48Z"/><path class="cls-6" d="M162.13,129.9c-.06,.3-.23,.47-.53,.53,.06-.29,.24-.47,.53-.53Z"/><path class="cls-6" d="M162.6,129.4c-.05,.3-.22,.48-.52,.54,.06-.29,.23-.47,.52-.54Z"/><path class="cls-2" d="M50.4,167.77c.13-.21,.32-.31,.57-.3-.1,.26-.31,.34-.57,.3Z"/><path class="cls-2" d="M48.96,168.25c.23-.11,.46-.21,.69-.32-.16,.26-.4,.35-.69,.32Z"/><path class="cls-6" d="M163.07,128.91c-.04,.31-.21,.49-.52,.55,.06-.29,.22-.48,.52-.55Z"/><path class="cls-6" d="M158.34,133.82l-.46,.5c.04-.27,.2-.43,.46-.5Z"/><path class="cls-6" d="M163.55,128.43c-.04,.32-.22,.49-.53,.54,.06-.29,.24-.47,.53-.54Z"/><path class="cls-7" d="M53.72,171.36c-.2,.1-.39,.21-.59,.31,.12-.24,.32-.35,.59-.31Z"/><path class="cls-17" d="M17.35,272.85l.42,.46c-.25-.05-.39-.2-.42-.46Z"/></g></svg>