<?xml version="1.0" encoding="UTF-8"?><svg id="Layer_2" xmlns="http://www.w3.org/2000/svg" viewBox="0 0 799.8 212.12"><defs><style>.cls-1{fill:#652777;}.cls-2{fill:#ec7004;}</style></defs><g id="Layer_1-2"><g><path class="cls-1" d="M209.87,109.02c-.33,8.9-4.93,16.09-9.71,23.05-12.59,18.33-29.17,32.6-47.33,45.1-21.68,14.92-45.05,26.19-70.93,31.77-11.57,2.49-23.34,4.47-35.05,2.15-17.56-3.47-27.19-16.24-33.96-31.57-7-15.85-9.45-32.75-10.94-49.84-.13-1.47,1.17-3.91-1.94-4.05v-3c2.4-1.94,2.4-3.1,0-5v-20.98c2.21-1.31,2.21-2.57,0-4v-2c2.82-.45,1.81-2.73,1.96-4.33,1.87-19.7,4.78-39.2,13.1-57.38C20.71,16.61,28.05,5.65,42.13,1.51c3.49-1.02,7.03-1.89,10.74-1.34,4.81,1.81,9.66,3.49,14.41,5.44,23.78,9.79,43.58,24.3,55.02,48.06,6.73,13.99,8.62,28.52,1.99,43.29-2.25-1.07-4.48-2.19-6.76-3.19-11.74-5.15-23.6-9.87-36.51-11.31-3.15-.35-4.6-.06-5.36,3.65-1.33,6.47-1.07,12.94-.9,19.35,.49,18.85,7.46,34.82,24.87,43.56,25.7,12.89,51.72,11.68,76.77-2.3,8.66-4.83,16.25-11.4,21.5-20.15,4.18-5.72,8.96-11.02,11.98-17.54Z"/><path class="cls-1" d="M799.8,127.63c-.65-.45-1.16-.23-1.76,.2-4.69,3.35-7.19,3.44-10.28-1.19-2.3-3.44-3.85-2.22-6.22-.76-11.97,7.36-27.48,5.48-36.98-4.38-5.41-5.63-7.67-12.3-6.73-20.04,.91-7.49,6.97-12.95,14.52-12.99,9.16-.05,18.31-.13,27.47,.04,4.14,.08,3.96-1.64,2.46-4.43-6.53-12.2-22.79-14.12-31.78-3.67-2.55,2.96-5.35,3.38-8.25,1.06-3.7-2.96-2.07-6.25,.18-9.17,7.32-9.5,22.63-12.88,34.51-7.37,13.35,6.19,19.26,17.11,19.19,31.57-.03,6.65,0,13.31,0,19.96,0,2.59,.29,4.98,3.67,5.18v5.99Zm-32.46-27.93c-4.48,0-8.96,.11-13.43-.03-3.72-.12-5.02,1.8-5.04,5.17-.01,2.4,.75,4.55,1.99,6.55,3.7,5.95,11.99,8.92,19.68,7.1,6.94-1.65,13.46-8.66,14.21-15.03,.33-2.84-.63-3.89-3.49-3.79-4.64,.16-9.28,.04-13.92,.04Z"/><path d="M0,117.63c2.4,1.89,2.4,3.06,0,5v-5Z"/><path d="M0,92.66c2.21,1.43,2.21,2.68,0,4v-4Z"/><path class="cls-2" d="M124.28,96.95c6.63-14.76,4.74-29.3-1.99-43.29-11.43-23.76-31.24-38.27-55.02-48.06-4.75-1.95-9.6-3.64-14.41-5.44,44.82-.32,82.35,18,115.89,45.89,13.66,11.36,26.42,23.82,35.46,39.42,4.18,7.22,7.36,14.84,5.65,23.54-3.01,6.51-7.8,11.82-11.98,17.54-1,.55-2.14,.94-2.99,1.66-13.54,11.61-29.05,18.55-46.95,19.59-18.72,1.09-36.08-2.5-50.12-16.05-5.27-5.09-5.11-5.59,1.2-9.07,11-6.06,20.5-13.56,25.25-25.74Z"/><path class="cls-1" d="M693.5,78.67c0,8.99-.13,17.98,.04,26.97,.27,14.04-6.82,21.22-20.89,24.08-20.96,4.25-37.96-13.98-37.12-31.99,.48-10.29,2.09-19.58,9.78-26.74,9.33-8.68,20.4-10.88,32.39-6.72,4,1.39,4.49,.19,4.3-3.26-.19-3.65-.08-7.32-.03-10.98,.06-4.66,2.55-8.24,5.84-7.79,4.43,.61,5.75,3.81,5.71,7.98-.1,9.49-.03,18.98-.02,28.46Zm-11.52,17.78c0-4.15-.04-8.31,.01-12.46,.04-2.92-1.12-5.21-3.51-6.75-5.26-3.39-10.92-4.73-17.06-2.77-10.44,3.33-14.58,10.12-14.53,23.69,.05,11.31,7.44,19.6,18.6,20.85,10.07,1.13,16.49-4.55,16.47-14.58,0-2.66,0-5.32,0-7.98Z"/><path class="cls-1" d="M372.73,99.69c-4.83,0-9.66,.11-14.48-.04-2.53-.08-3.12,.8-2.65,3.2,1.52,7.78,6.16,12.86,13.57,15.1,7.5,2.26,14.5,1.3,19.76-5.26,2.28-2.84,4.79-4.23,8.09-1.9,3.44,2.43,3.14,5.28,.95,8.6-7.85,11.88-27.72,14.62-40.6,5.41-12.48-8.93-15.4-21.69-13.17-35.82,2.03-12.89,9.76-21.45,22.38-25.44,10.96-3.47,25.09,.75,31.89,9.89,4.2,5.64,4.91,11.95,2.14,18.38-2.78,6.46-8.62,7.76-14.89,7.88-4.33,.09-8.66,.02-12.98,.02Zm-.06-11.26c3.98,0,7.96,.06,11.94-.02,2.27-.05,5.05,.32,5.98-2.37,.94-2.71-.31-5.15-2.3-7.18-8.64-8.81-25.64-5.81-30.95,5.44-1.25,2.65-1.43,4.33,2.38,4.18,4.31-.17,8.63-.04,12.94-.04Z"/><path class="cls-1" d="M592.83,99.7c-4.99,0-9.99,.04-14.98-.02-2.05-.02-2.97,.36-2.46,2.84,1.62,7.92,6.23,13.37,13.8,15.56,7.4,2.14,14.46,1.05,19.73-5.54,2.2-2.76,5-4.16,8.19-1.71,3.09,2.37,2.63,5.45,.85,8.44-4.75,7.99-16.77,12.34-25.22,10.97-27.74-4.48-39.03-35.22-21.24-57.23,12.8-15.83,40.71-13.43,49.09,4.21,5.2,10.96-1.16,21.82-13.27,22.42-4.82,.24-9.65,.04-14.48,.04v.03Zm-.48-11.26c3.98,0,7.96,.04,11.93-.01,2.45-.03,5.37,.35,6.34-2.63,.91-2.78-.57-5.18-2.54-7.12-9.01-8.86-26.01-5.38-31.06,6.25-1.22,2.81-.29,3.55,2.4,3.52,4.31-.06,8.62-.02,12.93,0Z"/><path class="cls-1" d="M302.37,99.68c-3.33,0-6.67,.14-9.99-.03-8.31-.41-14.37-4.68-16.5-11.42-2.22-7.04,.5-15.13,6.72-20,13.81-10.8,33.8-8.28,44.45,5.59,3.07,3.99,3.26,7.59,.22,9.65-3.61,2.44-6.19,1.07-8.84-2.2-7.64-9.42-18.73-11.16-27.9-4.81-2.75,1.91-4.83,4.29-4.12,7.83,.71,3.58,4.09,3.79,6.75,3.96,5.81,.36,11.65,.2,17.48,.19,9.8-.02,16.19,3.82,19.05,11.51,2.8,7.56,.06,17.52-6.38,23.15-13.84,12.1-38.5,8.59-48.41-6.8-2.03-3.14-2.27-6.11,.75-8.36,3.2-2.38,6.07-1.4,8.56,1.79,7.15,9.2,17.73,11.83,27.94,7.14,4.24-1.95,6.99-5.04,7.09-9.94,.1-4.65-2.25-7.13-6.88-7.23-3.33-.07-6.66-.01-9.99-.01Z"/><path class="cls-1" d="M522.69,88.44c2.95,0,5.12,.1,7.28-.02,8.11-.46,14.39,2.48,17.87,10.02,3.65,7.9,2.13,15.45-3.21,21.92-12.49,15.15-41,12.55-50.9-4.48-1.79-3.07-1.81-6.22,1.45-8.3,2.98-1.9,5.81-.95,7.76,1.87,7.07,10.24,17.97,11.02,26.94,7.97,3.43-1.17,6.13-3.38,7.64-6.75,2.83-6.32-.18-10.94-7.1-10.97-6-.03-11.99,.09-17.99-.03-9.16-.18-15.51-4.33-17.55-11.28-2.29-7.79,.73-15.87,7.82-20.96,14.31-10.26,35.17-6.6,44.07,7.62,2.04,3.26,2.57,6.24-.89,8.61-3.47,2.37-6.1,.77-8.41-2.28-6.53-8.59-16.77-11.09-25.61-6.28-1.72,.93-3.37,2.22-4.64,3.69-3.13,3.61-1.72,7.77,2.85,9.04,4.43,1.23,8.95,.25,12.63,.6Z"/><path class="cls-1" d="M426.86,108.02c0,5.95-.09,10.94,.03,15.93,.09,3.84-1.8,6.33-5.4,6.42-3.63,.09-5.76-2.46-5.75-6.18,0-11.48-.43-22.99,.34-34.42,1.05-15.59,15.65-27.6,32.08-27.34,15.69,.25,28.7,12.85,30.13,28.37,.7,7.64,.47,15.24,.64,22.86,.06,2.98-.05,5.84,1.88,8.52,1.93,2.67,.62,5.07-1.7,6.92-2.29,1.83-4.48,1.47-6.73-.31-5.84-4.6-4.86-11.15-5.09-17.34-.29-7.76,.23-15.63-.94-23.24-1.28-8.37-10.26-14.51-19.15-14.55-8.92-.04-16.95,6.01-19.27,14.48-1.89,6.88-.64,13.9-1.05,19.89Z"/><path class="cls-1" d="M722.68,96.31c0,8.82-.06,17.63,.03,26.45,.04,4.03-1.51,6.96-5.54,7.65-3.22,.55-5.92-3.16-5.93-7.7-.04-17.63-.03-35.26,0-52.9,0-4.69,2.56-8.42,5.7-7.91,4.28,.69,5.86,3.69,5.79,7.96-.14,8.81-.04,17.63-.04,26.45Z"/><path class="cls-1" d="M711.33,49.57c-.45-3.64,.63-6.95,5.35-7.41,3.54-.34,6.09,3.31,6.1,8.15,.01,5.21-2.11,8.32-5.73,8.37-4.11,.06-5.71-2.35-5.71-9.1Z"/></g></g></svg>