<?xml version="1.0" encoding="UTF-8"?><svg id="Layer_2" xmlns="http://www.w3.org/2000/svg" viewBox="0 0 837.67 549.11"><defs><style>.cls-1{fill:#5c4973;}.cls-2{fill:#bae241;}</style></defs><g id="Layer_1-2"><g><path class="cls-2" d="M372.41,.05c9.31-.47,19.44,2.17,29.45,5.42,4.67,1.52,5.11,3.16,1.59,6.44-8.98,8.34-16.94,17.45-21.97,28.78-1.29,2.89-3.38,3.08-6.12,2.87-19.05-1.47-34.27,7.72-40.8,25.41-5.01,13.57-3.38,27.13,5.56,38.37,20.82,26.18,42.34,51.8,63.76,77.49,8.54,10.23,20.52,9.61,28.92-.72,20.89-25.7,41.81-51.38,62.95-76.88,12.03-14.51,13.48-28.97,3.91-46.12-7.12-12.76-24.04-20.4-40.12-17.46-17.23,3.15-31.07,11.59-39.36,27.62-2.44,4.72-2.91,9.86-2.12,15.08,.22,1.42,.4,3.3,2.32,3.39,2.04,.09,2.36-1.9,2.33-3.24-.17-6.84,1.84-12.72,6.67-17.69,7.13-7.35,16.01-11.12,25.83-13.2,3.31-.7,5.19,.89,6.26,3.58,7.75,19.51,7.59,44.96-9.11,61.64-15.06,15.04-47.39,20.39-66.99-5.09-16.16-21.01-13.85-50.76,1.27-72.46C408.19,12.31,438.33-3.22,476.13,.6c33.23,3.35,56.35,22.39,67.9,53.58,11.6,31.34,4.14,59.29-18.07,84.05-16.78,18.7-32.51,38.33-49.02,57.28-9.93,11.39-19.19,23.34-30.91,33.19-16.38,13.77-36.39,14.69-53.58,1.97-11.69-8.65-20.44-19.98-29.76-30.79-18.47-21.43-36.59-43.16-55-64.63-16.16-18.84-21.21-40.88-17.95-64.8C295.23,30.03,330.35-.01,372.41,.05Z"/><path class="cls-2" d="M837.56,521.1c.2,12.3-6.54,21.92-18.42,26.28-10.69,3.92-23.64-.22-31.39-9.68-20.36-24.84-40.84-49.57-61.26-74.36-8.36-10.15-16.69-20.32-25.03-30.48-9.59-11.69-25.89-11.64-35.49-.08-26.15,31.48-51.51,63.63-78.92,94.04-6.29,6.97-13.76,12.59-21.87,17.25-5.09,2.93-10.79,3.89-16.69,4.61-22.68,2.77-39.61-8.03-54.51-22.96-18.23-18.27-34-38.78-50.93-58.24-8.98-10.32-9.49-21.98-2.99-33.38,5.17-9.07,16.49-14.19,27.91-12.68,7.38,.98,13.06,4.89,17.58,10.49,12.54,15.54,24.82,31.27,37.43,46.75,7.37,9.05,22.57,13.03,33.03,.86,24.94-29.02,49.73-58.16,74.65-87.19,7.53-8.77,16.33-16.16,26.1-22.31,18.35-11.54,39.21-10.4,57.64,2.38,15.71,10.89,27.46,25.55,39.62,39.9,17,20.06,34.08,40.05,51.15,60.06,8.42,9.87,16.92,19.68,25.28,29.6,5.62,6.66,6.97,10.58,7.11,19.13Z"/><path class="cls-2" d="M154.42,548.34c-17.72,2.07-29.78-8.16-41.86-18.18-11.35-9.41-20.13-21.24-29.68-32.34-15.29-17.78-30.46-35.66-45.65-53.53-10.45-12.29-21.06-24.45-31.16-37.02-9.43-11.74-7.58-29.06,3.55-38.78,10.52-9.18,28.04-8.61,38.04,2.22,9.25,10.01,17.53,20.92,26.22,31.45,21.08,25.54,42.05,51.17,63.25,76.62,9.18,11.02,25.66,10.46,34.86-.73,17.42-21.18,34.89-42.32,52.34-63.48,11.51-13.96,23.04-27.9,34.53-41.88,10.09-12.27,27.44-14.17,39.76-4.31,11.55,9.25,13.61,27.06,3.75,39-16.73,20.26-33.89,40.16-50.93,60.16-14.13,16.58-28.28,33.16-42.57,49.6-7.78,8.95-16.41,17-26.54,23.33-8.65,5.4-17.67,9.47-27.91,7.89Z"/><path class="cls-2" d="M294.19,548.56c-13.2,.23-21.54-5.8-26.1-16.45-4.46-10.43-2.92-20.53,4.65-29.36,25.55-29.81,51.09-59.62,76.66-89.41,12.68-14.77,25.28-29.61,38.15-44.21,10.54-11.96,27.22-13.24,38.88-3.36,11.95,10.13,13.69,26.88,3.28,39.3-18.27,21.79-37.02,43.18-55.55,64.75-19.62,22.85-39.21,45.71-58.82,68.57-5.84,6.81-12.97,10.84-21.15,10.19Z"/><path class="cls-2" d="M684.27,468.47c6.88,.41,13.87-1.16,20.5,2.63,8.93,5.11,13.87,14.12,12.06,23.64-1.87,9.83-10.31,17.9-20.32,18.46-8.47,.47-17.02,.53-25.47-.09-11.75-.86-20.94-11.6-20.56-23.08,.37-11.28,10.58-21.18,22.3-21.54,3.83-.12,7.66-.02,11.49-.02Z"/><path class="cls-1" d="M304.55,296.1c0-6.66,.17-13.32-.08-19.96-.1-2.7,.95-3.7,3.3-3.78,7.32-.25,14.78-1,21.9,.6,8.14,1.83,14.49,6.54,16.1,15.55,1.37,7.71,2.04,15.35-2.2,22.59-3.95,6.74-9.96,10-17.47,10.5-5.47,.36-10.99-.08-16.46,.23-3.69,.21-5.07-1.22-5.03-4.75,.08-6.99,.02-13.98,.02-20.97h-.06Zm6.23,.6h.02c0,2.5,0,4.99,0,7.49q0,13.51,13.6,12.29c6.6-.61,11.78-3.41,14.38-9.86,6.51-16.16-1.93-29.02-19.14-29.17-1.33-.01-2.67,.1-3.99-.02-3.58-.34-5.16,.97-4.94,4.8,.28,4.81,.07,9.65,.07,14.47Z"/><path class="cls-1" d="M831.9,310.58c1.05-6.95,.41-12.88,.53-18.77,.11-5.32-.03-10.65,.08-15.97,.03-1.73-.15-4.08,2.57-3.92,2.41,.15,2.59,2.2,2.59,4.11,0,14.14-.03,28.29-.03,42.43,0,1.58-.19,3.05-1.94,3.64-2.06,.7-2.94-.77-3.97-2.15-8.26-11.11-16.56-22.2-24.87-33.27-.47-.63-1.18-1.09-1.89-1.72-1.13,1.79-1.18,3.4-1.14,5.28,.19,9.13,.15,18.26-.03,27.39-.04,1.97-.08,4.83-3.29,4.53-2.85-.27-2.22-2.59-2.21-4.6,.06-13.64,.01-27.29,.06-40.93,0-1.55-.65-3.55,1.18-4.46,2.06-1.03,3.5,.46,4.62,1.94,6.78,8.94,13.49,17.92,20.25,26.87,2.25,2.97,4.57,5.88,7.48,9.61Z"/><path class="cls-1" d="M688.32,296.66c-.14-18.22,12.85-28.83,29.6-24.16,9.31,2.6,13.63,9.58,15.27,18.5,.72,3.92,.62,7.98-.06,11.94-2.19,12.8-11.64,20.37-24.21,19.53-11.68-.78-19.94-9.72-20.59-22.32-.06-1.16,0-2.33,0-3.49Zm6.16,.38c-.23,2.28,.38,5.22,1.12,8.11,1.72,6.74,6.78,11.13,13.25,11.65,8.11,.66,13.65-2.22,16.43-9.24,3-7.57,2.86-15.27-.7-22.71-2.17-4.54-5.99-6.99-10.9-7.74-11.26-1.72-18.99,6.01-19.2,19.92Z"/><path class="cls-1" d="M204.07,284.51c0,8.1,.01,16.2,0,24.3,0,3.33-.05,6.66-.15,9.99-.05,1.63-.68,3.08-2.53,3.13-2.09,.06-2.9-1.42-2.91-3.29-.02-14.49-.01-28.98,0-43.47,0-1.41,.44-2.66,1.98-3.11,2.03-.59,3.09,.8,4.09,2.13,6.93,9.16,13.83,18.35,20.74,27.52,1.99,2.64,3.99,5.27,6.25,8.25,1.39-1.95,.98-3.79,1-5.47,.07-9.16,.03-18.32,.09-27.48,.01-2.13-.19-4.89,2.79-4.98,3.04-.09,2.93,2.67,2.94,4.81,.05,13.49,.05,26.98,.04,40.47,0,1.83,.09,3.93-2.09,4.62-2.16,.69-3.31-1.06-4.4-2.52-7.29-9.72-14.56-19.46-21.85-29.19-1.55-2.07-3.16-4.09-4.75-6.13-.41,.14-.82,.27-1.24,.41Z"/><path class="cls-1" d="M126.33,289.37c0-4-.17-8,.07-11.98,.12-1.98-1.39-5.34,2.29-5.41,3.71-.07,3.63,3.11,3.63,5.86-.01,7.83,.02,15.65,.02,23.48,0,3.52-.55,6.92-1.72,10.27-1.34,3.84-3.76,6.58-7.32,8.42-9.86,5.1-24.49,2.36-28.38-5.91-1.57-3.35-2.38-6.9-2.39-10.61-.03-9.16,.03-18.32-.14-27.47-.04-2.27-.03-4.09,2.76-4.15,2.64-.06,3.34,1.68,3.34,3.96,.02,9.32-.06,18.65,.13,27.97,.11,5.5,2.13,10.33,7.71,12.21,5.99,2.02,11.84,1.35,16.54-3.45,2.18-2.23,3.06-5.17,3.15-8.21,.15-4.99,.04-9.98,.04-14.97h.28Z"/><path class="cls-1" d="M453.3,319.02c.24,1.66-.33,2.68-1.57,3.05-1.39,.4-2.71-.08-3.44-1.37-.98-1.73-2.11-3.48-2.57-5.37-1.28-5.24-4.6-6.62-9.59-6.11-3.62,.37-7.37,.51-10.94-.02-6.09-.91-9.18,1.68-10.9,7.26-.76,2.46-1.7,6.78-5.15,5.36-4.04-1.66-.92-5.22,.13-7.67,5.42-12.67,11.05-25.26,16.62-37.87,.87-1.97,1.63-4.31,4.2-4.42,2.91-.12,3.66,2.41,4.6,4.54,5.75,13.08,11.5,26.15,17.24,39.23,.53,1.21,1,2.45,1.39,3.39Zm-22.98-39.62c-3.51,8.15-6.46,14.94-9.38,21.76-.96,2.25,.16,3.05,2.27,3.04,4.8,0,9.61-.02,14.41-.02,2.51,0,2.66-1.27,1.83-3.22-2.85-6.68-5.67-13.38-9.13-21.57Z"/><path class="cls-1" d="M513.67,297.21c-.29-20.75,17.08-32.19,34.89-22.97,.88,.46,1.73,.99,2.55,1.54,1.58,1.07,3.19,2.33,1.75,4.41-1.25,1.8-2.92,1.73-4.72,.41-4.09-3-8.84-3.42-13.67-3-6.27,.55-10.94,3.37-12.9,9.76-1.75,5.71-1.92,11.57-.55,17.23,2.84,11.66,14.8,15.89,26.24,9.45,2.03-1.14,3.93-2.53,5.55-.18,1.84,2.67-.83,3.82-2.52,4.97-13.1,8.89-30.21,2.9-35.38-11.97-1.15-3.31-1.07-6.41-1.24-9.65Z"/><path class="cls-1" d="M.32,297.47c0-6.65,.17-13.3-.06-19.95-.13-3.83,1.12-5.45,5.1-5.34,6.98,.2,13.96-.05,20.94,.11,1.58,.04,4.1-.34,4.08,2.44-.02,2.82-2.05,2.77-4.24,2.71-5.32-.15-10.64,.08-15.95-.14-3.52-.15-4.49,1.23-4.55,4.64-.25,12.39-.37,12.39,12.11,12.39,1.83,0,3.68-.17,5.48,.05,2.23,.27,5.92-1.25,6.04,2.35,.12,3.67-3.58,2.55-5.83,2.64-4.31,.18-8.65,.23-12.96,0-3.73-.2-4.99,1.21-4.79,4.93,.25,4.64-.05,9.3-.14,13.95-.04,1.91-.25,3.85-2.71,4.01-2.94,.2-2.47-2.23-2.49-3.86-.11-6.98-.05-13.96-.05-20.94h.04Z"/><path class="cls-1" d="M617.36,296.99c0-6.82,0-13.64,0-20.46,0-2.24,.04-4.73,3.1-4.65,3.02,.09,2.95,2.64,2.95,4.83,0,13.48-.02,26.95-.07,40.43,0,2.15,.14,4.86-2.84,4.94-3.38,.09-3.11-2.83-3.12-5.13-.05-6.65-.02-13.31-.02-19.96h-.02Z"/><path class="cls-1" d="M720.84,258.52c-2,3.43-4.91,6.55-8.01,9.49-.31,.29-1.34,.19-1.79-.1-.96-.64-1.03-1.78-.47-2.64,1.98-3.04,4.03-6.03,6.17-8.95,.61-.84,1.73-1.01,2.72-.57,.98,.43,1.45,1.29,1.37,2.78Z"/></g></g></svg>