<svg width="336" height="40" viewBox="0 0 336 40" fill="none" xmlns="http://www.w3.org/2000/svg">
<path d="M192.909 26.5689C195.896 30.8301 198.789 34.9457 201.91 39.3941C198.356 39.3941 195.189 39.3817 192.018 39.4025C191.14 39.4066 190.861 38.7408 190.495 38.1749C188.348 34.8583 186.23 31.5251 184.062 28.2293C183.758 27.7716 183.583 26.8685 182.788 27.1515C182.164 27.3762 182.464 28.1336 182.459 28.6496C182.435 31.6999 182.38 34.7501 182.476 37.8004C182.518 39.1195 182.06 39.4732 180.82 39.4274C178.743 39.3484 176.659 39.3692 174.582 39.4191C173.617 39.4441 173.259 39.1486 173.259 38.1291C173.288 26.415 173.284 14.7008 173.267 2.98253C173.267 2.10865 173.529 1.75078 174.453 1.7591C179.929 1.8132 185.414 1.63426 190.878 1.89642C196.221 2.15026 200.424 6.15346 201.51 11.4592C202.704 17.3058 200.224 23.0193 195.397 25.4787C194.66 25.8532 193.878 26.1445 192.9 26.5689H192.909ZM182.451 14.2889C182.451 17.3877 183.987 18.9371 187.058 18.9371C187.403 18.9371 187.749 18.9371 188.098 18.9371C190.795 18.8996 192.201 17.6179 192.455 14.9713C192.771 11.6339 191.073 9.79878 187.645 9.7863C184.182 9.77243 182.451 11.2747 182.451 14.293V14.2889Z" fill="#63C7A5"/>
<path d="M142.016 20.4726C142.016 14.7882 142.049 9.09966 141.991 3.41529C141.978 2.18354 142.265 1.72995 143.593 1.74244C150.734 1.80486 157.874 1.79653 165.019 1.7466C166.222 1.73828 166.597 2.13776 166.53 3.29877C166.413 5.36695 167.15 8.00524 166.139 9.35351C165.153 10.6643 162.373 9.6989 160.384 9.75715C157.891 9.83206 155.39 9.81957 152.897 9.75715C151.72 9.72386 151.191 9.9569 151.158 11.326C151.012 16.9105 150.962 16.9063 156.534 16.9063C158.752 16.9063 160.975 16.9438 163.188 16.8897C164.216 16.8647 164.724 17.1102 164.662 18.2671C164.549 20.3394 165.298 22.9652 164.291 24.3343C163.322 25.6534 160.542 24.663 158.561 24.7379C156.555 24.817 154.541 24.792 152.531 24.7379C151.562 24.713 151.241 25.05 151.171 26.0446C150.796 31.4127 150.767 31.4085 156.11 31.4085C159.231 31.4085 162.352 31.446 165.469 31.3877C166.559 31.3669 167.146 31.5542 167.067 32.84C166.967 34.567 166.971 36.3106 167.067 38.0375C167.129 39.1944 166.634 39.4149 165.619 39.4108C158.27 39.3816 150.917 39.3608 143.568 39.4274C142.199 39.4399 141.986 38.9197 141.999 37.7296C142.049 31.9745 142.024 26.2194 142.024 20.4643L142.016 20.4726Z" fill="#63C7A5"/>
<path d="M82.9745 20.5558C82.9745 14.8756 83.0078 9.19536 82.9495 3.51515C82.9371 2.20849 83.2783 1.72994 84.6807 1.74242C91.7466 1.81317 98.8125 1.80484 105.878 1.75075C107.168 1.74242 107.585 2.16272 107.51 3.41944C107.418 4.93832 107.393 6.47386 107.514 7.98858C107.635 9.51995 106.973 9.83205 105.591 9.80708C101.713 9.73217 97.8305 9.82372 93.9521 9.75714C92.6538 9.73634 92.1461 10.0484 92.1294 11.4716C92.0629 16.9146 92.0088 16.9146 97.4351 16.9146C99.7197 16.9146 102.008 16.9521 104.293 16.898C105.279 16.873 105.65 17.2059 105.616 18.2046C105.558 19.9357 105.546 21.671 105.616 23.398C105.666 24.5174 105.221 24.8003 104.168 24.7837C100.706 24.7296 97.2395 24.817 93.7773 24.7379C92.4873 24.7088 92.1502 25.1457 92.1294 26.3983C92.042 31.421 91.9963 31.421 97.0024 31.421C100.19 31.421 103.378 31.4585 106.561 31.4002C107.626 31.3794 108.047 31.6707 107.992 32.7943C107.909 34.5919 107.93 36.398 107.988 38.1957C108.017 39.0779 107.747 39.4232 106.831 39.4191C99.2786 39.3941 91.7299 39.3858 84.1771 39.4274C82.8746 39.4357 82.9579 38.6825 82.9579 37.8128C82.9704 32.0619 82.962 26.3109 82.962 20.5641L82.9745 20.5558Z" fill="#63C7A5"/>
<path d="M320.216 1.14746C325.447 1.35969 330.453 3.62345 334.415 8.16762C335.426 9.32863 335.634 10.19 334.073 11.0972C332.579 11.9628 331.156 12.974 329.825 14.0725C328.647 15.038 327.902 15.1129 326.762 13.8686C323.728 10.5562 319.521 9.64905 315.797 11.2387C311.914 12.8949 309.426 16.8398 309.692 21.2217C309.946 25.4038 312.043 28.4832 315.972 29.9647C319.854 31.4294 323.583 30.7636 326.504 27.7467C327.865 26.3443 328.747 26.157 330.195 27.4221C331.389 28.4624 332.738 29.3488 334.103 30.1602C335.484 30.98 335.517 31.7582 334.498 32.9234C330.328 37.7089 325.102 40.1849 318.756 39.9893C307.999 39.6522 300.067 30.901 300.271 19.7444C300.454 9.68235 309.209 1.19324 320.212 1.15162L320.216 1.14746Z" fill="#63C7A5"/>
<path d="M63.2292 1.26807C67.9648 1.33881 73.0333 3.73573 77.024 8.48797C77.8896 9.51998 77.9271 10.165 76.6953 10.9099C75.1556 11.842 73.6326 12.8366 72.2677 14.0017C71.0068 15.0795 70.3077 15.0462 69.1758 13.7188C66.4917 10.5728 61.8019 9.62817 58.1649 11.2136C54.2657 12.9115 51.6649 17.0978 51.9729 21.1842C52.3016 25.5869 55.2104 29.3695 59.2385 30.3308C63.1585 31.2671 66.7164 30.4806 69.4296 27.3138C70.3035 26.2901 70.9027 26.1819 71.9389 27.0142C73.2872 28.0961 74.6895 29.1573 76.2043 29.9729C78.0893 30.9883 77.7648 31.9121 76.5538 33.2395C71.5061 38.7908 65.2392 40.9505 57.9652 39.5065C50.791 38.0833 45.9805 33.5641 43.6585 26.6813C39.4639 14.2389 48.7145 1.37626 63.2292 1.26807Z" fill="#63C7A5"/>
<path d="M271.874 20.5603C271.874 15.0174 271.916 9.47865 271.849 3.93576C271.828 2.34613 272.29 1.73858 273.971 1.75523C280.758 1.83429 287.55 1.83013 294.337 1.75523C296.001 1.73858 296.576 2.32533 296.447 3.9316C296.343 5.23826 296.355 6.56572 296.442 7.87654C296.538 9.35797 295.885 9.80323 294.482 9.78243C290.812 9.72417 287.138 9.8282 283.472 9.73665C281.749 9.69504 280.996 10.1278 281.016 12.042C281.066 16.865 280.979 16.865 285.856 16.8692C288.141 16.8692 290.429 16.9066 292.714 16.8608C293.925 16.8359 294.503 17.2562 294.474 18.5379C294.441 20.0567 294.545 21.5798 294.566 23.1028C294.582 24.3221 293.971 24.7882 292.751 24.7715C289.497 24.7216 286.239 24.809 282.985 24.7382C281.57 24.7091 281.004 25.1544 281.037 26.6316C281.174 32.3992 280.33 31.2965 285.69 31.3964C288.806 31.4546 291.923 31.4505 295.04 31.3922C296.351 31.3672 296.925 31.7958 296.892 33.1732C296.709 40.8842 298.132 39.3903 290.85 39.5109C285.311 39.6025 279.768 39.4735 274.225 39.5567C272.44 39.5817 271.799 39.0324 271.832 37.1806C271.936 31.6419 271.87 26.099 271.87 20.5561L271.874 20.5603Z" fill="#63C7A5"/>
<path d="M221.709 11.4509C219.029 20.0357 216.3 28.6039 213.711 37.2137C213.204 38.9032 212.467 39.5398 210.703 39.3942C208.709 39.2277 206.687 39.3318 204.681 39.3651C203.649 39.3817 203.15 39.2652 203.624 37.996C207.977 26.3318 212.288 14.6468 216.578 2.95762C216.915 2.03797 217.381 1.66345 218.384 1.68841C220.806 1.755 223.236 1.76748 225.658 1.68841C226.79 1.65096 227.19 2.17113 227.543 3.14072C231.796 14.7716 236.074 26.3901 240.402 37.9918C240.864 39.2277 240.489 39.4566 239.395 39.3568C239.324 39.3484 239.258 39.3568 239.187 39.3568C236.561 39.3151 233.44 40.1349 231.455 38.9906C229.52 37.8712 229.637 34.4339 228.838 32.0203C226.803 25.8449 224.88 19.6321 222.904 13.44C222.683 12.7492 222.396 12.0834 222.142 11.4051L221.713 11.4592L221.709 11.4509Z" fill="#63C7A5"/>
<path d="M247.8 24.638C247.8 20.4101 247.751 16.1822 247.825 11.9542C247.855 10.3646 247.343 9.66552 245.682 9.74874C243.747 9.84445 241.8 9.71961 239.861 9.77787C238.546 9.81532 238.042 9.30348 237.963 7.96769C237.597 1.78396 237.568 1.78396 243.781 1.78396C250.713 1.78396 257.642 1.82557 264.575 1.75483C266.243 1.73819 266.88 2.19177 266.884 3.9645C266.888 9.76539 266.955 9.7529 261.117 9.76955C256.431 9.78203 257.001 9.35342 256.985 13.8643C256.964 21.6252 256.93 29.3902 257.014 37.1511C257.034 38.9654 256.485 39.7228 254.658 39.5314C252.478 39.3025 249.706 40.4677 248.25 38.9737C246.893 37.5839 247.88 34.8665 247.817 32.7401C247.738 30.0394 247.8 27.3345 247.796 24.6296L247.8 24.638Z" fill="#63C7A5"/>
<path d="M114.247 20.5432C114.247 14.863 114.284 9.18281 114.218 3.5026C114.201 2.17097 114.542 1.65913 115.936 1.74652C117.801 1.86304 119.682 1.87136 121.546 1.74652C123.086 1.63832 123.552 2.11688 123.535 3.69402C123.456 12.1457 123.552 20.5973 123.456 29.049C123.435 30.9008 123.843 31.5708 125.815 31.4667C129.061 31.2878 132.328 31.4667 135.582 31.396C136.756 31.371 137.184 31.7206 137.113 32.9149C136.993 34.9747 137.758 37.6546 136.735 38.9446C135.645 40.3179 132.852 39.3524 130.809 39.3816C125.82 39.4523 120.83 39.3649 115.845 39.4315C114.563 39.4481 114.205 39.0736 114.222 37.7961C114.289 32.0451 114.251 26.2942 114.251 20.5474L114.247 20.5432Z" fill="#63C7A5"/>
<path d="M17.7665 3.60698C18.3075 1.97574 19.456 1.59705 21.0872 1.73438C22.9307 1.89251 24.8116 1.89251 26.6551 1.73438C28.278 1.59705 28.9105 2.27951 29.4057 3.72349C30.8372 7.88066 32.4393 11.9796 33.9707 16.0993C33.5421 16.944 33.1093 17.7929 32.6807 18.6419C32.3936 18.9997 32.1064 19.3534 31.8193 19.7113C31.0037 20.5145 30.1881 21.3134 29.3724 22.1166C28.9563 22.4703 28.5443 22.824 28.1324 23.1819L27.4457 22.953C26.2348 19.0621 25.0239 15.1713 23.8088 11.2805H23.3593C21.778 16.4031 20.1967 21.5298 18.6113 26.6524L16.8344 27.389C16.3933 27.3723 15.9522 27.3557 15.5111 27.339C14.4791 26.9229 13.6093 27.6803 12.6397 27.7302L10.6215 27.1726C10.2303 26.9978 9.83501 26.8189 9.44385 26.6441C11.3664 21.1553 13.6718 15.8038 15.3363 10.2235C16.3725 8.10121 17.3587 5.95813 17.7582 3.60281L17.7665 3.60698Z" fill="#63C7A5"/>
<path d="M17.7664 3.60677C17.3669 5.96209 16.3849 8.10517 15.3445 10.2274C9.1941 7.99697 6.13136 8.86253 2.3071 13.9102C1.74948 14.2098 1.50397 14.6717 1.57471 15.3001C1.59135 15.4 1.57471 15.4915 1.52893 15.5789C0.372085 15.3334 0.908896 14.0018 0.180664 13.4774C0.180664 13.1986 0.184825 12.924 0.188987 12.6452C0.800702 11.996 0.771573 11.3052 0.313827 10.5895C0.351278 9.55331 0.5427 8.55459 0.996284 7.61413C1.04622 7.58916 1.12945 7.5642 1.13361 7.53507C1.13777 7.43936 1.1128 7.34365 1.10032 7.24794C1.21683 6.9608 1.32919 6.67783 1.44571 6.3907C1.75781 6.16599 1.87016 5.85389 1.84936 5.48353C4.47099 -0.288228 11.5993 -1.80711 16.3766 2.38751C16.8385 2.79532 17.3045 3.20313 17.7664 3.61094V3.60677Z" fill="#63C7A5"/>
<path d="M36.8754 24.2759C38.5274 28.7327 40.1254 33.2102 41.8606 37.6379C42.4682 39.1901 42.0562 39.5105 40.5373 39.4314C38.4733 39.3232 36.3968 39.3399 34.3286 39.4314C33.1759 39.4814 32.5809 39.1526 32.2729 37.9833C31.8193 36.2563 31.1743 34.5752 30.6084 32.8773C32.7681 30.0643 35.1983 27.4426 36.8795 24.28L36.8754 24.2759Z" fill="#63C7A5"/>
<path d="M32.6892 18.6456C33.1178 17.7967 33.5465 16.9519 33.9792 16.103C34.1041 16.1405 34.2206 16.1946 34.333 16.2612C34.437 19.3905 33.4466 22.2535 32.2024 25.0582C31.8029 25.4951 31.1537 25.8156 31.3618 26.6353C32.2232 26.4481 32.2523 25.7906 32.4395 25.2455C33.9501 24.1843 33.8378 22.266 34.7449 20.8844C34.799 21.5169 34.7449 22.1827 35.2609 22.6821C35.2027 24.3882 33.5381 25.4827 33.5298 27.2096L33.5381 27.1971C32.7558 27.2512 32.4104 27.7464 32.2814 28.4538L32.2897 28.4455C32.1483 28.587 32.0068 28.7285 31.8653 28.87L31.8778 28.8575C31.7363 28.999 31.5948 29.1405 31.4533 29.282L31.4616 29.2736C31.3202 29.4151 31.1787 29.5566 31.0372 29.6981L31.0455 29.6898C30.3422 29.8229 29.847 30.1683 29.7888 30.9465H29.7971C29.0522 30.909 28.4988 31.3668 27.9037 31.6997C25.0033 33.3309 21.9072 33.9676 18.574 33.9551C15.5612 33.9426 12.9729 32.6443 10.2305 31.7704L10.2389 31.7787C10.0474 31.4666 9.76863 31.3293 9.4066 31.3626L9.39828 31.3543C9.2776 30.6344 8.80321 30.443 8.14988 30.522L8.1582 30.5304L7.73375 30.1059L7.74207 30.1142C7.60058 29.9727 7.4591 29.8312 7.31761 29.6898L7.32594 29.6981L6.90148 29.2736L6.9098 29.282C6.94309 28.9116 6.80161 28.6328 6.48535 28.4372L6.49367 28.4497C6.34386 27.7631 6.03592 27.2387 5.24111 27.2013H5.23695C5.33682 26.4564 5.06217 25.8988 4.40884 25.5368C4.38804 25.2455 4.37139 24.9542 4.35059 24.6629C5.39924 24.9126 6.23151 25.4993 6.92229 26.3108C7.69213 27.6507 8.49111 28.9657 10.114 29.4359C10.372 29.748 10.5801 30.135 10.9005 30.3597C16.0564 33.9843 24.0753 33.5931 28.8983 29.4942C29.0897 29.3319 29.3435 29.128 28.9399 28.6827C26.93 29.9103 24.8659 31.1421 22.5065 31.733C18.0205 32.8565 14.0673 31.4833 10.2888 29.207C9.53976 28.3498 8.79072 27.4926 8.04168 26.6395C8.51191 26.6395 8.98214 26.6395 9.45237 26.6395C9.84354 26.8143 10.2389 26.9932 10.63 27.168C13.8842 31.4167 22.5273 32.1117 26.4597 28.4455H26.4514C28.0119 27.788 29.5682 27.1139 29.7888 25.1123L29.7805 25.1248C32.2148 23.6184 32.5894 21.1923 32.6892 18.6373V18.6456Z" fill="#63C7A5"/>
<path d="M36.8754 24.276C35.1942 27.4386 32.7682 30.0602 30.6043 32.8733C30.1507 33.0148 29.6555 33.0855 29.2518 33.3186C25.5524 35.4533 21.57 36.1732 17.3504 35.8278C16.8095 35.7821 16.2602 35.8736 15.7109 35.9027C12.9602 34.5711 10.2096 33.2395 7.45896 31.912C5.22849 29.1281 3.00218 26.3483 1.83701 22.8903C0.813319 19.8317 -0.268626 16.7939 0.180797 13.4774C0.904868 14.0017 0.372218 15.3333 1.52907 15.5788C0.8799 18.7914 2.03259 21.5919 3.53899 24.3134C3.61805 24.8752 3.79699 25.3579 4.40454 25.5452C4.28803 26.2942 4.53355 26.8643 5.23265 27.2056H5.23681C5.33668 27.9421 5.66543 28.454 6.48937 28.4623L6.48105 28.4498C6.43111 28.8285 6.5726 29.1073 6.9055 29.2946L6.89718 29.2862L7.32164 29.7107L7.31331 29.7024C7.4548 29.8439 7.59628 29.9853 7.73777 30.1268L7.72944 30.1185C7.87093 30.26 8.01242 30.4015 8.1539 30.543L8.14558 30.5346C8.39526 31.059 8.78642 31.3752 9.39398 31.3669L9.4023 31.3752C9.57291 31.7248 9.86421 31.8413 10.2346 31.7914L10.2262 31.783C10.247 32.2533 10.5342 32.5362 10.9212 32.7277C14.6705 34.6003 18.6321 35.3743 22.7269 34.4088C25.2902 33.8054 27.9868 33.2229 29.7928 30.9508H29.7845C30.521 30.8551 31.0079 30.5055 31.0412 29.7024L31.0329 29.7107C31.1744 29.5692 31.3158 29.4277 31.4573 29.2862L31.449 29.2946C31.5905 29.1531 31.732 29.0116 31.8735 28.8701L31.861 28.8826C32.0025 28.7411 32.144 28.5996 32.2854 28.4581L32.2771 28.4665C33.0803 28.4332 33.4215 27.938 33.5338 27.2097L33.5255 27.2222C34.9778 26.0238 35.5562 24.3509 36.0265 22.6156C37.3581 20.019 37.3331 17.2225 37.2125 14.4137C37.1958 14.0641 37.0377 13.7395 36.6257 13.6771C36.2345 13.6188 35.9599 13.8435 35.7976 14.1598C35.5479 14.6467 35.3482 15.1585 35.1235 15.6621C35.0278 15.2293 34.9279 14.7965 34.8322 14.3637L36.8837 10.3896C38.5607 15.1044 37.7701 19.6944 36.8712 24.2802L36.8754 24.276Z" fill="#63C7A5"/>
<path d="M7.46346 31.9077C10.2141 33.2393 12.9647 34.571 15.7154 35.8984C14.9358 38.2343 13.3157 39.4023 10.8549 39.4023C8.92824 39.4023 7.00571 39.4023 4.8335 39.4023C5.75315 36.7765 6.61038 34.3421 7.46346 31.9077Z" fill="#63C7A5"/>
<path d="M39.6176 6.07034C39.5302 7.41029 38.7812 8.15932 37.5369 8.19678C36.2968 8.23839 35.4063 7.55593 35.3522 6.24095C35.2981 4.85107 36.0846 4.0188 37.4745 4.02296C38.7562 4.02713 39.4137 4.86771 39.6176 6.06618V6.07034Z" fill="#63C7A5"/>
<path d="M34.8407 14.3599C34.9364 14.7926 35.0363 15.2254 35.132 15.6582C35.3276 17.4268 34.9614 19.1537 34.7408 20.8931C33.8336 22.2705 33.946 24.1931 32.4354 25.2542C32.3564 25.1918 32.2773 25.1294 32.1982 25.0628C33.4425 22.2581 34.4329 19.3951 34.3288 16.2658C34.4287 15.6124 34.3205 14.905 34.8407 14.3599Z" fill="#63C7A5"/>
<path d="M0.314063 10.5933C0.771809 11.309 0.800938 11.9998 0.189223 12.649C-0.19778 11.9374 0.0935125 11.2674 0.314063 10.5933Z" fill="#63C7A5"/>
<path d="M1.84945 5.4834C1.87026 5.85376 1.7579 6.17002 1.4458 6.39057C1.57896 6.08679 1.71629 5.78301 1.84945 5.4834Z" fill="#63C7A5"/>
<path d="M1.10039 7.25195C1.11288 7.34766 1.13785 7.44337 1.13369 7.53908C1.13369 7.56821 1.0463 7.59318 0.996361 7.61815C0.988039 7.48499 1.02133 7.36015 1.10039 7.25195Z" fill="#63C7A5"/>
<path d="M12.6523 27.7342C13.6219 27.6884 14.4917 26.9311 15.5237 27.343C14.6539 28.4416 15.8982 28.2877 16.2519 28.3834C20.6296 29.586 24.4247 28.3917 27.6373 25.3165C28.507 24.4842 29.7679 23.706 29.385 22.1206C30.2007 21.3174 31.0163 20.5185 31.8277 19.7153C31.8943 21.8043 30.4212 23.3107 29.7845 25.1334L29.7929 25.1209C28.7109 26.2653 27.1005 26.8811 26.4555 28.4583H26.4638C24.5371 28.6872 22.8642 29.8523 20.9043 29.9522C17.9164 30.0978 14.966 30.1062 12.6565 27.7342H12.6523Z" fill="#63C7A5"/>
<path d="M18.6194 26.6565C21.8444 26.0905 24.9738 25.2957 27.4539 22.957C27.6828 23.0319 27.9117 23.1068 28.1405 23.1859C27.7993 24.4052 26.8505 25.2041 25.9059 25.8325C23.1511 27.6677 20.2215 28.9577 16.8467 27.3972L18.6236 26.6606L18.6194 26.6565Z" fill="#63C7A5"/>
<path d="M16.8471 27.3972C20.2219 28.9577 23.1473 27.6677 25.9063 25.8325C26.8509 25.2042 27.7997 24.4052 28.1409 23.1859C28.5529 22.8322 28.969 22.4785 29.381 22.1206C29.7638 23.7061 28.5071 24.4842 27.6374 25.3165C24.429 28.3917 20.6339 29.586 16.252 28.3834C15.8983 28.2877 14.6582 28.4458 15.5238 27.3431C15.9649 27.3597 16.406 27.3764 16.8471 27.393V27.3972Z" fill="#63C7A5"/>
<path d="M12.6525 27.7344C14.9621 30.1063 17.9124 30.098 20.9003 29.9524C22.8644 29.8567 24.5373 28.6873 26.4598 28.4543C22.5315 32.1204 13.8884 31.4255 10.6343 27.1768C11.3084 27.3599 11.9784 27.5471 12.6525 27.7344Z" fill="#63C7A5"/>
<path d="M29.7805 25.1335C30.4172 23.3108 31.8903 21.8003 31.8237 19.7155C32.1109 19.3576 32.398 19.0039 32.6851 18.646C32.5894 21.2011 32.2107 23.6271 29.7764 25.1335H29.7805Z" fill="#63C7A5"/>
<path d="M2.31165 13.9102C2.24507 14.4678 1.97458 14.913 1.57926 15.3C1.50851 14.6717 1.75403 14.2098 2.31165 13.9102Z" fill="#63C7A5"/>
<path d="M34.7407 20.8927C34.9571 19.1533 35.3275 17.4263 35.1319 15.6577C35.3524 15.1584 35.5563 14.6465 35.8019 14.1555C35.9642 13.8392 36.2388 13.6145 36.63 13.6728C37.0378 13.7352 37.2001 14.0598 37.2167 14.4093C37.3374 17.2182 37.3624 20.0147 36.0307 22.6113C35.7727 22.6363 35.5189 22.6654 35.2609 22.6904C34.7449 22.191 34.799 21.5252 34.7449 20.8927H34.7407Z" fill="#63C7A5"/>
<path d="M10.2927 29.2157C14.067 31.492 18.0245 32.8611 22.5062 31.7417C24.8657 31.1508 26.9297 29.919 28.9396 28.6914C29.3433 29.1325 29.0894 29.3364 28.898 29.5029C24.075 33.6018 16.0561 33.9929 10.9003 30.3684C10.5798 30.1437 10.3718 29.7567 10.1138 29.4446C10.172 29.3655 10.2344 29.2906 10.2969 29.2199L10.2927 29.2157Z" fill="#63C7A5"/>
<path d="M29.7887 30.9507C27.9869 33.2228 25.2862 33.8054 22.7228 34.4087C18.628 35.3742 14.6665 34.6002 10.9171 32.7276C10.5343 32.5362 10.243 32.2532 10.2222 31.7829C12.9603 32.6568 15.5528 33.9552 18.5656 33.9676C21.8989 33.9801 24.9949 33.3434 27.8953 31.7122C28.4862 31.3793 29.0439 30.9216 29.7887 30.9548V30.9507Z" fill="#63C7A5"/>
<path d="M26.4556 28.458C27.1006 26.8767 28.7068 26.2608 29.7929 25.1206C29.5724 27.1222 28.0202 27.7963 26.4556 28.458Z" fill="#63C7A5"/>
<path d="M35.2609 22.6909C35.5189 22.6659 35.7727 22.6368 36.0307 22.6118C35.5605 24.3429 34.9821 26.0158 33.5298 27.2184C33.5381 25.4915 35.2068 24.4012 35.2609 22.6909Z" fill="#63C7A5"/>
<path d="M6.91797 26.3191C7.29249 26.4315 7.67117 26.5397 8.04569 26.6478C8.79473 27.5051 9.54377 28.3582 10.2928 29.2154C10.2304 29.2903 10.1721 29.3652 10.1139 29.4401C8.48679 28.974 7.69198 27.6591 6.92213 26.3149L6.91797 26.3191Z" fill="#63C7A5"/>
<path d="M32.4353 25.2498C32.2522 25.7949 32.2231 26.4524 31.3575 26.6396C31.1453 25.8199 31.7944 25.4994 32.1981 25.0625C32.2772 25.1291 32.3562 25.1915 32.4353 25.2539V25.2498Z" fill="#63C7A5"/>
<path d="M31.037 29.7021C31.0037 30.5094 30.5168 30.8548 29.7803 30.9589C29.8385 30.1807 30.3337 29.8353 31.037 29.7021Z" fill="#63C7A5"/>
<path d="M33.5341 27.2056C33.4217 27.9338 33.0805 28.429 32.2773 28.4623C32.4063 27.7549 32.7517 27.2597 33.5341 27.2056Z" fill="#63C7A5"/>
<path d="M6.49377 28.4625C5.66983 28.4542 5.34524 27.9465 5.24121 27.21C6.03602 27.2516 6.34396 27.7759 6.49377 28.4625Z" fill="#63C7A5"/>
<path d="M5.23698 27.2058C4.53372 26.8646 4.29236 26.2944 4.40888 25.5454C5.06221 25.9116 5.33685 26.4651 5.23698 27.2058Z" fill="#63C7A5"/>
<path d="M9.39391 31.3669C8.78635 31.3753 8.39519 31.0632 8.14551 30.5347C8.79884 30.4556 9.27323 30.647 9.39391 31.3669Z" fill="#63C7A5"/>
<path d="M3.53906 24.3091C3.80955 24.4298 4.08003 24.5504 4.34636 24.6711C4.36717 24.9624 4.38381 25.2537 4.40462 25.545C3.79706 25.3577 3.61397 24.8709 3.53906 24.3132V24.3091Z" fill="#63C7A5"/>
<path d="M10.2385 31.7872C9.86816 31.8371 9.57686 31.7206 9.40625 31.3711C9.76829 31.3378 10.0471 31.4751 10.2385 31.7872Z" fill="#63C7A5"/>
<path d="M6.90542 29.2945C6.57251 29.1072 6.43103 28.8284 6.48096 28.4497C6.79306 28.6453 6.93871 28.9241 6.90542 29.2945Z" fill="#63C7A5"/>
</svg>
