<svg width="159" height="40" viewBox="0 0 159 40" fill="none" xmlns="http://www.w3.org/2000/svg">
<path d="M0 31.0763C0.0840846 31.106 0.140955 31.0491 0.205255 31.0145C3.23972 29.4367 6.19754 27.7327 8.8462 25.5465C11.2377 23.5705 13.2829 21.3151 14.5194 18.4191C14.6554 18.1001 14.8063 17.7835 14.8706 17.4373H14.8607C14.925 17.4299 14.9225 17.3804 14.925 17.3334C15.3207 16.5272 15.6051 15.679 15.8475 14.8159C16.4163 12.7954 16.5572 10.7476 16.1813 8.67768C15.9266 7.27297 15.4271 5.94987 14.7816 4.67871C15.7214 5.07935 16.5845 5.62095 17.4377 6.17245C20.9618 8.45015 23.8503 11.3659 26.0736 14.9222C27.785 17.6599 27.6935 20.4149 25.9525 23.0982C24.7283 24.9827 23.2395 26.6619 21.6394 28.2372C18.3428 31.4819 14.5392 33.9921 10.3449 35.9112C7.30546 37.3035 3.8481 36.4429 1.60007 33.7992C0.976858 33.0647 0.484709 32.2535 0.108801 31.3682C0.0964355 31.341 0.0692292 31.3187 0.0444985 31.2989C0.0420254 31.2964 0.017314 31.3187 0.00247549 31.3286V31.0739L0 31.0763Z" fill="#63C7A5"/>
<path d="M54.6081 18.82C55.0582 18.9956 55.4267 19.1291 55.7828 19.2824C57.3606 19.965 58.7406 20.8998 59.7125 22.3614C60.3679 23.3482 60.7216 24.4437 60.8724 25.6011C61.1494 27.7453 60.912 29.8202 59.9351 31.7739C59.1339 33.374 57.9418 34.6402 56.5396 35.7284C54.2668 37.4942 51.6627 38.4438 48.8533 38.9137C46.1205 39.3712 43.3705 39.5814 40.6031 39.4751C38.6172 39.4009 36.6388 39.2031 34.6949 38.7802C33.4411 38.5081 32.296 37.9814 31.3686 37.0639C30.3101 36.0202 29.8897 34.712 29.8428 33.2578C29.8032 32.0015 30.1172 30.7946 30.3819 29.5828C32.3381 20.5808 34.4179 11.606 36.4632 2.62131C36.661 1.75079 37.0518 1.43918 37.9371 1.36251C39.5768 1.22155 41.214 1.04101 42.8536 0.897575C45.8831 0.632956 48.92 0.479625 51.9496 0.862952C54.1778 1.14488 56.3714 1.58756 58.4092 2.59905C60.358 3.56603 61.9086 4.93364 62.7371 6.98876C63.7313 9.46184 63.4123 11.8212 61.9804 14.037C60.8601 15.7707 59.2402 16.9132 57.3903 17.7565C56.636 18.1003 55.8595 18.3872 55.0731 18.6468C54.942 18.6889 54.8159 18.7384 54.6056 18.815L54.6081 18.82ZM41.716 33.0352C42.6013 33.0624 43.3927 33.0031 44.1816 32.9165C45.757 32.7483 47.2655 32.3477 48.6703 31.586C50.6561 30.5077 51.6454 28.873 51.5217 26.5928C51.4426 25.1411 50.8317 24.011 49.568 23.2567C48.0223 22.3342 46.3555 22.124 44.5996 22.3664C43.5782 22.5073 42.5494 22.626 41.5231 22.4455C41.2214 22.3936 41.1447 22.4752 41.0853 22.7472C40.5932 24.9977 40.0837 27.2408 39.5891 29.4913C39.4259 30.2258 39.186 30.9479 39.1514 31.7047C39.1118 32.5183 39.5075 32.9388 40.3162 32.9833C40.8133 33.0105 41.3055 33.0995 41.7135 33.0352H41.716ZM45.3489 16.0254C46.4025 16.1194 47.451 16.0625 48.4922 15.8968C50.2506 15.6173 51.8185 14.9348 53.0526 13.624C54.0542 12.5606 54.4894 11.3043 53.975 9.87732C53.4408 8.391 52.2587 7.63176 50.7724 7.30779C49.8029 7.09511 48.8112 7.10252 47.822 7.09016C47.7379 7.09016 47.6489 7.09758 47.5722 7.12726C47.2557 7.25833 46.9292 7.24349 46.6003 7.20145C46.3258 7.16682 46.0538 7.11736 45.7792 7.10994C45.109 7.09263 44.7282 7.3622 44.513 8.00025C44.4191 8.28218 44.3498 8.57153 44.2731 8.85841C43.7612 10.7874 43.3606 12.7411 42.9402 14.6924C42.7621 15.5209 43.1429 15.9957 43.9764 16.0204C44.4314 16.0328 44.8889 16.0204 45.344 16.0204L45.3489 16.0254Z" fill="#63C7A5"/>
<path d="M114.254 26.9936C113.116 27.1098 111.949 27.0505 110.782 27.0406C110.213 27.0356 109.649 26.8848 109.075 26.9318C108.969 26.9392 108.862 26.9417 108.759 26.9516C108.482 26.9763 108.348 27.1123 108.284 27.4017C107.779 29.7041 107.265 32.0041 106.736 34.2991C106.523 35.224 106.278 36.144 105.87 37.0096C105.281 38.2585 104.302 39.0152 102.952 39.3046C102.163 39.4752 101.367 39.5568 100.558 39.5494C99.4523 39.5371 98.3469 39.5445 97.2414 39.5494C96.7344 39.5494 96.3758 39.0993 96.4871 38.6072C96.8952 36.8167 97.3057 35.0262 97.7088 33.2357C98.5917 29.3183 99.4771 25.4009 100.353 21.4836C101.681 15.5383 103.004 9.59056 104.329 3.64281C104.354 3.52905 104.389 3.41776 104.418 3.304C104.72 2.12682 105.519 1.51349 106.686 1.38489C109.76 1.04856 112.842 0.791356 115.938 0.875441C117.669 0.922429 119.4 1.01888 121.119 1.2464C122.501 1.43188 123.864 1.71629 125.172 2.20348C126.669 2.75993 128.011 3.57604 129.06 4.80021C130.252 6.19008 130.9 7.84704 131.271 9.61777C131.461 10.518 131.563 11.4355 131.523 12.3579C131.459 13.9011 131.162 15.3998 130.502 16.8045C128.659 20.7268 125.739 23.561 121.787 25.3218C119.85 26.1849 117.8 26.64 115.698 26.87C115.226 26.9219 114.753 27.006 114.246 26.9961L114.254 26.9936ZM113.695 20.2495C114.526 20.2817 115.349 20.2025 116.165 20.0467C117.936 19.7104 119.534 19.013 120.827 17.727C122.43 16.1319 123.189 14.1905 123.122 11.9251C123.075 10.3968 122.449 9.1924 121.136 8.38865C120.021 7.70608 118.772 7.44641 117.484 7.36974C116.606 7.31781 115.725 7.41178 114.847 7.40684C113.771 7.40189 113.119 7.93113 112.926 8.94262C112.782 9.69196 112.644 10.4413 112.5 11.1906C112.025 13.6687 111.333 16.1046 110.969 18.6049C110.871 19.2924 111.15 19.9503 111.964 20.1209C112.542 20.2421 113.121 20.2124 113.697 20.2471L113.695 20.2495Z" fill="#63C7A5"/>
<path d="M93.6779 29.8325C93.6012 30.1935 93.5295 30.5546 93.4454 30.9107C93.0522 32.5949 92.6441 34.2766 92.2658 35.9657C91.9171 37.5213 90.9501 38.4734 89.4539 38.9185C86.9635 39.658 84.4236 40.0636 81.8195 39.9919C78.0406 39.8855 74.5536 38.8246 71.4326 36.6829C68.8655 34.9221 67.2629 32.4514 66.4468 29.4714C65.7519 26.9266 65.6085 24.3224 65.7099 21.701C65.8038 19.3318 66.1872 17.0145 66.9414 14.764C68.1681 11.1038 70.2752 8.02981 73.134 5.45039C75.0779 3.69698 77.2344 2.28485 79.6753 1.33024C81.6192 0.568537 83.6372 0.140695 85.722 0.0318792C89.6023 -0.170913 93.3094 0.60316 96.8731 2.08701C98.5696 2.79183 99.2893 4.19901 99.0544 6.01672C98.8738 7.39423 98.4138 8.69754 98.0775 10.0355C98.0132 10.2877 97.892 10.169 97.7807 10.1072C96.6604 9.49387 95.503 8.96463 94.2986 8.53926C90.7127 7.27058 87.149 7.19144 83.6199 8.75937C81.6637 9.62742 80.1304 11.0148 78.879 12.7163C76.9549 15.3328 75.8297 18.2708 75.5082 21.5031C75.298 23.625 75.4884 25.7049 76.4208 27.6636C77.3779 29.6742 78.9161 31.0814 80.9613 31.9197C83.7856 33.0771 86.6197 32.9436 89.4464 31.8925C90.7869 31.393 92.0011 30.6412 93.2575 29.9784C93.3613 29.924 93.4652 29.872 93.5716 29.825C93.5864 29.8176 93.6111 29.83 93.6754 29.8399L93.6779 29.8325Z" fill="#63C7A5"/>
<path d="M146.275 4.64893C148.375 5.67773 150.299 6.97362 152.067 8.49703C154.327 10.4483 156.269 12.6815 157.807 15.2386C159.343 17.7909 159.239 20.3752 157.663 22.878C156.355 24.9554 154.72 26.7731 152.962 28.4795C149.648 31.692 145.837 34.1775 141.625 36.0298C139.33 37.0388 137.08 36.7594 134.97 35.4239C133.43 34.4495 132.384 33.0596 131.666 31.4027C131.577 31.1974 131.681 31.1504 131.82 31.0762C133.43 30.1933 135.047 29.3253 136.588 28.3237C139.142 26.6618 141.559 24.8292 143.542 22.4848C144.759 21.0454 145.718 19.4528 146.366 17.6796C146.391 17.6128 146.394 17.5361 146.406 17.4644C146.507 17.4051 146.525 17.2913 146.564 17.1973C147.022 16.1364 147.4 15.0507 147.64 13.9205C148.031 12.0855 148.06 10.2504 147.672 8.408C147.393 7.08491 146.896 5.84589 146.277 4.6514L146.275 4.64893Z" fill="#63C7A5"/>
<path d="M146.275 4.64926C146.893 5.84376 147.39 7.08277 147.67 8.40586C148.058 10.2483 148.026 12.0833 147.638 13.9184C147.398 15.0485 147.02 16.1342 146.562 17.1952C146.522 17.2892 146.505 17.4029 146.404 17.4623C146.31 17.487 146.273 17.4054 146.226 17.3559C143.797 14.7444 140.864 12.8351 137.701 11.2499C137.093 10.9457 136.477 10.6588 135.861 10.3744C135.703 10.3027 135.621 10.2458 135.713 10.048C136.912 7.41169 138.656 5.28979 141.346 4.06067C142.202 3.66992 143.077 3.35337 144.052 3.53885C144.9 3.70207 145.625 4.10271 146.28 4.64679L146.275 4.64926Z" fill="#63C7A5"/>
<path d="M14.7813 4.68131C15.4268 5.95247 15.9263 7.27556 16.1811 8.68027C16.557 10.7502 16.416 12.7979 15.8472 14.8184C15.6048 15.6816 15.3205 16.5298 14.9248 17.336C14.9025 17.3707 14.8802 17.4078 14.8605 17.4424H14.8704C14.7591 17.4374 14.7071 17.3509 14.6428 17.2841C12.8053 15.3551 10.7007 13.7699 8.40326 12.4319C7.15435 11.7048 5.86836 11.047 4.55021 10.4609C4.26581 10.3348 4.23364 10.2111 4.3474 9.93659C5.03245 8.26479 5.94997 6.74633 7.32747 5.55183C8.8039 4.2683 10.4881 3.52143 12.4937 3.79347C13.3197 3.90476 14.1037 4.17185 14.7838 4.68378L14.7813 4.68131Z" fill="#63C7A5"/>
<path d="M14.8584 17.4423C14.8807 17.4077 14.9029 17.3706 14.9227 17.3359C14.9202 17.3829 14.9227 17.4324 14.8584 17.4423Z" fill="#63C7A5"/>
</svg>
