<svg width="126" height="40" viewBox="0 0 126 40" fill="none" xmlns="http://www.w3.org/2000/svg">
<path d="M8.21996 16.1881C7.68551 16.2588 7.16873 16.2985 6.66961 16.2985C6.01148 16.2985 5.44611 16.2411 4.98675 16.1263C4.52297 16.007 4.14311 15.795 3.84276 15.4814C3.54682 15.1634 3.32597 14.7482 3.18463 14.227C3.0477 13.7058 2.97703 13.0167 2.97703 12.1554C2.97703 11.2941 3.05654 10.6271 3.22438 10.0971C3.38781 9.56707 3.63074 9.15188 3.95318 8.84269C4.27562 8.53792 4.66431 8.33033 5.11926 8.22432C5.5742 8.11831 6.09099 8.06089 6.66961 8.06089C7.28357 8.06089 7.83569 8.09181 8.33481 8.14923C8.82951 8.20665 9.34187 8.30382 9.87191 8.43633L10.1458 6.25435C9.56272 6.10418 8.97085 5.98934 8.35689 5.90541C7.74735 5.82149 7.11131 5.78174 6.44876 5.78174C5.47261 5.78174 4.58922 5.87891 3.79417 6.07767C2.99912 6.27644 2.32774 6.62979 1.7712 7.13333C1.21908 7.63686 0.786219 8.30382 0.468198 9.1298C0.154594 9.95577 0 10.9982 0 12.2526C0 13.507 0.128092 14.5185 0.384276 15.3312C0.640459 16.1395 1.02032 16.7844 1.52385 17.2658C2.02739 17.7429 2.67226 18.0786 3.45848 18.2685C4.2447 18.4584 5.17668 18.5556 6.25 18.5556C6.89488 18.5556 7.54417 18.507 8.19788 18.4054C8.85159 18.3082 9.46555 18.1934 10.0442 18.0609L9.82332 15.8745C9.29329 16.007 8.75883 16.113 8.21996 16.1881Z" fill="#63C7A5"/>
<path d="M23.9622 8.93106C23.7148 8.10509 23.3482 7.45138 22.8712 6.96993C22.3941 6.4929 21.8067 6.15721 21.1132 5.96728C20.4198 5.77735 19.6203 5.68018 18.7148 5.68018C17.8093 5.68018 17.032 5.78618 16.3385 5.99378C15.645 6.19696 15.0532 6.55473 14.5673 7.05827C14.0814 7.5618 13.706 8.2376 13.441 9.08124C13.1759 9.92488 13.0479 10.9805 13.0479 12.2526C13.0479 13.5247 13.1715 14.5804 13.4189 15.4063C13.6662 16.2323 14.024 16.886 14.4922 17.363C14.9648 17.8445 15.5479 18.1802 16.2369 18.3701C16.9304 18.56 17.7298 18.6528 18.6397 18.6528C19.5496 18.6528 20.3005 18.5512 21.0028 18.3436C21.7051 18.136 22.3014 17.7826 22.7961 17.2791C23.2908 16.7756 23.6706 16.0998 23.9357 15.2561C24.2007 14.4125 24.3332 13.3569 24.3332 12.0804C24.3332 10.8039 24.2095 9.75703 23.9622 8.93106ZM21.1927 14.3021C21.0867 14.8542 20.9189 15.2871 20.6936 15.5918C20.4728 15.8966 20.1901 16.1086 19.8588 16.2235C19.5275 16.3383 19.1388 16.3957 18.6883 16.3957C18.2378 16.3957 17.8314 16.3383 17.5046 16.2235C17.1821 16.1086 16.9039 15.8922 16.6698 15.5786C16.4401 15.265 16.2722 14.8321 16.1706 14.2756C16.0735 13.7235 16.0205 13.0167 16.0205 12.1554C16.0205 11.2941 16.0735 10.5918 16.1706 10.0486C16.2722 9.50085 16.4401 9.07682 16.6698 8.76763C16.9039 8.46286 17.1821 8.25526 17.5046 8.13601C17.8314 8.02117 18.2157 7.96375 18.6662 7.96375C19.1168 7.96375 19.5054 8.02117 19.85 8.13601C20.1901 8.25526 20.4728 8.46728 20.6936 8.78088C20.9189 9.09449 21.0867 9.52735 21.1927 10.0706C21.3032 10.6183 21.3562 11.3206 21.3562 12.1819C21.3562 13.0433 21.3032 13.7455 21.1927 14.3021Z" fill="#63C7A5"/>
<path d="M34.5494 0V3.84717C34.5494 4.29329 34.5627 4.72615 34.5892 5.15018C34.6113 5.56979 34.6422 6.01148 34.6731 6.47527L34.651 6.50177C34.2358 6.26767 33.803 6.09541 33.348 5.98057C32.8931 5.86572 32.4028 5.80389 31.8728 5.80389C31.144 5.80389 30.4682 5.92314 29.8366 6.15283C29.2093 6.38693 28.6616 6.76237 28.189 7.28357C27.7164 7.80035 27.341 8.47615 27.0583 9.30212C26.78 10.1281 26.6387 11.1484 26.6387 12.3542C26.6387 13.5601 26.7403 14.5362 26.9479 15.3313C27.1555 16.1263 27.4426 16.7624 27.818 17.2394C28.189 17.7208 28.6396 18.061 29.1696 18.2553C29.6996 18.4541 30.2827 18.5557 30.9275 18.5557C31.674 18.5557 32.3631 18.4099 32.9991 18.1228C33.6351 17.8313 34.2712 17.4735 34.8984 17.0406L35.0972 18.3083H37.5265V0H34.5494ZM34.5494 14.9823C34.0062 15.371 33.5159 15.667 33.0874 15.8701C32.659 16.0733 32.2261 16.1749 31.7977 16.1749C31.4487 16.1749 31.144 16.1263 30.879 16.0247C30.6139 15.9276 30.3887 15.7288 30.1987 15.4417C30.0088 15.1502 29.8631 14.7527 29.7659 14.2447C29.6643 13.7412 29.6157 13.0786 29.6157 12.2659C29.6157 11.4532 29.6908 10.7332 29.8366 10.2032C29.9867 9.67315 30.1899 9.24912 30.4461 8.93551C30.7023 8.61749 30.9894 8.40548 31.3118 8.28622C31.6343 8.17138 31.9788 8.11396 32.3454 8.11396C32.7385 8.11396 33.1139 8.17138 33.4585 8.28622C33.8074 8.40106 34.1696 8.5689 34.5494 8.78092V14.9823Z" fill="#63C7A5"/>
<path d="M51.1088 8.56003C50.9012 7.83124 50.5876 7.25703 50.1636 6.833C49.7439 6.41339 49.2183 6.11746 48.5911 5.94078C47.9595 5.76852 47.2174 5.68018 46.3561 5.68018C45.4948 5.68018 44.7351 5.78618 44.0151 5.99378C43.2952 6.19696 42.6768 6.55473 42.1644 7.05827C41.6521 7.5618 41.2545 8.2376 40.9763 9.08124C40.6936 9.92488 40.5522 10.9805 40.5522 12.2526C40.5522 13.5247 40.6848 14.6466 40.9498 15.4682C41.2148 16.2853 41.5947 16.9213 42.0894 17.3763C42.5885 17.8312 43.198 18.1404 43.9268 18.3083C44.6556 18.4717 45.4816 18.5556 46.4091 18.5556C47.2837 18.5556 48.0876 18.507 48.8252 18.4054C49.5628 18.3083 50.2607 18.1669 50.9233 17.9858L50.6715 15.8039C50.062 15.9496 49.4613 16.0689 48.8738 16.1616C48.2863 16.2544 47.6459 16.2986 46.9524 16.2986C46.3738 16.2986 45.8703 16.2588 45.4418 16.1749C45.009 16.091 44.66 15.9364 44.3862 15.7023C44.1123 15.4726 43.9047 15.1413 43.7634 14.7084C43.6265 14.28 43.5469 13.7102 43.5293 12.9991H51.3429C51.3782 12.7031 51.3959 12.416 51.4047 12.1422C51.4136 11.8683 51.418 11.5945 51.418 11.3118C51.418 10.2031 51.3164 9.28883 51.1088 8.56003ZM43.5293 11.0645C43.5469 10.4505 43.622 9.94254 43.7545 9.5406C43.8871 9.13424 44.0726 8.81622 44.3111 8.58212C44.5496 8.35244 44.8367 8.18901 45.168 8.08742C45.4992 7.99025 45.8703 7.93724 46.2855 7.93724C46.6786 7.93724 47.0319 7.98583 47.3367 8.07417C47.6415 8.16693 47.9021 8.32152 48.1185 8.54678C48.3349 8.76763 48.4939 9.09007 48.6044 9.50085C48.7104 9.91604 48.7634 10.4372 48.7634 11.0645H43.5293Z" fill="#63C7A5"/>
<path d="M82.301 16.1925C81.7622 16.2632 81.2454 16.3029 80.7507 16.3029C80.0881 16.3029 79.5272 16.2455 79.0634 16.1262C78.5996 16.0114 78.2198 15.7994 77.9194 15.4814C77.6235 15.1678 77.4026 14.7526 77.2657 14.2314C77.1244 13.7102 77.0537 13.0211 77.0537 12.1598C77.0537 11.2985 77.1376 10.6315 77.301 10.1015C77.4645 9.57147 77.7118 9.15627 78.0343 8.84709C78.3567 8.54232 78.7454 8.33472 79.2003 8.22871C79.6553 8.1227 80.1721 8.06528 80.7507 8.06528C81.3602 8.06528 81.9168 8.0962 82.4115 8.15362C82.9062 8.21104 83.4185 8.30822 83.9486 8.44073L84.2224 6.25433C83.6438 6.10857 83.0475 5.99373 82.438 5.90981C81.824 5.82589 81.188 5.78613 80.5254 5.78613C79.5493 5.78613 78.6659 5.88331 77.8708 6.08207C77.0802 6.28083 76.4044 6.63419 75.8523 7.13772C75.2957 7.64126 74.8629 8.30822 74.5493 9.13419C74.2357 9.96016 74.0767 11.0026 74.0767 12.257C74.0767 13.5114 74.2047 14.5229 74.4609 15.3356C74.7171 16.1439 75.097 16.7888 75.6005 17.2702C76.1085 17.7473 76.7533 18.083 77.5351 18.2729C78.3214 18.4628 79.2533 18.56 80.3267 18.56C80.9715 18.56 81.6208 18.5114 82.2745 18.4098C82.9282 18.3126 83.5422 18.1934 84.1208 18.0609L83.9 15.8789C83.3699 16.0114 82.8355 16.1174 82.301 16.1925Z" fill="#63C7A5"/>
<path d="M97.606 7.94161C97.4293 7.44691 97.1466 7.04055 96.7623 6.72695C96.3736 6.41334 95.8613 6.17924 95.2341 6.02023C94.6068 5.86564 93.8383 5.78613 92.9284 5.78613C92.151 5.78613 91.3736 5.83472 90.5962 5.93189C89.8189 6.03348 89.0856 6.16599 88.3878 6.32942L88.6616 8.5114C89.2888 8.37889 89.9249 8.27288 90.5697 8.18896C91.2146 8.10945 91.8374 8.06528 92.4337 8.06528C93.3083 8.06528 93.9355 8.21546 94.3153 8.5114C94.6952 8.81175 94.8895 9.25786 94.8895 9.85415V10.8436H93.5733C92.3674 10.8436 91.3471 10.9363 90.5212 11.1174C89.6952 11.2985 89.0282 11.5635 88.5247 11.9125C88.0212 12.257 87.659 12.6898 87.4469 13.2022C87.2305 13.7146 87.1245 14.2932 87.1245 14.9381C87.1245 16.1616 87.4823 17.0715 88.2023 17.6678C88.9222 18.2596 89.8454 18.56 90.9673 18.56C91.7623 18.56 92.5088 18.4231 93.2155 18.1492C93.9178 17.8754 94.5803 17.5485 95.212 17.1686L95.3842 18.3126H97.8621V9.70398C97.8621 9.02818 97.7782 8.44073 97.606 7.94161ZM94.8895 15.1854C94.2447 15.5741 93.6749 15.8656 93.189 16.06C92.6987 16.2543 92.1819 16.3515 91.6386 16.3515C91.06 16.3515 90.6095 16.2234 90.2871 15.9672C89.9646 15.711 89.8012 15.2914 89.8012 14.7128C89.8012 14.3815 89.8586 14.0989 89.9779 13.8603C90.0927 13.6174 90.3003 13.4186 90.5962 13.2508C90.8922 13.0874 91.2897 12.9637 91.7888 12.893C92.2835 12.8179 92.9019 12.7782 93.6484 12.7782H94.8895V15.1854Z" fill="#63C7A5"/>
<path d="M111.877 15.8567C111.612 15.9362 111.254 16.029 110.8 16.1261C110.345 16.2277 109.828 16.2763 109.249 16.2763C108.768 16.2763 108.366 16.2322 108.034 16.1394C107.703 16.0511 107.443 15.9141 107.253 15.733C107.063 15.5475 106.926 15.3002 106.842 14.9866C106.762 14.673 106.718 14.2931 106.718 13.847V8.26395H111.93V6.03339H106.718V1.7666L103.741 2.16413V6.03339H100.57V8.26395H103.741V14.589C103.741 15.2869 103.834 15.8788 104.015 16.3779C104.196 16.8726 104.479 17.2834 104.859 17.6058C105.239 17.9283 105.729 18.1624 106.334 18.3125C106.939 18.4583 107.663 18.5334 108.507 18.5334C109.351 18.5334 110.022 18.4715 110.627 18.3479C111.228 18.2242 111.731 18.1049 112.125 17.9901L111.877 15.8567Z" fill="#63C7A5"/>
<path d="M125.062 13.2861C124.903 12.8842 124.66 12.5441 124.329 12.2702C123.997 11.9964 123.564 11.7623 123.026 11.5635C122.491 11.3648 121.859 11.166 121.131 10.9672C120.486 10.7861 119.965 10.6404 119.567 10.5211C119.17 10.4063 118.856 10.287 118.626 10.1633C118.392 10.0397 118.233 9.91157 118.14 9.77907C118.052 9.64656 118.003 9.47429 118.003 9.25786C118.003 8.82942 118.193 8.50256 118.573 8.2773C118.958 8.05645 119.651 7.94161 120.658 7.94161C121.237 7.94161 121.829 7.98136 122.434 8.05645C123.034 8.12712 123.604 8.23313 124.13 8.36564L124.43 6.23225C124.183 6.16599 123.909 6.10415 123.609 6.04673C123.313 5.98931 123.008 5.94073 122.694 5.90981C122.381 5.87447 122.058 5.84797 121.727 5.82147C121.396 5.79938 121.082 5.78613 120.782 5.78613C118.913 5.78613 117.522 6.09974 116.603 6.72695C115.685 7.35415 115.225 8.26405 115.225 9.45663C115.225 10.0176 115.3 10.4902 115.45 10.8701C115.601 11.2499 115.835 11.5768 116.157 11.8506C116.48 12.1245 116.89 12.3542 117.385 12.5441C117.88 12.734 118.485 12.9284 119.196 13.1271C119.872 13.3082 120.424 13.4672 120.844 13.5997C121.268 13.7322 121.603 13.8603 121.851 13.984C122.098 14.1077 122.261 14.249 122.345 14.4036C122.429 14.5626 122.469 14.757 122.469 14.9867C122.469 15.2031 122.429 15.3974 122.345 15.5697C122.261 15.742 122.107 15.8921 121.873 16.0158C121.643 16.1395 121.343 16.2367 120.967 16.3029C120.596 16.3692 120.128 16.4001 119.567 16.4001C118.94 16.4001 118.268 16.3559 117.557 16.2632C116.846 16.1748 116.153 16.0556 115.473 15.9054L115.203 18.0609C115.861 18.2287 116.541 18.3524 117.235 18.4363C117.928 18.5158 118.657 18.56 119.417 18.56C121.484 18.56 122.981 18.2331 123.909 17.5794C124.832 16.9257 125.296 15.9981 125.296 14.7879C125.296 14.1916 125.221 13.6925 125.062 13.2861Z" fill="#63C7A5"/>
<path d="M9.85866 34.6289C9.69965 34.227 9.45671 33.8869 9.12544 33.613C8.79417 33.3392 8.36131 33.1051 7.82685 32.9063C7.28799 32.7075 6.65636 32.5088 5.92756 32.31C5.28269 32.1289 4.76148 31.9831 4.36396 31.8639C3.96643 31.749 3.65283 31.6298 3.42314 31.5061C3.18905 31.3824 3.03004 31.2543 2.93728 31.1218C2.84894 30.9893 2.80035 30.8171 2.80035 30.6006C2.80035 30.1722 2.99028 29.8453 3.37014 29.6201C3.75442 29.3992 4.44788 29.2844 5.45495 29.2844C6.03357 29.2844 6.62544 29.3241 7.23057 29.3992C7.83127 29.4699 8.40106 29.5759 8.92668 29.7084L9.22703 27.575C8.97968 27.5088 8.70583 27.4469 8.40548 27.3895C8.10954 27.3321 7.80477 27.2835 7.49117 27.2526C7.17756 27.2172 6.85512 27.1907 6.52385 27.1642C6.19258 27.1422 5.87898 27.1289 5.57862 27.1289C3.71025 27.1289 2.3189 27.4425 1.40018 28.0697C0.481449 28.6969 0.0220848 29.6068 0.0220848 30.7994C0.0220848 31.3604 0.0971731 31.833 0.24735 32.2128C0.397527 32.5927 0.631625 32.9195 0.954064 33.1934C1.2765 33.4672 1.68728 33.6969 2.18198 33.8869C2.67668 34.0768 3.2818 34.2711 3.99293 34.4699C4.66873 34.651 5.22085 34.81 5.64046 34.9425C6.06449 35.075 6.40018 35.2031 6.64753 35.3268C6.89488 35.4505 7.0583 35.5918 7.14223 35.7464C7.22615 35.9054 7.2659 36.0998 7.2659 36.3294C7.2659 36.5459 7.22615 36.7402 7.14223 36.9125C7.0583 37.0847 6.90371 37.2349 6.66961 37.3586C6.43993 37.4823 6.13958 37.5794 5.76413 37.6457C5.39311 37.7119 4.92491 37.7429 4.36396 37.7429C3.73675 37.7429 3.06537 37.6987 2.35424 37.6059C1.64311 37.5176 0.949647 37.3983 0.273852 37.2482L0 39.4036C0.658127 39.5715 1.33834 39.6952 2.0318 39.7791C2.72527 39.8586 3.45406 39.9028 4.21378 39.9028C6.28092 39.9028 7.77827 39.5759 8.70583 38.9222C9.62897 38.2685 10.0928 37.3409 10.0928 36.1307C10.0928 35.5344 10.0177 35.0353 9.85866 34.6289Z" fill="#63C7A5"/>
<path d="M23.9578 37.2C23.6972 37.2795 23.335 37.3722 22.8801 37.4694C22.4251 37.571 21.9083 37.6196 21.3297 37.6196C20.8527 37.6196 20.4463 37.5754 20.1151 37.4827C19.7838 37.3943 19.5232 37.2574 19.3333 37.0763C19.1433 36.8908 19.0064 36.6434 18.9225 36.3298C18.843 36.0162 18.7988 35.6364 18.7988 35.1903V29.6072H24.0108V27.3766H18.7988V23.1099L15.8262 23.5074V27.3766H12.6504V29.6072H15.8262V35.9323C15.8262 36.6302 15.9145 37.2221 16.0956 37.7212C16.2767 38.2159 16.5594 38.6266 16.9393 38.9491C17.3191 39.2715 17.8138 39.5056 18.4145 39.6558C19.0196 39.8016 19.744 39.8766 20.5877 39.8766C21.4313 39.8766 22.1027 39.8148 22.7078 39.6911C23.3085 39.5675 23.8121 39.4482 24.2096 39.3334L23.9578 37.2Z" fill="#63C7A5"/>
<path d="M34.3509 27.3765V36.2811C33.8385 36.6874 33.3438 36.9922 32.8624 37.2042C32.3853 37.4162 31.9216 37.5222 31.4755 37.5222C30.9808 37.5222 30.5876 37.3588 30.2961 37.0364C30.009 36.7139 29.8633 36.122 29.8633 35.2563V27.3765H26.8862V35.857C26.8862 37.2793 27.191 38.3084 27.805 38.9489C28.4145 39.5849 29.3156 39.903 30.5081 39.903C30.9057 39.903 31.2811 39.8632 31.6345 39.7925C31.9922 39.7175 32.3456 39.6114 32.6901 39.4789C33.0391 39.3464 33.3747 39.1918 33.706 39.0107C34.0373 38.8252 34.3686 38.6221 34.6998 38.388L34.8986 39.6556H37.3279V27.3765H34.3509Z" fill="#63C7A5"/>
<path d="M47.9948 21.3472V25.1943C47.9948 25.6405 48.008 26.0733 48.0301 26.4973C48.0566 26.917 48.0831 27.3587 48.1184 27.8224L48.0919 27.8489C47.6812 27.6148 47.2483 27.4426 46.7933 27.3277C46.3384 27.2085 45.8437 27.1511 45.3137 27.1511C44.5893 27.1511 43.9091 27.2703 43.2819 27.5C42.6547 27.7297 42.1025 28.1095 41.6343 28.6263C41.1617 29.1475 40.7863 29.8233 40.5036 30.6493C40.2209 31.4753 40.084 32.4956 40.084 33.7014C40.084 34.9072 40.1856 35.8834 40.3932 36.6784C40.6008 37.4691 40.8879 38.1095 41.2589 38.5866C41.6343 39.068 42.0805 39.4037 42.6105 39.6025C43.1405 39.8012 43.728 39.9028 44.3729 39.9028C45.1193 39.9028 45.8084 39.7571 46.4444 39.47C47.0805 39.1784 47.7121 38.8207 48.3437 38.3878L48.538 39.6555H50.9718V21.3472H47.9948ZM47.9948 36.3295C47.4471 36.7182 46.9612 37.0141 46.5327 37.2173C46.0999 37.4205 45.6714 37.5221 45.243 37.5221C44.8941 37.5221 44.5893 37.4691 44.3243 37.3719C44.0592 37.2703 43.8296 37.076 43.6396 36.7889C43.4497 36.4973 43.3084 36.0998 43.2068 35.5919C43.1096 35.0883 43.0566 34.4258 43.0566 33.6131C43.0566 32.8003 43.1317 32.0804 43.2819 31.5503C43.432 31.0203 43.6308 30.5963 43.8914 30.2827C44.1476 29.9647 44.4347 29.7482 44.7571 29.6334C45.0796 29.5185 45.4241 29.4611 45.7863 29.4611C46.1838 29.4611 46.5548 29.5185 46.9038 29.6334C47.2527 29.7482 47.6149 29.9161 47.9948 30.1281V36.3295Z" fill="#63C7A5"/>
<path d="M61.9213 22.6018C61.8639 22.3765 61.7667 22.2042 61.6254 22.0806C61.4841 21.9569 61.2941 21.8597 61.0556 21.7935C60.8127 21.7272 60.5035 21.6963 60.1236 21.6963C59.7438 21.6963 59.4523 21.7272 59.2049 21.7935C58.9576 21.8597 58.7588 21.9569 58.6086 22.0806C58.4629 22.2042 58.3613 22.3765 58.3127 22.6018C58.2641 22.8226 58.2376 23.092 58.2376 23.4057C58.2376 23.7369 58.2641 24.0108 58.3127 24.2272C58.3613 24.4392 58.4629 24.6159 58.6086 24.7484C58.7588 24.8809 58.9576 24.9693 59.2049 25.0178C59.4523 25.0708 59.7614 25.0929 60.1236 25.0929C60.5035 25.0929 60.8127 25.0708 61.0556 25.0178C61.2941 24.9693 61.4841 24.8809 61.6254 24.7484C61.7667 24.6159 61.8639 24.4392 61.9213 24.2272C61.9788 24.0108 62.0097 23.7369 62.0097 23.4057C62.0097 23.092 61.9788 22.8226 61.9213 22.6018ZM61.6387 37.4472V27.3765H54.1961V29.6071H58.6616V37.4472H54.0459V39.6557H65.0088V37.4472H61.6387Z" fill="#63C7A5"/>
<path d="M78.3303 30.2782C78.083 29.4523 77.7208 28.7985 77.2393 28.3171C76.7623 27.8401 76.1748 27.5044 75.4858 27.3144C74.7923 27.1245 73.9929 27.0273 73.083 27.0273C72.1731 27.0273 71.4001 27.1334 70.7067 27.3365C70.0132 27.5441 69.4257 27.9019 68.9399 28.4054C68.4496 28.909 68.0741 29.5848 67.8135 30.4284C67.5485 31.272 67.416 32.3277 67.416 33.5998C67.416 34.8719 67.5397 35.9231 67.787 36.7535C68.0344 37.5795 68.3922 38.2332 68.8648 38.7102C69.333 39.1917 69.916 39.5273 70.6095 39.7173C71.3029 39.9072 72.1024 40 73.0079 40C73.9134 40 74.6731 39.8984 75.371 39.6908C76.0733 39.4832 76.674 39.1298 77.1687 38.6263C77.6634 38.1183 78.0432 37.447 78.3038 36.6033C78.5688 35.7597 78.7013 34.6996 78.7013 33.4275C78.7013 32.1554 78.5777 31.1042 78.3303 30.2782ZM75.5653 35.6493C75.4549 36.2014 75.287 36.6298 75.0662 36.939C74.8409 37.2438 74.5627 37.4558 74.2314 37.5706C73.8957 37.6855 73.507 37.7429 73.0609 37.7429C72.5927 37.7429 72.1996 37.6855 71.8771 37.5706C71.5503 37.4558 71.272 37.2394 71.0423 36.9258C70.8082 36.6121 70.6404 36.1793 70.5432 35.6228C70.4416 35.0706 70.393 34.3639 70.393 33.5026C70.393 32.6413 70.4416 31.939 70.5432 31.3957C70.6404 30.848 70.8082 30.424 71.0423 30.1148C71.272 29.81 71.5503 29.598 71.8771 29.4832C72.1996 29.3683 72.5839 29.3109 73.0344 29.3109C73.4849 29.3109 73.878 29.3683 74.2181 29.4832C74.5582 29.598 74.8409 29.8144 75.0662 30.1281C75.287 30.4417 75.4549 30.8745 75.5653 31.4178C75.6713 31.9655 75.7243 32.6678 75.7243 33.5291C75.7243 34.3904 75.6713 35.0927 75.5653 35.6493Z" fill="#63C7A5"/>
<path d="M113.865 21.369C109.249 21.0643 104.408 24.3726 101.864 29.536C101.829 29.5625 101.789 29.5978 101.754 29.6243C101.926 28.6658 101.674 27.6411 100.981 26.8593L99.4435 25.1279C98.834 24.4432 98.0124 24.0766 97.1644 24.028C97.0495 24.0236 96.9391 24.0236 96.8331 24.028L95.1546 21.4441L93.3393 25.013L93.0522 25.574C92.1776 26.0024 91.1838 26.6031 90.1856 27.4468C89.2227 28.2595 88.4806 29.1208 87.9064 29.9114L86.8728 29.9688L82.8755 30.1941L85.0707 33.5422L85.4947 34.1915C85.3755 35.1058 85.6317 36.0643 86.2898 36.8063L87.8313 38.5422C88.0566 38.7807 88.4055 39.0899 88.8958 39.3196C88.8958 39.3196 89.4965 39.6022 90.2209 39.6376C91.281 39.695 105.53 39.695 125.013 39.6287C126.718 30.1985 120.42 21.8019 113.865 21.369ZM97.6458 30.9847C96.7978 31.8328 95.1591 31.5722 93.9797 30.3929C93.4099 29.8275 93.0566 29.1473 92.9373 28.5068C92.8092 27.8178 92.9506 27.1685 93.3923 26.7268C94.2403 25.8743 95.8834 26.1438 97.0584 27.3187C97.3455 27.6058 97.5796 27.9238 97.7562 28.2506C98.2951 29.2533 98.2907 30.3443 97.6458 30.9847ZM88.5955 34.854C88.5248 34.7878 88.4585 34.7171 88.3967 34.642C87.394 33.4892 87.2041 31.9874 88.0036 31.1879C88.5513 30.6402 89.4303 30.5563 90.296 30.8787C90.7774 31.0554 91.2545 31.3602 91.6697 31.7754C92.849 32.9547 93.1096 34.5978 92.2615 35.4459C91.4135 36.2939 89.7704 36.0333 88.5955 34.854Z" fill="#63C7A5"/>
<path d="M91.5353 34.8894C91.963 34.4617 91.6204 33.4255 90.7701 32.5751C89.9197 31.7247 88.8835 31.3821 88.4557 31.8099C88.0279 32.2377 88.3705 33.2739 89.2209 34.1242C90.0713 34.9746 91.1075 35.3172 91.5353 34.8894Z" fill="#63C7A5"/>
<path d="M97.0587 30.3943C97.4865 29.9665 97.1439 28.9304 96.2935 28.08C95.4431 27.2296 94.4069 26.887 93.9792 27.3148C93.5514 27.7426 93.894 28.7787 94.7444 29.6291C95.5947 30.4795 96.6309 30.8221 97.0587 30.3943Z" fill="#63C7A5"/>
<path d="M71.0246 15.1411H54.4565V18.1667H71.0246V15.1411Z" fill="#63C7A5"/>
</svg>
