<svg width="115" height="40" viewBox="0 0 115 40" fill="none" xmlns="http://www.w3.org/2000/svg">
<path d="M114.105 36.1834C114.132 37.8591 113.214 39.1697 111.595 39.7637C110.139 40.2977 108.375 39.7337 107.319 38.4449C104.545 35.0608 101.755 31.6917 98.9732 28.3145C97.8342 26.9317 96.6994 25.5462 95.5632 24.162C94.2567 22.5694 92.0361 22.5762 90.7282 24.1511C87.1657 28.4398 83.7107 32.8198 79.9765 36.9627C79.1196 37.9122 78.1019 38.6779 76.9971 39.3127C76.3036 39.7119 75.5271 39.8427 74.7233 39.9408C71.6335 40.3181 69.327 38.8468 67.2971 36.8128C64.8136 34.3238 62.6651 31.5296 60.3587 28.8785C59.1353 27.4725 59.0658 25.884 59.9513 24.331C60.6557 23.0953 62.1978 22.3978 63.7536 22.6035C64.7591 22.737 65.5329 23.2697 66.1487 24.0326C67.857 26.1497 69.53 28.2927 71.2479 30.4016C72.252 31.6345 74.3228 32.1767 75.7478 30.5188C79.1455 26.5652 82.5228 22.5953 85.9177 18.6404C86.9436 17.4456 88.1425 16.4389 89.4735 15.601C91.9734 14.0289 94.8152 14.1842 97.3261 15.9252C99.4663 17.4088 101.067 19.4061 102.724 21.361C105.04 24.0939 107.367 26.8173 109.692 29.5433C110.839 30.888 111.997 32.2244 113.136 33.5759C113.902 34.4832 114.086 35.0172 114.105 36.1821V36.1834Z" fill="#63C7A5"/>
<path d="M21.0371 39.893C18.623 40.1751 16.98 38.7814 15.3343 37.4163C13.788 36.1343 12.5919 34.5227 11.2908 33.0104C9.20778 30.5882 7.14109 28.1523 5.07168 25.7178C3.64802 24.0434 2.20257 22.3868 0.826591 20.6744C-0.458106 19.075 -0.206065 16.7154 1.31023 15.3912C2.74343 14.1405 5.13025 14.2182 6.4926 15.6936C7.75278 17.0573 8.88082 18.5436 10.0647 19.9782C12.9365 23.4576 15.7934 26.9493 18.6816 30.4165C19.9322 31.9178 22.1774 31.8415 23.4307 30.3171C25.8039 27.4316 28.184 24.5516 30.5613 21.6689C32.1293 19.767 33.7001 17.8679 35.2655 15.9633C36.6401 14.2917 39.0038 14.0329 40.6822 15.3762C42.2557 16.6364 42.5363 19.0627 41.1931 20.6893C38.9138 23.4495 36.576 26.1605 34.2546 28.8852C32.3296 31.144 30.4019 33.4028 28.4551 35.6425C27.3952 36.8618 26.2195 37.9585 24.8394 38.8209C23.661 39.5565 22.4321 40.111 21.0371 39.8958V39.893Z" fill="#63C7A5"/>
<path d="M40.0798 39.923C38.2815 39.9543 37.1453 39.1328 36.5241 37.6819C35.9165 36.261 36.1263 34.885 37.1576 33.6821C40.6384 29.6209 44.1178 25.5597 47.6013 21.5013C49.3288 19.4891 51.0454 17.4673 52.7987 15.4783C54.2346 13.8489 56.507 13.6746 58.0955 15.0206C59.7236 16.4006 59.9606 18.6826 58.5424 20.3746C56.0534 23.3432 53.499 26.2572 50.9745 29.1958C48.3016 32.3088 45.6328 35.4231 42.9612 38.5375C42.1656 39.4652 41.1942 40.0143 40.0798 39.9257V39.923Z" fill="#63C7A5"/>
<path d="M93.2226 29.0122C94.1599 29.068 95.1122 28.8541 96.0154 29.3705C97.232 30.0666 97.905 31.2941 97.6584 32.5911C97.4037 33.9302 96.2538 35.0297 94.8901 35.1059C93.7362 35.17 92.5714 35.1782 91.4202 35.0937C89.8194 34.9765 88.5675 33.5134 88.6192 31.9494C88.6696 30.4126 90.0606 29.0639 91.6573 29.0149C92.179 28.9985 92.7008 29.0122 93.2226 29.0122Z" fill="#63C7A5"/>
<path d="M41.4903 5.52923C41.4903 4.6219 41.5135 3.71458 41.4794 2.80998C41.4658 2.44215 41.6088 2.30591 41.929 2.29501C42.9262 2.26095 43.9425 2.15877 44.9125 2.37675C46.0215 2.62606 46.8866 3.26773 47.1059 4.49521C47.2925 5.54558 47.3838 6.58641 46.8062 7.57275C46.2681 8.49098 45.4493 8.93511 44.4262 9.00322C43.681 9.05227 42.929 8.99232 42.1837 9.03455C41.681 9.06316 41.493 8.86835 41.4985 8.38744C41.5094 7.43515 41.5012 6.48287 41.5012 5.53059H41.493L41.4903 5.52923ZM42.339 5.61097H42.3418C42.3418 5.95155 42.3418 6.29078 42.3418 6.63137C42.3418 7.85839 42.9594 8.4165 44.1946 8.3057C45.0937 8.2226 45.7994 7.84114 46.1536 6.96242C47.0405 4.76086 45.8907 3.00887 43.5461 2.98844C43.3649 2.98708 43.1823 3.00206 43.0025 2.98571C42.5148 2.93939 42.2995 3.11787 42.3295 3.63965C42.3677 4.29494 42.339 4.95431 42.339 5.61097Z" fill="#63C7A5"/>
<path d="M113.335 7.50198C113.478 6.55515 113.391 5.74727 113.407 4.94485C113.422 4.22008 113.403 3.49395 113.418 2.76918C113.422 2.53349 113.398 2.21333 113.768 2.23513C114.097 2.25556 114.121 2.53484 114.121 2.79505C114.121 4.72142 114.117 6.64915 114.117 8.57552C114.117 8.79077 114.091 8.99104 113.853 9.07141C113.572 9.16678 113.452 8.96651 113.312 8.77851C112.187 7.26493 111.056 5.75408 109.924 4.24596C109.86 4.16013 109.763 4.09747 109.666 4.01164C109.512 4.2555 109.505 4.47484 109.511 4.73097C109.537 5.97479 109.531 7.21862 109.507 8.46245C109.501 8.73083 109.496 9.12045 109.059 9.07958C108.67 9.0428 108.756 8.72673 108.758 8.4529C108.766 6.59466 108.759 4.73506 108.766 2.87681C108.766 2.66564 108.677 2.39316 108.926 2.26919C109.207 2.12887 109.403 2.33187 109.556 2.53349C110.48 3.75144 111.394 4.97483 112.315 6.19413C112.621 6.59875 112.937 6.99519 113.334 7.50335L113.335 7.50198Z" fill="#63C7A5"/>
<path d="M93.7742 5.60529C93.7552 3.12308 95.5249 1.67764 97.8068 2.31386C99.0751 2.66807 99.6637 3.61899 99.8871 4.83421C99.9852 5.36825 99.9716 5.92136 99.8789 6.46085C99.5806 8.20466 98.2932 9.23596 96.5807 9.12152C94.9895 9.01526 93.8642 7.79733 93.7756 6.08076C93.7674 5.92273 93.7756 5.76332 93.7756 5.60529H93.7742ZM94.6135 5.65706C94.5821 5.96767 94.6652 6.36822 94.766 6.76194C95.0004 7.68016 95.6897 8.27822 96.5712 8.34907C97.676 8.43898 98.4308 8.04662 98.8095 7.09025C99.2182 6.05895 99.1991 5.00995 98.7141 3.99636C98.4185 3.37785 97.8981 3.04408 97.2292 2.9419C95.6952 2.70758 94.6421 3.76066 94.6135 5.65569V5.65706Z" fill="#63C7A5"/>
<path d="M27.8012 3.95001C27.8012 5.05351 27.8026 6.15701 27.8012 7.26051C27.8012 7.71418 27.7944 8.16784 27.7808 8.6215C27.774 8.84356 27.6881 9.0411 27.4361 9.04792C27.1514 9.05609 27.041 8.85447 27.0397 8.59971C27.0369 6.62567 27.0383 4.65161 27.0397 2.67756C27.0397 2.48547 27.0996 2.31518 27.3094 2.25387C27.586 2.17349 27.7304 2.36286 27.8666 2.54405C28.8107 3.79197 29.7507 5.04397 30.6921 6.29325C30.9632 6.65291 31.2357 7.01121 31.5436 7.41719C31.733 7.15153 31.6771 6.90086 31.6798 6.67198C31.6894 5.42407 31.6839 4.17616 31.6921 2.92825C31.6935 2.63806 31.6662 2.26204 32.0722 2.24978C32.4863 2.23752 32.4714 2.61354 32.4727 2.90508C32.4795 4.74289 32.4795 6.5807 32.4782 8.41851C32.4782 8.66782 32.4904 8.95391 32.1934 9.04792C31.8992 9.14192 31.7425 8.9035 31.594 8.7046C30.6008 7.3804 29.6104 6.05347 28.6173 4.72791C28.4061 4.4459 28.1868 4.1707 27.9701 3.89278C27.9143 3.91186 27.8584 3.92957 27.8012 3.94865V3.95001Z" fill="#63C7A5"/>
<path d="M17.2103 4.61235C17.2103 4.06741 17.1872 3.52247 17.2199 2.98025C17.2362 2.71051 17.0305 2.25275 17.5318 2.24322C18.0373 2.23368 18.0264 2.66691 18.0264 3.04155C18.025 4.10827 18.0291 5.17363 18.0291 6.24035C18.0291 6.7199 17.9542 7.1831 17.7948 7.63949C17.6122 8.16263 17.2825 8.53592 16.7975 8.78659C15.4542 9.48139 13.4611 9.1081 12.9312 7.98144C12.7173 7.52505 12.6069 7.04142 12.6056 6.53599C12.6015 5.28807 12.6097 4.04016 12.5865 2.79361C12.5811 2.48436 12.5824 2.23641 12.9625 2.22823C13.3222 2.22006 13.4175 2.4571 13.4175 2.76772C13.4203 4.03743 13.4094 5.3085 13.4353 6.57821C13.4502 7.3275 13.7254 7.98553 14.4856 8.24165C15.3017 8.51685 16.0986 8.42556 16.739 7.77163C17.0359 7.46783 17.1558 7.0673 17.1681 6.65315C17.1885 5.97333 17.1735 5.29352 17.1735 4.61371H17.2117L17.2103 4.61235Z" fill="#63C7A5"/>
<path d="M61.755 8.65149C61.7877 8.87764 61.71 9.01659 61.5411 9.06699C61.3517 9.12149 61.1719 9.0561 61.0725 8.88035C60.9389 8.64467 60.785 8.40626 60.7223 8.14877C60.548 7.4349 60.0957 7.2469 59.4158 7.31638C58.9227 7.36678 58.4118 7.38585 57.9254 7.31365C57.0958 7.18968 56.6748 7.54253 56.4405 8.30272C56.3369 8.63786 56.2089 9.22639 55.7389 9.03294C55.1885 8.80679 55.6135 8.3218 55.7566 7.98802C56.495 6.26192 57.262 4.54671 58.0208 2.82878C58.1393 2.5604 58.2429 2.24162 58.593 2.22663C58.9894 2.21029 59.0916 2.55497 59.2197 2.84515C60.003 4.6271 60.7864 6.40769 61.5684 8.18965C61.6406 8.35449 61.7046 8.52343 61.7577 8.65149H61.755ZM58.6243 3.25385C58.1461 4.36417 57.7442 5.28919 57.3464 6.21831C57.2156 6.52484 57.3682 6.63384 57.6557 6.63247C58.3096 6.63247 58.9649 6.62975 59.6188 6.62975C59.9608 6.62975 59.9812 6.45673 59.8681 6.19107C59.4799 5.28102 59.0957 4.36825 58.6243 3.25249V3.25385Z" fill="#63C7A5"/>
<path d="M69.9795 5.68054C69.94 2.85366 72.3064 1.29513 74.7327 2.55122C74.8526 2.61389 74.9684 2.68608 75.0801 2.76101C75.2954 2.90678 75.5147 3.07844 75.3186 3.36181C75.1483 3.60704 74.9208 3.5975 74.6755 3.41767C74.1183 3.00897 73.4712 2.95175 72.8132 3.00897C71.959 3.0839 71.3228 3.46808 71.0558 4.33862C70.8173 5.11653 70.7942 5.91486 70.9808 6.68595C71.3677 8.27445 72.9971 8.85072 74.5556 7.97337C74.8322 7.81806 75.091 7.6287 75.3117 7.94886C75.5624 8.3126 75.1987 8.46927 74.9684 8.62594C73.1837 9.83707 70.8528 9.02103 70.1484 6.99521C69.9918 6.54427 70.0027 6.12194 69.9795 5.68054Z" fill="#63C7A5"/>
<path d="M0.044571 5.71564C0.044571 4.80967 0.067723 3.90371 0.0363889 2.99775C0.0186783 2.47597 0.188986 2.25526 0.731201 2.27024C1.68212 2.29749 2.63304 2.26343 3.58396 2.28523C3.79921 2.29068 4.14253 2.23892 4.13981 2.61765C4.13708 3.00183 3.86051 2.99502 3.56215 2.98684C2.83738 2.96641 2.11262 2.99774 1.38921 2.96777C0.909663 2.94733 0.777509 3.13534 0.769334 3.5999C0.735276 5.28785 0.718942 5.28785 2.41916 5.28785C2.66847 5.28785 2.9205 5.2647 3.16572 5.29467C3.46953 5.33146 3.97222 5.12438 3.98857 5.61482C4.00492 6.11481 3.50086 5.96222 3.19433 5.97449C2.60715 5.99901 2.0159 6.00582 1.42872 5.97449C0.920567 5.94724 0.748906 6.13932 0.776153 6.64612C0.810212 7.27825 0.769339 7.91311 0.757078 8.54661C0.751629 8.80681 0.723024 9.07111 0.387886 9.09291C-0.0126451 9.12016 0.0513867 8.78911 0.048662 8.56704C0.0336761 7.61612 0.0418436 6.66519 0.0418436 5.71427H0.0472983L0.044571 5.71564Z" fill="#63C7A5"/>
<path d="M84.1058 5.65061C84.1058 4.72149 84.1058 3.79235 84.1058 2.86323C84.1058 2.55806 84.1112 2.21885 84.5281 2.22975C84.9395 2.24201 84.93 2.5894 84.93 2.88776C84.93 4.72421 84.9272 6.5593 84.9204 8.39575C84.9204 8.68866 84.9395 9.05785 84.5335 9.06874C84.0731 9.08101 84.1098 8.6832 84.1085 8.36986C84.1017 7.46389 84.1058 6.55657 84.1058 5.65061Z" fill="#63C7A5"/>
<path d="M98.2031 0.409431C97.9306 0.876717 97.5342 1.30177 97.1119 1.7023C97.0696 1.74181 96.9293 1.72817 96.868 1.68866C96.7372 1.60147 96.7277 1.44618 96.804 1.32902C97.0737 0.914863 97.353 0.50751 97.6446 0.109704C97.7277 -0.00473387 97.8802 -0.0278865 98.0151 0.0320569C98.1486 0.090638 98.2126 0.207788 98.2017 0.410778L98.2031 0.409431Z" fill="#63C7A5"/>
</svg>
