<svg width="396" height="78" viewBox="0 0 396 78" fill="none" xmlns="http://www.w3.org/2000/svg">
<path d="M124.194 54.6372H125.816V56.5521C126.567 55.2004 127.783 54.5095 129.465 54.4795V56.0339C128.504 56.0489 127.656 56.3343 126.92 56.89C126.184 57.4307 125.816 58.2717 125.816 59.4131V65H124.194V54.6372ZM130.523 59.8186C130.523 58.2567 130.996 56.9801 131.942 55.9889C132.888 54.9826 134.097 54.4795 135.569 54.4795C137.281 54.4795 138.565 55.1553 139.421 56.507V54.6372H141.066V65H139.421V63.1302C138.55 64.4969 137.266 65.1802 135.569 65.1802C134.097 65.1802 132.888 64.6771 131.942 63.6709C130.996 62.6496 130.523 61.3655 130.523 59.8186ZM132.099 59.8186C132.099 60.93 132.437 61.8386 133.113 62.5445C133.789 63.2654 134.675 63.6258 135.772 63.6258C136.868 63.6258 137.746 63.2729 138.407 62.567C139.083 61.8461 139.421 60.93 139.421 59.8186C139.421 58.7072 139.083 57.7986 138.407 57.0927C137.746 56.3869 136.868 56.0339 135.772 56.0339C134.675 56.0339 133.789 56.3869 133.113 57.0927C132.437 57.7986 132.099 58.7072 132.099 59.8186ZM143.884 54.6372H145.506V56.5295C146.362 55.1629 147.646 54.4795 149.358 54.4795C150.83 54.4795 152.039 54.9901 152.985 56.0114C153.946 57.0176 154.427 58.2942 154.427 59.8411C154.427 61.388 153.946 62.6646 152.985 63.6709C152.039 64.6771 150.83 65.1802 149.358 65.1802C147.646 65.1802 146.362 64.4969 145.506 63.1302V69.1451H143.884V54.6372ZM146.52 62.567C147.18 63.2729 148.059 63.6258 149.155 63.6258C150.252 63.6258 151.138 63.2729 151.814 62.567C152.489 61.8611 152.827 60.9525 152.827 59.8411C152.827 58.7298 152.489 57.8211 151.814 57.1153C151.138 56.3944 150.252 56.0339 149.155 56.0339C148.059 56.0339 147.173 56.3944 146.497 57.1153C145.836 57.8211 145.506 58.7298 145.506 59.8411C145.506 60.9525 145.844 61.8611 146.52 62.567ZM157.11 65V54.6372H158.754L158.732 65H157.11ZM157.223 50.7174C157.418 50.5371 157.651 50.447 157.921 50.447C158.191 50.447 158.424 50.5371 158.619 50.7174C158.815 50.8976 158.912 51.1304 158.912 51.4157C158.912 51.7011 158.815 51.9414 158.619 52.1366C158.409 52.3319 158.176 52.4295 157.921 52.4295C157.666 52.4295 157.433 52.3319 157.223 52.1366C157.027 51.9414 156.93 51.7011 156.93 51.4157C156.93 51.1304 157.027 50.8976 157.223 50.7174ZM161.432 59.8186C161.432 58.2567 161.905 56.9801 162.852 55.9889C163.798 54.9826 165.007 54.4795 166.479 54.4795C168.191 54.4795 169.475 55.1553 170.331 56.507V50.3569H171.975V65H170.331V63.1302C169.46 64.4969 168.176 65.1802 166.479 65.1802C165.007 65.1802 163.798 64.6771 162.852 63.6709C161.905 62.6496 161.432 61.3655 161.432 59.8186ZM163.009 59.8186C163.009 60.93 163.347 61.8386 164.023 62.5445C164.699 63.2654 165.585 63.6258 166.681 63.6258C167.778 63.6258 168.656 63.2729 169.317 62.567C169.993 61.8461 170.331 60.93 170.331 59.8186C170.331 58.7072 169.993 57.7986 169.317 57.0927C168.656 56.3869 167.778 56.0339 166.681 56.0339C165.585 56.0339 164.699 56.3869 164.023 57.0927C163.347 57.7986 163.009 58.7072 163.009 59.8186ZM174.478 59.8186C174.478 58.2567 174.966 56.9726 175.942 55.9663C176.934 54.9601 178.203 54.457 179.75 54.457C181.297 54.457 182.558 54.9601 183.534 55.9663C184.526 56.9726 185.021 58.2567 185.021 59.8186C185.021 61.3655 184.533 62.6496 183.557 63.6709C182.566 64.6921 181.297 65.2028 179.75 65.2028C178.203 65.2028 176.934 64.6921 175.942 63.6709C174.966 62.6496 174.478 61.3655 174.478 59.8186ZM176.1 59.8186C176.1 60.915 176.438 61.8236 177.114 62.5445C177.79 63.2654 178.668 63.6258 179.75 63.6258C180.831 63.6258 181.702 63.2729 182.363 62.567C183.039 61.8461 183.377 60.93 183.377 59.8186C183.377 58.7072 183.039 57.7986 182.363 57.0927C181.702 56.3869 180.831 56.0339 179.75 56.0339C178.668 56.0339 177.79 56.3944 177.114 57.1153C176.438 57.8211 176.1 58.7222 176.1 59.8186ZM187.757 63.6483H189.536L188.342 66.8923H187.081L187.757 63.6483ZM192.618 55.9663C193.595 54.9751 194.856 54.4795 196.403 54.4795C198.235 54.4795 199.64 55.1704 200.616 56.5521L199.422 57.4532C198.746 56.507 197.755 56.0339 196.448 56.0339C195.337 56.0339 194.443 56.3869 193.767 57.0927C193.091 57.7986 192.754 58.7072 192.754 59.8186C192.754 60.93 193.091 61.8461 193.767 62.567C194.443 63.2729 195.337 63.6258 196.448 63.6258C197.725 63.6258 198.716 63.1527 199.422 62.2066L200.616 63.0851C199.655 64.4819 198.25 65.1802 196.403 65.1802C194.856 65.1802 193.595 64.6771 192.618 63.6709C191.642 62.6646 191.154 61.3805 191.154 59.8186C191.154 58.2567 191.642 56.9726 192.618 55.9663ZM202.374 59.8186C202.374 58.2567 202.862 56.9726 203.838 55.9663C204.829 54.9601 206.099 54.457 207.645 54.457C209.192 54.457 210.454 54.9601 211.43 55.9663C212.421 56.9726 212.917 58.2567 212.917 59.8186C212.917 61.3655 212.429 62.6496 211.453 63.6709C210.461 64.6921 209.192 65.2028 207.645 65.2028C206.099 65.2028 204.829 64.6921 203.838 63.6709C202.862 62.6496 202.374 61.3655 202.374 59.8186ZM203.996 59.8186C203.996 60.915 204.334 61.8236 205.01 62.5445C205.686 63.2654 206.564 63.6258 207.645 63.6258C208.727 63.6258 209.598 63.2729 210.259 62.567C210.935 61.8461 211.272 60.93 211.272 59.8186C211.272 58.7072 210.935 57.7986 210.259 57.0927C209.598 56.3869 208.727 56.0339 207.645 56.0339C206.564 56.0339 205.686 56.3944 205.01 57.1153C204.334 57.8211 203.996 58.7222 203.996 59.8186ZM215.427 54.6372H217.049V55.9663C217.755 54.9751 218.784 54.4795 220.136 54.4795C221.788 54.4795 222.929 55.1253 223.56 56.4169C224.236 55.1253 225.415 54.4795 227.097 54.4795C228.178 54.4795 229.087 54.8174 229.822 55.4933C230.573 56.1541 230.949 57.1979 230.949 58.6246V65H229.327V58.8049C229.327 57.8437 229.064 57.1303 228.538 56.6647C228.028 56.1841 227.397 55.9438 226.646 55.9438C225.895 55.9438 225.264 56.1841 224.754 56.6647C224.258 57.1303 224.01 57.8437 224.01 58.8049V65H222.366V58.8049C222.366 57.8437 222.103 57.1303 221.577 56.6647C221.067 56.1841 220.443 55.9438 219.708 55.9438C218.957 55.9438 218.326 56.1841 217.815 56.6647C217.305 57.1303 217.049 57.8437 217.049 58.8049V65H215.427V54.6372ZM233.482 59.8186C233.482 58.2567 233.97 56.9726 234.946 55.9663C235.937 54.9601 237.206 54.457 238.753 54.457C240.3 54.457 241.562 54.9601 242.538 55.9663C243.529 56.9726 244.025 58.2567 244.025 59.8186C244.025 61.3655 243.537 62.6496 242.56 63.6709C241.569 64.6921 240.3 65.2028 238.753 65.2028C237.206 65.2028 235.937 64.6921 234.946 63.6709C233.97 62.6496 233.482 61.3655 233.482 59.8186ZM235.104 59.8186C235.104 60.915 235.442 61.8236 236.117 62.5445C236.793 63.2654 237.672 63.6258 238.753 63.6258C239.835 63.6258 240.706 63.2729 241.366 62.567C242.042 61.8461 242.38 60.93 242.38 59.8186C242.38 58.7072 242.042 57.7986 241.366 57.0927C240.706 56.3869 239.835 56.0339 238.753 56.0339C237.672 56.0339 236.793 56.3944 236.117 57.1153C235.442 57.8211 235.104 58.7222 235.104 59.8186ZM246.22 59.8186C246.22 58.2567 246.693 56.9801 247.639 55.9889C248.585 54.9826 249.794 54.4795 251.266 54.4795C252.978 54.4795 254.262 55.1553 255.118 56.507V50.3569H256.763V65H255.118V63.1302C254.247 64.4969 252.963 65.1802 251.266 65.1802C249.794 65.1802 248.585 64.6771 247.639 63.6709C246.693 62.6496 246.22 61.3655 246.22 59.8186ZM247.797 59.8186C247.797 60.93 248.134 61.8386 248.81 62.5445C249.486 63.2654 250.372 63.6258 251.469 63.6258C252.565 63.6258 253.443 63.2729 254.104 62.567C254.78 61.8461 255.118 60.93 255.118 59.8186C255.118 58.7072 254.78 57.7986 254.104 57.0927C253.443 56.3869 252.565 56.0339 251.469 56.0339C250.372 56.0339 249.486 56.3869 248.81 57.0927C248.134 57.7986 247.797 58.7072 247.797 59.8186ZM259.265 59.8186C259.265 58.2567 259.754 56.9726 260.73 55.9663C261.721 54.9601 262.99 54.457 264.537 54.457C266.084 54.457 267.345 54.9601 268.322 55.9663C269.313 56.9726 269.808 58.2567 269.808 59.8186C269.808 61.3655 269.32 62.6496 268.344 63.6709C267.353 64.6921 266.084 65.2028 264.537 65.2028C262.99 65.2028 261.721 64.6921 260.73 63.6709C259.754 62.6496 259.265 61.3655 259.265 59.8186ZM260.887 59.8186C260.887 60.915 261.225 61.8236 261.901 62.5445C262.577 63.2654 263.456 63.6258 264.537 63.6258C265.618 63.6258 266.489 63.2729 267.15 62.567C267.826 61.8461 268.164 60.93 268.164 59.8186C268.164 58.7072 267.826 57.7986 267.15 57.0927C266.489 56.3869 265.618 56.0339 264.537 56.0339C263.456 56.0339 262.577 56.3944 261.901 57.1153C261.225 57.8211 260.887 58.7222 260.887 59.8186ZM277.55 54.6372L280.749 62.7472L283.97 54.6372H285.66L279.892 69.1451H278.293L279.915 64.9775L275.86 54.6372H277.55ZM291.556 62.8599L292.727 62.1615C292.908 62.6421 293.291 63.0551 293.876 63.4005C294.477 63.746 295.168 63.9187 295.949 63.9187C297.571 63.9187 298.382 63.3329 298.382 62.1615C298.382 61.9512 298.329 61.7635 298.224 61.5983C298.119 61.4181 298.006 61.2754 297.886 61.1703C297.766 61.0501 297.571 60.9375 297.301 60.8324C297.045 60.7272 296.85 60.6521 296.715 60.6071C296.595 60.562 296.377 60.5019 296.061 60.4269C295.761 60.3518 295.588 60.3067 295.543 60.2917L295.138 60.179C294.852 60.104 294.657 60.0514 294.552 60.0214C294.462 59.9913 294.274 59.9237 293.989 59.8186C293.704 59.7135 293.493 59.6234 293.358 59.5483C293.223 59.4582 293.043 59.338 292.817 59.1878C292.607 59.0226 292.45 58.8574 292.344 58.6922C292.239 58.527 292.142 58.3318 292.052 58.1065C291.976 57.8662 291.939 57.6184 291.939 57.3631C291.939 56.4169 292.299 55.696 293.02 55.2004C293.741 54.6898 294.687 54.4345 295.859 54.4345C296.865 54.4345 297.721 54.6297 298.427 55.0202C299.133 55.4107 299.606 55.8988 299.846 56.4845L298.697 57.1603C298.547 56.7698 298.202 56.4394 297.661 56.1691C297.12 55.8837 296.505 55.7411 295.814 55.7411C295.093 55.7411 294.53 55.8762 294.124 56.1466C293.734 56.4169 293.538 56.7999 293.538 57.2955C293.538 57.4607 293.568 57.6184 293.628 57.7686C293.689 57.9037 293.779 58.0239 293.899 58.129C294.034 58.2341 294.162 58.3318 294.282 58.4219C294.402 58.497 294.56 58.5721 294.755 58.6472C294.965 58.7072 295.13 58.7598 295.25 58.8049C295.371 58.8349 295.543 58.8799 295.769 58.94C295.994 59.0001 296.144 59.0376 296.219 59.0527C296.249 59.0527 296.362 59.0827 296.557 59.1428C296.752 59.2028 296.895 59.2479 296.985 59.2779C297.075 59.293 297.225 59.338 297.436 59.4131C297.661 59.4882 297.834 59.5558 297.954 59.6159C298.089 59.6609 298.254 59.736 298.449 59.8411C298.645 59.9463 298.802 60.0514 298.923 60.1565C299.043 60.2616 299.178 60.3893 299.328 60.5395C299.478 60.6747 299.591 60.8173 299.666 60.9675C299.741 61.1177 299.809 61.2979 299.869 61.5082C299.929 61.7034 299.959 61.9062 299.959 62.1164C299.959 63.1377 299.606 63.9187 298.9 64.4593C298.209 65 297.218 65.2703 295.926 65.2703C294.8 65.2703 293.854 65.0526 293.088 64.617C292.337 64.1665 291.826 63.5807 291.556 62.8599ZM303.364 55.9663C304.296 54.9601 305.527 54.457 307.059 54.457C308.531 54.457 309.725 54.9601 310.641 55.9663C311.557 56.9726 312.015 58.2567 312.015 59.8186V60.3367H303.522C303.627 61.373 304.01 62.2066 304.671 62.8373C305.332 63.4681 306.173 63.7835 307.194 63.7835C308.606 63.7835 309.665 63.2578 310.371 62.2066L311.519 63.0401C310.543 64.4819 309.101 65.2028 307.194 65.2028C305.632 65.2028 304.363 64.6996 303.387 63.6934C302.426 62.6721 301.945 61.3805 301.945 59.8186C301.945 58.2567 302.418 56.9726 303.364 55.9663ZM303.522 59.2104H310.506C310.386 58.2041 310.018 57.3856 309.402 56.7548C308.786 56.124 308.005 55.8087 307.059 55.8087C306.068 55.8087 305.257 56.1165 304.626 56.7323C304.01 57.3481 303.642 58.1741 303.522 59.2104ZM314.221 59.8186C314.221 58.2717 314.694 56.9951 315.64 55.9889C316.586 54.9826 317.795 54.4795 319.267 54.4795C320.979 54.4795 322.263 55.1553 323.119 56.507V54.6372H324.764V64.2341C324.764 65.7359 324.268 66.9524 323.277 67.8836C322.286 68.8147 320.964 69.2803 319.312 69.2803C317.48 69.2803 316.053 68.672 315.032 67.4555L316.136 66.5319C316.932 67.418 317.991 67.861 319.312 67.861C320.364 67.861 321.257 67.5456 321.993 66.9149C322.744 66.2991 323.119 65.4055 323.119 64.2341V63.1302C322.248 64.4969 320.964 65.1802 319.267 65.1802C317.795 65.1802 316.586 64.6771 315.64 63.6709C314.694 62.6496 314.221 61.3655 314.221 59.8186ZM316.812 62.5445C317.488 63.2654 318.374 63.6258 319.47 63.6258C320.566 63.6258 321.445 63.2729 322.106 62.567C322.782 61.8461 323.119 60.93 323.119 59.8186C323.119 58.7072 322.782 57.7986 322.106 57.0927C321.445 56.3869 320.566 56.0339 319.47 56.0339C318.374 56.0339 317.488 56.3869 316.812 57.0927C316.136 57.7986 315.798 58.7072 315.798 59.8186C315.798 60.93 316.136 61.8386 316.812 62.5445ZM327.582 54.6372H329.204V60.8324C329.204 61.7785 329.482 62.5069 330.038 63.0176C330.609 63.5282 331.307 63.7835 332.133 63.7835C332.959 63.7835 333.65 63.5282 334.205 63.0176C334.761 62.5069 335.039 61.7785 335.039 60.8324V54.6372H336.661V65H335.039V63.6258C334.288 64.6621 333.177 65.1802 331.705 65.1802C330.563 65.1802 329.587 64.8348 328.776 64.1439C327.98 63.4381 327.582 62.4018 327.582 61.0351V54.6372ZM339.506 54.6372H341.128V56.5521C341.879 55.2004 343.096 54.5095 344.778 54.4795V56.0339C343.817 56.0489 342.968 56.3343 342.232 56.89C341.496 57.4307 341.128 58.2717 341.128 59.4131V65H339.506V54.6372ZM345.835 59.8186C345.835 58.2567 346.323 56.9726 347.299 55.9663C348.29 54.9601 349.559 54.457 351.106 54.457C352.653 54.457 353.915 54.9601 354.891 55.9663C355.882 56.9726 356.378 58.2567 356.378 59.8186C356.378 61.3655 355.89 62.6496 354.913 63.6709C353.922 64.6921 352.653 65.2028 351.106 65.2028C349.559 65.2028 348.29 64.6921 347.299 63.6709C346.323 62.6496 345.835 61.3655 345.835 59.8186ZM347.457 59.8186C347.457 60.915 347.795 61.8236 348.471 62.5445C349.146 63.2654 350.025 63.6258 351.106 63.6258C352.188 63.6258 353.059 63.2729 353.719 62.567C354.395 61.8461 354.733 60.93 354.733 59.8186C354.733 58.7072 354.395 57.7986 353.719 57.0927C353.059 56.3869 352.188 56.0339 351.106 56.0339C350.025 56.0339 349.146 56.3944 348.471 57.1153C347.795 57.8211 347.457 58.7222 347.457 59.8186Z" fill="white"/>
<path d="M121.293 3.54346C125.438 3.73166 129.297 4.73463 132.378 7.83883C133.128 8.59403 133.185 9.15389 132.428 9.91147C131.673 10.6667 130.979 11.4934 130.319 12.3343C129.679 13.1515 129.143 13.2253 128.264 12.5511C125.807 10.6691 123.058 9.53983 119.878 9.85668C118.451 9.99962 117.171 10.4809 116.271 11.6673C115.311 12.9275 115.33 14.6476 116.552 15.6363C117.541 16.4367 118.741 17.0657 119.949 17.4826C122.148 18.2425 124.457 18.6904 126.653 19.4623C128.054 19.9531 129.417 20.6678 130.655 21.4944C135.334 24.6153 135.925 32.9893 129.579 36.9559C123.489 40.7605 113.707 39.8552 108.521 34.9118C107.049 33.5086 107.046 33.349 108.469 31.8839C109.131 31.2001 109.831 30.5474 110.453 29.8279C111.065 29.1203 111.563 29.0417 112.33 29.6921C115.132 32.0673 118.389 33.2632 122.081 33.0107C123.087 32.9416 124.133 32.6962 125.05 32.2865C127.296 31.2811 127.763 28.3199 125.829 26.7904C124.719 25.9113 123.287 25.3729 121.924 24.8964C119.616 24.0864 117.212 23.5433 114.913 22.7118C111.344 21.4206 108.623 19.2527 108.38 15.105C108.106 10.5571 110.131 7.25754 114.124 5.13248C116.349 3.94846 118.772 3.62446 121.295 3.54346H121.293Z" fill="white"/>
<path d="M269.198 39.3358C262.421 39.3596 256.844 34.8998 255.755 28.5199C254.492 21.1323 259.207 14.5427 266.664 13.2705C273.287 12.1413 279.212 15.0382 281.818 20.6772C285.301 28.2126 280.748 37.2465 272.61 38.8974C271.49 39.1237 270.335 39.1928 269.198 39.3334V39.3358ZM275.9 25.9946C275.891 25.804 275.886 25.3276 275.836 24.8559C275.49 21.542 273.31 19.3264 270.028 18.9429C266.699 18.5522 264.103 20.0983 263.057 23.1906C262.757 24.0768 262.626 25.0393 262.54 25.9756C262.247 29.2179 264.007 32.2602 266.816 33.0202C272.327 34.5139 275.907 31.1762 275.9 25.9946Z" fill="white"/>
<path d="M172.737 28.2721C173.011 30.8259 175.243 33.082 177.79 33.5156C180.468 33.9706 182.905 33.2941 185.13 31.8527C186.021 31.2762 186.693 31.2929 187.431 32.0266C188.051 32.6389 188.735 33.1845 189.378 33.7753C189.997 34.3423 190.004 34.8664 189.34 35.4596C187.084 37.4727 184.456 38.6996 181.476 39.0546C176.513 39.6454 172.006 38.5376 168.675 34.6186C165.242 30.5758 164.995 25.8397 166.86 21.0845C168.654 16.5152 172.256 13.9494 177.109 13.2728C181.845 12.6129 185.928 13.9113 188.918 17.7921C191.076 20.5961 191.553 23.9147 191.429 27.3549C191.393 28.3674 190.643 28.2768 189.966 28.2768C184.611 28.2768 179.255 28.2768 173.9 28.2744C173.516 28.2744 173.133 28.2744 172.737 28.2744V28.2721ZM184.546 23.8361C184.47 20.5747 181.533 18.3663 177.888 18.6807C175.072 18.9213 172.62 21.4895 172.961 23.8361H184.549H184.546Z" fill="white"/>
<path d="M155.234 35.543C154.672 36.1529 154.255 36.6651 153.776 37.1154C149.507 41.132 139.751 40.3482 138.038 32.2268C137.836 31.2667 137.807 30.2566 137.802 29.2703C137.783 24.5461 137.824 19.8219 137.788 15.0953C137.781 14.0376 138.093 13.5611 139.208 13.6159C140.514 13.6778 141.826 13.6064 143.137 13.6159C144.647 13.6302 144.776 13.7493 144.795 15.2359C144.857 19.6813 144.864 24.1292 144.971 28.5723C145.054 31.979 146.522 33.3632 149.819 33.3298C152.952 33.2989 155.236 31.2214 155.27 28.2435C155.32 23.9958 155.284 19.7481 155.289 15.4979C155.289 13.7493 155.47 13.5778 157.188 13.5921C158.419 13.6016 159.649 13.6064 160.88 13.6016C161.736 13.5992 162.167 13.9042 162.164 14.8642C162.145 22.3686 162.157 29.873 162.188 37.3751C162.193 38.3542 161.831 38.7258 160.849 38.683C159.541 38.6258 158.224 38.6067 156.921 38.6949C155.849 38.7687 155.372 38.378 155.367 37.3155C155.365 36.7795 155.286 36.2434 155.229 35.5383L155.234 35.543Z" fill="white"/>
<path d="M209.128 19.2452C208.215 19.2452 207.431 19.2213 206.648 19.2523C205.904 19.2809 205.54 18.995 205.554 18.2184C205.575 16.9891 205.578 15.7574 205.554 14.5281C205.54 13.7801 205.93 13.5609 206.595 13.5752C207.384 13.5919 208.175 13.5799 209.132 13.5799C209.132 11.7574 209.18 9.98497 209.113 8.21727C209.073 7.14998 209.397 6.69257 210.526 6.75928C211.87 6.84027 213.225 6.82836 214.571 6.76166C215.629 6.70925 216.079 7.02848 216.022 8.16963C215.936 9.90397 216.001 11.6479 216.001 13.5799C217.766 13.5799 219.453 13.5776 221.139 13.5799C222.852 13.5823 222.888 13.6181 222.895 15.2809C222.9 16.1529 222.845 17.0296 222.909 17.8991C222.983 18.9283 222.604 19.3262 221.551 19.2738C220.127 19.1999 218.695 19.2475 217.268 19.2523C216.88 19.2523 216.494 19.2904 215.993 19.3166C215.993 21.7323 215.993 24.0623 215.993 26.3946C215.993 27.7835 215.967 29.1724 216.001 30.5613C216.041 32.2623 216.768 33.0318 218.469 33.1057C219.536 33.1509 220.613 33.1057 221.678 33.0151C222.54 32.9437 222.938 33.201 222.898 34.1158C222.852 35.1855 222.852 36.2599 222.9 37.3296C222.94 38.2206 222.473 38.6875 221.702 38.8376C218.557 39.457 215.467 39.3569 212.556 37.8537C209.978 36.5243 209.206 34.1515 209.151 31.4928C209.078 27.8836 209.13 24.2719 209.13 20.6603C209.13 20.2362 209.13 19.8098 209.13 19.2452H209.128Z" fill="white"/>
<path d="M240.1 19.2501C239.364 19.2501 238.814 19.2525 238.264 19.2501C237.23 19.2437 236.71 18.7045 236.703 17.6325C236.701 16.6795 236.768 15.7242 236.703 14.7784C236.637 13.7969 237.084 13.5158 237.971 13.5706C238.635 13.6111 239.302 13.5777 240.103 13.5777C240.103 11.6861 240.143 9.87316 240.086 8.06257C240.055 7.0739 240.42 6.72131 241.399 6.76419C242.785 6.82613 244.177 6.83328 245.563 6.76657C246.621 6.71655 247.071 7.02863 247.016 8.1674C246.931 9.90413 246.995 11.6504 246.995 13.5729C248.732 13.5729 250.418 13.5777 252.105 13.5729C253.706 13.5682 253.813 13.6587 253.823 15.2239C253.83 16.1768 253.801 17.1274 253.813 18.0803C253.823 18.9142 253.489 19.2882 252.601 19.2644C250.788 19.2143 248.972 19.2501 247.002 19.2501C247.002 20.2483 247.002 21.1083 247.002 21.966C247.002 24.6247 246.983 27.281 247.005 29.9397C247.028 32.5817 247.598 33.1296 250.254 33.1058C251.085 33.0987 251.922 33.0725 252.748 32.9819C253.48 32.9009 253.799 33.2011 253.789 33.8896C253.773 35.1189 253.811 36.3577 253.658 37.5703C253.606 37.9944 253.127 38.6067 252.732 38.7091C249.437 39.5596 246.192 39.4238 243.219 37.6227C241.032 36.2982 240.172 34.1278 240.124 31.6669C240.058 28.0195 240.1 24.3697 240.098 20.72C240.098 20.2888 240.098 19.8576 240.098 19.2548L240.1 19.2501Z" fill="white"/>
<path d="M202.478 21.2061C202.478 26.4425 202.478 31.6813 202.478 36.9177C202.478 38.6735 202.471 38.6735 200.673 38.6735C199.324 38.6735 197.973 38.6497 196.625 38.6783C195.729 38.6973 195.324 38.34 195.327 37.4156C195.343 26.5855 195.346 15.7529 195.341 4.92278C195.341 4.03893 195.672 3.61249 196.611 3.63632C198.078 3.67443 199.551 3.69826 201.013 3.61249C202.188 3.54579 202.519 4.0294 202.512 5.1372C202.476 10.4927 202.495 15.8482 202.495 21.2061H202.481H202.478Z" fill="white"/>
<path d="M226.781 26.0042C226.781 22.3544 226.809 18.7046 226.764 15.0549C226.75 13.9733 227.138 13.5397 228.215 13.5802C229.601 13.6326 230.99 13.6231 232.379 13.6064C233.368 13.5921 233.821 14.0043 233.816 15.0263C233.785 22.4044 233.768 29.7826 233.771 37.1607C233.771 38.2399 233.435 38.7736 232.243 38.6878C230.981 38.5973 229.706 38.6711 228.436 38.6735C226.914 38.6735 226.788 38.5663 226.783 37.0702C226.774 33.3799 226.781 29.692 226.783 26.0018L226.781 26.0042Z" fill="white"/>
<path d="M234.092 6.72604C234.109 8.89874 232.584 10.3806 230.314 10.4044C228.055 10.4258 226.352 8.84156 226.352 6.71889C226.352 4.63672 228.027 3.00719 230.178 3.00004C232.417 2.99051 234.078 4.57001 234.092 6.72842V6.72604Z" fill="white"/>
<path d="M43.8465 34.6466C43.4967 37.9153 41.766 40.0025 38.855 40.7448C35.5415 41.59 32.0377 40.1797 30.5552 37.3951C30.1064 36.5513 29.8698 35.6535 29.9148 34.6825C29.9444 34.0301 30.1553 33.4855 30.6362 33.0295C33.9702 29.8712 35.8334 25.9217 36.7476 21.4918C37.8611 16.0961 36.6704 11.0986 33.933 6.41954C33.2232 5.2058 32.3617 4.07682 31.5375 2.93243C30.55 1.56327 31.0142 0.385484 32.6922 0.119615C33.1551 0.046405 33.6282 0.0053045 34.0975 0.0053045C46.8694 0.000166949 59.6425 -0.006255 72.4144 0.0130108C73.5883 0.0142952 74.7674 0.126037 75.9323 0.280164C77.5023 0.488235 78.8434 1.23703 80.0584 2.23243C81.6721 3.55279 82.9193 5.15956 83.9364 6.9744C85.9551 10.5758 87.9931 14.167 90.0735 17.7337C91.205 19.6732 91.7708 21.7295 91.7541 23.9681C91.7399 25.7663 91.7631 27.5657 91.7733 29.3639C91.7772 29.9303 91.9264 30.4196 92.2877 30.9013C92.973 31.8132 92.7068 32.8279 92.3314 33.7732C92.0305 34.5284 91.268 34.6157 90.5917 34.6247C88.3853 34.6543 86.1776 34.6376 83.9711 34.6029C83.0518 34.5888 83.0518 34.5477 82.9296 33.6203C82.4642 30.1152 80.0044 27.269 76.6922 26.6358C73.7297 26.0707 71.1967 26.9531 69.2474 29.3189C68.1571 30.6431 67.4679 32.1304 67.4267 33.8721C67.4126 34.4449 67.1889 34.6633 66.5665 34.6607C60.009 34.6376 53.4514 34.6466 46.8938 34.6466C45.8755 34.6466 44.8558 34.6466 43.8478 34.6466H43.8465ZM54.7565 19.1311H54.7861C54.7861 22.748 54.7758 26.3635 54.7912 29.9804C54.7963 31.3662 55.0844 31.6372 56.4499 31.6411C58.3349 31.6462 60.2186 31.6295 62.1035 31.636C63.9088 31.6424 64.3871 31.8299 64.3897 29.3343C64.3974 22.337 64.3961 15.3396 64.3923 8.34227C64.3923 8.02503 64.3511 7.70136 64.283 7.39183C64.1531 6.80358 63.7661 6.42853 63.1643 6.4234C60.7882 6.40285 58.4107 6.39386 56.0333 6.42853C55.2515 6.44009 54.9082 6.84082 54.8041 7.64228C54.7681 7.91714 54.7565 8.19714 54.7565 8.47328C54.7539 12.0259 54.7539 15.5772 54.7539 19.1299L54.7565 19.1311ZM87.174 16.6831C87.1368 16.5187 87.1355 16.4519 87.1072 16.3992C85.3984 13.2679 83.7075 10.1263 81.9447 7.02577C81.7518 6.6867 81.1372 6.40927 80.7142 6.40413C77.1152 6.35918 73.5163 6.37716 69.9173 6.39257C69.0713 6.39642 68.6225 6.80614 68.6148 7.65256C68.5891 10.3498 68.5917 13.0483 68.6148 15.7468C68.6213 16.529 68.9517 16.8347 69.7296 16.8359C75.2367 16.8449 80.7438 16.8436 86.2508 16.8359C86.5414 16.8359 86.832 16.7422 87.174 16.6831ZM45.302 6.38486V6.37459C43.7166 6.37459 42.1312 6.36174 40.5458 6.37973C39.5892 6.39 39.2279 6.73037 39.2896 7.65898C39.3912 9.19254 39.5583 10.7222 39.7088 12.2532C39.8168 13.3591 39.9492 14.4611 40.0559 15.567C40.1588 16.6343 40.4983 16.9541 41.5565 16.9528C43.12 16.9502 44.6848 16.9502 46.2483 16.9477C47.4699 16.9451 48.6914 16.9554 49.9116 16.9297C51.0161 16.9066 51.3568 16.651 51.3735 15.6671C51.4173 13.0341 51.4237 10.4011 51.3967 7.76815C51.3864 6.78174 50.9119 6.39 49.9296 6.38615C48.3866 6.38101 46.845 6.38486 45.302 6.38486ZM88.69 27.7417C89.2455 27.7121 89.8022 27.6775 90.3577 27.6531C90.71 27.6376 90.9067 27.5156 90.8926 27.111C90.8656 26.3199 90.8656 25.5261 90.881 24.7349C90.8887 24.3059 90.7139 24.0812 90.2883 24.0837C89.2403 24.0914 88.1885 24.0735 87.1458 24.1557C86.9079 24.1749 86.5324 24.5436 86.508 24.7799C86.4296 25.5402 86.4733 26.3147 86.4951 27.0828C86.508 27.5221 86.7845 27.7327 87.2113 27.7404C87.7038 27.7481 88.1963 27.7417 88.69 27.7404V27.7417ZM37.2555 37.1383C38.5014 37.1383 39.4593 36.1878 39.4555 34.9587C39.4516 33.7102 38.4178 32.7071 37.1423 32.7148C35.9581 32.7225 35.0207 33.691 35.0233 34.9047C35.0259 36.1506 36.0134 37.1396 37.2555 37.1383Z" fill="white"/>
<path d="M75.3087 27.8726C78.7726 27.888 81.6837 30.8357 81.6901 34.3331C81.6966 37.9178 78.7264 40.9541 75.2174 40.9477C71.6506 40.9413 68.7807 38.0257 68.782 34.4089C68.782 30.837 71.7586 27.8572 75.3074 27.8726H75.3087ZM77.4084 34.3819C77.4238 33.1489 76.4248 32.1034 75.22 32.0893C74.0216 32.0751 72.9891 33.1142 72.984 34.3408C72.9788 35.5802 73.9715 36.6103 75.184 36.6219C76.4042 36.6347 77.393 35.6393 77.4084 34.3819Z" fill="white"/>
<path d="M12.9577 30.7086C5.60552 30.6277 -0.0738503 24.8852 0.000726047 17.6104C0.0740166 10.5643 6.01312 4.92838 13.2779 5.01315C20.2739 5.09407 25.97 10.9316 25.8774 17.9251C25.7836 24.979 19.9139 30.7857 12.9577 30.7086ZM24.4026 18.1191C24.5466 11.0639 18.3324 6.45038 13.1236 6.49662C6.71003 6.55442 1.51154 11.5931 1.49611 17.9187C1.48068 24.1968 6.60202 29.3639 12.86 29.3857C19.325 29.4088 24.3859 24.4678 24.4013 18.1178L24.4026 18.1191Z" fill="#E67C02"/>
<path d="M34.5154 17.6309C34.3881 22.6682 32.6986 27.2175 29.3362 31.1247C29.0945 31.4046 28.7692 31.6782 28.4285 31.7925C27.8884 31.9749 27.3561 31.8234 27.0025 31.3314C26.6541 30.8459 26.6553 30.3283 27.0064 29.8428C27.3188 29.41 27.6621 28.999 27.9926 28.579C32.8902 22.3728 33.2785 13.0366 27.7033 6.52347C27.495 6.27943 27.2931 6.03026 27.0874 5.78366C26.5756 5.16972 26.5731 4.46202 27.0822 3.9457C27.5824 3.43708 28.4555 3.39213 28.9634 4.01634C30.0524 5.35339 31.1544 6.702 32.0544 8.1662C33.8082 11.0188 34.4383 14.2092 34.5154 17.6296V17.6309Z" fill="white"/>
<path d="M29.7773 17.6527C29.7387 21.4134 28.4979 24.7554 26.2362 27.7351C25.7129 28.4249 24.9337 28.5828 24.3268 28.159C23.707 27.7262 23.5977 26.9016 24.157 26.1772C25.3323 24.6552 26.2786 23.0189 26.7106 21.1347C27.6866 16.8744 26.8521 13.0135 24.1005 9.58031C23.8369 9.2515 23.5887 8.81224 23.5656 8.41151C23.536 7.88363 23.8754 7.44437 24.4245 7.25942C24.9774 7.07318 25.4428 7.26969 25.8196 7.66143C27.1697 9.06655 28.1623 10.699 28.8605 12.5139C29.497 14.1669 29.7876 15.8815 29.776 17.6527H29.7773Z" fill="white"/>
<path d="M24.4026 18.1191C24.3872 24.4691 19.3263 29.4088 12.8613 29.387C6.60202 29.3652 1.48197 24.1968 1.4974 17.92C1.51282 11.5944 6.71131 6.55442 13.1249 6.4979C18.3324 6.45166 24.5466 11.0652 24.4039 18.1203L24.4026 18.1191ZM13.0953 8.55549C7.97011 8.46045 3.5341 12.6745 3.47881 17.6888C3.42095 22.9162 7.66152 27.2575 12.8973 27.332C17.9788 27.4039 22.2412 23.2746 22.3376 18.1858C22.4379 12.8479 18.4134 8.65311 13.0966 8.55549H13.0953Z" fill="#FEBC20"/>
<path d="M13.0953 8.55529C18.4121 8.65419 22.4366 12.8477 22.3363 18.1856C22.2399 23.2744 17.9788 27.405 12.896 27.3318C7.66022 27.2573 3.41965 22.916 3.47751 17.6886C3.5328 12.673 7.9701 8.46024 13.094 8.55529H13.0953ZM12.8716 17.1851C12.9423 17.0734 12.9693 17.013 13.0117 16.9693C13.9169 16.0253 13.9272 14.9194 13.4695 13.811C13.04 12.7745 12.1014 12.4701 11.0534 12.4521C10.2832 12.4393 9.51305 12.4367 8.74286 12.4418C7.87495 12.447 7.81066 12.5266 7.7888 13.4064C7.72194 16.0972 7.65636 18.7893 7.57021 21.4801C7.55093 22.0671 7.81709 22.3047 8.36484 22.3085C9.34847 22.3149 10.3334 22.3509 11.3157 22.3162C12.9474 22.2584 14.0339 21.2206 14.1291 19.7282C14.1998 18.63 13.8269 17.7605 12.8716 17.1864V17.1851ZM17.2587 22.4562C18.4224 22.4447 19.2337 22.0041 19.6297 21.2309C20.2881 19.9491 19.7673 18.6467 18.3426 18.0521C17.9093 17.871 17.4091 17.8029 17.035 17.5447C16.7971 17.3816 16.5901 16.9372 16.639 16.6688C16.6762 16.4646 17.1507 16.1897 17.4091 16.2102C17.782 16.2398 18.1935 16.4414 18.4854 16.6893C18.9405 17.0772 19.2016 16.8447 19.5037 16.5313C19.8547 16.1679 19.7596 15.8493 19.4356 15.5347C18.8788 14.9952 18.1793 14.8128 17.44 14.773C16.1851 14.7062 15.2709 15.4358 15.06 16.6328C14.8491 17.8324 15.4303 18.702 16.6904 19.0834C17.0787 19.2016 17.5172 19.2568 17.8309 19.4829C18.0765 19.6601 18.3041 20.0698 18.2771 20.3511C18.2552 20.5874 17.8888 20.9034 17.6162 20.983C16.9643 21.1718 16.4011 20.9021 15.9575 20.3986C15.5126 19.8939 15.2631 20.3575 14.9648 20.5951C14.6164 20.8726 14.619 21.1436 14.9443 21.4454C15.6335 22.0838 16.4435 22.4164 17.2574 22.4537L17.2587 22.4562Z" fill="#E67C02"/>
<path d="M12.8716 17.1855C13.8269 17.7596 14.1998 18.6304 14.1291 19.7273C14.0339 21.2198 12.9474 22.2575 11.3157 22.3153C10.3334 22.35 9.34847 22.3153 8.36483 22.3076C7.81708 22.3038 7.55221 22.0662 7.57021 21.4792C7.65636 18.7884 7.72193 16.0976 7.7888 13.4055C7.81065 12.5257 7.87366 12.4461 8.74286 12.441C9.51305 12.4358 10.2832 12.4384 11.0534 12.4512C12.1014 12.4692 13.0413 12.7749 13.4695 13.8101C13.9285 14.9185 13.9169 16.0244 13.0117 16.9684C12.9693 17.0134 12.9423 17.0737 12.8716 17.1842V17.1855ZM9.10031 19.5745C9.10031 19.7016 9.12603 19.92 9.09517 20.1293C9.00645 20.7343 9.27518 20.9398 9.8525 20.8871C10.363 20.8396 10.8786 20.8486 11.389 20.801C12.1065 20.7343 12.5051 20.304 12.5553 19.5911C12.6221 18.6356 12.0216 17.9844 10.9904 17.9818C8.84058 17.9754 9.20446 17.662 9.09903 19.5757L9.10031 19.5745ZM9.23918 15.3C9.22761 16.7308 9.07331 16.5099 10.4465 16.5253C10.5751 16.5266 10.7037 16.5279 10.831 16.5189C11.6848 16.4598 12.2647 15.8754 12.2531 15.0868C12.2428 14.3919 11.7401 13.9964 10.8194 13.9578C10.7551 13.9553 10.6908 13.9527 10.6266 13.954C9.15046 13.9822 9.29318 13.6277 9.23918 15.2987V15.3Z" fill="#FEBC20"/>
<path d="M17.26 22.4564C16.4474 22.4191 15.636 22.0865 14.9469 21.4481C14.6215 21.1463 14.619 20.874 14.9674 20.5978C15.2657 20.3602 15.5152 19.8966 15.9601 20.4013C16.405 20.9061 16.9681 21.1745 17.6187 20.9857C17.8913 20.9074 18.2578 20.5901 18.2796 20.3538C18.3054 20.0712 18.0791 19.6628 17.8335 19.4856C17.521 19.2595 17.0813 19.2043 16.693 19.0861C15.4329 18.7034 14.8517 17.8338 15.0626 16.6355C15.2734 15.4385 16.1877 14.7089 17.4426 14.7757C18.1806 14.8155 18.8814 14.9979 19.4382 15.5374C19.7622 15.8507 19.8573 16.1706 19.5063 16.534C19.2028 16.8474 18.9431 17.0786 18.4879 16.692C18.1961 16.4428 17.7846 16.2412 17.4117 16.2129C17.1533 16.1924 16.6788 16.466 16.6415 16.6715C16.5927 16.9399 16.7997 17.3843 17.0376 17.5474C17.4117 17.8056 17.9119 17.8737 18.3452 18.0548C19.7699 18.6494 20.2906 19.9518 19.6323 21.2336C19.235 22.0055 18.4249 22.4474 17.2613 22.4589L17.26 22.4564Z" fill="#FEBC20"/>
<path d="M9.10032 19.5742C9.20575 17.6605 8.84187 17.9739 10.9917 17.9803C12.0217 17.9829 12.6234 18.6341 12.5565 19.5896C12.5064 20.3038 12.1078 20.7327 11.3903 20.7995C10.8799 20.8471 10.3643 20.8381 9.85379 20.8856C9.27647 20.9395 9.00774 20.734 9.09646 20.1278C9.12732 19.9184 9.1016 19.7014 9.1016 19.5729L9.10032 19.5742Z" fill="#E67C02"/>
<path d="M9.23919 15.2996C9.29319 13.6286 9.15047 13.9831 10.6266 13.9548C10.6909 13.9548 10.7551 13.9548 10.8194 13.9587C11.7401 13.9972 12.2441 14.3928 12.2531 15.0877C12.2647 15.8763 11.6848 16.4607 10.831 16.5198C10.7037 16.5288 10.5739 16.5275 10.4466 16.5262C9.07332 16.5108 9.22762 16.7317 9.23919 15.3009V15.2996Z" fill="#E67C02"/>
<path d="M91.1304 24.0889H84.1627C84.1074 24.0979 83.8721 24.1454 83.7075 24.3406C83.5609 24.5153 83.5622 24.699 83.5648 24.7529V27.2433C83.6098 27.3191 83.6972 27.4398 83.8502 27.5503C84.0084 27.6646 84.1678 27.7173 84.2617 27.7417H91.1304V24.0889Z" fill="#FE5200"/>
<path d="M88.9266 27.7431C88.4328 27.7431 87.9404 27.7496 87.4479 27.7431C87.021 27.7354 86.7446 27.5261 86.7317 27.0855C86.7099 26.3175 86.6661 25.543 86.7446 24.7826C86.769 24.545 87.1445 24.1764 87.3823 24.1584C88.4251 24.0762 89.4769 24.0942 90.5248 24.0865C90.9504 24.0826 91.1266 24.3087 91.1176 24.7377C91.1022 25.5301 91.1021 26.3226 91.1291 27.1138C91.1433 27.5184 90.9466 27.6404 90.5943 27.6558C90.0375 27.6802 89.482 27.7136 88.9253 27.7444L88.9266 27.7431Z" fill="#FDBA21"/>
</svg>
