<svg width="78" height="40" viewBox="0 0 78 40" fill="none" xmlns="http://www.w3.org/2000/svg">
<path d="M42.1659 39.998C41.8569 39.0945 41.5478 38.1911 41.2388 37.2886C41.6445 37.1331 41.8095 37.2952 41.9033 37.6791C42.0171 38.1456 42.1991 38.5959 42.3811 39.1391C42.5831 38.5399 42.7537 38.0375 42.9206 37.5341C42.9699 37.3852 42.9926 37.244 43.2125 37.2326C43.459 37.2203 43.4894 37.3777 43.5444 37.5426C43.7122 38.0451 43.8828 38.5466 44.0857 39.1467C44.2734 38.5674 44.4478 38.101 44.572 37.6213C44.664 37.2668 44.8384 37.1549 45.2081 37.2914C44.9209 38.119 44.626 38.9428 44.3549 39.7733C44.3132 39.9003 44.1568 39.871 44.152 39.998H43.8676C43.6676 39.396 43.4666 38.795 43.2429 38.1238C42.8912 38.7836 42.8694 39.4756 42.4475 39.998H42.1631H42.1659Z" fill="#63C7A5"/>
<path d="M48.3198 39.9981C48.3245 39.1838 48.3388 38.3704 48.3293 37.556C48.3264 37.3162 48.3833 37.2195 48.6383 37.2356C48.9825 37.2565 49.3285 37.2309 49.6726 37.2489C50.0585 37.2688 50.3827 37.4148 50.4983 37.8196C50.6131 38.2206 50.5239 38.577 50.1476 38.796C49.9589 38.906 49.958 38.9894 50.0793 39.1421C50.2253 39.325 50.3343 39.5412 50.4974 39.7061C50.6917 39.9024 50.4054 39.8948 50.4016 39.9991H50.0234C49.9343 39.6398 49.6499 39.4018 49.465 39.1023C49.3399 38.9003 49.1228 38.9563 48.954 38.9923C48.772 39.0311 48.8516 39.2236 48.8441 39.3525C48.8289 39.5943 48.9133 39.8683 48.6033 40H48.3188L48.3198 39.9981ZM49.1759 38.5789C49.4072 38.5609 49.5352 38.5685 49.6546 38.5391C49.8859 38.4804 50.0518 38.3514 50.0338 38.0803C50.0168 37.83 49.8518 37.7324 49.63 37.7011C49.5219 37.6859 49.41 37.6982 49.3029 37.6812C48.937 37.6233 48.8213 37.7608 48.8279 38.1372C48.8346 38.4889 48.9256 38.6377 49.1759 38.5789Z" fill="#63C7A5"/>
<path d="M57.9751 39.998C57.8974 39.8368 57.7144 39.851 57.5873 39.7685C57.0593 39.4282 56.8204 38.7779 57.0128 38.1654C57.2043 37.5549 57.7646 37.1558 58.4007 37.1776C59.053 37.2004 59.5687 37.6175 59.7242 38.2498C59.8711 38.8452 59.5924 39.4728 59.0786 39.7875C58.907 39.8927 58.6804 39.8273 58.5439 39.998H57.976H57.9751ZM59.2322 38.594C59.2388 38.064 58.8387 37.6355 58.3429 37.6402C57.8699 37.645 57.4745 38.0621 57.4679 38.5636C57.4603 39.0917 57.8566 39.5107 58.3638 39.5088C58.852 39.5069 59.2265 39.1125 59.2322 38.594Z" fill="#63C7A5"/>
<path d="M34.1193 39.9981C34.0482 39.8293 33.8623 39.8398 33.7372 39.7554C33.2215 39.4122 32.9864 38.7401 33.1826 38.1286C33.3646 37.5626 33.959 37.154 34.5648 37.1777C35.2228 37.2033 35.7536 37.6337 35.8949 38.2547C36.0362 38.8794 35.7318 39.5137 35.1886 39.8189C35.0246 39.9109 34.8132 39.8322 34.6871 39.9981H34.1193ZM35.4057 38.5827C35.4057 38.0651 34.9867 37.6299 34.4966 37.6404C34.0197 37.6508 33.6339 38.067 33.632 38.5732C33.6301 39.0994 34.0358 39.5174 34.5402 39.508C35.0246 39.4985 35.4048 39.0918 35.4057 38.5818V38.5827Z" fill="#63C7A5"/>
<path d="M74.2582 39.9981C73.9501 39.2994 73.3614 38.8084 72.913 38.103C72.8116 38.5941 72.8978 38.9989 72.8438 39.3914C72.8191 39.5715 73.0599 39.9081 72.622 39.9185C72.1337 39.9308 72.3897 39.5535 72.3783 39.3715C72.3413 38.7913 72.3556 38.2083 72.3717 37.6262C72.3755 37.4982 72.2428 37.2887 72.4978 37.2451C72.6902 37.2119 72.8533 37.2479 72.986 37.4356C73.2676 37.8328 73.5747 38.2121 73.879 38.5922C73.9719 38.7079 74.0298 38.8643 74.2421 38.9382C74.2421 38.4661 74.2421 38.0177 74.2421 37.5693C74.2421 37.3996 74.1976 37.2252 74.4848 37.2337C74.774 37.2422 74.7152 37.4271 74.7152 37.5892C74.718 38.2661 74.7048 38.943 74.7237 39.6189C74.7285 39.799 74.628 39.8853 74.5417 39.9991H74.2573L74.2582 39.9981Z" fill="#63C7A5"/>
<path d="M69.9991 39.9982C69.9706 39.8627 69.837 39.8665 69.7488 39.8153C69.1317 39.455 68.8671 38.7781 69.0918 38.1155C69.2966 37.5106 69.9394 37.1096 70.5764 37.1893C71.2457 37.2727 71.7406 37.7457 71.807 38.3638C71.8894 39.1374 71.5358 39.6873 70.8087 39.9101C70.749 39.9281 70.6845 39.9243 70.6627 39.9982H70H69.9991ZM70.4039 39.5091C70.895 39.5214 71.2874 39.1365 71.3074 38.6217C71.3273 38.0994 70.9338 37.6538 70.4399 37.6386C69.9688 37.6244 69.5535 38.032 69.5279 38.5335C69.5023 39.0398 69.9119 39.4958 70.4048 39.5081L70.4039 39.5091Z" fill="#63C7A5"/>
<path d="M63.2773 39.9983C63.0299 39.7499 62.6658 39.6115 62.591 39.2029C62.4791 38.5933 62.5549 37.9809 62.5426 37.3704C62.5388 37.1741 62.7275 37.2585 62.8365 37.2433C62.992 37.2215 63.0128 37.3192 63.0119 37.4462C63.0071 37.7761 63.0033 38.106 63.0128 38.4359C63.0195 38.6388 63.0337 38.8445 63.0773 39.0417C63.155 39.3897 63.411 39.5252 63.7447 39.5034C64.0566 39.4835 64.2983 39.3309 64.3201 38.9924C64.3524 38.507 64.3562 38.0207 64.3619 37.5344C64.3637 37.3637 64.3571 37.2329 64.5979 37.2329C64.8292 37.2329 64.8482 37.3438 64.8434 37.5249C64.834 37.8387 64.8406 38.1534 64.8406 38.4672C64.8406 39.4883 64.7259 39.6646 63.8452 39.9964H63.2773V39.9983Z" fill="#63C7A5"/>
<path d="M45.1011 39.998C45.4016 39.1078 45.832 38.2726 46.1998 37.4109C46.3231 37.1227 46.6738 37.1075 46.8028 37.3853C47.1516 38.137 47.4702 38.9021 47.8134 39.6567C47.8797 39.8027 47.8001 39.889 47.7527 39.9971H47.3744C47.3337 39.7373 47.291 39.397 47.0521 39.3287C46.7203 39.2348 46.3411 39.2747 45.9856 39.3041C45.7609 39.323 45.7988 39.5998 45.6822 39.7345C45.5959 39.833 45.486 39.9098 45.3864 39.9971H45.102L45.1011 39.998ZM46.4634 37.8697C46.3771 38.2299 46.1429 38.484 46.1344 38.8225H46.9108C46.7885 38.4869 46.6843 38.1835 46.4634 37.8697Z" fill="#63C7A5"/>
<path d="M55.2309 39.9983C55.0574 39.9054 54.8754 39.8239 54.7133 39.7139C54.6185 39.6495 54.3985 39.621 54.5407 39.4162C54.6403 39.2731 54.7332 39.1347 54.9484 39.3044C55.1598 39.4722 55.4195 39.5603 55.6992 39.5148C55.8604 39.4883 56.0083 39.4172 56.0348 39.2333C56.0623 39.0408 55.9258 38.9498 55.7713 38.8977C55.5343 38.8161 55.2878 38.7602 55.0536 38.673C54.7028 38.5431 54.5312 38.2862 54.5692 37.907C54.6071 37.5287 54.8299 37.3145 55.192 37.2396C55.5589 37.1637 55.9154 37.2026 56.2415 37.3903C56.3296 37.4415 56.5079 37.4832 56.3808 37.6633C56.2917 37.7904 56.2282 37.9506 56.0215 37.816C55.8348 37.6956 55.6281 37.6169 55.3987 37.6396C55.2195 37.6567 55.1114 37.7676 55.0726 37.9326C55.0299 38.1127 55.1683 38.1829 55.3029 38.2312C55.5238 38.3108 55.7504 38.3744 55.9732 38.4493C56.3382 38.5725 56.5733 38.8095 56.5363 39.2143C56.4993 39.6201 56.2775 39.8779 55.8471 39.912C55.7807 39.9168 55.7248 39.9253 55.7049 40.0002H55.2318L55.2309 39.9983Z" fill="#63C7A5"/>
<path d="M75.9631 39.9981C75.8398 39.8151 75.5876 39.8635 75.4483 39.7146C75.3696 39.6303 75.1345 39.6198 75.2852 39.4132C75.3895 39.27 75.4815 39.1316 75.6929 39.307C75.9033 39.4805 76.164 39.5582 76.4428 39.5137C76.6039 39.4881 76.7537 39.416 76.785 39.2387C76.8182 39.0482 76.6741 38.9524 76.5233 38.8984C76.2882 38.8131 76.0408 38.7628 75.8066 38.6756C75.4834 38.5552 75.2862 38.3277 75.3032 37.9646C75.3203 37.5911 75.5222 37.3455 75.8787 37.2517C76.256 37.1522 76.6286 37.191 76.9727 37.3844C77.0808 37.4451 77.2571 37.4878 77.1102 37.6916C77.0078 37.8338 76.9338 37.9371 76.749 37.8053C76.5802 37.6849 76.3859 37.6262 76.1726 37.6366C75.9943 37.6451 75.8749 37.7314 75.8275 37.9011C75.7706 38.1049 75.9185 38.1808 76.0673 38.2338C76.2731 38.3078 76.4864 38.3609 76.694 38.431C77.0722 38.559 77.3244 38.796 77.2827 39.2245C77.2429 39.6369 77.0049 39.8758 76.5831 39.9128C76.5186 39.9185 76.4598 39.9242 76.4361 39.9962H75.9631V39.9981Z" fill="#63C7A5"/>
<path d="M31.374 39.9981C31.1882 39.8938 30.9976 39.798 30.8203 39.6824C30.7265 39.6217 30.5701 39.5554 30.7142 39.3961C30.8137 39.2861 30.882 39.125 31.0848 39.288C31.3105 39.4691 31.5816 39.5658 31.8793 39.5127C32.0395 39.4843 32.1836 39.4056 32.2063 39.2217C32.2281 39.0491 32.0973 38.9638 31.9655 38.9145C31.7314 38.8273 31.4858 38.7685 31.2498 38.6851C30.9009 38.5618 30.7028 38.322 30.7293 37.939C30.7568 37.5408 30.9853 37.3104 31.3711 37.2356C31.7048 37.1711 32.0357 37.1919 32.3353 37.356C32.4405 37.4138 32.6879 37.4299 32.5382 37.6754C32.4377 37.8404 32.3372 37.9542 32.1419 37.7882C32.085 37.7399 32.0035 37.7143 31.9286 37.6934C31.6641 37.6186 31.3655 37.5323 31.2669 37.8963C31.1749 38.2386 31.5039 38.231 31.7058 38.3097C31.8518 38.3665 32.0063 38.4007 32.1552 38.4519C32.523 38.5789 32.7391 38.8216 32.6984 39.2283C32.6595 39.6198 32.4396 39.8559 32.0423 39.9128C31.9684 39.9232 31.8821 39.8976 31.848 39.9971H31.3749L31.374 39.9981Z" fill="#63C7A5"/>
<path d="M36.4855 39.998C36.4798 39.1742 36.4817 38.3503 36.4646 37.5275C36.4599 37.3066 36.513 37.2269 36.7481 37.2355C37.2344 37.2535 37.7227 37.2421 38.2099 37.2402C38.3559 37.2402 38.4792 37.2231 38.482 37.4459C38.4849 37.6829 38.3616 37.6905 38.1881 37.6858C37.9208 37.6791 37.6525 37.7 37.3871 37.6801C37.0932 37.6573 36.951 37.6972 36.9434 38.064C36.9358 38.4688 37.1633 38.3911 37.388 38.3921C37.6079 38.3921 37.8279 38.3987 38.0478 38.3902C38.209 38.3845 38.3171 38.3987 38.3066 38.6092C38.2981 38.7817 38.2573 38.8803 38.0649 38.8509C38.0497 38.8481 38.0336 38.849 38.0175 38.8509C37.6677 38.8945 37.1889 38.6784 37.0003 38.9514C36.8325 39.195 36.9614 39.6425 36.9595 39.9999H36.4864L36.4855 39.998Z" fill="#63C7A5"/>
<path d="M66.1169 39.9981C66.1169 39.3875 66.0922 38.7751 66.1254 38.1665C66.1463 37.7854 66.0581 37.6024 65.6495 37.682C65.5888 37.6934 65.5234 37.6792 65.4608 37.6839C65.2798 37.6991 65.2674 37.5891 65.2608 37.4479C65.2532 37.2782 65.3234 37.2365 65.4807 37.2384C66.0638 37.245 66.6468 37.2441 67.2308 37.2384C67.3806 37.2365 67.464 37.263 67.4631 37.4412C67.4631 37.6204 67.4071 37.7228 67.2194 37.682C66.5966 37.5446 66.5805 37.9134 66.5994 38.3703C66.6222 38.9116 66.5947 39.4558 66.5899 39.999H66.1169V39.9981Z" fill="#63C7A5"/>
<path d="M39.6104 39.9979C39.6104 39.3561 39.5962 38.7134 39.6161 38.0725C39.6255 37.7805 39.5658 37.6478 39.2369 37.6724C39.0804 37.6838 38.7856 37.8298 38.7761 37.4714C38.7657 37.0581 39.0909 37.26 39.2596 37.2506C39.7308 37.2231 40.2048 37.242 40.6779 37.2401C40.821 37.2401 40.9556 37.2145 40.9585 37.4411C40.9613 37.6734 40.8428 37.7151 40.6655 37.681C40.1574 37.5814 40.0635 37.8251 40.091 38.2763C40.1252 38.848 40.0901 39.4244 40.0844 39.9979H39.6113H39.6104Z" fill="#63C7A5"/>
<path d="M68.0109 39.9982C67.9009 39.1383 67.9929 38.2756 67.9625 37.4139C67.9549 37.21 68.1019 37.2451 68.2223 37.2413C68.3389 37.2375 68.4403 37.247 68.4394 37.411C68.4356 38.196 68.4318 38.9819 68.4413 39.7668C68.4432 39.9546 68.2204 39.8607 68.2005 39.9982H68.0109Z" fill="#63C7A5"/>
<path d="M26.3105 14.1921C24.0258 14.1504 21.7391 14.0973 19.4705 14.4632C17.8001 14.7324 16.179 15.1619 14.6347 15.8653C14.4925 15.9298 14.3143 16.1052 14.1702 15.907C14.027 15.7098 14.2536 15.597 14.3541 15.4833C16.7412 12.7767 19.2838 10.2256 22.0662 7.92186C25.2762 5.26362 28.7071 2.94571 32.5504 1.28762C34.307 0.530157 36.114 -0.0604592 38.0697 0.0049542C38.4034 0.0163304 38.7305 0.0599399 39.0519 0.132937C39.4974 0.233427 39.6709 0.528259 39.56 0.980464C39.4017 1.62607 39.0149 2.13895 38.5779 2.62149C37.3085 4.01982 35.9945 5.37643 34.7886 6.83449C33.4633 8.43759 32.8272 10.3109 32.4413 12.2932C32.3418 12.8061 32.3655 13.3351 31.9104 13.6925C31.5464 13.9788 31.1852 14.2196 30.66 14.2053C29.2105 14.1665 27.76 14.1921 26.3095 14.1921H26.3105Z" fill="#63C7A5"/>
<path d="M34.1042 24.4495V24.9538C34.1042 28.0254 34.0986 31.097 34.1118 34.1695C34.1128 34.5042 34.0597 34.6341 33.6843 34.6208C32.7865 34.5895 31.8859 34.6018 30.9872 34.616C30.7217 34.6198 30.6079 34.5876 30.6089 34.27C30.6203 29.1659 30.6203 24.0627 30.6089 18.9585C30.6089 18.6391 30.7264 18.6106 30.99 18.6135C32.0148 18.6267 33.0415 18.6315 34.0663 18.6106C34.363 18.604 34.5138 18.7168 34.6598 18.9538C35.8562 20.8944 37.063 22.8274 38.2679 24.7633C38.376 24.9368 38.485 25.1084 38.6253 25.3321C38.8879 24.9169 39.1287 24.5386 39.3667 24.1575C40.4484 22.4226 41.5339 20.6915 42.6023 18.9491C42.753 18.7026 42.9094 18.6068 43.1986 18.6116C44.2234 18.6296 45.2492 18.6296 46.2749 18.6116C46.565 18.6068 46.6418 18.6789 46.6418 18.9747C46.6323 24.0627 46.6314 29.1507 46.6418 34.2387C46.6418 34.562 46.5404 34.6227 46.2455 34.617C45.362 34.599 44.4784 34.5895 43.5958 34.6198C43.2138 34.6331 43.1009 34.5497 43.1038 34.1439C43.1237 31.0411 43.1152 27.9372 43.1152 24.8344C43.1152 24.678 43.1152 24.5215 43.1152 24.3651C42.9701 24.33 42.9616 24.4523 42.918 24.5177C41.5566 26.5787 40.1924 28.6369 38.8453 30.7064C38.6206 31.0515 38.5163 31.006 38.3134 30.695C36.9483 28.6018 35.5689 26.5171 34.1952 24.4305L34.1071 24.4495H34.1042Z" fill="#63C7A5"/>
<path d="M20.6355 15.0017C22.7468 14.96 24.713 15.5061 26.537 16.5318C27.905 17.3016 28.214 17.6135 27.8092 19.557C27.5731 20.6908 26.9304 21.6312 26.2251 22.529C24.7338 24.4288 23.1364 26.2263 21.2044 27.6976C20.4876 28.2427 19.7198 28.6949 18.8817 29.0391C18.0361 29.386 17.2521 29.2893 16.4927 28.8277C15.339 28.1261 14.5445 27.0824 13.915 25.9324C12.4209 23.2021 12.1811 20.3704 13.3794 17.4562C13.6069 16.9025 13.9605 16.5546 14.5398 16.329C16.506 15.563 18.5167 15.0416 20.6365 15.0017H20.6355Z" fill="#63C7A5"/>
<path d="M48.5547 26.6908C48.5812 21.8805 52.1335 18.3662 56.8631 18.3454C59.1071 18.3349 61.1188 18.9113 62.8271 20.4177C63.1381 20.6917 63.2433 20.8699 62.9011 21.2197C62.319 21.8161 61.7777 22.455 61.2591 23.1082C61.0211 23.4078 60.8808 23.349 60.6381 23.1348C59.4579 22.0967 58.1069 21.4928 56.5 21.6236C54.5632 21.781 53.0284 23.1073 52.47 25.0791C51.8386 27.307 52.6644 29.7387 54.4438 30.8962C56.0128 31.9163 58.196 31.8442 59.8788 30.7018C60.2172 30.4724 60.5405 30.2165 60.841 29.9396C61.042 29.7538 61.1491 29.7851 61.3264 29.97C61.9047 30.5729 62.4934 31.1664 63.1002 31.7409C63.3191 31.9485 63.3191 32.0556 63.1068 32.2784C61.2667 34.2105 58.9801 35.0049 56.3635 34.8703C52.5184 34.6731 49.6079 32.2007 48.7538 28.4806C48.6116 27.8625 48.5898 27.2349 48.5556 26.6908H48.5547Z" fill="#63C7A5"/>
<path d="M75.1267 23.3934C75.1267 24.8571 75.1475 26.3218 75.1144 27.7846C75.1039 28.2236 75.2423 28.3146 75.6386 28.2842C76.0775 28.2501 76.5212 28.2842 76.962 28.2729C77.1782 28.2681 77.3043 28.2833 77.2957 28.5658C77.273 29.3365 77.2787 30.1082 77.2938 30.8799C77.2986 31.1198 77.2066 31.17 76.9914 31.1643C76.5184 31.152 76.0444 31.1814 75.5732 31.1539C75.2319 31.134 75.1058 31.2184 75.1181 31.589C75.1475 32.4849 75.1172 33.3836 75.1343 34.2805C75.139 34.5516 75.0565 34.6208 74.793 34.6161C73.8942 34.6009 72.9955 34.5952 72.0978 34.618C71.784 34.6265 71.7404 34.508 71.7441 34.2378C71.7593 33.341 71.7366 32.4432 71.7565 31.5464C71.7641 31.2307 71.6588 31.1529 71.3564 31.1548C69.5912 31.1681 67.825 31.1548 66.0598 31.1681C65.765 31.17 65.5659 31.0894 65.3706 30.8657C64.8027 30.2135 64.2159 29.5764 63.6206 28.9479C63.4281 28.745 63.3845 28.6236 63.595 28.3819C66.3622 25.1994 69.1191 22.0065 71.8683 18.8088C72.0731 18.5708 72.2836 18.476 72.5955 18.4855C73.3197 18.5064 74.0459 18.5073 74.7702 18.4855C75.0717 18.476 75.1362 18.5765 75.1343 18.8609C75.121 20.3721 75.1276 21.8832 75.1276 23.3944L75.1267 23.3934ZM67.5596 28.2767C68.9228 28.2767 70.1685 28.2691 71.4142 28.2823C71.6806 28.2852 71.7574 28.215 71.7546 27.9439C71.7403 26.5579 71.7489 25.1719 71.7451 23.7859C71.7451 23.7015 71.7878 23.5953 71.638 23.5043C70.3013 25.0686 68.9617 26.6347 67.5586 28.2757L67.5596 28.2767Z" fill="#63C7A5"/>
<path d="M0.217062 23.6069C0.145012 21.9109 1.13854 20.487 2.45344 19.2631C3.96743 17.8524 5.81512 17.1471 7.85526 16.8115C9.37588 16.5612 10.8804 16.5214 12.4029 16.6503C13.0002 16.7006 13.0191 16.7015 12.9054 17.2978C12.8447 17.6201 12.7546 17.9415 12.6409 18.2496C11.4473 21.4596 9.95038 24.4904 7.46088 26.9297C6.74987 27.6265 5.97723 28.2465 5.13254 28.7755C4.31061 29.2903 3.49342 29.2694 2.70656 28.7129C1.02193 27.5222 0.224646 25.8812 0.217062 23.6078V23.6069Z" fill="#63C7A5"/>
<path d="M13.1386 15.9836C12.6428 15.9163 12.2228 15.8528 11.8029 15.8025C10.1381 15.6025 8.53883 15.9485 6.9746 16.4519C5.32883 16.9818 3.70393 17.5791 2.06954 18.1432C1.77281 18.2456 1.47608 18.3508 1.15565 18.3669C0.736626 18.3887 0.348886 18.3252 0.146958 17.9128C-0.0568661 17.4976 -0.0739304 17.1117 0.257876 16.6946C1.17746 15.539 1.21727 13.8221 0.385859 12.4816C-0.14598 11.6227 -0.111851 10.7884 0.410507 9.95418C1.34525 8.4601 3.17019 7.8126 4.95816 8.22309C6.36407 8.54637 7.44197 9.37304 8.45256 10.3012C10.2083 11.9128 11.673 13.7785 13.0135 15.7418C13.0476 15.7911 13.0704 15.849 13.1405 15.9836H13.1386Z" fill="#63C7A5"/>
<path d="M51.0803 38.578C51.0803 38.2794 51.1022 37.9789 51.0747 37.6821C51.0434 37.3494 51.1202 37.1996 51.4975 37.2318C51.9355 37.2688 52.3782 37.2404 52.819 37.2404C52.9612 37.2404 53.1025 37.2157 53.1063 37.4404C53.1101 37.6717 52.9859 37.6897 52.8067 37.6859C52.4919 37.6783 52.1763 37.6964 51.8625 37.6802C51.6141 37.6679 51.5837 37.7959 51.5837 37.9978C51.5837 38.2111 51.5999 38.3723 51.8795 38.3457C52.0511 38.3296 52.2312 38.3164 52.3971 38.3505C52.5763 38.3865 52.8911 38.1685 52.9072 38.5562C52.9242 38.962 52.5972 38.7401 52.4237 38.7809C52.2891 38.8122 52.1402 38.7989 51.9999 38.7847C51.7203 38.7562 51.5752 38.8141 51.5762 39.1535C51.5762 39.4976 51.7591 39.4881 51.9952 39.4815C52.2625 39.4729 52.5308 39.4815 52.7982 39.4786C52.9679 39.4767 53.1053 39.4834 53.1053 39.7185C53.1053 39.9441 52.9631 39.9214 52.8219 39.9214C52.3336 39.9214 51.8454 39.9109 51.3581 39.9261C51.1145 39.9337 51.0709 39.8266 51.0785 39.617C51.0917 39.272 51.0822 38.9259 51.0822 38.5799L51.0803 38.578Z" fill="#63C7A5"/>
<path d="M62.0612 39.9235C61.5038 39.9235 60.9463 39.9235 60.3908 39.9235C60.2334 39.8277 60.2979 39.6713 60.297 39.5405C60.2903 38.8655 60.2988 38.1905 60.2913 37.5164C60.2894 37.3221 60.3377 37.2368 60.5539 37.2358C60.7785 37.2358 60.807 37.3411 60.8041 37.525C60.7966 38.0587 60.8203 38.5934 60.7937 39.1252C60.7795 39.4258 60.8828 39.5101 61.1653 39.4826C61.3985 39.4608 61.6365 39.4779 61.8726 39.4779C62.2812 39.4789 62.2925 39.6504 62.0622 39.9235H62.0612Z" fill="#63C7A5"/>
</svg>
