<svg width="151" height="40" viewBox="0 0 151 40" fill="none" xmlns="http://www.w3.org/2000/svg">
<path d="M39.5755 20.5581C39.5133 22.2364 38.6459 23.5922 37.7445 24.9047C35.3704 28.3612 32.2439 31.0521 28.8194 33.4093C24.7312 36.2227 20.3243 38.3479 15.4441 39.4002C13.2623 39.8697 11.0428 40.2431 8.83465 39.8056C5.52334 39.1513 3.70738 36.7432 2.43075 33.8524C1.11075 30.8636 0.648765 27.6767 0.367793 24.454C0.343279 24.1768 0.58841 23.7167 0.00195312 23.6903V23.1246C0.454524 22.7588 0.454524 22.54 0.00195312 22.1817V18.2255C0.418696 17.9785 0.418696 17.7409 0.00195312 17.4712V17.0941C0.533724 17.0092 0.343283 16.5793 0.371569 16.2776C0.724197 12.5627 1.27293 8.88556 2.84185 5.45734C3.90539 3.13225 5.28949 1.06551 7.94457 0.284828C8.60269 0.0924852 9.27023 -0.0715711 9.96983 0.0321431C10.8769 0.373457 11.7914 0.690257 12.6871 1.05797C17.1714 2.90408 20.9051 5.64025 23.0623 10.1207C24.3314 12.7588 24.6878 15.4988 23.4376 18.284C23.0133 18.0822 22.5928 17.871 22.1629 17.6824C19.949 16.7113 17.7126 15.8212 15.2781 15.5497C14.6841 15.4837 14.4107 15.5384 14.2674 16.238C14.0166 17.458 14.0656 18.6781 14.0977 19.8868C14.1901 23.4414 15.5044 26.4529 18.7874 28.101C23.6337 30.5317 28.5403 30.3035 33.264 27.6673C34.8971 26.7565 36.3283 25.5176 37.3183 23.8676C38.1066 22.7889 39.0079 21.7895 39.5774 20.56L39.5755 20.5581Z" fill="#63C7A5"/>
<path d="M150.82 24.0673C150.697 23.9825 150.601 24.024 150.488 24.1051C149.603 24.7368 149.132 24.7537 148.549 23.8807C148.115 23.232 147.823 23.462 147.376 23.7373C145.119 25.1252 142.194 24.7707 140.403 22.9114C139.383 21.8497 138.957 20.592 139.134 19.1324C139.305 17.72 140.448 16.6904 141.872 16.6829C143.599 16.6735 145.325 16.6584 147.052 16.6904C147.833 16.7055 147.799 16.3812 147.516 15.8551C146.284 13.5545 143.218 13.1924 141.523 15.163C141.042 15.7212 140.514 15.8004 139.967 15.3629C139.27 14.8047 139.577 14.1843 140.001 13.6337C141.382 11.8423 144.269 11.2049 146.509 12.2439C149.026 13.4112 150.141 15.4704 150.128 18.1971C150.122 19.4511 150.128 20.707 150.128 21.961C150.128 22.4494 150.182 22.9001 150.82 22.9378V24.0673ZM144.699 18.8006C143.854 18.8006 143.009 18.8213 142.166 18.7949C141.465 18.7723 141.219 19.1343 141.216 19.7698C141.214 20.2224 141.357 20.6278 141.591 21.005C142.289 22.1269 143.852 22.687 145.302 22.3438C146.611 22.0327 147.84 20.7108 147.982 19.5096C148.044 18.974 147.863 18.776 147.323 18.7949C146.448 18.8251 145.574 18.8024 144.699 18.8024V18.8006Z" fill="#63C7A5"/>
<path d="M0 22.1836C0.452571 22.54 0.452571 22.7606 0 23.1265V22.1836Z" fill="#63C7A5"/>
<path d="M0 17.4731C0.416743 17.7428 0.416743 17.9785 0 18.2274V17.4731Z" fill="#63C7A5"/>
<path d="M23.4355 18.2838C24.6857 15.5005 24.3293 12.7587 23.0603 10.1206C20.9049 5.64014 17.1693 2.90397 12.6851 1.05786C11.7894 0.690142 10.8748 0.371456 9.96777 0.032028C18.4195 -0.0283148 25.4966 3.42631 31.8213 8.68556C34.3972 10.8277 36.8033 13.1773 38.508 16.119C39.2963 17.4805 39.8959 18.9174 39.5735 20.558C39.0059 21.7856 38.1026 22.7869 37.3144 23.8656C37.1258 23.9693 36.9108 24.0428 36.7505 24.1786C34.1973 26.3679 31.2725 27.6766 27.8971 27.8727C24.3671 28.0782 21.0935 27.4013 18.4459 24.8461C17.4522 23.8863 17.4823 23.792 18.6722 23.1358C20.7465 21.993 22.5379 20.5788 23.4336 18.282L23.4355 18.2838Z" fill="#63C7A5"/>
<path d="M130.774 14.8349C130.774 16.5301 130.75 18.2254 130.782 19.9206C130.832 22.5682 129.496 23.9221 126.842 24.4614C122.89 25.2629 119.684 21.8252 119.843 18.429C119.933 16.4886 120.237 14.7368 121.687 13.3866C123.446 11.7498 125.534 11.335 127.795 12.1194C128.549 12.3816 128.641 12.1553 128.605 11.5047C128.57 10.8164 128.59 10.1244 128.6 9.43419C128.611 8.55544 129.081 7.88036 129.701 7.96521C130.536 8.08024 130.785 8.68367 130.778 9.47002C130.759 11.2596 130.772 13.0491 130.774 14.8368V14.8349ZM128.602 18.1877C128.602 17.4051 128.594 16.6206 128.604 15.8381C128.611 15.2874 128.392 14.8556 127.942 14.5652C126.95 13.926 125.882 13.6733 124.725 14.0429C122.756 14.6708 121.975 15.9512 121.985 18.5101C121.994 20.6429 123.388 22.2061 125.492 22.4418C127.391 22.6549 128.602 21.5838 128.598 19.6925C128.598 19.1909 128.598 18.6893 128.598 18.1877H128.602Z" fill="#63C7A5"/>
<path d="M70.2864 18.8006C69.3756 18.8006 68.4648 18.8213 67.5559 18.793C67.0788 18.7779 66.9676 18.9439 67.0562 19.3964C67.3428 20.8635 68.2178 21.8215 69.6151 22.2439C71.0294 22.67 72.3494 22.489 73.3413 21.252C73.7712 20.7164 74.2445 20.4543 74.8668 20.8937C75.5155 21.3519 75.4589 21.8893 75.0459 22.5154C73.5657 24.7556 69.8187 25.2723 67.3899 23.5356C65.0366 21.8516 64.486 19.4455 64.9065 16.781C65.2893 14.3503 66.7469 12.7361 69.1267 11.9837C71.1934 11.3294 73.8579 12.1251 75.1402 13.8487C75.9322 14.9122 76.0661 16.1021 75.5438 17.3146C75.0195 18.5328 73.9183 18.7779 72.7359 18.8006C71.9194 18.8175 71.1029 18.8043 70.2883 18.8043L70.2864 18.8006ZM70.2751 16.6772C71.0256 16.6772 71.7761 16.6886 72.5266 16.6735C72.9547 16.664 73.4789 16.7338 73.6543 16.2266C73.8315 15.7155 73.5958 15.2554 73.2206 14.8726C71.5913 13.2113 68.3856 13.777 67.3843 15.8984C67.1486 16.3982 67.1146 16.715 67.8331 16.6867C68.6458 16.6546 69.4605 16.6791 70.2732 16.6791L70.2751 16.6772Z" fill="#63C7A5"/>
<path d="M111.791 18.8027C110.85 18.8027 109.907 18.8102 108.966 18.7989C108.579 18.7952 108.406 18.8668 108.502 19.3345C108.808 20.8279 109.677 21.8557 111.104 22.2686C112.5 22.6722 113.831 22.4666 114.825 21.224C115.24 20.7035 115.768 20.4395 116.369 20.9015C116.952 21.3484 116.865 21.9292 116.53 22.493C115.634 23.9997 113.367 24.82 111.774 24.5617C106.543 23.7169 104.414 17.9202 107.769 13.7697C110.182 10.7846 115.445 11.2372 117.026 14.5636C118.006 16.6304 116.807 18.6782 114.523 18.7914C113.614 18.8366 112.703 18.7989 111.793 18.7989V18.8046L111.791 18.8027ZM111.7 16.6794C112.451 16.6794 113.201 16.6869 113.95 16.6775C114.412 16.6718 114.963 16.7435 115.145 16.1816C115.317 15.6573 115.038 15.2048 114.666 14.8389C112.967 13.1682 109.762 13.8244 108.809 16.0175C108.579 16.5474 108.755 16.6869 109.262 16.6813C110.075 16.67 110.888 16.6775 111.7 16.6813V16.6794Z" fill="#63C7A5"/>
<path d="M57.0181 18.797C56.3902 18.797 55.7604 18.8234 55.1343 18.7913C53.5673 18.714 52.4245 17.9088 52.0229 16.6379C51.6043 15.3103 52.1172 13.7848 53.2901 12.8664C55.8943 10.8299 59.6638 11.3051 61.6721 13.9206C62.251 14.673 62.2868 15.3518 61.7136 15.7403C61.0328 16.2004 60.5463 15.942 60.0466 15.3254C58.6059 13.5491 56.5147 13.221 54.7855 14.4184C54.2669 14.7786 53.8747 15.2274 54.0085 15.8949C54.1424 16.57 54.7798 16.6096 55.2814 16.6416C56.377 16.7095 57.4783 16.6794 58.5776 16.6775C60.4256 16.6737 61.6306 17.3978 62.1699 18.8479C62.6979 20.2735 62.1812 22.1517 60.9668 23.2133C58.357 25.4951 53.7068 24.8332 51.8381 21.9311C51.4553 21.339 51.41 20.7789 51.9795 20.3546C52.5829 19.9058 53.1242 20.0906 53.5937 20.6922C54.942 22.427 56.9371 22.9229 58.8624 22.0385C59.6619 21.6708 60.1805 21.0881 60.1993 20.1641C60.2182 19.2873 59.7751 18.8196 58.902 18.8008C58.274 18.7876 57.6461 18.7989 57.0181 18.7989V18.797Z" fill="#63C7A5"/>
<path d="M98.5642 16.6773C99.1205 16.6773 99.5297 16.6961 99.937 16.6735C101.466 16.5868 102.651 17.1412 103.307 18.563C103.995 20.0527 103.708 21.4764 102.701 22.6965C100.346 25.5533 94.97 25.063 93.1031 21.8517C92.7656 21.2728 92.7618 20.6788 93.3766 20.2865C93.9385 19.9282 94.4722 20.1074 94.8399 20.6392C96.1731 22.5701 98.2285 22.7172 99.92 22.1421C100.567 21.9214 101.076 21.5047 101.361 20.8692C101.894 19.6774 101.327 18.8062 100.022 18.8006C98.8904 18.7949 97.7608 18.8176 96.6294 18.7949C94.9021 18.761 93.7047 17.9784 93.32 16.6678C92.8882 15.1989 93.4577 13.6752 94.7946 12.7154C97.4931 10.7806 101.427 11.4708 103.105 14.1523C103.49 14.767 103.59 15.329 102.937 15.7759C102.283 16.2228 101.787 15.9211 101.351 15.346C100.12 13.7261 98.1889 13.2547 96.5219 14.1617C96.1976 14.3371 95.8865 14.5804 95.647 14.8576C95.0567 15.5383 95.3226 16.3228 96.1844 16.5622C97.0198 16.7942 97.8721 16.6094 98.5661 16.6754L98.5642 16.6773Z" fill="#63C7A5"/>
<path d="M80.4935 20.3717C80.4935 21.4937 80.4765 22.4346 80.4992 23.3756C80.5161 24.0997 80.1597 24.5693 79.4809 24.5862C78.7964 24.6032 78.3947 24.1224 78.3966 23.4209C78.3966 21.2561 78.3155 19.0856 78.4607 16.9302C78.6587 13.9904 81.4118 11.7257 84.5101 11.7747C87.4688 11.8218 89.9221 14.1978 90.1917 17.1245C90.3237 18.5652 90.2804 19.9983 90.3124 21.4352C90.3237 21.9972 90.303 22.5365 90.6669 23.0418C91.0309 23.5453 90.7839 23.9979 90.3464 24.3468C89.9145 24.6918 89.5016 24.624 89.0773 24.2883C87.976 23.4209 88.1608 22.1857 88.1174 21.0185C88.0628 19.5552 88.1608 18.0711 87.9402 16.6361C87.6988 15.0577 86.0055 13.8999 84.3291 13.8924C82.647 13.8848 81.1328 15.0257 80.6953 16.6229C80.3389 17.9202 80.5746 19.244 80.4973 20.3736L80.4935 20.3717Z" fill="#63C7A5"/>
<path d="M136.277 18.1611C136.277 19.8243 136.266 21.4856 136.283 23.1488C136.29 23.9088 135.998 24.4613 135.238 24.5914C134.631 24.6951 134.122 23.9955 134.12 23.1394C134.112 19.8149 134.114 16.4904 134.12 13.164C134.12 12.2796 134.602 11.5762 135.195 11.6724C136.002 11.8025 136.3 12.3682 136.286 13.1734C136.26 14.8347 136.279 16.4979 136.279 18.1611H136.277Z" fill="#63C7A5"/>
<path d="M134.136 9.34921C134.051 8.66281 134.255 8.03864 135.145 7.95189C135.813 7.88778 136.294 8.57606 136.295 9.48875C136.297 10.4712 135.898 11.0577 135.215 11.0671C134.44 11.0784 134.138 10.6239 134.138 9.35109L134.136 9.34921Z" fill="#63C7A5"/>
</svg>
