<svg width="51" height="50" viewBox="0 0 51 50" fill="none" xmlns="http://www.w3.org/2000/svg">
<path d="M0.00159554 42.1246V41.2054C0.00159554 29.7456 0.00159554 18.2857 0.00159554 6.82584C0.00319109 2.64349 2.66616 0 6.86882 0C19.2295 0 31.5918 0 43.9525 0C48.3945 0 51 2.57375 51 6.96213C51 18.3427 51 29.7234 51 41.104C51 41.4162 51 41.7284 51 42.1167C50.6027 42.1389 50.2692 42.1753 49.9342 42.1753C45.6805 42.1785 41.4267 42.1611 37.1746 42.2007C36.6959 42.2054 36.1279 42.4099 35.7594 42.711C33.3357 44.6841 30.9584 46.7158 28.5571 48.7175C26.5084 50.4259 24.5235 50.4291 22.4589 48.7175C20.0767 46.7396 17.7042 44.7538 15.346 42.7475C14.8737 42.3449 14.3966 42.1642 13.768 42.1674C9.54136 42.1896 5.31476 42.1801 1.08816 42.1769C0.751502 42.1769 0.414842 42.1468 0 42.1262L0.00159554 42.1246ZM38.2532 19.0163H12.7819V23.2002H38.2532V19.0163ZM38.2564 27.4523H12.7739V31.6442H38.2564V27.4523ZM25.4968 10.5803H12.7404V14.7563H25.4968V10.5803Z" fill="#028484"/>
</svg>
