<svg width="40" height="36" viewBox="0 0 40 36" fill="none" xmlns="http://www.w3.org/2000/svg">
<path d="M9.85298 22.8685C9.85298 21.2163 9.89257 19.6073 9.84578 18.0019C9.76299 15.2482 8.47075 13.2289 5.98706 12.0374C5.38233 11.7458 4.65882 11.7026 4.0145 11.4867C3.75894 11.4003 3.37378 11.1627 3.35578 10.9647C2.89504 5.47182 6.29662 1.49071 10.5657 0.364047C11.4224 0.137275 12.3331 0.0400865 13.2186 0.0328874C17.5488 0.000491387 21.8791 -0.0211059 26.2093 0.0328874C31.1047 0.0868807 34.8519 3.1933 35.849 7.98431C36.0325 8.877 35.9605 9.82008 36.0361 10.738C36.0793 11.2707 35.8418 11.4543 35.3486 11.5083C33.0305 11.753 31.2811 12.9337 30.2912 15.0106C29.8233 15.9897 29.6181 17.1488 29.5281 18.2466C29.4022 19.7656 29.4957 21.3027 29.4957 22.8721H9.86018L9.85298 22.8685Z" fill="#E47D07"/>
<path d="M6.48019 32.688C6.48019 33.2855 6.50899 33.8471 6.47299 34.405C6.4154 35.3769 5.81787 35.9816 4.94678 35.996C4.05409 36.014 3.39177 35.3877 3.34138 34.3978C3.29458 33.5015 3.35938 32.6016 3.29819 31.7089C3.27659 31.3958 3.11461 31.007 2.88784 30.8018C1.00527 29.11 0.0513891 27.0043 0.0189931 24.4918C-0.00980332 22.3897 -0.00260421 20.2875 0.0189931 18.1854C0.0369909 16.2488 1.38682 14.8198 3.165 14.8018C5.03677 14.7838 6.4118 16.1085 6.47299 18.099C6.53059 19.9672 6.48739 21.8425 6.49819 23.7143C6.49819 24.1247 6.51259 24.5386 6.59178 24.9382C6.72136 25.6005 7.14251 26.036 7.80483 26.1764C8.17558 26.2556 8.56793 26.2736 8.94949 26.2736C16.1018 26.2772 23.2541 26.2772 30.4064 26.2736C32.3142 26.2736 32.8505 25.7265 32.8541 23.7899C32.8541 21.9433 32.8253 20.0968 32.8649 18.2538C32.9081 16.31 34.1428 14.899 35.7914 14.809C37.7099 14.7046 39.2325 15.9645 39.2973 17.883C39.3765 20.2659 39.3837 22.6524 39.2865 25.0318C39.1929 27.3355 38.1887 29.2576 36.4537 30.8018C36.2233 31.007 36.0649 31.3994 36.0433 31.7161C35.9857 32.5836 36.0433 33.4583 36.0109 34.3294C35.9713 35.3625 35.3774 35.9816 34.4775 35.9996C33.556 36.0176 32.9189 35.3697 32.8613 34.3258C32.8325 33.7931 32.8577 33.2567 32.8577 32.6916H6.47659L6.48019 32.688Z" fill="#E47D07"/>
</svg>
