<svg width="101" height="100" viewBox="0 0 101 100" fill="none" xmlns="http://www.w3.org/2000/svg">
<path d="M100.028 99.996H0.0880652C0.103728 95.6809 -0.698998 91.3423 2.25735 87.595C4.13297 85.2182 6.54502 83.7616 9.57968 83.6832C14.1415 83.5658 18.715 83.4796 23.2729 83.6441C28.1636 83.8164 31.4724 86.6122 32.9251 91.3619C33.0543 91.7887 33.2031 92.2116 33.442 92.9399C34.3543 88.3782 36.6215 85.2691 40.9327 84.0356C42.1035 83.7028 43.3722 83.6167 44.5978 83.5971C48.2511 83.5423 51.9044 83.5462 55.5578 83.5853C61.8033 83.6519 65.5389 86.8119 66.7371 93.3119C67.4341 90.1246 68.3738 87.3601 70.9582 85.8016C72.5793 84.8266 74.4823 83.8869 76.311 83.7733C80.9863 83.4796 85.7008 83.4796 90.384 83.6911C95.584 83.926 99.4527 87.6694 99.9852 92.8029C100.224 95.1131 100.024 97.4704 100.024 99.9999L100.028 99.996Z" fill="#E47D07"/>
<path d="M3.70225 11.3487C5.45257 9.30474 7.12851 7.34298 8.93756 5.23242C12.4656 8.24751 15.8722 11.153 19.275 14.0701C24.8626 18.863 30.4308 23.6832 36.0577 28.429C36.6372 28.9185 37.5691 29.2239 38.3366 29.2278C46.1641 29.2865 53.9915 29.2904 61.819 29.22C62.6295 29.2121 63.5928 28.801 64.2232 28.2684C72.6772 21.1066 81.0803 13.8861 89.4991 6.68514C89.9924 6.26225 90.4976 5.85502 91.1985 5.27549C92.9527 7.31557 94.6678 9.30866 96.4846 11.4231C91.6018 15.6129 86.8638 19.6853 82.1219 23.7497C77.4191 27.779 72.6733 31.7573 68.0528 35.8766C67.301 36.5462 66.7253 37.8227 66.7019 38.833C66.5765 44.8318 66.6392 50.8346 66.6392 56.8374C66.6392 57.5422 66.6392 58.2431 66.6392 59.6253C62.3907 53.4229 57.1593 49.9575 50.0876 49.9771C43.0628 49.9966 37.8236 53.3524 33.6338 59.4805C33.5751 58.3801 33.5046 57.7223 33.5046 57.0645C33.4968 51.1283 33.4302 45.1921 33.5438 39.2559C33.5751 37.5643 32.9838 36.4914 31.7504 35.442C23.0145 28.0296 14.3255 20.5702 5.62485 13.1186C4.9905 12.5783 4.39532 11.9948 3.69441 11.3487H3.70225Z" fill="#E47D07"/>
<path d="M49.9036 79.0863C44.1397 78.957 39.6875 74.3443 39.801 68.6196C39.9146 62.8596 44.5429 58.3996 50.2638 58.5406C56.0551 58.6816 60.4642 63.2551 60.3467 68.9955C60.2253 74.7555 55.6126 79.2155 49.9036 79.0863Z" fill="#E47D07"/>
<path d="M50.0015 20.6171C44.3002 20.5858 39.7306 15.9496 39.7932 10.2679C39.8559 4.55493 44.5312 -0.0773353 50.1581 0.000978578C55.8711 0.0832082 60.3781 4.68415 60.3546 10.4089C60.3311 16.1297 55.7458 20.6524 50.0054 20.6171H50.0015Z" fill="#E47D07"/>
<path d="M16.8433 79.0666C11.189 79.2193 6.49411 74.7319 6.30224 68.9954C6.1182 63.439 10.7505 58.6854 16.4792 58.5522C22.0904 58.4191 26.7853 62.8595 26.9419 68.4433C27.1064 74.3207 22.7482 78.906 16.8433 79.0666Z" fill="#E47D07"/>
<path d="M83.3906 79.0901C77.6893 79.047 73.1824 74.4578 73.202 68.7213C73.2215 63.0201 77.8029 58.5327 83.5903 58.5445C89.2367 58.5562 93.916 63.2824 93.8416 68.9054C93.7711 74.5714 89.0879 79.1332 83.3906 79.0901Z" fill="#E47D07"/>
</svg>
