<svg width="40" height="40" viewBox="0 0 40 40" fill="none" xmlns="http://www.w3.org/2000/svg">
<path d="M23.1921 40V26.0581H27.8229C28.1253 24.0572 28.4135 22.1525 28.7127 20.1768H23.0761C23.178 18.4584 23.1513 16.7809 23.4161 15.1524C23.6025 14.0083 24.6067 13.4592 25.7409 13.3913C26.7733 13.3298 27.8135 13.3787 28.9446 13.3787C28.9446 11.6697 28.954 10.1264 28.9258 8.58623C28.9227 8.45683 28.6767 8.23591 28.5247 8.21855C26.532 7.98027 24.5378 7.65046 22.531 8.06706C19.0515 8.78822 16.9507 11.4077 16.8567 15.1729C16.816 16.7983 16.8505 18.4236 16.8505 20.1358H11.8186V26.0124H16.78V39.9937C6.90417 38.4598 -0.366398 29.5251 0.0142841 19.4604C0.438831 8.24853 9.53448 -0.0455743 20.0589 0.000188445C30.5598 0.0459512 38.869 8.10493 39.8888 18.0134C41.0481 29.282 32.9801 38.5245 23.1921 40Z" fill="#FEBC20"/>
</svg>
