<svg width="55" height="50" viewBox="0 0 55 50" fill="none" xmlns="http://www.w3.org/2000/svg">
<path d="M27.5745 49.9617C24.2351 49.9617 20.8892 49.8532 17.5541 49.9872C12.8889 50.1744 9.3274 48.2959 6.44719 44.8047C2.10962 39.5456 -0.233781 33.5461 0.0184529 26.7765C0.400038 16.5519 5.03079 8.559 14.1759 3.65092C24.5455 -1.91454 34.8052 -1.06356 44.2823 5.83796C50.6916 10.5056 54.1862 17.0327 54.8804 24.8916C55.635 33.4121 52.8065 40.6944 46.7356 46.762C44.6164 48.8788 41.9928 49.917 38.994 49.9468C35.1868 49.9851 31.3795 49.9553 27.5723 49.9553V49.9617H27.5745ZM48.2943 27.3105C48.2426 26.785 48.1757 25.9021 48.0636 25.0256C46.6365 13.7756 35.8077 4.2615 22.6872 7.41229C21.2794 7.75056 20.4343 8.7994 20.6154 10.0716C20.7943 11.3353 21.758 12.0672 23.2757 11.9587C24.345 11.8821 25.3992 11.5736 26.4664 11.5247C32.5006 11.2481 37.375 13.4437 40.6971 18.4794C44.0344 23.5406 44.5862 28.9614 41.844 34.4269C40.9623 36.1863 39.423 37.6373 38.123 39.1776C37.224 40.2455 37.1421 41.622 38.0454 42.5304C38.9487 43.4346 40.2983 43.458 41.3352 42.5432C45.828 38.5776 48.1779 33.6376 48.2921 27.3084L48.2943 27.3105ZM23.1938 26.9765C22.8036 29.7146 24.8495 31.8803 27.4559 31.9229C30.1011 31.9676 32.2246 29.8167 32.1449 27.1744C32.0651 24.6171 29.8122 22.5407 27.2338 22.7875C26.475 22.8599 26.0524 22.6301 25.576 22.1514C23.1377 19.7027 20.6801 17.271 18.2138 14.8499C17.8387 14.4819 17.4248 14.1032 16.9548 13.8883C15.9329 13.4224 14.7256 13.8266 14.1134 14.7372C13.4731 15.6882 13.5938 16.82 14.5036 17.7284C17.0777 20.2941 19.6884 22.8237 22.2452 25.4064C22.6656 25.8298 22.8834 26.4489 23.196 26.9765H23.1938ZM6.77488 26.5191C6.8374 31.808 8.1848 35.9183 10.9335 39.5414C11.7657 40.6391 12.7423 41.6497 13.762 42.5879C14.786 43.5282 16.1097 43.4197 17.0389 42.4815C17.871 41.6433 17.912 40.3838 17.1057 39.3924C16.7931 39.0074 16.4201 38.6691 16.0687 38.3159C14.0315 36.2757 12.7035 33.8525 12.0006 31.0804C11.3604 28.5572 11.4315 26.0447 11.9748 23.5151C12.3025 21.9918 11.5544 20.8366 10.1402 20.5388C8.81215 20.2601 7.69541 21.0281 7.39575 22.5535C7.09178 24.1108 6.90207 25.6894 6.77488 26.5191Z" fill="#E47D07"/>
</svg>
