<svg width="51" height="50" viewBox="0 0 51 50" fill="none" xmlns="http://www.w3.org/2000/svg">
<path d="M49.9902 49.998H37.5839V48.9841C37.5839 34.2171 37.5839 19.4502 37.5839 4.68318C37.5839 1.70787 39.2673 0.0264222 42.2504 0.0127201C43.4249 0.0068478 44.5993 -0.0166415 45.7699 0.0205499C48.2911 0.102763 50.0234 1.79987 50.0273 4.3054C50.0469 19.366 50.0371 34.4266 50.0352 49.4872C50.0352 49.6418 50.0078 49.7984 49.9882 50L49.9902 49.998Z" fill="#E47D07"/>
<path d="M31.1849 50H18.7924C18.7924 49.6026 18.7924 49.2542 18.7924 48.9038C18.7924 38.3434 18.7924 27.7849 18.7924 17.2245C18.7924 14.2335 20.4621 12.554 23.4433 12.5403C24.649 12.5345 25.8568 12.5051 27.0606 12.5521C29.4878 12.6499 31.2221 14.3157 31.23 16.7156C31.2633 27.6655 31.2437 38.6174 31.2417 49.5674C31.2417 49.6907 31.2104 49.816 31.1849 49.998V50Z" fill="#E47D07"/>
<path d="M0.000869976 49.9962V48.9979C0.000869976 42.5794 -0.00108747 36.161 0.000869976 29.7425C0.000869976 26.7633 1.6784 25.0818 4.65959 25.0681C5.86538 25.0623 7.07116 25.0309 8.27499 25.0818C10.7003 25.1817 12.4248 26.8474 12.4385 29.2473C12.4796 36.0239 12.4522 42.8006 12.4502 49.5773C12.4502 49.7006 12.4169 49.8239 12.3915 49.9962H0.000869976Z" fill="#E47D07"/>
</svg>
