<svg width="51" height="50" viewBox="0 0 51 50" fill="none" xmlns="http://www.w3.org/2000/svg">
<path d="M0.0482951 4.15857C0.883484 4.15857 1.6287 4.16835 2.37196 4.15857C4.50198 4.12728 4.18121 4.4461 4.21251 2.27109C4.22229 1.53174 4.21251 0.79435 4.21251 0.00610352H8.24763C8.24763 1.0232 8.29849 2.05007 8.23199 3.06911C8.17722 3.92191 8.44909 4.23877 9.32535 4.17814C10.3561 4.10772 11.3947 4.16053 12.5233 4.16053V0.00805988H16.5917V4.14488C17.9335 4.14488 19.1637 4.17618 20.3882 4.11163C20.572 4.10185 20.8654 3.64612 20.8772 3.38598C20.9319 2.28674 20.9006 1.18358 20.9006 0.0178387H24.9494V4.14097C26.301 4.14097 27.5587 4.1664 28.8144 4.10772C28.9709 4.0999 29.2232 3.65785 29.233 3.40749C29.278 2.30434 29.2525 1.19923 29.2525 0.0256627H33.2896C33.2896 0.890191 33.2837 1.75276 33.2896 2.61533C33.3033 4.31114 33.1233 4.14684 34.7918 4.15857C35.6602 4.16444 36.5267 4.15857 37.4949 4.15857V5.35952C37.4949 17.9421 37.4949 30.5247 37.4949 43.1073C37.4949 47.3576 34.9287 49.9629 30.7038 49.9707C22.6864 49.9825 14.669 49.9825 6.65157 49.9707C2.7299 49.9649 0.0170114 47.3243 0.0111436 43.4476C-0.00841588 30.6362 0.00331407 17.8267 0.00527001 5.01528C0.00527001 4.7923 0.0248199 4.56737 0.0443794 4.16053L0.0482951 4.15857ZM8.26326 18.6952H29.2564C29.2564 17.6585 29.1997 16.6532 29.274 15.6576C29.3425 14.7324 29.0608 14.4214 28.0926 14.4351C23.9539 14.4879 19.8131 14.4566 15.6743 14.4566C13.4896 14.4566 11.3067 14.439 9.12193 14.4801C8.83245 14.486 8.31413 14.7852 8.3024 14.975C8.22807 16.1994 8.26326 17.4297 8.26326 18.6952ZM29.2408 22.8652H8.24958C8.24958 23.9136 8.30433 24.919 8.23392 25.9126C8.16742 26.8319 8.44126 27.1527 9.41336 27.1351C12.803 27.0764 16.1927 27.1116 19.5823 27.1116C22.5162 27.1116 25.4502 27.1253 28.3821 27.0881C28.6696 27.0842 29.1899 26.783 29.1997 26.5952C29.274 25.3708 29.2388 24.1405 29.2388 22.8633L29.2408 22.8652ZM8.25154 31.2445C8.25154 32.3653 8.29651 33.4332 8.23588 34.4972C8.19089 35.2894 8.50777 35.487 9.24907 35.4811C12.7932 35.4517 16.3394 35.4694 19.8835 35.4635C20.1965 35.4635 20.5114 35.4146 20.8165 35.3892V31.2445H8.25154Z" fill="#E47D07"/>
<path d="M45.8663 49.9981C44.5402 48.6484 43.2982 47.4475 42.1461 46.1644C41.8684 45.8554 41.7941 45.2764 41.7941 44.8226C41.7726 37.7793 41.7784 30.7379 41.7784 23.6945C41.7784 17.3044 41.7726 10.9143 41.7823 4.52428C41.7862 2.12237 42.9344 0.55175 44.9666 0.105794C47.4878 -0.447738 49.7587 1.22655 49.9973 3.826C50.0306 4.18198 50.0208 4.54188 50.0208 4.90177C50.0208 18.2042 50.0169 31.5065 50.0345 44.8089C50.0345 45.5092 49.876 46.0236 49.3479 46.5184C48.1861 47.6059 47.0927 48.7658 45.8663 50V49.9981Z" fill="#E47D07"/>
</svg>
