<svg width="40" height="40" viewBox="0 0 40 40" fill="none" xmlns="http://www.w3.org/2000/svg">
<path d="M19.9664 39.9641C14.6611 39.9641 9.3539 39.8715 4.05229 39.9974C0.785067 40.0751 -0.0146082 38.415 0.000200717 35.9814C0.0649899 25.1899 0.0279607 14.3966 0.0279607 3.60332C0.0279607 1.08451 1.10902 0 3.62099 0C14.5389 0 25.4568 0 36.3765 0C39.0051 0 39.9992 0.995678 39.9992 3.63663C39.9992 14.5521 40.001 25.4675 39.9992 36.3848C39.9992 38.9702 39.0125 39.9604 36.4358 39.9622C30.9454 39.9659 25.4549 39.9622 19.9664 39.9622V39.9641ZM21.3306 14.9333C19.5054 14.9333 17.8154 14.9444 16.1253 14.9278C15.5015 14.9222 15.544 15.3312 15.544 15.7384C15.544 21.5958 15.5533 27.4552 15.5311 33.3126C15.5274 34.0307 15.8088 34.2047 16.4604 34.1899C17.8783 34.1566 19.2981 34.1473 20.7161 34.1936C21.425 34.2176 21.612 33.9511 21.6046 33.283C21.5768 30.6014 21.5694 27.9178 21.6046 25.2362C21.6176 24.2257 21.6787 23.1986 21.8767 22.2103C22.1951 20.6242 23.4094 19.784 25.131 19.7951C26.7118 19.8062 27.543 20.4928 27.9428 22.1733C28.0558 22.647 28.1039 23.1467 28.1076 23.6353C28.1261 26.8426 28.1391 30.048 28.1187 33.2553C28.115 33.9067 28.2631 34.2158 28.9887 34.1936C30.4678 34.151 31.9487 34.1603 33.4296 34.1899C34.0441 34.2028 34.2311 33.9548 34.2237 33.3682C34.1996 31.5489 34.2533 29.7297 34.207 27.9104C34.1404 25.2954 34.1367 22.6693 33.8757 20.0709C33.6295 17.6224 32.454 15.6384 29.9198 14.9C27.2227 14.1135 24.6108 14.1708 22.4043 16.2547C22.06 16.5804 21.7675 16.958 21.3325 17.4429V14.9333H21.3306ZM5.89045 14.9703C5.89045 15.4089 5.89045 15.7421 5.89045 16.0771C5.89045 18.5422 5.89045 21.0073 5.89045 23.4725C5.89045 26.7389 5.88676 30.0054 5.89601 33.2719C5.89601 33.6365 5.73126 34.1603 6.3773 34.1658C8.18584 34.1806 9.99624 34.1714 11.8307 34.1714V14.9703H5.8923H5.89045ZM8.89112 12.3979C10.7756 12.4108 12.399 10.8266 12.4045 8.9685C12.4082 7.05303 10.8811 5.48918 8.97628 5.45587C7.0252 5.42256 5.40361 7.00676 5.41842 8.93149C5.43323 10.8451 6.97521 12.383 8.89297 12.396L8.89112 12.3979Z" fill="#FEBC20"/>
</svg>
