<svg width="51" height="50" viewBox="0 0 51 50" fill="none" xmlns="http://www.w3.org/2000/svg">
<path d="M31.2574 28.1347C34.7532 24.6213 38.1159 21.239 41.6684 17.6669V22.938C43.0249 22.938 44.2815 22.9595 45.5361 22.9106C45.6927 22.9047 45.9609 22.525 45.9628 22.3175C45.9844 19.6418 46.0568 16.9622 45.9335 14.2924C45.8278 12.0082 44.0349 10.3856 41.735 10.3386C39.1905 10.2877 36.644 10.3406 34.0994 10.3132C33.4809 10.3073 33.3028 10.5578 33.3185 11.1235C33.342 11.9378 33.3654 12.7579 33.3106 13.5702C33.2578 14.3649 33.5181 14.678 34.3519 14.6389C35.677 14.5782 37.008 14.6232 38.2803 14.6232C35.8943 16.9877 33.5259 19.3326 31.0969 21.7381C29.7444 20.3934 28.1589 18.9431 26.7399 17.3439C26.1879 16.7215 26.0822 15.7232 25.6516 14.9638C22.5081 9.43629 16.9767 7.17753 10.8405 8.87454C10.7818 8.8902 10.7132 8.8765 10.6506 8.8765C9.65237 3.59562 12.4005 -0.00195653 17.2566 7.98297e-07C25.8728 0.00391546 34.487 -0.00195686 43.1032 0.0019578C47.4935 0.00391513 50.0595 2.5504 50.0615 6.91329C50.0673 16.7665 50.0634 26.6217 50.0634 36.4749V37.4986C49.6955 37.4986 49.3842 37.4986 49.0711 37.4986C44.0779 37.4986 39.0848 37.4888 34.0916 37.5103C33.4809 37.5123 33.1677 37.3635 32.9759 36.7332C31.6371 32.3488 28.5465 30.002 24.1914 29.2347C25.1172 27.4633 26.0646 25.6489 27.053 23.7581C28.3508 25.1086 29.7424 26.5571 31.2574 28.1327V28.1347Z" fill="#E47D07"/>
<path d="M29.0789 49.9979H0.00468458C0.00468458 48.4927 -0.0070594 47.0345 0.00664191 45.5763C0.0301299 43.3273 -0.0775233 41.0647 0.143655 38.8333C0.448999 35.7486 2.93481 33.5172 6.02152 33.482C11.7311 33.4154 17.4425 33.4037 23.1501 33.4781C26.4991 33.5211 29.0436 36.1361 29.1122 39.4988C29.1807 42.793 29.1376 46.0891 29.1376 49.3833C29.1376 49.5712 29.1004 49.7591 29.075 49.9999L29.0789 49.9979Z" fill="#E47D07"/>
<path d="M22.8624 20.8005C22.88 25.412 19.1787 29.127 14.5633 29.127C10.0458 29.127 6.31512 25.3944 6.27989 20.8397C6.24662 16.3417 10.126 12.5034 14.6651 12.5445C19.1552 12.5856 22.8448 16.3006 22.8624 20.8005Z" fill="#E47D07"/>
</svg>
