<svg width="1919" height="340" viewBox="0 0 1919 340" fill="none" xmlns="http://www.w3.org/2000/svg">
<path d="M1194.33 294.899C1191.49 294.899 1188.83 295.75 1186.62 297.195C1186.56 284.354 1176.15 273.979 1163.3 273.979C1159.61 273.979 1156.13 274.857 1153.03 276.388C1148.89 261.959 1135.59 251.414 1119.85 251.414C1104.11 251.414 1091.17 261.648 1086.83 275.736C1084.11 274.602 1081.11 273.979 1077.99 273.979C1065.7 273.979 1055.66 283.475 1054.76 295.523C1053.48 295.154 1052.18 294.871 1050.76 294.871C1042.93 294.871 1036.6 301.221 1036.6 309.045H1208.57C1208.57 301.221 1202.21 294.871 1194.39 294.871L1194.33 294.899Z" fill="#6FE2BA"/>
<path d="M464.668 244.866C460.981 244.866 457.549 245.971 454.684 247.871C454.628 231.259 441.127 217.794 424.478 217.794C419.685 217.794 415.203 218.928 411.176 220.912C405.787 202.231 388.599 188.539 368.178 188.539C347.757 188.539 331.051 201.806 325.407 220.062C321.861 218.616 318.004 217.794 313.92 217.794C298.008 217.794 284.99 230.097 283.827 245.716C282.182 245.234 280.48 244.894 278.665 244.894C268.539 244.894 260.314 253.115 260.314 263.235H483.047C483.047 253.115 474.822 244.894 464.696 244.894L464.668 244.866Z" fill="#6FE2BA"/>
<path d="M1616.74 171.559C1613.9 171.559 1611.23 172.409 1609.02 173.855C1608.97 161.014 1598.56 150.639 1585.71 150.639C1582.02 150.639 1578.53 151.517 1575.44 153.048C1571.3 138.619 1558 128.074 1542.26 128.074C1526.52 128.074 1513.58 138.307 1509.24 152.396C1506.52 151.262 1503.51 150.639 1500.39 150.639C1488.11 150.639 1478.07 160.135 1477.16 172.183C1475.89 171.814 1474.58 171.531 1473.16 171.531C1465.34 171.531 1459.01 177.881 1459.01 185.704H1630.98C1630.98 177.881 1624.62 171.531 1616.79 171.531L1616.74 171.559Z" fill="#6FE2BA"/>
<path d="M378.473 70.8121C378.53 70.2451 378.558 69.6498 378.558 69.0829C378.558 56.2131 368.121 45.7812 355.244 45.7812C349.855 45.7812 344.92 47.6238 340.978 50.6853C334.851 40.9905 324.074 34.5556 311.764 34.5556C309.58 34.5556 307.453 34.7824 305.382 35.1793C305.382 34.9808 305.411 34.7824 305.411 34.5556C305.411 15.4777 289.925 0 270.836 0C251.748 0 236.262 15.4777 236.262 34.5556C236.262 38.6376 237 42.5496 238.304 46.1781C237.624 46.1214 236.943 46.0647 236.262 46.0647C227.073 46.0647 218.989 50.742 214.224 57.8289C210.821 54.8808 206.396 53.1232 201.546 53.1232C191.392 53.1232 183.054 60.9188 182.174 70.8404H378.445L378.473 70.8121Z" fill="#6FE2BA"/>
<path opacity="0.3" d="M1918.94 334.047C1919 333.48 1919.03 332.885 1919.03 332.318C1919.03 319.448 1908.59 309.016 1895.71 309.016C1890.33 309.016 1885.39 310.859 1881.45 313.92C1875.32 304.225 1864.54 297.79 1852.23 297.79C1850.05 297.79 1847.92 298.017 1845.85 298.414C1845.85 298.216 1845.88 298.017 1845.88 297.79C1845.88 278.713 1830.39 263.235 1811.31 263.235C1792.22 263.235 1776.73 278.713 1776.73 297.79C1776.73 301.872 1777.47 305.784 1778.77 309.413C1778.09 309.356 1777.41 309.3 1776.73 309.3C1767.54 309.3 1759.46 313.977 1754.69 321.064C1751.29 318.116 1746.87 316.358 1742.02 316.358C1731.86 316.358 1723.52 324.154 1722.64 334.075H1918.91L1918.94 334.047Z" fill="#6FE2BA"/>
<path opacity="0.3" d="M852.416 251.414C852.473 250.847 852.501 250.252 852.501 249.685C852.501 236.815 842.064 226.383 829.187 226.383C823.798 226.383 818.863 228.226 814.921 231.287C808.794 221.593 798.016 215.158 785.707 215.158C783.523 215.158 781.396 215.384 779.325 215.781C779.325 215.583 779.354 215.384 779.354 215.158C779.354 196.08 763.867 180.602 744.779 180.602C725.691 180.602 710.205 196.08 710.205 215.158C710.205 219.24 710.942 223.152 712.247 226.78C711.566 226.723 710.886 226.667 710.205 226.667C701.016 226.667 692.932 231.344 688.167 238.431C684.764 235.483 680.339 233.725 675.489 233.725C665.335 233.725 656.996 241.521 656.117 251.442H852.388L852.416 251.414Z" fill="#6FE2BA"/>
<path opacity="0.3" d="M263.717 339.972C263.774 339.206 263.831 338.441 263.831 337.647C263.831 320.355 249.791 306.323 232.49 306.323C225.258 306.323 218.621 308.789 213.317 312.9C205.092 299.888 190.598 291.242 174.063 291.242C171.141 291.242 168.277 291.554 165.469 292.064C165.469 291.781 165.525 291.526 165.525 291.242C165.525 265.616 144.735 244.837 119.095 244.837C93.4555 244.837 72.6372 265.616 72.6372 291.242C72.6372 296.742 73.6299 301.958 75.3884 306.862C74.4808 306.777 73.5732 306.72 72.6372 306.72C60.2994 306.72 49.4364 312.985 43.0548 322.538C38.4883 318.598 32.5322 316.188 26.0087 316.188C12.3662 316.188 1.16288 326.648 0 340H263.717V339.972Z" fill="#6FE2BA"/>
<path opacity="0.3" d="M1453.68 275.623C1453.74 274.999 1453.76 274.347 1453.76 273.695C1453.76 259.408 1442.16 247.814 1427.87 247.814C1421.91 247.814 1416.41 249.855 1412.04 253.257C1405.24 242.513 1393.27 235.341 1379.62 235.341C1377.21 235.341 1374.83 235.596 1372.53 236.021C1372.53 235.795 1372.56 235.568 1372.56 235.341C1372.56 214.165 1355.37 196.987 1334.19 196.987C1313 196.987 1295.81 214.165 1295.81 235.341C1295.81 239.877 1296.63 244.214 1298.08 248.239C1297.32 248.182 1296.58 248.126 1295.81 248.126C1285.63 248.126 1276.64 253.313 1271.36 261.194C1267.59 257.934 1262.66 255.95 1257.3 255.95C1246.01 255.95 1236.76 264.596 1235.8 275.623H1453.68Z" fill="#6FE2BA"/>
</svg>
