<svg width="1920" height="178" viewBox="0 0 1920 178" fill="none" xmlns="http://www.w3.org/2000/svg">
<path d="M1920 171.3C1920.04 176.877 1918.87 178 1913.29 178C1277.76 177.832 642.244 177.832 6.7321 178C1.1446 178 -0.0366459 176.896 0.000854114 171.3C0.300854 127.336 0.169604 83.3719 0.169604 39.4268C2.62585 39.7076 5.13835 39.8011 7.5571 40.3065C19.6321 42.8706 32.0258 50.1885 42.9758 37.4617C44.0633 36.189 46.2758 35.7772 48.0758 35.2531C65.8695 30.0688 87.582 33.2131 92.4383 54.4745C93.3008 58.3113 95.8133 59.9021 99.8445 60.1641C109.688 60.8379 119.701 59.1722 129.338 61.9421C140.794 65.2362 149.626 61.5678 159.282 54.9236C175.557 43.7502 192.601 47.9051 205.351 63.8699C216.169 77.4203 226.238 79.0111 239.044 67.4634C259.988 48.5415 293.194 60.8941 299.682 81.5004C301.426 87.059 320.701 88.7996 324.113 83.6714C336.113 65.6479 354.338 64.3378 372.938 66.2843C380.044 67.0329 384.882 66.1907 389.663 61.4181C396.713 54.3622 404.794 50.6751 415.013 54.1001C424.913 57.4316 434.7 62.0732 444.882 63.2523C455.307 64.4501 464.419 66.1533 470.982 74.8936C472.519 76.9337 474.769 76.7839 476.944 76.7839C486.394 76.8401 495.469 78.6929 504.207 82.2864C506.063 83.035 507.975 84.9441 509.85 82.0431C519.132 67.7254 532.332 67.2762 546.844 71.9177C549.938 72.9097 552.694 73.6958 555.413 70.851C563.625 62.2416 574.95 61.0063 585.6 60.4823C593.4 60.108 595.95 57.2445 598.444 50.6751C602.907 38.8654 608.775 35.5526 620.944 37.8172C642.413 41.7663 665.344 35.0847 685.706 46.7822C699.975 44.293 709.35 52.6028 717.881 61.9234C722.55 67.0329 726.281 67.5008 732.338 63.9448C743.194 57.5439 755.588 57.7498 767.794 58.1989C775.519 58.4797 778.013 65.6666 782.606 70.0087C786.806 73.9952 790.313 74.1076 794.7 70.1585C804.675 61.1187 820.256 58.985 831.994 65.442C836.213 67.7441 839.119 66.8832 843.206 65.5918C854.813 61.9422 864.731 54.8114 876.038 50.6751C892.463 44.686 906.394 56.9263 922.444 57.207C935.456 57.4129 948.356 65.4046 957.675 76.1663C960.056 78.8988 961.931 77.5326 964.237 76.6342C973.256 73.0969 982.331 70.9258 992.287 72.4605C996.169 73.0594 1001.27 72.2733 1004.23 68.5301C1017.54 51.6858 1033.5 53.3328 1050.43 67.2575C1054.39 70.5141 1057.18 70.6264 1062.04 69.3162C1073.61 66.172 1085.57 59.6588 1097.21 69.99C1100.12 72.5728 1104.54 71.6558 1108.11 70.7387C1112.76 69.5409 1117.07 69.2039 1121.85 70.4205C1131.96 72.9659 1140.39 71.8991 1146.96 61.6053C1152.39 53.1082 1162.29 51.6296 1172.1 52.9772C1175.46 53.4451 1178.68 54.8862 1182.02 55.5787C1188.52 56.945 1193.55 56.5145 1197.51 49.2714C1201.91 41.1674 1208.83 34.8227 1219.74 38.884C1222.12 39.7637 1222.5 37.7424 1223.87 36.582C1234.27 27.6919 1246.48 27.7855 1258.09 35.5152C1263.54 39.1461 1264.52 45.21 1267.86 49.9452C1269.96 52.8836 1270.82 54.5306 1274.89 51.8729C1286.47 44.3304 1302.94 43.8812 1312.03 54.1937C1321.11 64.5062 1331.1 63.7763 1342.16 63.7763C1347.75 63.7763 1353.39 63.8512 1358.91 64.6747C1362.43 65.1987 1364.96 63.9448 1365.77 61.3245C1369.44 49.4025 1379.25 47.7929 1389.39 47.0442C1393.07 46.7635 1396.97 43.7689 1400.74 47.8864C1406.89 54.5867 1416.34 56.945 1422.49 63.8512C1424.55 66.1719 1427.64 66.2094 1430.25 64.525C1439.68 58.4984 1449.71 59.3032 1460.02 61.3245C1466.68 62.6347 1472.36 61.755 1477.82 56.2338C1494.15 39.7076 1516.14 35.3842 1534.76 45.9961C1543.16 50.7874 1546.8 52.1163 1553.94 43.3572C1565.31 29.4325 1587.41 30.78 1600.69 43.4695C1604.04 46.6699 1606.57 53.5387 1612.2 51.2553C1625.12 46.0336 1636.71 49.889 1648.29 54.6616C1652.47 56.3835 1655.19 55.9156 1658.08 52.5654C1674.79 33.2318 1688.42 31.772 1708.22 47.2501C1711.61 49.9078 1714.16 50.9559 1717.87 47.5495C1724.61 41.3733 1732.44 39.7637 1741.31 43.0016C1746.24 44.7983 1751.49 45.8277 1756.61 47.1565C1758.34 47.6244 1760.81 49.1591 1761.73 47.1565C1767.02 35.5713 1779.9 32.2399 1787.32 23.6492C1799.49 9.59354 1813.11 10.3235 1828.67 14.2913C1835.83 16.1067 1840.11 21.6279 1845.96 25.0342C1850.51 27.6732 1853.66 28.5902 1857.36 22.8632C1864.5 11.802 1875.26 4.85839 1887.88 1.24621C1895.55 -0.962277 1902.64 -0.513107 1909.82 4.85838C1913.91 7.90909 1914.56 13.7298 1919.83 15.096C1919.83 67.1639 1919.74 119.232 1920 171.3Z" fill="#009083"/>
</svg>
