<svg width="1920" height="538" viewBox="0 0 1920 538" fill="none" xmlns="http://www.w3.org/2000/svg">
<path d="M1920 333.503V429.007C1910.34 429.044 1900.65 428.857 1890.99 429.232C1884.84 429.457 1881.39 427.883 1882.31 420.951C1883.56 411.622 1879.32 407.838 1869.99 408.362C1861.9 408.812 1853.73 408.756 1845.66 408.175C1836.94 407.557 1833.21 410.292 1833.68 419.659C1834.34 433.016 1833.7 446.448 1833.64 459.843C1833.6 464.395 1833.27 468.854 1831.54 473.031C1831.13 473.987 1830.66 474.923 1830.1 475.86C1816.43 479.944 1802.42 476.759 1788.6 477.696C1786.74 477.808 1784.85 477.733 1782.99 477.583C1779.45 477.302 1779.48 474.698 1779.58 472.113C1779.54 468.348 1779.52 464.582 1779.48 460.817C1779.48 452.106 1779.46 443.394 1779.46 434.683C1779.48 433.409 1779.48 432.135 1779.48 430.843C1779.48 424.642 1779.48 418.441 1779.48 412.24C1778.97 395.905 1770.52 387.73 1754.13 387.718C1738.9 387.718 1723.65 387.999 1708.45 387.699C1701.26 387.568 1698.62 390.097 1698.58 397.459C1698.53 408.531 1700.34 419.771 1697.04 430.712C1698.15 437.175 1694.87 438.486 1689.06 438.617C1676.62 438.898 1664.15 437.437 1651.7 439.835C1646.19 440.903 1644.31 443.394 1644.48 448.602C1644.67 454.522 1644.14 460.48 1644.61 466.381C1645.14 472.994 1642 475.279 1635.97 475.56C1622.26 476.178 1608.49 475.017 1594.82 477.302C1590.21 478.071 1587.99 475.354 1588.13 470.615C1588.26 465.631 1587.96 460.629 1588.16 455.646C1588.39 449.858 1585.59 446.392 1580.08 446.317C1565.77 446.111 1551.45 446.279 1537.12 446.673C1532.07 446.804 1531.85 450.888 1531.85 454.916C1531.87 474.249 1531.77 493.601 1531.64 512.953C1531.6 516.868 1532.56 521.327 1527.01 522.844C1519.73 524.811 1512.08 526.984 1505.46 522.563C1501.69 520.034 1503.81 514.358 1503.72 510.105C1503.47 498.359 1500.14 494.968 1488.38 496.785C1480.26 498.041 1472.31 497.497 1464.22 497.441C1457.75 497.404 1456.82 495.081 1456.84 489.929C1456.89 478.389 1456.99 466.83 1456.61 455.29C1456.16 441.146 1455.32 440.509 1441.53 440.491C1416.54 440.453 1391.54 440.528 1366.54 440.416C1359.26 440.378 1354.07 441.952 1355.25 450.888C1355.48 452.668 1354.86 454.597 1354.41 456.414C1353.02 461.772 1356.64 468.928 1352.08 472.413C1347.2 476.141 1339.98 473.649 1333.82 473.799C1312.01 474.305 1314.76 471.776 1314.59 492.739C1314.52 501.169 1314.5 509.581 1314.54 518.011C1314.56 522.601 1314.71 526.722 1307.99 526.741C1301.65 526.741 1300.98 523.294 1301.05 518.348C1301.2 509.937 1301 501.506 1301.09 493.076C1301.17 486.201 1297.96 483.878 1291.17 484.29C1280.28 484.946 1269.32 484.702 1258.41 485.171C1253.16 485.395 1250.16 484.178 1250.1 478.183C1250.05 472.094 1246.59 469.846 1240.35 469.996C1223.79 470.352 1207.21 470.427 1190.67 469.959C1183.25 469.734 1180.85 472.113 1181.07 479.55C1181.46 493.114 1183.21 492.664 1168.11 492.795C1167.17 492.814 1166.24 492.814 1165.3 492.833C1149.45 492.964 1149.68 492.983 1149.3 508.532C1149.19 513.103 1152.32 520.071 1146.49 521.87C1139.53 524.006 1131.6 523.444 1124.29 521.664C1121.1 520.896 1122.49 517.73 1122.56 515.257C1123.57 486.875 1124.01 492.776 1100.98 492.702C1085.41 492.645 1069.77 491.671 1054.22 494.107C1049.35 494.875 1047.74 496.86 1047.96 501.319C1048.07 503.492 1047.96 505.684 1047.94 507.876C1047.83 523.818 1041.12 528.689 1025.57 524.493C1020.6 523.163 1021.78 519.435 1021.67 516.25C1021.11 499.802 1020.38 483.353 1020.38 466.905C1020.38 459.543 1017.77 456.958 1010.49 457.145C996.747 457.52 982.982 457.482 969.255 457.126C962.26 456.939 959.934 459.674 960.047 466.493C960.328 483.653 959.634 500.832 960.178 517.973C960.459 526.741 955.471 526.122 949.545 526.516C942.738 526.965 940.844 524.249 941.144 517.88C941.538 509.168 941.088 500.42 941.238 491.671C941.35 485.957 939.4 482.979 933.155 483.054C914.721 483.26 896.268 483.204 877.833 483.147C872.32 483.129 869.882 485.62 869.994 491.109C870.107 497.347 869.919 503.605 869.844 509.843C869.807 513.159 869.301 516.831 865.1 516.362C856.38 515.369 847.772 517.112 839.108 516.812C831.832 516.568 828.1 514.301 828.25 505.703C828.588 488.28 827.331 470.821 827.125 453.38C827.031 446.898 825.175 443.732 817.973 443.788C783.918 444.069 749.862 444.013 715.806 443.919C708.399 443.9 704.705 446.785 705.08 454.485C705.323 459.468 704.742 464.489 705.098 469.453C705.511 475.298 703.767 478.352 697.335 477.79C688.446 477.003 680.569 477.621 682.332 490.135C682.857 493.919 679.875 494.687 676.781 494.706C663.654 494.706 650.527 494.612 637.4 494.762C632.599 494.837 631.717 492.196 631.717 488.243C631.736 478.576 631.736 468.891 631.53 459.224C631.361 451.431 628.979 446.86 619.34 447.347C601.581 448.265 583.728 447.947 565.913 447.553C557.961 447.385 554.623 449.745 554.961 458.194C555.505 471.589 555.017 485.021 554.998 498.434C554.998 502.331 555.336 506.358 549.41 505.59C544.965 505.366 540.258 507.426 536.152 504.129C534.989 504.148 533.807 504.148 532.645 504.167C529.644 511.248 530.301 518.741 530.694 526.029C531.163 534.646 528.407 537.943 519.255 538C510.16 538.037 505.922 535.246 506.503 526.104C506.578 524.867 506.822 523.668 506.99 522.451C506.709 504.354 506.184 486.276 506.278 468.198C506.315 461.191 503.69 458.906 496.883 459.018C479.386 459.318 461.889 458.887 444.393 459.224C437.435 459.356 434.828 456.77 435.147 449.933C435.485 442.458 434.903 434.946 435.203 427.471C435.504 420.502 432.147 417.935 425.658 417.935C406.924 417.935 388.171 417.973 369.436 417.711C363.998 417.636 362.048 419.265 361.41 425.017C359.141 445.249 360.36 465.519 360.247 485.751C360.191 492.758 358.222 494.837 351.19 494.631C329.736 494.032 334.105 495.83 333.618 477.228C333.093 457.613 332.455 437.999 331.93 418.385C331.855 415.519 331.518 412.802 329.942 410.348C322.16 410.348 314.34 410.236 306.557 410.423C301.944 410.536 300.087 408.999 299.712 404.054C297.612 377.002 299.037 383.053 276.346 382.248C268.563 381.967 260.743 382.547 252.961 382.191C246.285 381.892 244.016 385.17 243.997 391.146C243.959 403.286 243.622 415.444 243.941 427.583C244.109 433.803 242.553 436.688 235.67 436.426C223.2 435.976 210.71 436.088 198.239 436.388C193.026 436.519 191.15 434.871 191.075 429.55C190.813 412.203 189.744 394.893 189.706 377.564C189.688 370.015 187.4 366.212 179.542 367.111C173.448 367.823 171.91 364.601 172.379 359.299C172.585 357.144 172.435 354.953 172.416 352.761C172.191 334.739 172.154 335.057 154.676 333.297C147.549 332.585 140.498 331.685 133.316 331.817C125.74 331.948 121.614 335.32 121.895 343.207C121.914 344.143 121.895 345.08 121.876 346.017C121.839 364.301 121.858 364.394 103.405 367.242C99.1102 367.898 97.4974 369.921 97.5537 374.024C97.7037 383.671 97.7037 393.338 97.76 402.986L97.7037 406.358V410.479C97.6662 433.466 97.6287 456.471 97.5724 479.476C92.3966 482.866 86.3206 482.623 80.6196 482.904C68.2051 483.485 55.753 482.96 43.3197 483.335C37.1124 483.522 35.0496 481.012 35.4246 475.073C36.4373 458.943 33.7556 442.87 34.0557 426.778C34.2244 417.973 30.6613 415.2 22.3725 415.762C14.9462 416.268 7.46374 415.893 0 415.893V76.982C6.07601 79.1364 12.1895 81.1222 18.7719 80.7662C20.4596 80.3916 21.6974 81.0473 22.5787 82.471H22.5975L24.6791 84.3444C25.2417 84.9439 25.8043 85.5433 26.3856 86.1428C27.7921 86.9296 28.561 88.0911 28.5422 89.7397H28.486C29.1048 90.3954 29.7237 91.0136 30.3425 91.6318C30.3425 91.6318 30.4738 91.5943 30.5113 91.5943C33.193 92.531 33.9619 94.7041 34.1494 97.2332C34.1494 97.2332 34.0557 97.3081 34.0369 97.3081C34.6558 97.9638 35.2183 98.582 35.856 99.2564C37.9188 100.624 39.1377 102.535 39.4941 104.97H39.4753C43.0196 109.41 46.3389 113.962 47.2954 119.751V119.789C49.452 121.1 50.4084 123.142 50.7647 125.559H50.7459C51.3648 126.795 52.0024 128.05 52.6212 129.287V129.324C52.6212 129.324 52.64 129.343 52.6587 129.343C52.6587 129.324 52.64 129.324 52.64 129.305C54.5153 130.729 54.6091 132.808 54.6653 134.907C54.6278 134.888 54.6091 134.869 54.5903 134.869C57.3095 137.342 56.5031 140.639 56.5219 143.655C57.047 191.37 57.5721 239.085 57.9471 286.799C58.0784 303.21 57.9096 303.21 74.7687 300.943C74.8624 276.215 74.8999 251.486 75.1062 226.758C75.125 223.536 73.7747 219.92 76.7565 217.129C86.6769 213.832 96.8786 216.398 106.911 215.63C110.587 215.349 114.281 215.312 117.976 215.162C117.976 214.656 118.088 214.15 118.313 213.682C118.37 174.791 118.576 135.9 118.351 97.0084C118.313 88.7655 121.389 85.7494 129.415 86.5362C133.71 86.9671 138.098 86.3676 142.449 86.2365C142.505 60.3652 142.767 34.494 142.486 8.62277C142.411 2.08471 144.455 0.0427416 150.963 0.0989427C178.117 0.379948 205.29 0.49235 232.426 0.00527424C240.621 -0.144595 242.196 2.89026 242.196 10.2901C242.159 95.3973 242.365 180.504 242.628 265.593C242.647 276.496 243.247 287.399 243.622 298.302C243.734 301.824 243.753 305.477 248.91 305.177C253.261 304.915 257.855 305.233 258.68 299.108C261.062 281.46 259.768 263.757 259.637 246.054C259.487 227.264 258.624 208.418 260.349 189.628C260.593 187.061 261.85 185.637 264.494 185.563C266.05 185.506 267.607 185.506 269.163 185.45C281.54 185.1 288.585 179.006 290.298 167.166C290.448 166.248 290.204 164.937 290.73 164.45C298.137 157.537 307.139 162.707 315.352 161.49C319.797 160.834 320.885 164.525 320.941 168.346C320.997 172.074 321.091 175.821 321.278 179.549C321.447 182.621 322.516 185.394 326.098 185.244C332.793 184.982 333.618 188.878 333.562 194.218C333.355 211.996 333.393 229.755 333.337 247.515C333.355 258.661 333.355 269.827 333.374 280.973C333.374 282.285 333.374 283.615 333.393 284.945C333.562 300.475 333.918 316.005 333.805 331.517C333.768 337.043 335.474 339.629 341.25 339.179C355.109 338.074 369.005 342.139 382.864 339.067C383.351 326.309 384.026 313.57 384.233 300.812C384.308 295.604 386.352 293.506 391.434 293.581C410.468 293.806 429.521 294.031 448.556 294.012C455.007 293.993 455.288 297.983 455.326 302.667C455.476 321.682 455.663 340.696 455.888 359.692C455.944 363.42 456.282 367.148 456.488 370.876C464.983 371.12 473.46 371.345 481.955 371.588C482.686 372.506 483.568 374.286 484.168 374.211C498.495 372.169 497.445 381.648 496.901 390.884C496.714 393.975 496.489 397.141 496.958 400.176C497.764 405.384 494.295 411.36 499.602 415.818C527.938 403.548 555.542 389.779 582.397 374.548C590.536 369.94 599.162 365.537 605.876 359.243C619.584 346.391 636.724 343.937 653.846 341.221C665.004 339.46 675.412 343.731 685.614 347.665C697.822 352.405 709.768 357.781 722.708 360.498C730.284 362.09 735.985 367.523 741.629 372.244C754.963 383.428 770.659 387.624 787.312 389.479C801.564 391.071 815.892 391.952 830.144 393.656C847.116 395.698 860.618 406.133 875.208 413.683C892.948 422.844 892.479 423.481 892.742 403.885C892.911 390.172 893.867 376.478 893.811 362.765C893.773 356.826 896.699 354.896 901.537 354.615C907.444 354.26 913.408 354.128 919.334 354.466C925.485 354.822 927.454 351.974 927.904 346.26C929.329 328.107 929.479 328.126 948.082 328.182C957.14 328.22 966.198 328.463 975.256 328.145C982.251 327.882 984.52 330.917 984.463 337.643C984.238 360.104 984.463 382.585 984.463 405.047C984.476 413.614 988.62 417.885 996.897 417.86C1008.47 417.842 1020.02 418.104 1031.57 417.823C1037.95 417.673 1040.8 419.977 1040.5 426.497C1040.22 432.735 1040.74 438.992 1040.54 445.212C1040.35 450.157 1042.32 452.049 1047.17 451.45C1058.31 450.082 1069.47 448.94 1080.61 447.497C1086.31 446.748 1085.71 442.139 1085.73 438.093C1085.84 408.437 1085.94 378.801 1086.09 349.164C1086.18 333.54 1086.24 333.559 1101.46 333.503C1123.01 333.428 1144.58 333.578 1166.12 333.128C1173.46 332.978 1175.84 335.376 1175.86 342.757C1175.95 369.565 1176.89 396.373 1177.1 423.2C1177.15 429.944 1178.56 431.386 1184.92 428.201C1199.71 420.858 1214.71 413.926 1228.89 405.384C1238.7 399.464 1248.81 399.089 1259.42 403.08C1276.36 409.468 1293.42 415.463 1310.32 421.944C1317.39 424.661 1320.39 423.855 1320.44 415.256C1320.56 395.286 1320.93 395.286 1341.15 395.268C1354.89 395.249 1368.64 395.099 1382.39 395.38C1387.71 395.492 1389.53 393.582 1389.44 388.355C1389.19 375.878 1389.66 363.383 1389.31 350.906C1389.12 344.2 1391.27 341.389 1398.36 341.464C1421.17 341.745 1443.97 341.614 1466.77 341.389C1474.44 341.315 1477.39 344.555 1477.11 352.161C1476.7 363.064 1477.05 374.005 1476.86 384.908C1476.79 389.629 1478.03 391.802 1483.37 390.959C1489.2 390.041 1495.17 390.022 1501.09 389.61L1501.77 386.126C1501.79 384.177 1501.81 382.21 1501.81 380.262C1501 353.566 1502.61 326.852 1500.76 300.175C1500.44 295.642 1501.99 292.42 1507.66 292.588C1519.77 292.963 1531.9 293 1544.04 293.169C1551.78 293.281 1554.54 296.972 1554.6 304.859C1554.71 321.288 1553 337.793 1556.15 354.128C1556.86 354.222 1557.58 354.316 1558.27 354.391C1570.44 354.297 1582.61 354.428 1594.76 353.979C1601.23 353.716 1603.79 356.02 1603.48 362.54C1603.22 367.804 1603.92 373.087 1604.18 378.37H1604.97C1625.07 378.501 1621.83 379.007 1621.9 361.491C1621.94 347.553 1621.9 333.596 1621.39 319.658C1621.17 313.308 1623.12 310.647 1629.74 310.91C1639.02 311.303 1648.34 311.022 1657.66 310.966C1661.32 310.947 1665.16 311.753 1668.33 309.018C1668.52 308.437 1668.78 307.875 1669.12 307.369C1669.16 303.566 1669.18 299.744 1669.2 295.942V292.42C1669.2 286.725 1669.2 281.03 1669.16 275.316C1669.16 271.044 1669.14 266.754 1669.14 262.483V247.253C1669.16 244.199 1669.16 241.164 1669.14 238.129V226.646C1669.14 218.609 1669.14 210.591 1669.16 202.573C1669.16 200.606 1669.16 198.639 1669.18 196.672C1669.16 181.778 1669.16 166.904 1669.14 152.01C1669.16 150.68 1669.16 149.35 1669.16 148.02C1669.2 146.241 1669.23 144.461 1669.29 142.662C1667.73 134.85 1671.11 131.853 1678.87 132.003C1687.91 132.172 1696.97 131.385 1706.03 131.478C1711.26 131.535 1713.66 130.542 1713.88 124.36C1714.56 105.12 1714.9 105.307 1734.08 104.783C1751.24 104.333 1768.42 104.989 1785.58 103.49C1797.26 102.46 1798.54 103.94 1798.54 115.499C1798.55 185.375 1798.52 255.252 1798.54 325.147C1798.54 334.402 1807.63 339.404 1816.11 334.926C1819.84 332.941 1818.36 329.419 1818.4 326.571C1818.68 304.109 1818.64 281.648 1818.94 259.186C1819.11 245.791 1819.97 232.397 1819.99 219.002C1819.99 212.408 1821.73 208.923 1829.01 209.898C1834.17 210.591 1838.26 209.298 1839.21 203.154C1839.85 199.032 1843.34 198.995 1846.51 198.976C1857.12 198.901 1867.74 198.901 1878.37 198.92C1880.81 198.92 1884.11 198.451 1884.46 201.711C1885.36 210.01 1890.78 210.684 1897.2 209.898C1904.72 208.98 1906.93 212.352 1906.87 219.583C1906.59 252.948 1906.74 286.331 1906.72 319.715C1906.72 334.833 1905.02 333.315 1919.98 333.503H1920Z" fill="#66C7A6"/>
</svg>
