<svg width="101" height="100" viewBox="0 0 101 100" fill="none" xmlns="http://www.w3.org/2000/svg">
<path d="M70.6725 99.9999H29.4585C29.4115 99.3307 29.3372 98.7085 29.3333 98.0824C29.3254 90.7138 29.3059 83.3413 29.3333 75.9727C29.3646 67.8372 34.53 62.6326 42.65 62.6287C48.512 62.6287 54.3935 62.5034 60.232 62.9261C65.554 63.3135 70.3282 67.8019 70.563 73.0574C70.9582 81.96 70.6725 90.8899 70.6725 99.9999Z" fill="#E47D07"/>
<path d="M5.20829 41.9982C3.50604 39.8186 1.94858 37.8268 0.285461 35.6941C0.90375 35.1462 1.44768 34.6101 2.04249 34.1444C15.1244 23.8957 28.2063 13.6509 41.2999 3.42175C47.2754 -1.24672 53.153 -1.09019 59.0933 3.59784C72.1752 13.9248 85.3197 24.1696 98.4407 34.4536C98.8908 34.8058 99.329 35.1775 99.9004 35.6432C98.249 37.7681 96.6641 39.8069 94.9423 42.0178C91.6474 39.4429 88.4346 36.9424 85.2297 34.4301C74.7775 26.2397 64.337 18.0337 53.8809 9.85117C50.989 7.58933 49.2907 7.57759 46.3519 9.87073C33.5087 19.8964 20.6812 29.9455 7.84971 39.9829C7.03185 40.6247 6.19833 41.2469 5.2122 41.9982H5.20829Z" fill="#E47D07"/>
<path d="M100.069 99.9646H79.5594V74.9788C83.2887 75.1783 86.9593 75.0335 90.5008 75.6401C95.9323 76.5675 99.7712 81.3769 100.033 87.2271C100.221 91.3869 100.069 95.5623 100.069 99.9686V99.9646Z" fill="#E47D07"/>
<path d="M0.0584782 99.9609C0.0584782 95.625 -0.0941268 91.5162 0.0937077 87.4229C0.410678 80.4104 5.30611 75.5659 12.3382 75.1824C14.9991 75.0376 17.6758 75.1589 20.5324 75.1589V99.9609H0.0623953H0.0584782Z" fill="#E47D07"/>
<path d="M49.9051 54.0236C44.1409 53.8905 39.6955 49.2768 39.809 43.5557C39.9264 37.7915 44.5518 33.3383 50.269 33.4752C56.0567 33.6161 60.4669 38.1946 60.3456 43.9353C60.2243 49.6955 55.6106 54.1566 49.9051 54.0236Z" fill="#E47D07"/>
<path d="M18.8576 66.5536C13.1091 66.5967 8.56194 62.12 8.49542 56.3519C8.42889 50.619 12.9408 46.0406 18.6893 46.0014C24.4535 45.9662 28.9654 50.4077 29.0359 56.1954C29.1024 61.9282 24.6022 66.5106 18.8615 66.5536H18.8576Z" fill="#E47D07"/>
<path d="M81.2421 66.5537C75.4819 66.4363 71.0247 61.8305 71.1226 56.1054C71.2243 50.3491 75.8458 45.8763 81.563 46.0054C87.3507 46.1345 91.7687 50.6974 91.663 56.4459C91.5574 62.2022 86.9476 66.675 81.2421 66.5576V66.5537Z" fill="#E47D07"/>
</svg>
