<svg width="100" height="100" viewBox="0 0 100 100" fill="none" xmlns="http://www.w3.org/2000/svg">
<path d="M90.8483 47.7903C93.1087 49.3632 95.1961 50.8144 97.4958 52.4108C96.804 53.4463 96.1514 54.4582 95.4595 55.4466C91.1903 61.5458 86.8975 67.6293 82.6518 73.7442C81.9953 74.6934 81.2877 75.1091 80.0887 75.0895C75.7762 75.0111 71.4598 75.0581 66.9154 75.0581V100H33.6735V75.0581C29.4554 75.0581 25.54 74.913 21.6481 75.1131C19.4742 75.2268 18.2359 74.4659 17.0447 72.7087C12.8384 66.484 8.46301 60.377 4.15446 54.2229C3.78494 53.6934 3.42327 53.1599 2.93581 52.4539C5.13332 50.9085 7.25222 49.422 9.58339 47.7825C11.3957 50.3516 13.149 52.8265 14.8944 55.3094C17.2609 58.6786 19.655 62.0243 21.9508 65.4367C22.6977 66.5507 23.5587 66.9194 24.8756 66.9154C41.7717 66.8762 58.6639 66.8762 75.56 66.9154C76.8651 66.9154 77.7025 66.5585 78.469 65.4446C82.4985 59.5847 86.6262 53.7875 90.8443 47.7864L90.8483 47.7903Z" fill="#E47D07"/>
<path d="M63.283 12.9601C64.769 10.4067 66.0702 8.16315 67.4265 5.82938C68.8495 6.61777 70.2018 7.36693 71.3419 8.00234C73.2249 6.96685 74.9625 6.07257 76.6214 5.05277C77.0696 4.77821 77.4981 4.15456 77.561 3.64466C77.7025 2.49935 77.6042 1.32266 77.6042 0.0322266H85.6906C85.5412 2.69547 85.7339 4.7233 88.7884 6.35497C91.721 7.92389 93.5647 7.57873 95.8212 5.66073C97.2639 8.17492 98.5494 10.4185 100 12.9405C97.1224 13.925 96.0413 15.5018 95.9588 18.7337C95.8723 22.0755 97.4369 23.2836 99.9646 24.4564C98.5337 26.9235 97.2443 29.1553 95.8173 31.6185C93.4704 29.626 91.5913 29.4259 88.7058 31.0341C85.7771 32.6618 85.4705 34.5602 85.7338 37.2901H77.962C77.8558 37.1176 77.7182 36.9999 77.7339 36.9058C78.2018 33.7875 77.0145 31.7675 73.9247 30.8027C73.0913 30.5438 72.4072 29.8064 71.562 29.222C70.2962 29.9162 68.9871 30.634 67.45 31.4773C66.1213 29.1906 64.8004 26.9235 63.3498 24.4328C65.8619 23.2483 67.5169 22.1501 67.3911 18.7494C67.2731 15.5724 66.3179 14.0074 63.2791 12.964L63.283 12.9601ZM88.0218 18.7612C88.0611 15.2351 85.2739 12.36 81.7791 12.3208C78.2411 12.2816 75.3359 15.0782 75.3084 18.5455C75.2809 22.0834 78.0681 24.9624 81.5511 24.9937C85.0734 25.0251 87.9825 22.2246 88.0218 18.7612Z" fill="#E47D07"/>
<path d="M14.4462 24.8566C12.2212 24.8566 9.98437 25.0057 7.78292 24.7978C6.57999 24.684 5.12153 24.2761 4.3235 23.4642C0.588905 19.6753 -1.03073 15.1411 0.683253 9.89305C2.42476 4.54303 6.19474 1.3189 11.7337 0.267725C21.2314 -1.52869 28.9994 5.9982 28.9876 14.3723C28.9876 17.3101 28.0677 19.8792 26.224 22.111C24.7144 23.9349 22.9297 25.1586 20.3272 24.8958C18.3853 24.6997 16.4079 24.8566 14.4462 24.8566Z" fill="#E47D07"/>
<path d="M50.2591 41.8324C56.0143 41.8598 60.5823 46.4489 60.5469 52.1676C60.5115 57.8903 55.916 62.4715 50.1922 62.4872C44.5392 62.5068 39.9398 57.855 39.9044 52.0853C39.8729 46.3822 44.4921 41.8049 50.2591 41.8285V41.8324Z" fill="#E47D07"/>
<path d="M46.1667 5.34717C50.2551 9.33222 54.0683 12.9643 57.7636 16.7101C58.829 17.7887 58.884 19.44 57.8383 20.4794C54.0605 24.2291 50.1254 27.8141 46.1667 31.5442C46.1667 30.0851 46.1667 28.4299 46.1667 26.7786C46.1667 24.0591 44.7725 22.6994 41.984 22.6994C40.6316 22.6994 39.2793 22.6994 37.8248 22.6994V14.6077C39.7982 14.6077 41.6695 14.6077 43.5407 14.6077C45.2861 14.6051 46.1615 13.7056 46.1667 11.9092C46.1667 9.83428 46.1667 7.75546 46.1667 5.34717Z" fill="#E47D07"/>
<path d="M20.5906 29.4067V37.2631H8.3726V29.4067H20.5867H20.5906Z" fill="#E47D07"/>
</svg>
