<svg width="101" height="100" viewBox="0 0 101 100" fill="none" xmlns="http://www.w3.org/2000/svg">
<path d="M62.6741 66.5909C60.1831 66.5909 57.9741 66.5674 55.7651 66.6026C54.6606 66.6183 54.5079 65.9877 54.5157 65.0947C54.5353 62.028 54.4687 58.9574 54.547 55.8906C54.5823 54.5551 54.175 53.9871 52.7846 54.0537C51.0926 54.1399 49.3888 54.1321 47.6968 54.0537C46.3613 53.9911 45.8481 54.4493 45.8873 55.8397C45.9735 58.8399 45.8481 61.8478 45.9382 64.8441C45.9813 66.2462 45.4526 66.6692 44.1248 66.6183C42.1117 66.54 40.0907 66.5987 37.7564 66.5987C37.7564 65.741 37.7564 65.0556 37.7564 64.3701C37.7564 54.512 37.7917 44.6577 37.7055 34.8035C37.6977 33.7616 37.2237 32.5083 36.5383 31.7289C30.9375 25.3604 25.2349 19.086 19.5675 12.7802C19.0897 12.2515 18.6432 11.6953 18.0792 11.0256C20.061 9.23565 21.9762 7.50058 24.052 5.62451C27.3185 9.23173 30.5028 12.741 33.6792 16.2543C36.0409 18.8667 38.3478 21.53 40.7761 24.0758C41.2814 24.6045 42.2057 24.9844 42.942 24.9962C47.7713 25.0784 52.6044 25.1254 57.4297 24.9649C58.4128 24.9335 59.5799 24.162 60.2888 23.3904C65.2316 18.0168 70.0804 12.557 74.9606 7.12458C75.3522 6.68984 75.7792 6.28642 76.3745 5.67934C78.3759 7.4575 80.342 9.20432 82.4178 11.0491C78.0939 15.8626 73.8757 20.5586 69.6574 25.2547C67.6521 27.4833 65.5645 29.6492 63.665 31.9678C63.0775 32.6885 62.725 33.8165 62.7211 34.7604C62.6545 44.552 62.678 54.3436 62.678 64.1312C62.678 64.8401 62.678 65.5451 62.678 66.5909H62.6741Z" fill="#E47D07"/>
<path d="M66.5672 99.9804H33.6361C33.6361 97.8654 33.6361 95.864 33.6361 93.8587C33.6361 90.5296 33.593 87.2044 33.6478 83.8752C33.7379 78.5408 37.0397 75.2469 42.3937 75.1842C47.6146 75.1254 52.8355 75.1254 58.0524 75.1842C63.0696 75.239 66.5398 78.3175 66.7082 83.1311C66.8923 88.4107 66.7591 93.6981 66.7513 98.9817C66.7513 99.2872 66.6377 99.5966 66.5594 99.9726L66.5672 99.9804Z" fill="#E47D07"/>
<path d="M25.0508 99.9961H0C0.180165 95.9268 0.090077 91.8339 0.630574 87.8232C0.971321 85.297 3.1137 83.793 5.69476 83.7068C10.2537 83.5541 14.8245 83.5345 19.3835 83.699C22.6068 83.8165 24.9216 86.3232 25.0273 89.5896C25.137 92.9775 25.0508 96.3693 25.0508 99.9961Z" fill="#E47D07"/>
<path d="M50.1722 20.6254C44.4578 20.6058 39.8871 16.0076 39.9223 10.3089C39.9576 4.6024 44.6184 -0.0466464 50.2505 0.000353249C55.9492 0.0512695 60.4847 4.6494 60.4847 10.3755C60.4847 16.0899 55.8983 20.6449 50.1683 20.6254H50.1722Z" fill="#E47D07"/>
<path d="M100.258 100H75.4188C75.4188 97.6501 75.2425 95.3745 75.4619 93.1342C75.7713 89.9852 78.321 87.7997 81.6306 87.7292C85.7313 87.6431 89.8399 87.647 93.9406 87.7371C97.6653 87.8193 100.113 90.3299 100.242 94.0664C100.309 96.0012 100.254 97.9399 100.254 99.9961L100.258 100Z" fill="#E47D07"/>
</svg>
