<svg width="35" height="40" viewBox="0 0 35 40" fill="none" xmlns="http://www.w3.org/2000/svg">
<path d="M14.3201 14.8102V21.6906C13.8847 21.6357 13.5043 21.5666 13.1208 21.5431C10.6483 21.3894 8.45403 22.7055 7.36475 24.9849C6.40121 27.0007 6.81303 29.5341 8.38644 31.2566C10.0322 33.0606 12.4512 33.6504 14.7634 32.8127C17.1274 31.9562 18.5578 29.7396 18.5594 26.8814C18.5641 18.3069 18.5609 9.73228 18.5609 1.15614C18.5609 0.792198 18.5609 0.429827 18.5609 0H25.2774C25.4613 0.922402 25.5729 1.88402 25.8495 2.79387C26.9876 6.53839 30.4032 9.19579 34.3626 9.51894C34.5858 9.53776 34.9678 9.81386 34.9709 9.977C35.0118 12.0634 34.9976 14.1513 34.9976 16.346C31.4751 16.3444 28.3755 15.2855 25.3686 13.2509C25.3686 13.7215 25.3686 14.0164 25.3686 14.3098C25.3623 18.859 25.4157 23.4083 25.3371 27.956C25.235 33.8324 20.4534 39.0813 14.5983 39.8735C8.15852 40.7441 2.40403 37.0545 0.5194 30.844C-1.70632 23.5071 3.48074 15.6432 11.1214 14.8243C12.151 14.7145 13.201 14.8086 14.3186 14.8086L14.3201 14.8102Z" fill="#FEBC20"/>
</svg>
