<svg width="36" height="36" viewBox="0 0 36 36" fill="none" xmlns="http://www.w3.org/2000/svg">
<path d="M31.4345 25.4077C32.1802 26.1987 32.7834 26.834 33.3823 27.4737C34.1209 28.2618 34.8551 29.0528 35.5936 29.8394C36.05 30.3264 36.1623 30.9041 35.7217 31.3983C34.3728 32.9125 32.9706 34.3792 31.4647 36V32.2382H3.82224V4.5819H0C0.630562 3.98687 1.10564 3.53448 1.5836 3.08641C2.52801 2.20036 3.46665 1.30567 4.42113 0.431139C5.02002 -0.117781 5.54981 -0.153799 6.14582 0.387917C7.59985 1.70763 9.02077 3.06336 10.6001 4.53867H6.85412V26.8729C7.11613 26.4681 7.27881 26.2333 7.42565 25.9883C9.36485 22.7438 10.41 19.1593 11.448 15.5632C12.1649 13.0794 12.9179 10.5898 14.3258 8.37967C14.644 7.87974 15.0298 7.39709 15.4747 7.00953C16.9863 5.6927 18.9413 5.91314 20.273 7.55413C20.738 8.1261 21.1828 8.75282 21.4664 9.42709C22.3029 11.4081 23.0529 13.4266 23.862 15.4911C22.9435 15.4335 22.1863 15.3355 21.4319 15.3499C19.5316 15.3874 17.9782 16.2749 16.8452 17.707C15.7367 19.1074 14.7822 20.6461 13.894 22.2006C12.5594 24.5375 11.222 26.86 9.3922 28.8583C9.33461 28.9202 9.31158 29.0139 9.25255 29.1363C10.3712 29.1363 11.4552 29.2617 12.4889 29.0859C13.046 28.9908 13.6722 28.4851 13.9947 27.9866C15.1896 26.1382 16.2204 24.1845 17.4124 22.3346C18.1322 21.2181 18.9356 20.1173 19.8785 19.1938C20.905 18.1882 22.4742 18.23 23.6533 19.0742C25.0871 20.1015 25.8415 21.6503 26.6981 23.1198C27.6252 24.7133 28.548 26.3111 29.5284 27.8714C29.9344 28.5183 30.5016 29.0528 31.4345 29.1796V25.4077Z" fill="#E47D07"/>
</svg>
