<svg width="26" height="36" viewBox="0 0 26 36" fill="none" xmlns="http://www.w3.org/2000/svg">
<path d="M14.4714 13.3047C17.445 13.3047 20.0988 13.3171 22.7557 13.2985C23.995 13.2892 25.1727 13.4443 25.7508 14.7132C26.2982 15.917 25.88 16.9781 25.1143 18.0081C20.9906 23.5276 16.9038 29.0749 12.8016 34.6099C12.5864 34.8984 12.4172 35.3297 12.1312 35.4352C11.3871 35.7082 10.5168 36.1333 9.83415 35.9595C8.81629 35.6958 8.61948 34.6999 8.89009 33.6729C9.64964 30.7845 10.3938 27.8898 11.1411 24.9982C11.2825 24.4552 11.4055 23.9092 11.587 23.1553C10.935 23.1056 10.403 23.0343 9.87412 23.0312C7.5186 23.0157 5.16 23.0746 2.80755 23.0033C0.639606 22.9381 -0.501255 21.3744 0.212167 19.305C2.09105 13.8507 4.04681 8.42126 6.03948 3.0073C6.78057 0.996849 8.39808 0.0878009 10.4768 0.0350575C12.0113 -0.00527569 13.5519 -0.0176859 15.0864 0.0350575C17.4819 0.121929 18.6781 1.88108 17.8632 4.18007C16.8208 7.1306 15.6861 10.047 14.4683 13.3047H14.4714Z" fill="#E47D07"/>
</svg>
